<?xml version="1.0" encoding="utf-8"?>
<!-- Generator: Adobe Illustrator 24.2.1, SVG Export Plug-In . SVG Version: 6.00 Build 0)  -->
<svg version="1.1" id="Layer_1" xmlns="http://www.w3.org/2000/svg" xmlns:xlink="http://www.w3.org/1999/xlink" x="0px" y="0px"
	 viewBox="0 0 65 65" style="enable-background:new 0 0 65 65;" xml:space="preserve">
<style type="text/css">
	.st0{fill:#1D1D1D;}
</style>
<g>
	<g>
		<g>
			<path class="st0" d="M20.2,19.5c0-0.1-0.2-0.2,0.1-0.2c0.8-0.1,1.4,0.2,2.1,0.1c0-0.1,0-0.1,0.1-0.2c0.6,0.1,1.2,0.2,1.8,0.2
				c1.2,0,2.3-0.1,3.5-0.1c0-0.1,0-0.1,0.1-0.1c0.5,0,1.1,0,1.8,0c0.1,0,0.2,0,0.3,0c0.1,0,0.1-0.1,0.1-0.1c0.3,0,0.6,0,0.8,0
				c3.4-0.3,6.8-0.7,10.5-1.1c0.8-0.2,1.6-0.3,2.3-0.4c1.1-0.1,2.5,0,3.6,0.1c-0.2-0.6,2.5-0.9,2-1.4c0.7,0,1.8,0,1.9-0.1
				c0.2-0.5,0.7-1.1,2.7-1.3c0.8-0.1,1.9,0.1,2.2,0c0.4-0.2-1-0.3-0.6-0.5c-5.6-0.2-11,0-16.7,0c-1.9,0.3-14.9,0.4-18.3,0.3
				c-0.1,0-0.2,0-0.3,0c-1.8,0-4,0-5.6,0.2c-0.7,0.1-1.4,0.3-2.1,0.5c0.3,0.1,0.6,0.2,0.9,0.3c-0.7,0-1.5,0-1.7,0.1
				c-1.6,0.2-0.7,0.5-0.1,0.9c0.4,0.2-0.2,0.4,0.5,0.6c-0.5,0-0.7,0-1.2,0c-0.1,0.2,1.5-0.1,1.2,0.2c-0.5-0.1-1,0-1.5,0
				c0.2,0.2,1.7,0.1,1.6,0.3c-0.3,0.1-1.4-0.3-1.5,0c0,0.1,0.5,0.1,0.7,0.1c-1.5,0.1-2.3,0.3-1,0.6c-0.5,0-1.1-0.1-1.6-0.1
				c0,0,0,0,0,0c0.2,0,0.7,0.1,0.9,0.1c-0.3,0-0.6,0-0.9,0c0,0,0.1,0.1,0.1,0.1c0.2,0,0.4,0.1,0.6,0.1c-0.2,0-0.4,0-0.6,0
				c0.1,0.1,0.3,0.2,0.5,0.3c0.7,0.2,1.3,0.4,1.7,0.4C14.3,19.4,17.2,19.4,20.2,19.5z"/>
		</g>
	</g>
</g>
<g>
	<g>
		<g>
			<path class="st0" d="M44.8,29.5c0,0.1,0.2,0.2-0.1,0.2c-0.8,0.1-1.4-0.2-2.1-0.1c0,0.1,0,0.1-0.1,0.2c-0.6-0.1-1.2-0.2-1.8-0.2
				c-1.2,0-2.3,0.1-3.5,0.1c0,0.1,0,0.1-0.1,0.1c-0.5,0-1.1,0-1.8,0c-0.1,0-0.2,0-0.3,0c-0.1,0-0.1,0.1-0.1,0.1c-0.3,0-0.6,0-0.8,0
				c-3.4,0.3-6.8,0.7-10.5,1.1c-0.8,0.2-1.6,0.3-2.3,0.4c-1.1,0.1-2.5,0-3.6-0.1c0.2,0.6-2.5,0.9-2,1.4c-0.7,0-1.8,0-1.9,0.1
				c-0.2,0.5-0.7,1.1-2.7,1.3c-0.8,0.1-1.9-0.1-2.2,0c-0.4,0.2,1,0.3,0.6,0.5c5.6,0.2,11,0,16.7,0c1.9-0.3,14.9-0.4,18.3-0.3
				c0.1,0,0.2,0,0.3,0c1.8,0,4,0,5.6-0.2c0.7-0.1,1.4-0.3,2.1-0.5c-0.3-0.1-0.6-0.2-0.9-0.3c0.7,0,1.5,0,1.7-0.1
				c1.6-0.2,0.7-0.5,0.1-0.9c-0.4-0.2,0.2-0.4-0.5-0.6c0.5,0,0.7,0,1.2,0c0.1-0.2-1.5,0.1-1.2-0.2c0.5,0.1,1,0,1.5,0
				c-0.2-0.2-1.7-0.1-1.6-0.3c0.3-0.1,1.4,0.3,1.5,0c0-0.1-0.5-0.1-0.7-0.1c1.5-0.1,2.3-0.3,1-0.6c0.5,0,1.1,0.1,1.6,0.1
				c0,0,0,0,0,0c-0.2,0-0.7-0.1-0.9-0.1c0.3,0,0.6,0,0.9,0c0,0-0.1-0.1-0.1-0.1c-0.2,0-0.4-0.1-0.6-0.1c0.2,0,0.4,0,0.6,0
				c-0.1-0.1-0.3-0.2-0.5-0.3c-0.7-0.2-1.3-0.4-1.7-0.4C50.7,29.6,47.8,29.5,44.8,29.5z"/>
		</g>
	</g>
</g>
<g>
	<g>
		<g>
			<path class="st0" d="M20.2,49.8c0-0.1-0.2-0.2,0.1-0.2c0.8-0.1,1.4,0.2,2.1,0.1c0-0.1,0-0.1,0.1-0.2c0.6,0.1,1.2,0.2,1.8,0.2
				c1.2,0,2.3-0.1,3.5-0.1c0-0.1,0-0.1,0.1-0.1c0.5,0,1.1,0,1.8,0c0.1,0,0.2,0,0.3,0c0.1,0,0.1-0.1,0.1-0.1c0.3,0,0.6,0,0.8,0
				c3.4-0.3,6.8-0.7,10.5-1.1c0.8-0.2,1.6-0.3,2.3-0.4c1.1-0.1,2.5,0,3.6,0.1c-0.2-0.6,2.5-0.9,2-1.4c0.7,0,1.8,0,1.9-0.1
				c0.2-0.5,0.7-1.1,2.7-1.3c0.8-0.1,1.9,0.1,2.2,0c0.4-0.2-1-0.3-0.6-0.5c-5.6-0.2-11,0-16.7,0c-1.9,0.3-14.9,0.4-18.3,0.3
				c-0.1,0-0.2,0-0.3,0c-1.8,0-4,0-5.6,0.2c-0.7,0.1-1.4,0.3-2.1,0.5c0.3,0.1,0.6,0.2,0.9,0.3c-0.7,0-1.5,0-1.7,0.1
				c-1.6,0.2-0.7,0.5-0.1,0.9c0.4,0.2-0.2,0.4,0.5,0.6c-0.5,0-0.7,0-1.2,0c-0.1,0.2,1.5-0.1,1.2,0.2c-0.5-0.1-1,0-1.5,0
				c0.2,0.2,1.7,0.1,1.6,0.3c-0.3,0.1-1.4-0.3-1.5,0c0,0.1,0.5,0.1,0.7,0.1c-1.5,0.1-2.3,0.3-1,0.6c-0.5,0-1.1-0.1-1.6-0.1
				c0,0,0,0,0,0c0.2,0,0.7,0.1,0.9,0.1c-0.3,0-0.6,0-0.9,0c0,0,0.1,0.1,0.1,0.1c0.2,0,0.4,0.1,0.6,0.1c-0.2,0-0.4,0-0.6,0
				c0.1,0.1,0.3,0.2,0.5,0.3c0.7,0.2,1.3,0.4,1.7,0.4C14.3,49.7,17.2,49.8,20.2,49.8z"/>
		</g>
	</g>
</g>
</svg>
