<?xml version="1.0" encoding="utf-8"?>
<!-- Generator: Adobe Illustrator 24.2.1, SVG Export Plug-In . SVG Version: 6.00 Build 0)  -->
<svg version="1.1" id="Layer_1" xmlns="http://www.w3.org/2000/svg" xmlns:xlink="http://www.w3.org/1999/xlink" x="0px" y="0px"
	 viewBox="0 0 246.6 202.2" style="enable-background:new 0 0 246.6 202.2;" xml:space="preserve">
<style type="text/css">
	.st0{fill:#131313;}
</style>
<g>
	<path class="st0" d="M126.3,81.8c-0.4,0.4-0.4,1.5-0.9,2.1l-0.1-0.1c0-0.2,0-0.3,0.1-0.4l-0.2-0.2c0,0,0,0,0,0
		c0.2-0.5,0.3-1,0.3-1.6c0-1.5-0.9-2.8-2.1-3.4c0,0,0,0,0,0l-0.1,0c-0.1,0-0.1-0.1-0.2-0.1c0,0,0-0.1,0-0.1
		c-0.3-0.2-0.5-0.7-0.9-0.9c-0.3,0.1-0.6,0.1-1.1-0.1l0,0.1c-1.5,0.3-3.3,1.3-4,3.2c-0.3,0.9-0.4,2,0,3c0.3,1,1,1.8,1.9,2.4
		l-0.4,0.4c1.2,0.4,2.5,0.5,3.4,0c-0.1,0-0.2,0-0.4-0.1c0.3-0.3,1-0.6,1.5-0.8l0,0.1c-0.6,0.3,0.1,0-0.1,0.5l-0.1,0.1l0.1,0l0.1-0.1
		c0,0.1,0.1,0.2,0,0.2l0.2,0c0.5,0.2,0.7,0.4,0.8,0.8c0.1-0.1-0.2-0.4,0.3-0.5l0,0.1c0.1-0.2,0.2-0.3,0.3-0.5c0.1,0,0.2,0,0.3,0
		c0.1-0.2,0.1-0.3,0.3-0.5l-0.1-0.2c0.3-0.3,0.6-0.7,0.8-1.1c0.2-0.5,0.3-0.9,0.5-1.3c-0.2-0.2,0.2-0.6,0-1.1L126.3,81.8z
		 M124.3,84.4c0.1-0.1,0.2-0.2,0.2-0.3c0,0.1-0.1,0.2-0.1,0.3C124.3,84.4,124.3,84.4,124.3,84.4z"/>
	<path class="st0" d="M159.1,85.7l-0.4,0.4c1.2,0.4,2.5,0.5,3.4,0c-0.1,0-0.2,0-0.4-0.1c0.3-0.3,1-0.6,1.5-0.8l0,0.1
		c-0.6,0.3,0.1,0-0.1,0.5l-0.1,0.1l0.1,0l0.1-0.1c0,0.1,0.1,0.2-0.1,0.2l0.2,0c0.5,0.2,0.7,0.4,0.8,0.8c0.1-0.1-0.2-0.4,0.3-0.5
		l0,0.1c0.1-0.2,0.2-0.3,0.3-0.5c0.1,0,0.2,0,0.3,0c0.1-0.2,0.1-0.3,0.3-0.5l-0.1-0.2c0.3-0.3,0.6-0.7,0.8-1.1
		c0.2-0.5,0.3-0.9,0.5-1.3c-0.2-0.2,0.2-0.6,0-1.1l-0.3,0.2c-0.4,0.4-0.4,1.5-0.9,2.1l-0.1-0.1c0-0.2,0-0.3,0.1-0.4l-0.2-0.2
		c0,0,0,0,0,0c0.2-0.5,0.3-1,0.3-1.6c0-1.5-0.9-2.8-2.1-3.4c0,0,0,0,0,0l-0.1,0c-0.1,0-0.1-0.1-0.2-0.1c0-0.1,0-0.1,0-0.1
		c-0.3-0.2-0.5-0.7-0.9-0.9c-0.3,0.1-0.6,0.1-1.1-0.1l0,0.1c-1.5,0.3-3.3,1.3-3.9,3.2c-0.3,0.9-0.4,2,0,3
		C157.5,84.3,158.2,85.1,159.1,85.7z M164.4,84.4c0,0-0.1,0-0.1,0c0.1-0.1,0.2-0.2,0.2-0.3C164.5,84.3,164.4,84.4,164.4,84.4z"/>
	<path class="st0" d="M206.6,81.6l-0.3,0.2c-0.4,0.4-0.4,1.5-0.9,2.1l-0.1-0.1c0-0.2,0-0.3,0.1-0.4l-0.2-0.2c0,0,0,0,0,0
		c0.2-0.5,0.3-1,0.3-1.6c0-1.5-0.9-2.8-2.1-3.4c0,0,0,0,0,0l-0.1,0c-0.1,0-0.1-0.1-0.2-0.1c0-0.1,0-0.1,0-0.1
		c-0.3-0.2-0.5-0.7-0.9-0.9c-0.3,0.1-0.6,0.1-1.1-0.1l0,0.1c-1.5,0.3-3.3,1.3-3.9,3.2c-0.3,0.9-0.4,2,0,3c0.3,1,1,1.8,1.9,2.4
		l-0.4,0.4c1.2,0.4,2.5,0.5,3.4,0c-0.1,0-0.2,0-0.4-0.1c0.3-0.3,1-0.6,1.5-0.8l0,0.1c-0.6,0.3,0.1,0-0.1,0.5l-0.1,0.1l0.1,0l0.1-0.1
		c0,0.1,0.1,0.2-0.1,0.2l0.2,0c0.5,0.2,0.7,0.4,0.8,0.8c0.1-0.1-0.2-0.4,0.3-0.5l0,0.1c0.1-0.2,0.2-0.3,0.3-0.5c0.1,0,0.2,0,0.3,0
		c0.1-0.2,0.1-0.3,0.3-0.5l-0.1-0.2c0.3-0.3,0.6-0.7,0.8-1.1c0.2-0.5,0.3-0.9,0.5-1.3C206.4,82.5,206.8,82.1,206.6,81.6z
		 M204.3,84.4c0.1-0.1,0.2-0.2,0.2-0.3c0,0.1-0.1,0.2-0.1,0.3C204.3,84.4,204.3,84.4,204.3,84.4z"/>
	<path class="st0" d="M246.6,81.6l-0.3,0.2c-0.4,0.4-0.4,1.5-0.9,2.1l-0.1-0.1c0-0.2,0-0.3,0.1-0.4l-0.2-0.2c0,0,0,0,0,0
		c0.2-0.5,0.3-1,0.3-1.6c0-1.5-0.9-2.8-2.1-3.4c0,0,0,0,0,0l-0.1,0c-0.1,0-0.1-0.1-0.2-0.1c0-0.1,0-0.1,0-0.1
		c-0.3-0.2-0.5-0.7-0.9-0.9c-0.3,0.1-0.6,0.1-1.1-0.1l0,0.1c-1.5,0.3-3.3,1.3-3.9,3.2c-0.3,0.9-0.4,2,0,3c0.3,1,1,1.8,1.9,2.4
		l-0.4,0.4c1.2,0.4,2.5,0.5,3.4,0c-0.1,0-0.2,0-0.4-0.1c0.3-0.3,1-0.6,1.5-0.8l0,0.1c-0.6,0.3,0.1,0-0.1,0.5l-0.1,0.1l0.1,0l0.1-0.1
		c0,0.1,0.1,0.2-0.1,0.2l0.2,0c0.5,0.2,0.7,0.4,0.8,0.8c0.1-0.1-0.2-0.4,0.3-0.5l0,0.1c0.1-0.2,0.2-0.3,0.3-0.5c0.1,0,0.2,0,0.3,0
		c0.1-0.2,0.1-0.3,0.3-0.5l-0.1-0.2c0.3-0.3,0.6-0.7,0.8-1.1c0.2-0.5,0.3-0.9,0.5-1.3C246.4,82.5,246.8,82.1,246.6,81.6z
		 M244.3,84.4c0.1-0.1,0.2-0.2,0.2-0.3c0,0.1-0.1,0.2-0.1,0.3C244.3,84.4,244.3,84.4,244.3,84.4z"/>
	<path class="st0" d="M126.6,120.1l-0.3,0.2c-0.4,0.4-0.4,1.5-0.9,2.1l-0.1-0.1c0-0.1,0-0.3,0.1-0.4l-0.2-0.2c0,0,0,0,0,0
		c0.2-0.5,0.3-1,0.3-1.6c0-1.5-0.9-2.8-2.1-3.4c0,0,0,0,0,0l-0.1,0c-0.1,0-0.1-0.1-0.2-0.1c0,0,0-0.1,0-0.1
		c-0.3-0.2-0.5-0.7-0.9-0.9c-0.3,0.1-0.6,0.1-1.1-0.1l0,0.1c-1.5,0.3-3.3,1.3-4,3.2c-0.3,0.9-0.4,2,0,3c0.3,1,1,1.8,1.9,2.4
		l-0.4,0.4c1.2,0.4,2.5,0.5,3.4,0c-0.1,0-0.2,0-0.4-0.1c0.3-0.3,1-0.6,1.5-0.8l0,0.1c-0.6,0.3,0.1,0-0.1,0.5l-0.1,0.1l0.1,0l0.1-0.1
		c0,0.1,0.1,0.2,0,0.2l0.2-0.1c0.5,0.2,0.7,0.4,0.8,0.8c0.1-0.1-0.2-0.4,0.3-0.5l0,0.2c0.1-0.2,0.2-0.3,0.3-0.5c0.1,0,0.2,0,0.3,0
		c0.1-0.2,0.1-0.3,0.3-0.5l-0.1-0.2c0.3-0.3,0.6-0.7,0.8-1.1c0.2-0.4,0.3-0.9,0.5-1.3C126.4,121,126.8,120.6,126.6,120.1z
		 M124.3,122.9c0.1-0.1,0.2-0.2,0.2-0.3c0,0.1-0.1,0.2-0.1,0.3C124.3,122.9,124.3,122.9,124.3,122.9z"/>
	<path class="st0" d="M167.4,120.1l-0.3,0.2c-0.4,0.4-0.4,1.5-0.9,2.1l-0.1-0.1c0-0.1,0-0.3,0.1-0.4l-0.2-0.2c0,0,0,0,0,0
		c0.2-0.5,0.3-1,0.3-1.6c0-1.5-0.9-2.8-2.1-3.4c0,0,0,0,0,0l-0.1,0c-0.1,0-0.1-0.1-0.2-0.1c0,0,0-0.1,0-0.1
		c-0.3-0.2-0.5-0.7-0.9-0.9c-0.3,0.1-0.6,0.1-1.1-0.1l0,0.1c-1.5,0.3-3.3,1.3-4,3.2c-0.3,0.9-0.4,2,0,3c0.3,1,1,1.8,1.9,2.4
		l-0.4,0.4c1.2,0.4,2.5,0.5,3.4,0c-0.1,0-0.2,0-0.4-0.1c0.3-0.3,1-0.6,1.5-0.8l0,0.1c-0.6,0.3,0.1,0-0.1,0.5l-0.1,0.1l0.1,0l0.1-0.1
		c0,0.1,0.1,0.2,0,0.2l0.2-0.1c0.5,0.2,0.7,0.4,0.8,0.8c0.1-0.1-0.2-0.4,0.3-0.5l0,0.2c0.1-0.2,0.2-0.3,0.3-0.5c0.1,0,0.2,0,0.3,0
		c0.1-0.2,0.1-0.3,0.3-0.5l-0.2-0.2c0.3-0.3,0.6-0.7,0.8-1.1c0.2-0.4,0.3-0.9,0.5-1.3C167.2,121,167.6,120.6,167.4,120.1z
		 M165.1,122.9c0.1-0.1,0.2-0.2,0.2-0.3c0,0.1-0.1,0.2-0.1,0.3C165.2,122.9,165.1,122.9,165.1,122.9z"/>
	<path class="st0" d="M87.8,81.8c-0.4,0.4-0.4,1.5-0.9,2.1l-0.1-0.1c0-0.2,0-0.3,0.1-0.4l-0.2-0.2c0,0,0,0,0,0
		c0.2-0.5,0.3-1,0.3-1.6c0-1.5-0.9-2.8-2.1-3.4c0,0,0,0,0,0l-0.1,0c-0.1,0-0.1-0.1-0.2-0.1c0,0,0-0.1,0-0.1
		c-0.3-0.2-0.5-0.7-0.9-0.9c-0.3,0.1-0.6,0.1-1.1-0.1l0,0.1c-1.5,0.3-3.3,1.3-4,3.2c-0.3,0.9-0.4,2,0,3c0.3,1,1,1.8,1.9,2.4L80.2,86
		c1.2,0.4,2.5,0.5,3.4,0c-0.1,0-0.2,0-0.4-0.1c0.3-0.3,1-0.6,1.5-0.8l0,0.1c-0.6,0.3,0.1,0-0.1,0.5l-0.1,0.1l0.1,0l0.1-0.1
		c0,0.1,0.1,0.2,0,0.2l0.2,0c0.5,0.2,0.7,0.4,0.8,0.8c0.1-0.1-0.2-0.4,0.3-0.5l0,0.1c0.1-0.2,0.2-0.3,0.3-0.5c0.1,0,0.2,0,0.3,0
		c0.1-0.2,0.1-0.3,0.3-0.5l-0.2-0.2c0.3-0.3,0.6-0.7,0.8-1.1c0.2-0.5,0.3-0.9,0.5-1.3c-0.2-0.2,0.2-0.6,0-1.1L87.8,81.8z M85.8,84.4
		c0.1-0.1,0.2-0.2,0.2-0.3c0,0.1-0.1,0.2-0.1,0.3C85.8,84.4,85.8,84.4,85.8,84.4z"/>
	<path class="st0" d="M87.8,120.3c-0.4,0.4-0.4,1.5-0.9,2.1l-0.1-0.1c0-0.1,0-0.3,0.1-0.4l-0.2-0.2c0,0,0,0,0,0
		c0.2-0.5,0.3-1,0.3-1.6c0-1.5-0.9-2.8-2.1-3.4c0,0,0,0,0,0l-0.1,0c-0.1,0-0.1-0.1-0.2-0.1c0,0,0-0.1,0-0.1
		c-0.3-0.2-0.5-0.7-0.9-0.9c-0.3,0.1-0.6,0.1-1.1-0.1l0,0.1c-1.5,0.3-3.3,1.3-4,3.2c-0.3,0.9-0.4,2,0,3c0.3,1,1,1.8,1.9,2.4
		l-0.4,0.4c1.2,0.4,2.5,0.5,3.4,0c-0.1,0-0.2,0-0.4-0.1c0.3-0.3,1-0.6,1.5-0.8l0,0.1c-0.6,0.3,0.1,0-0.1,0.5l-0.1,0.1l0.1,0l0.1-0.1
		c0,0.1,0.1,0.2,0,0.2l0.2-0.1c0.5,0.2,0.7,0.4,0.8,0.8c0.1-0.1-0.2-0.4,0.3-0.5l0,0.2c0.1-0.2,0.2-0.3,0.3-0.5c0.1,0,0.2,0,0.3,0
		c0.1-0.2,0.1-0.3,0.3-0.5l-0.2-0.2c0.3-0.3,0.6-0.7,0.8-1.1c0.2-0.4,0.3-0.9,0.5-1.3c-0.2-0.2,0.2-0.6,0-1.1L87.8,120.3z
		 M85.8,122.9c0.1-0.1,0.2-0.2,0.2-0.3c0,0.1-0.1,0.2-0.1,0.3C85.8,122.9,85.8,122.9,85.8,122.9z"/>
	<path class="st0" d="M87.8,158.8c-0.4,0.4-0.4,1.5-0.9,2.1l-0.1-0.1c0-0.1,0-0.3,0.1-0.4l-0.2-0.1c0,0,0,0,0,0
		c0.2-0.5,0.3-1,0.3-1.6c0-1.5-0.9-2.8-2.1-3.4c0,0,0,0,0,0l-0.1,0c-0.1,0-0.1-0.1-0.2-0.1c0,0,0-0.1,0-0.1
		c-0.3-0.2-0.5-0.7-0.9-0.9c-0.3,0.1-0.6,0.1-1.1-0.1l0,0.1c-1.5,0.3-3.3,1.3-4,3.2c-0.3,0.9-0.4,2,0,3c0.3,1,1,1.9,1.9,2.4
		l-0.4,0.4c1.2,0.4,2.5,0.5,3.4,0c-0.1,0-0.2,0-0.4-0.1c0.3-0.3,1-0.6,1.5-0.8l0,0.1c-0.6,0.3,0.1,0-0.1,0.5l-0.1,0.1l0.1,0l0.1-0.1
		c0,0.1,0.1,0.2,0,0.2l0.2,0c0.5,0.2,0.7,0.4,0.8,0.8c0.1-0.1-0.2-0.4,0.3-0.5l0,0.1c0.1-0.2,0.2-0.3,0.3-0.5c0.1,0,0.2,0,0.3,0
		c0.1-0.2,0.1-0.3,0.3-0.5l-0.2-0.2c0.3-0.3,0.6-0.7,0.8-1.1c0.2-0.5,0.3-0.9,0.5-1.3c-0.2-0.2,0.2-0.6,0-1.1L87.8,158.8z
		 M85.8,161.4c0.1-0.1,0.2-0.2,0.2-0.3c0,0.1-0.1,0.2-0.1,0.3C85.8,161.4,85.8,161.4,85.8,161.4z"/>
	<path class="st0" d="M88.1,197.1l-0.3,0.2c-0.4,0.4-0.4,1.5-0.9,2.1l-0.1-0.1c0-0.2,0-0.3,0.1-0.4l-0.2-0.1c0,0,0,0,0,0
		c0.2-0.5,0.3-1,0.3-1.6c0-1.5-0.9-2.8-2.1-3.4c0,0,0,0,0,0l-0.1,0c-0.1,0-0.1-0.1-0.2-0.1c0,0,0-0.1,0-0.1
		c-0.3-0.2-0.5-0.7-0.9-0.9c-0.3,0.1-0.6,0.1-1.1-0.1l0,0.1c-1.5,0.3-3.3,1.3-4,3.2c-0.3,0.9-0.4,2,0,3c0.3,1,1,1.9,1.9,2.4
		l-0.4,0.4c1.2,0.4,2.5,0.4,3.4-0.1c-0.1,0-0.2,0-0.4-0.1c0.3-0.3,1-0.6,1.5-0.8l0,0.1c-0.6,0.3,0.1,0-0.1,0.5l-0.1,0.1l0.1,0
		l0.1-0.1c0,0.1,0.1,0.2,0,0.2l0.2-0.1c0.5,0.2,0.7,0.4,0.8,0.8c0.1-0.1-0.2-0.4,0.3-0.5l0,0.2c0.1-0.2,0.2-0.3,0.3-0.5
		c0.1,0,0.2,0,0.3,0c0.1-0.2,0.1-0.3,0.3-0.5l-0.2-0.2c0.3-0.3,0.6-0.7,0.8-1.1c0.2-0.4,0.3-0.9,0.5-1.3
		C87.9,197.9,88.3,197.5,88.1,197.1z M85.8,199.8c0.1-0.1,0.2-0.2,0.2-0.3c0,0.1-0.1,0.2-0.1,0.3C85.8,199.8,85.8,199.8,85.8,199.8z
		"/>
	<path class="st0" d="M49.3,4.9c-0.4,0.4-0.4,1.5-0.9,2.1l-0.1-0.1c0-0.1,0-0.3,0.1-0.4l-0.2-0.2c0,0,0,0,0,0c0.2-0.5,0.3-1,0.3-1.6
		c0-1.5-0.9-2.8-2.1-3.4c0,0,0,0,0,0l0,0c-0.1,0-0.1-0.1-0.2-0.1c0,0,0-0.1,0-0.1c-0.3-0.2-0.5-0.7-0.9-0.9C45,0.2,44.7,0.2,44.2,0
		l0,0.1c-1.6,0.3-3.3,1.3-4,3.2c-0.3,0.9-0.4,2,0,3c0.3,1,1,1.8,1.9,2.4l-0.4,0.4c1.2,0.4,2.5,0.5,3.4,0c-0.1,0-0.3,0-0.4-0.1
		c0.3-0.3,1-0.6,1.5-0.8l0,0.1c-0.6,0.3,0.1,0-0.1,0.5l-0.1,0.1l0.1,0l0.1-0.1c0,0.1,0.1,0.2,0,0.2l0.2,0c0.5,0.2,0.7,0.4,0.8,0.8
		c0.1-0.1-0.2-0.4,0.3-0.5l0,0.2c0.1-0.2,0.2-0.3,0.3-0.5c0.1,0,0.2,0,0.3,0c0.1-0.2,0.1-0.3,0.3-0.5l-0.1-0.2
		c0.3-0.3,0.6-0.7,0.8-1.1c0.2-0.5,0.3-0.9,0.5-1.3c-0.2-0.2,0.2-0.6,0-1.1L49.3,4.9z M47.3,7.4c0.1-0.1,0.2-0.2,0.3-0.3
		c0,0.1-0.1,0.3-0.1,0.3C47.4,7.4,47.3,7.4,47.3,7.4z"/>
	<path class="st0" d="M49.3,43.3c-0.4,0.4-0.4,1.5-0.9,2.1l-0.1-0.1c0-0.1,0-0.3,0.1-0.4l-0.2-0.1c0,0,0,0,0,0
		c0.2-0.5,0.3-1,0.3-1.6c0-1.5-0.9-2.8-2.1-3.4c0,0,0,0,0,0l0,0c-0.1,0-0.1-0.1-0.2-0.1c0,0,0-0.1,0-0.1c-0.3-0.2-0.5-0.7-0.9-0.9
		c-0.3,0.1-0.6,0.1-1.1-0.1l0,0.1c-1.6,0.3-3.3,1.3-4,3.2c-0.3,0.9-0.4,2,0,3c0.3,1,1,1.9,1.9,2.4l-0.4,0.4c1.2,0.4,2.5,0.4,3.4-0.1
		c-0.1,0-0.2,0-0.4-0.1c0.3-0.3,1-0.6,1.5-0.8l0,0.1c-0.6,0.3,0.1,0-0.1,0.5l-0.1,0.1l0.1,0l0.1-0.1c0,0.1,0.1,0.2,0,0.2l0.2,0
		c0.5,0.2,0.7,0.4,0.8,0.8c0.1-0.1-0.2-0.4,0.3-0.5l0,0.2c0.1-0.2,0.2-0.3,0.3-0.5c0.1,0,0.2,0,0.3,0c0.1-0.2,0.1-0.3,0.3-0.4
		l-0.1-0.2c0.3-0.3,0.6-0.7,0.8-1.1c0.2-0.4,0.3-0.9,0.5-1.3c-0.2-0.2,0.2-0.6,0-1.1L49.3,43.3z M47.3,45.9c0.1-0.1,0.2-0.2,0.2-0.3
		c0,0.1-0.1,0.2-0.1,0.3C47.4,45.9,47.3,45.9,47.3,45.9z"/>
	<path class="st0" d="M49.3,81.8c-0.4,0.4-0.4,1.5-0.9,2.1l-0.1-0.1c0-0.2,0-0.3,0.1-0.4l-0.2-0.2c0,0,0,0,0,0
		c0.2-0.5,0.3-1,0.3-1.6c0-1.5-0.9-2.8-2.1-3.4c0,0,0,0,0,0l-0.1,0c-0.1,0-0.1-0.1-0.2-0.1c0-0.1,0-0.1,0-0.1
		c-0.3-0.2-0.5-0.7-0.9-0.9c-0.3,0.1-0.6,0.1-1.1-0.1l0,0.1c-1.6,0.3-3.3,1.3-4,3.2c-0.3,0.9-0.4,2,0,3c0.3,1,1,1.8,1.9,2.4L41.8,86
		c1.2,0.4,2.5,0.5,3.4,0c-0.1,0-0.2,0-0.4-0.1c0.3-0.3,1-0.6,1.5-0.8l0,0.1c-0.6,0.3,0.1,0-0.1,0.5l-0.1,0.1l0.1,0l0.1-0.1
		c0,0.1,0.1,0.2,0,0.2l0.2,0c0.5,0.2,0.7,0.4,0.8,0.8c0.1-0.1-0.2-0.4,0.3-0.5l0,0.1c0.1-0.2,0.2-0.3,0.3-0.5c0.1,0,0.2,0,0.3,0
		c0.1-0.2,0.1-0.3,0.3-0.5l-0.1-0.2c0.3-0.3,0.6-0.7,0.8-1.1c0.2-0.5,0.3-0.9,0.5-1.3c-0.2-0.2,0.2-0.6,0-1.1L49.3,81.8z M47.3,84.4
		c0.1-0.1,0.2-0.2,0.2-0.3c0,0.1-0.1,0.2-0.1,0.3C47.4,84.4,47.3,84.4,47.3,84.4z"/>
	<path class="st0" d="M49.3,120.3c-0.4,0.4-0.4,1.5-0.9,2.1l-0.1-0.1c0-0.1,0-0.3,0.1-0.4l-0.2-0.2c0,0,0,0,0,0
		c0.2-0.5,0.3-1,0.3-1.6c0-1.5-0.9-2.8-2.1-3.4c0,0,0,0,0,0l-0.1,0c-0.1,0-0.1-0.1-0.2-0.1c0,0,0-0.1,0-0.1
		c-0.3-0.2-0.5-0.7-0.9-0.9c-0.3,0.1-0.6,0.1-1.1-0.1l0,0.1c-1.6,0.3-3.3,1.3-4,3.2c-0.3,0.9-0.4,2,0,3c0.3,1,1,1.8,1.9,2.4
		l-0.4,0.4c1.2,0.4,2.5,0.5,3.4,0c-0.1,0-0.2,0-0.4-0.1c0.3-0.3,1-0.6,1.5-0.8l0,0.1c-0.6,0.3,0.1,0-0.1,0.5l-0.1,0.1l0.1,0l0.1-0.1
		c0,0.1,0.1,0.2,0,0.2l0.2-0.1c0.5,0.2,0.7,0.4,0.8,0.8c0.1-0.1-0.2-0.4,0.3-0.5l0,0.2c0.1-0.2,0.2-0.3,0.3-0.5c0.1,0,0.2,0,0.3,0
		c0.1-0.2,0.1-0.3,0.3-0.5l-0.1-0.2c0.3-0.3,0.6-0.7,0.8-1.1c0.2-0.4,0.3-0.9,0.5-1.3c-0.2-0.2,0.2-0.6,0-1.1L49.3,120.3z
		 M47.3,122.9c0.1-0.1,0.2-0.2,0.2-0.3c0,0.1-0.1,0.2-0.1,0.3C47.4,122.9,47.3,122.9,47.3,122.9z"/>
	<path class="st0" d="M9.3,81.8c-0.4,0.4-0.4,1.5-0.9,2.1l-0.1-0.1c0-0.2,0-0.3,0.1-0.4l-0.2-0.2c0,0,0,0,0,0c0.2-0.5,0.3-1,0.3-1.6
		c0-1.5-0.9-2.8-2.1-3.4c0,0,0,0,0,0l0,0c-0.1,0-0.1-0.1-0.2-0.1c0,0,0-0.1,0-0.1c-0.3-0.2-0.5-0.7-0.9-0.9C5,77.1,4.7,77.1,4.2,77
		l0,0.1c-1.5,0.3-3.3,1.3-3.9,3.2c-0.3,0.9-0.4,2,0,3c0.3,1,1,1.8,1.9,2.4L1.8,86c1.2,0.4,2.5,0.5,3.4,0c-0.1,0-0.2,0-0.4-0.1
		c0.3-0.3,1-0.6,1.5-0.8l0,0.1c-0.6,0.3,0.1,0-0.1,0.5l-0.1,0.1l0.1,0l0.1-0.1c0,0.1,0.1,0.2,0,0.2l0.2,0c0.5,0.2,0.7,0.4,0.8,0.8
		c0.1-0.1-0.2-0.4,0.3-0.5l0,0.1c0.1-0.2,0.2-0.3,0.3-0.5c0.1,0,0.2,0,0.3,0c0.1-0.2,0.1-0.3,0.3-0.5l-0.2-0.2
		c0.3-0.3,0.6-0.7,0.8-1.1c0.2-0.5,0.3-0.9,0.5-1.3c-0.2-0.2,0.2-0.6,0-1.1L9.3,81.8z M7.3,84.4c0.1-0.1,0.2-0.2,0.2-0.3
		c0,0.1-0.1,0.2-0.1,0.3C7.4,84.4,7.3,84.4,7.3,84.4z"/>
	<path class="st0" d="M9.6,120.1l-0.3,0.2c-0.4,0.4-0.4,1.5-0.9,2.1l-0.1-0.1c0-0.1,0-0.3,0.1-0.4l-0.2-0.2c0,0,0,0,0,0
		c0.2-0.5,0.3-1,0.3-1.6c0-1.5-0.9-2.8-2.1-3.4c0,0,0,0,0,0l-0.1,0c-0.1,0-0.1-0.1-0.2-0.1c0,0,0-0.1,0-0.1
		c-0.3-0.2-0.5-0.7-0.9-0.9c-0.3,0.1-0.6,0.1-1.1-0.1l0,0.1c-1.5,0.3-3.3,1.3-3.9,3.2c-0.3,0.9-0.4,2,0,3c0.3,1,1,1.8,1.9,2.4
		l-0.4,0.4c1.2,0.4,2.5,0.5,3.4,0c-0.1,0-0.2,0-0.4-0.1c0.3-0.3,1-0.6,1.5-0.8l0,0.1c-0.6,0.3,0.1,0-0.1,0.5l-0.1,0.1l0.1,0l0.1-0.1
		c0,0.1,0.1,0.2,0,0.2l0.2-0.1c0.5,0.2,0.7,0.4,0.8,0.8c0.1-0.1-0.2-0.4,0.3-0.5l0,0.2c0.1-0.2,0.2-0.3,0.3-0.5c0.1,0,0.2,0,0.3,0
		c0.1-0.2,0.1-0.3,0.3-0.5l-0.2-0.2c0.3-0.3,0.6-0.7,0.8-1.1c0.2-0.4,0.3-0.9,0.5-1.3C9.4,121,9.8,120.6,9.6,120.1z M7.3,122.9
		c0.1-0.1,0.2-0.2,0.2-0.3c0,0.1-0.1,0.2-0.1,0.3C7.4,122.9,7.3,122.9,7.3,122.9z"/>
	<path class="st0" d="M49.3,158.8c-0.4,0.4-0.4,1.5-0.9,2.1l-0.1-0.1c0-0.1,0-0.3,0.1-0.4l-0.2-0.1c0,0,0,0,0,0
		c0.2-0.5,0.3-1,0.3-1.6c0-1.5-0.9-2.8-2.1-3.4c0,0,0,0,0,0l-0.1,0c-0.1,0-0.1-0.1-0.2-0.1c0,0,0-0.1,0-0.1
		c-0.3-0.2-0.5-0.7-0.9-0.9c-0.3,0.1-0.6,0.1-1.1-0.1l0,0.1c-1.6,0.3-3.3,1.3-4,3.2c-0.3,0.9-0.4,2,0,3c0.3,1,1,1.9,1.9,2.4
		l-0.4,0.4c1.2,0.4,2.5,0.5,3.4,0c-0.1,0-0.2,0-0.4-0.1c0.3-0.3,1-0.6,1.5-0.8l0,0.1c-0.6,0.3,0.1,0-0.1,0.5l-0.1,0.1l0.1,0l0.1-0.1
		c0,0.1,0.1,0.2,0,0.2l0.2,0c0.5,0.2,0.7,0.4,0.8,0.8c0.1-0.1-0.2-0.4,0.3-0.5l0,0.1c0.1-0.2,0.2-0.3,0.3-0.5c0.1,0,0.2,0,0.3,0
		c0.1-0.2,0.1-0.3,0.3-0.5l-0.1-0.2c0.3-0.3,0.6-0.7,0.8-1.1c0.2-0.5,0.3-0.9,0.5-1.3c-0.2-0.2,0.2-0.6,0-1.1L49.3,158.8z
		 M47.3,161.4c0.1-0.1,0.2-0.2,0.2-0.3c0,0.1-0.1,0.2-0.1,0.3C47.4,161.4,47.3,161.4,47.3,161.4z"/>
	<path class="st0" d="M49.6,197.1l-0.3,0.2c-0.4,0.4-0.4,1.5-0.9,2.1l-0.1-0.1c0-0.2,0-0.3,0.1-0.4l-0.2-0.1c0,0,0,0,0,0
		c0.2-0.5,0.3-1,0.3-1.6c0-1.5-0.9-2.8-2.1-3.4c0,0,0,0,0,0l-0.1,0c-0.1,0-0.1-0.1-0.2-0.1c0,0,0-0.1,0-0.1
		c-0.3-0.2-0.5-0.7-0.9-0.9c-0.3,0.1-0.6,0.1-1.1-0.1l0,0.1c-1.6,0.3-3.3,1.3-4,3.2c-0.3,0.9-0.4,2,0,3c0.3,1,1,1.9,1.9,2.4
		l-0.4,0.4c1.2,0.4,2.5,0.4,3.4-0.1c-0.1,0-0.2,0-0.4-0.1c0.3-0.3,1-0.6,1.5-0.8l0,0.1c-0.6,0.3,0.1,0-0.1,0.5l-0.1,0.1l0.1,0
		l0.1-0.1c0,0.1,0.1,0.2,0,0.2l0.2-0.1c0.5,0.2,0.7,0.4,0.8,0.8c0.1-0.1-0.2-0.4,0.3-0.5l0,0.2c0.1-0.2,0.2-0.3,0.3-0.5
		c0.1,0,0.2,0,0.3,0c0.1-0.2,0.1-0.3,0.3-0.5l-0.1-0.2c0.3-0.3,0.6-0.7,0.8-1.1c0.2-0.4,0.3-0.9,0.5-1.3
		C49.4,197.9,49.8,197.5,49.6,197.1z M47.3,199.8c0.1-0.1,0.2-0.2,0.2-0.3c0,0.1-0.1,0.2-0.1,0.3C47.4,199.8,47.3,199.8,47.3,199.8z
		"/>
</g>
</svg>
