<?xml version="1.0" encoding="utf-8"?>
<!-- Generator: Adobe Illustrator 24.2.1, SVG Export Plug-In . SVG Version: 6.00 Build 0)  -->
<svg version="1.1" id="Layer_1" xmlns="http://www.w3.org/2000/svg" xmlns:xlink="http://www.w3.org/1999/xlink" x="0px" y="0px"
	 viewBox="0 0 129.41 20.81" style="enable-background:new 0 0 129.41 20.81;" xml:space="preserve">
<g>
	<path d="M30.88,20.81c0.01-0.4-0.41-0.81,0.25-0.99c2.1-0.38,3.78,0.97,5.88,0.59c0.05-0.22,0.1-0.43,0.15-0.65
		c1.62,0.28,3.31,0.64,5.04,0.95c3.18-0.09,6.34-0.25,9.49-0.47c-0.08-0.24-0.12-0.46,0.19-0.55c1.31-0.17,3.12,0.06,5,0.12
		c0.28-0.04,0.56-0.08,0.83-0.11c0.21-0.14,0.27-0.37,0.3-0.51c0.85,0.02,1.61,0.08,2.31,0.15c9.23-1.29,18.6-2.8,28.75-4.29
		c2.15-0.6,4.3-1.2,6.37-1.48c3.07-0.25,6.98,0.18,9.97,0.25c-0.46-2.31,6.83-3.44,5.37-5.77c1.99,0.05,4.98,0.13,5.14-0.53
		c0.46-1.96,2-4.21,7.29-5.39c2.07-0.28,5.25,0.55,5.98,0.15c1.15-0.63-2.68-1.38-1.54-2.01C112.27-0.43,97.45,0.42,81.95,0.4
		c-5.28,1.02-40.86,1.47-50,1.02c-0.28,0.01-0.55,0.02-0.83,0.03C26.14,1.33,20.08,1.5,15.86,2.38c-1.94,0.54-3.9,1.2-5.86,1.84
		c0.91,0.38,1.75,0.76,2.49,1.14C10.49,5.3,8.5,5.25,7.73,5.67C3.48,6.66,5.89,7.81,7.52,9.38c1.18,0.69-0.41,1.74,1.43,2.44
		c-1.33-0.03-1.99-0.05-3.32-0.08c-0.15,0.65,4.09-0.33,3.17,0.74c-1.28-0.25-2.71,0.15-4.04,0.12c0.46,0.89,4.6,0.33,4.4,1.2
		c-0.72,0.2-3.73-1.19-3.99-0.1c-0.05,0.22,1.28,0.25,1.94,0.27c-4.09,0.33-6.34,1.37-2.61,2.56c-1.3-0.03-3.13-0.49-4.5-0.34
		c0,0.01,0.01,0.01,0.01,0.02c0.68,0.04,1.86,0.26,2.5,0.28c-0.78-0.02-1.56-0.04-2.33-0.06c0.12,0.15,0.26,0.3,0.41,0.45
		C1.16,17,1.74,17.1,2.35,17.12c-0.52-0.01-1.03-0.03-1.55-0.04c0.39,0.35,0.83,0.7,1.32,1.02c1.84,0.7,3.6,1.73,4.6,1.76
		C14.77,20.37,22.84,20.73,30.88,20.81z"/>
</g>
</svg>
