<?xml version="1.0" encoding="utf-8"?>
<!-- Generator: Adobe Illustrator 24.2.1, SVG Export Plug-In . SVG Version: 6.00 Build 0)  -->
<svg version="1.1" id="Layer_1" xmlns="http://www.w3.org/2000/svg" xmlns:xlink="http://www.w3.org/1999/xlink" x="0px" y="0px"
	 viewBox="0 0 206.1 7.3" style="enable-background:new 0 0 206.1 7.3;" xml:space="preserve">
<style type="text/css">
	.st0{fill:#FFFFFF;}
</style>
<g>
	<path class="st0" d="M98.2,3.9l-1.8-0.1c0.3-0.2-1.3-0.3-1.2-0.5c0.1,0.4-2.4,0.1-3.7,0.1L91,3.7C92.2,4,95.5,3.9,98.2,3.9z"/>
	<polygon class="st0" points="86.9,4.1 91.4,3.9 89.5,3.8 	"/>
	<path class="st0" d="M87.4,3.5c-0.2-0.1-0.5-0.1-0.8-0.1C86.9,3.5,87.2,3.5,87.4,3.5z"/>
	<path class="st0" d="M80.6,3.8c2.4-0.1,4.2,0,6.2,0.1c-0.6-0.1-0.8-0.1-1.6-0.2c1.4,0,3.3-0.2,5-0.2c-0.7-0.2-1.7-0.1-2.8-0.2
		c0.3,0.1,0.4,0.1-0.1,0.2c-1.6-0.2-2.6,0.1-4.1-0.1l1.4-0.1c-0.2-0.3-3,0.3-2.9-0.2C79.7,3.5,83.2,3.6,80.6,3.8z"/>
	<path class="st0" d="M79.1,3.7c0.1-0.1,0.2-0.1,0.1-0.1C79.1,3.7,79,3.7,79.1,3.7z"/>
	<path class="st0" d="M77.7,3.5c0.4,0.1,1.4,0.1,1.5,0.2c0.2-0.1,0.7-0.2,0.2-0.3c-1.5,0-3.9-0.1-4.3,0.3C76.7,3.9,77,3.6,77.7,3.5z
		"/>
	<path class="st0" d="M73.1,3.7c0.1-0.1,0.7-0.4,2.2-0.4c-0.8-0.2-1.1,0.1-1.9-0.1l-1.1,0.3H73L73.1,3.7z"/>
	<path class="st0" d="M77.2,4.3c-1.7,0.2-4.7-0.1-4.2,0.4c0.8,0,1.5-0.1,1.7-0.1l-0.1,0.1C74.6,4.7,76.1,4.6,77.2,4.3z"/>
	<path class="st0" d="M73,4.7L73,4.7L73,4.7L73,4.7z"/>
	<path class="st0" d="M70.2,4.8c0.8,0,1.9,0,2.7-0.1C71.9,4.6,71.3,4.7,70.2,4.8z"/>
	<polygon class="st0" points="70.4,3.4 68.6,3.4 71,3.5 	"/>
	<path class="st0" d="M70.7,4.4c-0.5,0.1,2.6,0,2.8-0.2c-0.5-0.1-1.8,0.2-2-0.1C69.5,4.2,72.5,4.5,70.7,4.4z"/>
	<path class="st0" d="M65.2,3.3c-0.7,0.2-2-0.2-2.9-0.1l-0.4,0.2C63.9,3.1,64.3,3.7,65.2,3.3z"/>
	<path class="st0" d="M57,3.6c0.3-0.1,0.8-0.1,0.8-0.2c0.7,0.1,0.6,0.2,1,0.2c1.2-0.2,3.1-0.1,4.1-0.2c-0.5,0.1-0.6,0-0.9,0
		c-1.9-0.1-4.4,0.1-5.8-0.3C56.4,3.3,55.3,3.5,57,3.6z"/>
	<path class="st0" d="M63,4.7L63,4.7C63.1,4.8,63.1,4.8,63,4.7z"/>
	<path class="st0" d="M62.4,4.3l1.7,0.1c-0.5,0.2-2,0-2.3,0.2c0.1,0.1,0.9,0.2,1.2,0.2c0.4-0.4,2.1,0,1.4-0.5
		C63.8,4.2,63.2,4.2,62.4,4.3z"/>
	<path class="st0" d="M65.5,4.3c0.4,0.1,0.2,0.3,1.8,0.2l0.6-0.3C66.8,4.3,66.1,4.3,65.5,4.3z"/>
	<path class="st0" d="M64.3,4.2L64.3,4.2c0.4,0,0.8,0.1,1.2,0.1C65.3,4.2,65,4.2,64.3,4.2z"/>
	<path class="st0" d="M56.9,4.1l0.8,0.3L59.8,4c-1.6,0.2-3.4-0.2-3.7,0.2L55.3,4l0.4,0.2c0.5,0.1,0.9,0.1,1.3,0.1
		C56.3,4.3,56.1,4.1,56.9,4.1z"/>
	<path class="st0" d="M51.6,4.3h-1C50,4.3,51.6,4.4,51.6,4.3z"/>
	<path class="st0" d="M55.7,4.3L55.7,4.3c-0.6-0.1-1.3-0.1-1.9-0.1C54.3,4.2,55,4.3,55.7,4.3z"/>
	<path class="st0" d="M58.3,4.7c1.8,0.1,0.8-0.2,1.2-0.2h-1.7L58.3,4.7z"/>
	<path class="st0" d="M59.6,4.4h1.2C60.1,4.3,59.7,4.3,59.6,4.4z"/>
	<path class="st0" d="M37.9,3.6c-0.9,0.2,0.2,0.3,1.2,0.3C38.2,3.9,37.7,3.7,37.9,3.6z"/>
	<path class="st0" d="M24.4,2.3c0.2,0.1,0.6,0.1,1.2,0.1C25.5,2.3,25.1,2.2,24.4,2.3z"/>
	<path class="st0" d="M34.4,2.5L34.4,2.5l0.2,0.1C34.5,2.6,34.4,2.6,34.4,2.5z"/>
	<path class="st0" d="M100.1,3.4c0.3,0,0.6,0,1,0C100.8,3.4,100.5,3.4,100.1,3.4L100.1,3.4z"/>
	<path class="st0" d="M101.2,3.8c-2.3-0.3,0.5-0.1-1.1-0.4c-1,0-2,0.1-2.9,0.1C99.4,3.5,99.6,4,101.2,3.8z"/>
	<path class="st0" d="M78.1,4.2L78.1,4.2C78,4.2,77.9,4.2,78.1,4.2z"/>
	<path class="st0" d="M167.7,4.2c0.5,0.1,1.4-0.1,2.3,0C169.2,4.1,167.9,3.9,167.7,4.2z"/>
	<path class="st0" d="M167.7,5.3L167.7,5.3c-0.1-0.1-0.2,0-0.4,0C167.5,5.3,167.6,5.3,167.7,5.3z"/>
	<path class="st0" d="M167.7,5v0.1C167.9,5.2,168,5.1,167.7,5z"/>
	<path class="st0" d="M164.6,5.2h1.5c0,0.2,0,0.3-1,0.2c0.2,0.1,1.1-0.1,1.6-0.1h-0.4c0.2-0.1,0.6-0.1,0.9-0.1
		C166,5.2,164.9,4.8,164.6,5.2z"/>
	<path class="st0" d="M162.5,5.3c0.6,0,2,0,1.6-0.2L162.5,5.3z"/>
	<path class="st0" d="M160.2,5c1.8,0.2,0.8-0.1,1.8-0.2c-0.3,0-0.6,0-0.9,0.1C162.1,5,160.5,5,160.2,5z"/>
	<path class="st0" d="M162.4,4.9c-0.2,0-0.3,0-0.4,0C162.1,4.9,162.3,4.9,162.4,4.9z"/>
	<path class="st0" d="M178.5,3.8l-0.1-0.1C178.3,3.8,178.3,3.8,178.5,3.8z"/>
	<path class="st0" d="M157,4.8h-0.1c-0.2,0-0.3,0-0.5,0H157z"/>
	<path class="st0" d="M191.6,1.9c-0.6,0.1-1.1,0.2-0.3,0.2c1.3-0.1,2,0.1,1,0.2c-1.4,0.1,0.2-0.2-1.5,0l0.8,0.1
		c-1.7,0.1-2.5,0.1-3.5,0.4c-6.6-0.3-13.7,0.5-19.4-0.1l-2,0.3c-0.1-0.1-0.3-0.3-1.3-0.2c0.4,0,0.9,0,0.8,0.1h-4.4l0.5,0.2
		c-1.4-0.2-3.9,0.2-5.4-0.2c0,0.1-1,0.2-0.9,0.3c-4.3-0.3-9.2,0.2-12.8-0.2c0.3,0.1,0,0.2-0.2,0.2c-1.4,0-0.3-0.1-0.7-0.2
		c-0.6,0.7-19.3-0.3-21.6,0.1c0.4,0,0.7,0.1,0.6,0.1c-6.7,0.1-14,0-20.4,0.2c1.7,0,0.4,0.4,1.4,0.5c1.1-0.1-1.4-0.2,0-0.3
		c1.9,0.4,1.4-0.3,3.4,0.1l-1.1,0.2c2.4-0.2,5.7-0.2,8.7-0.2L113,3.9c1.1-0.1,2.6-0.1,2.8,0.2c-3.4-0.1-4,0.6-6.1,0.3
		c0.3-0.1,0.1-0.1-0.1-0.1c-0.9,0.2-2.4,0.4-4.1,0.3l0.6-0.2c-2.6,0-5.4-0.1-7.8,0c0.7,0.1,0,0.3-1.1,0.3c-1.7-0.1,0.5-0.1-0.2-0.3
		c-1-0.3-3.9,0.2-5.1,0.2c0.4-0.1-3.2-0.2-1-0.3c-2.6-0.1-4.4,0.3-6.2,0c-0.3,0.1-0.9,0.3-1.6,0.3V4.2l-0.9,0.2
		c-1.7,0-2.6-0.5-4.4-0.3c0.3,0,1-0.1,1.1,0.1c-0.2,0.2-3.5,0.3-2.8,0.6l1.5-0.2c-0.5,0.2,1.4,0.2,1,0.3l3.9-0.2L82.6,5H82
		c-1.2,0.5,1.9-0.1,3,0.2V5c3.4,0.2,1.4,0.2,4.2,0.3l0.9-0.2c0.1-0.1-2.5,0.2-2.5-0.1C89.4,5,91.9,5,93.8,4.8l-1.5,0.4
		c0.7-0.3,1.9,0.2,3.8,0.1l-1.6-0.2c1.4-0.4,4.6,0,6.8-0.3c-0.6,0-1.2,0-1.3-0.1c0.5-0.1,1.9-0.1,2.7,0.1c-0.3,0.4-5.1,0.2-4.6,0.6
		c2.5,0.1,4.6-0.5,6.1-0.4L103,5.4l1.2-0.1h-0.4c0.5-0.2,1.5,0,2.5-0.1l-0.6,0.3h1.8l-0.2-0.1c2.9-0.1,5.4-0.1,7.9,0.1l-1.5-0.1
		c0.1-0.1,1-0.1,1.7-0.1c-0.2-0.2-2.1-0.1-2-0.3c2.5,0.1,2.8,0.2,5.3,0.4c0.3-0.1-1.6-0.4,0.4-0.5c-0.2,0.2,1.6,0.3,0.3,0.5
		c1.7-0.2,1.3,0.2,2.7-0.1c-0.2,0-0.4,0-0.7,0c-0.5-0.2,0.7-0.2,1.2-0.2c0.8,0.2,1.2,0.3,2.6,0.3l2.8-0.2c0.1,0.1,0,0.1,0,0.1
		c2.6-0.1,5.4,0.1,7.4-0.1c0.3-0.1,1-0.2-0.4-0.2c1.1-0.2,2.6,0,3.8,0.1l-1,0.2c3.2-0.1,7.2,0.2,10.2,0l-0.6-0.2
		c2.9-0.1,5.7,0.1,7.2,0c-2.1-0.3,1.5-0.2,2.1-0.3c-2-0.1-4.9,0.1-5.3,0.1h0.1l-3.8,0.2V5.1c-0.2,0.6-5.2-0.3-4.4,0.3
		c-1.1,0.1-1.5-0.2-1.4-0.3l-3,0.2c-0.3-0.1,0.3-0.4,0.7-0.3c1.2,0,3.1-0.2,4.3,0.1c1-0.2-0.9-0.3,1.2-0.3c3.6,0.3,7.9,0,10.5,0.3
		c-0.6-0.1-1.2-0.1-0.4-0.2l1.7,0.2c1.4-0.1,2.2-0.4,3.2-0.2c0.4-0.2-2.6-0.2-3.5-0.3c1.4-0.6,3,0.3,4.5-0.2
		c0.7-0.3-3.8,0.1-2.6-0.3l2,0.1c-1.4-0.4-3.3,0.2-3.9-0.3c0.7-0.2,2.8,0,3.1,0.1c0.6-0.1-1.1-0.3-0.1-0.4c1.2,0.2,1.7-0.1,2.6,0.1
		l-0.5,0.2c0.8,0,3,0.1,3.9,0.1c0.1,0.3-2.3,0.5-3.3,0.4c0.8,0.2,2.4,0.1,3.2,0.1L164,4.1c2.3,0,1.7-0.5,4.3-0.4
		c2.1-0.1,0.5,0.3,1.2,0.4c2.4-0.2,0.8,0,0.8-0.3c1.9-0.1,2.4,0.1,4.9,0.1C173.8,4,173.4,4.1,172,4l0.4,0.2c1.9-0.1,3.4-0.4,5.7-0.6
		l0.2,0.2c0.5-0.2,18.9-0.2,17.8-0.5c0.3,0-3.6,0-7.1,0l0.2-0.1C192,3.1,200.1,3,197.7,3c0.2-0.3,1.4-0.1,1.4-0.4c3-0.2,4.9-0.1,7,0
		C201.9,2.2,196.9,2,191.6,1.9z M184.2,3.3c0.1,0,0.1,0,0.2,0c0.2,0,0.4,0,0.6,0C184.6,3.3,184.4,3.3,184.2,3.3z M188.7,3.3
		c-0.1,0-0.3,0-0.4,0c-0.1,0,0.3-0.1,0.8-0.1L188.7,3.3z"/>
	<path class="st0" d="M35,2.7c-1.2,0.2-2.8-0.4-5-0.2c0.8-0.1,0.5,0.2,0.1,0.2c-1.4-0.1-3.7-0.1-5.2-0.1C25,2.7,25,2.8,25,2.8
		c-1.3-0.1-1.6-0.1-3-0.3C16.8,2.1,9.6,2.5,5.1,2C3.7,1.8,6.5,1.8,6,1.7C1,2.2-0.4,2.8,0.2,3.5c0.2,0,0.5-0.1,0.7-0.1
		c0,0.1,0,0.3,0.8,0.2c1.5-0.1-0.5-0.3,0.4-0.4c1.7,0.6,5.3-0.4,7.1,0.3c7.4-0.1,16.3-0.2,23-0.1l-0.3-0.1c0.7-0.1,2.5,0,2.6,0.2
		l0.3-0.3c2.5-0.1-1.2,0.8,1.6,0.8c-1.5-0.2-0.2-0.5,0.8-0.5c-0.3-0.1-0.2-0.5-0.8-0.5l-1.5-0.3c-0.1,0.4-2.6,0.2-3.5,0.1
		c0,0,0.1,0,0.1-0.1c0.3,0,0.3,0,0.1-0.1c0.5-0.2,1.3-0.3,2.2-0.1c1.1-0.1,2.3-0.1,3.4,0c-0.5-0.2-1-0.4-2.4-0.4
		C36,2.5,33.9,2.6,35,2.7z"/>
	<path class="st0" d="M49.1,3.5L49.1,3.5c-0.1,0-0.2,0-0.3,0s-0.1-0.1-0.1-0.1C49.9,3.2,52,3.9,52,3.6c-1.1-0.3-3.7-0.2-4-0.4
		c-0.3,0.1,0.6,0.2-0.3,0.3c-1.4-0.1-1.2-0.2-2.1-0.3l-0.8,0.2c-0.1-0.3-1.6-0.2-3.2-0.2c1.9,0.2,3.8,0.3,5.9,0.4
		c-2.7,0.3-5.3-0.2-8.1-0.1c-1.4,0.2,1.3,0.1,1.5,0.2c-0.4,0.4-1.3-0.2-2,0.1C38.7,4,41.8,4.1,43,4.2c1.1-0.1,1-0.1,1.4-0.3
		c0.3,0.2,1.3,0.2,1.6,0.4c2.2-0.2,3.4,0.2,5.5-0.1c0.1,0.1,0.1,0.1,0.1,0.1h0.2l-0.1-0.1c0.6-0.1,1.3-0.1,2.1-0.1
		C51.9,4,50.5,3.7,49.1,3.5L49.1,3.5z"/>
	<path class="st0" d="M38.6,3.1c0.1-0.1,0.1-0.1,0.1-0.1c0.8,0.1,1.8,0.1,2.8,0.1C40,3,38.6,2.9,37.1,2.8C37.5,3,37.9,3.1,38.6,3.1z
		"/>
</g>
</svg>
