<?xml version="1.0" encoding="utf-8"?>
<!-- Generator: Adobe Illustrator 24.2.1, SVG Export Plug-In . SVG Version: 6.00 Build 0)  -->
<svg version="1.1" id="Layer_1" xmlns="http://www.w3.org/2000/svg" xmlns:xlink="http://www.w3.org/1999/xlink" x="0px" y="0px"
	 viewBox="0 0 82.5 82.2" style="enable-background:new 0 0 82.5 82.2;" xml:space="preserve">
<style type="text/css">
	.st0{fill:#FFFFFF;}
</style>
<g>
	<path class="st0" d="M62.6,57.1c0,0,0.1,0,0.2-0.1C62.6,57.1,62.5,57.1,62.6,57.1z"/>
	<path class="st0" d="M68.6,42.1c0.4-2.7,1-5.5,1.5-8.3c0.2-1.5,0.5-3,0.8-4.5c0.3-2,0.6-3.9,0.9-5.6c0-0.1,0-0.2,0.1-0.3
		c-0.8,0-1.4-0.1-2.2-0.2c-1.4,0-3,0-4.6,0c-1.4,0-2.8,0-4.2,0.1c0,0,0.1,0,0.1,0c-1.4,0-2.5-0.1-3.9-0.1c0,0-0.2,0-0.3,0.1
		c-0.2-0.2-8.2,0.4-8.7,0.3c-0.2,0-0.3,0-0.5,0c-0.9,0-1.8-0.1-2.7-0.2c-0.3,0-1.2-0.1-1.9-0.1c-0.8,0-1.5-0.1-2.3-0.1
		c0.1,0.9,0.2,1.8,0.2,2.6c0,0.4,0.1,0.8,0.1,1.2c0,0.2,0.1,0.5,0.1,0.7c0.2,0.5,0.3,1.1,0.5,1.6c0,0.4,0.2,0.5,0.2,1
		c-0.2,1.4,0,2.2,0.1,1.5c0.2,1.1,0.3,2.2,0.5,3.2c0.1,0.4,0.2,0.9,0.3,1.4c0.1,0.4,0,0.6,0,0.8c0.2,1,0,0.7,0.1,1.8
		c-0.1,0.3,0.6,2.6,0.6,2.9l0-0.2c0.1,1.2,0,2.1,0.1,3.3c0.2,1.7,0.4,3.4,0.6,5.1c0.1,0.9,0.2,1.7,0.3,2.5c0.1,1.2,0.3,2.3,0.4,3.3
		c0.2,0-0.2-1.2,0-1.3c0.1,0.7,0.2,1.3,0.2,2c1.8,0.1,3.7,0.1,5.5,0.2c0.3,0,0.7,0.1,0.9,0.2c0.6,0.1,0.3-0.1,0.8,0l0.1,0.1
		c0.6-0.1,0.9,0.2,1.5,0.1c0-0.1,0.2-0.1,0.5-0.1c0,0.2,0.7,0,0.6,0.1l0,0c0.1,0,0.2,0,0.4,0c0.2,0,2.5-0.5,2.8-0.5l0.1,0
		c0.3,0,0.5-0.1,0.3-0.1l0.4,0l0,0l0.4,0c0.1,0,0.2,0.1,0,0.2c0.2,0,0.5-0.1,0.7,0c-0.7-0.1-1.5-0.2-2.2-0.4c0.3,0,0.8,0,1.1,0
		c0.4,0.1,1.1,0.2,1.7,0.2c0.1,0,0.2-0.2,0.5-0.1c0.1,0.1,0.3,0,0.6,0.1c-0.3,0.1-0.5,0-0.8,0c0,0.1,0.7,0.1,0.9,0.1
		c0.1,0,0.7,0,1,0c-0.1,0.1,0,0.1,0.2,0.1c0,0,0,0,0.1,0c0,0,0,0-0.1,0c0.1,0,0.2,0,0.2,0c0.2,0,0.4,0,0.3-0.1c0,0,0,0-0.1-0.1
		c0.5-0.1,1.2-0.2,1-0.2c-0.1,0-0.1,0-0.1-0.1c0,0,0,0,0,0c0,0,0.1-0.1,0-0.1l-0.1,0c-1,0,0.9-0.8-0.3-0.8c0.5,0.2-0.2,0.2-0.7,0.2
		c0-0.1-0.3-0.1-0.7-0.2c-0.3,0-0.2,0.1-0.3,0.1c-0.2,0-0.5-0.1-0.5-0.2c-0.3,0.1-0.4-0.1-0.7,0c-0.3,0,0,0-0.2,0.1
		c-0.4,0-1,0-1.3,0c-0.1-0.1-0.5-0.2-0.2-0.4c0.6,0-0.2,0.2,0.4,0.2c-0.3-0.2,0.6,0,0.7-0.2c-0.2-0.1-0.6-0.1-1-0.1l0.1,0
		c-0.3,0-0.9,0.1-1.2,0c0.1-0.1-0.1-0.1,0.2-0.1l-0.4,0c0,0-0.1,0,0,0.1c-0.2,0-0.4,0-0.5,0c0-0.1-2.2,0.3-2.2,0.2
		c-0.1,0-0.2,0-0.3,0c0.8,0,2.5-0.2,2.2-0.2c-0.3-0.1-3.5,0.3-3.6,0.2c-0.2,0-0.5,0-0.4,0.1c-0.4,0,0.1-0.1-0.2-0.2c0,0,0,0-0.1,0
		l-0.3-0.1c-0.6,0.1-1.5,0-2.1,0.1c0.2-0.1,0.4-0.2,0.8-0.3l0.1,0c0.1,0,0.4,0,0.4-0.1c-0.4,0-0.7,0-1.1,0c-0.1,0-0.2,0-0.2-0.1
		c0,0,0,0,0,0c-0.1,0-0.1,0-0.1-0.1c0,0,0,0,0,0c-0.2-0.2-1.5,0.1-2.2,0c-0.2,0,0,0-0.3,0.1c-0.5-0.1-0.8-0.1-1.2-0.2c0,0,0,0,0-0.1
		c-0.1-0.1-0.1-0.1-0.2,0.2l0-0.4c0.1,0.1,0.2-0.1,0.2-0.3c0-0.2,0.1-0.3,0.2-0.2c0,0,0-0.1,0-0.2s0-0.1-0.1-0.3
		c-0.1,0-0.2-0.1-0.2-0.5c0-0.5,0-0.4,0-0.9c0.1-0.1,0.1,0,0.2,0c-0.2-0.7,0.1-0.6,0-1.3c-0.1-0.4-0.2-1.2-0.3-1.2
		c-0.1-0.5,0-0.6,0.2-0.5l0-0.5c0.2,1.5,0.3,3,0.5,4.5c0-3.3,0-7.2-1.4-9.6c0.5-0.3,0.3-3.5,0.2-3.6c-0.2-0.7-0.3-1.3-0.5-2
		c-0.5-2-0.8-4.2-1.1-6.4c0.2-0.1,0.5-0.2,0.6-0.1c0.1,0,0.1,0,0.1-0.1c0.1,0,0,0.1,0,0.2c0,0,0,0,0,0l0.1,0.1
		c0.2-0.1,0.4,0,0.5-0.1c0,0.1-0.1,0.2-0.2,0.3l0,0c0,0-0.1,0.1-0.1,0.1c0.1,0,0.2,0,0.3,0c0,0,0,0,0.1,0.1c0,0,0,0,0,0
		c0,0,0,0.1,0,0.1c0,0,0,0,0,0c0.1,0.2,0.4-0.1,0.6,0c0,0,0,0,0.1-0.1c0.2,0.1,0.3,0.1,0.5,0.2c0.1-0.1,0.1-0.1,0-0.2l0.1,0
		c-0.1,0.2,0.3,0.2,0.1,0.5c0,0,0.1,0.1,0.2,0c0-0.1,0-0.2,0.1-0.2c0.1,0.1,0.1,0,0.2,0.1c0,0.1,0,0.1,0,0.2
		c0.2-0.1,0.2,0.2,0.3,0.2c0.1,0,0.3,0,0.3-0.2c0.1,0,0.1,0.1,0.1,0.2l0.1,0c-0.4,0-0.8,0-1.2-0.1c0.8,0.5,1.9,0.9,2.5-0.1
		c0.1,0.5,0.9,0.8,0.9,0.7c0.2-0.1,0.3-0.2,0.5-0.2c1.1-0.4,2.3-0.2,3.6,0c0.7,0.1,2.6,0.2,3.3,0.4c0.1,0,0.2,0,0.3,0.1
		c-0.2-0.1-0.2-0.1-0.3-0.1c0.4-0.1,0.8-0.3,1.2-0.4c-0.1-0.1-0.1-0.2-0.2-0.2l0.2,0c0.2-0.2,0.6-0.2,0.8-0.3c0,0.1,0.1,0.1,0.2,0.2
		l0-0.1c0.5,0.1,1.1,0,1.5,0c0.1,0,0.1,0,0.1,0.1l0.4-0.1c0,0.1,0.4,0.1,0.2,0.2c0.3-0.2,0.7-0.1,1-0.3c1.1,0,2.3-0.1,3.4-0.4l0-0.1
		c0.3-0.1,0.6-0.3,1-0.3c-0.7,3.7-1.3,7.5-1.8,11.2l0.1-0.1c-0.2,1.5-0.2,2.9-0.6,4.8c-0.1,1.4-0.3,3.2-0.1,3.8
		c-0.2,1.5-0.2,2.2-0.4,3.7c0.2-0.4-0.1,1.5,0.2,0.8c0.4-1,0.2-1,0.6-1.8l-0.1,0C66.9,49.9,67.8,46,68.6,42.1z M63.8,56.4
		C63.9,56.4,63.8,56.4,63.8,56.4C63.7,56.4,63.7,56.4,63.8,56.4z M63,56.7C62.9,56.7,62.9,56.7,63,56.7c0,0.1,0.4,0.1,0.7,0.1
		c0,0-0.1-0.1-0.1-0.1c0.1,0,0.2,0,0.3,0c0,0,0.1,0,0.1,0l0.1,0c0.1,0,0.1,0,0.2,0c0.1,0,0.1,0,0.1,0c-0.1,0-0.2,0-0.2,0
		c0.2,0-0.3,0.1-0.7,0.2c-0.2,0-0.6,0-0.5-0.1c0,0,0,0-0.1,0l-0.1,0C62.7,56.8,62.8,56.7,63,56.7z M44.4,31.4
		C44.4,31.4,44.4,31.4,44.4,31.4L44.4,31.4c0.1-0.1,0.1-0.1,0.1-0.1c0,0,0.1,0,0.1,0C44.5,31.4,44.5,31.4,44.4,31.4z M66.7,29.7
		c-0.7,0.1-1.4,0-2.2,0.1c-0.8,0.1-1.6,0.2-2.3,0.3c-0.2,0-0.3-0.1-0.4-0.2c-0.6,0.1-1.4,0-2.1,0.1c0,0,0,0,0,0
		c-0.4,0-0.7-0.1-1-0.1c0,0,0,0-0.1,0.1c-0.1-0.2-2.1,0.4-2.2,0.3c0,0-0.1,0-0.1,0c-0.8-0.1-1.5-0.5-2.2-0.5
		c-0.1,0.1-0.3,0.2-0.4,0.3c-0.1-0.1-0.1,0.1-0.3,0.1c-0.3-0.4-0.6-0.2-0.4-0.1c-0.3,0.1-0.6,0-0.8,0c-0.1,0-0.2,0.1-0.4,0.1
		c-0.1,0-0.2,0-0.2-0.1c-0.3,0.1-0.2,0-0.5-0.1c-0.1-0.2-0.7,0.2-0.8,0.2l0,0c-0.3,0-0.5-0.3-0.8-0.3c-0.9-0.1-1.8,0-2.6-0.1
		c0,0.2,0.2,0,0.2,0.2c-0.5,0-1-0.2-1.4-0.2c-0.1,0-0.2-0.1-0.2-0.2c-0.2-0.1-0.1,0.1-0.2,0.1l0-0.1c-0.2,0.1-0.2-0.2-0.4-0.1
		c0,0.1-0.1,0.1-0.1,0.1c0-0.1-0.2,0-0.2-0.1v0c0,0-0.1,0-0.1,0c0,0-0.2,0.1-0.4,0.3c-0.1-0.5-0.1-1-0.2-1.6L43.9,27l0-0.4v-0.1
		c0-0.1,0-0.3,0-0.4l0,0c0.1,0,0.2,0,0.3,0c0.1,0,0.1,0,0.2,0.1c0.2,0,0.5,0,0.7,0c1.1,0,2.3,0.1,3.6,0.1c2.5,0.1,5,0.1,6.4,0.2
		c0.4,0,0.8,0,1.2,0.1c-0.7-0.1-0.7-0.1-1.3-0.1c1.7-0.1,3.2-0.3,4.7-0.4c-0.3-0.1-0.3-0.1-0.9-0.2l0.8,0.1c0.7-0.2,2.3-0.2,3-0.3
		c-0.2,0.1,0.4,0.1,0.9,0.2l-0.2-0.1c1,0,2,0,3.1,0c0.8,0,1.6,0,2.3,0c0.1,0,0.2,0,0.2,0.1l0.3-0.1l0,0.4c-0.2,0-0.2,0.6-0.3,0.3
		c0,0,0,0.1,0,0.2c0,0.1,0,0.1,0,0.3c-0.1,0.3-0.1,0.6-0.1,0.9c-0.1,0.6-0.2,1.2-0.2,1.8c0,0.1,0,0.1,0,0.2
		C67.8,29.8,67.3,29.7,66.7,29.7z"/>
	<path class="st0" d="M62.8,57C62.9,57,62.9,57,62.8,57L62.8,57C62.9,57,62.8,57,62.8,57z"/>
	<path class="st0" d="M62.8,56.8C62.8,56.8,62.8,56.8,62.8,56.8C62.9,56.8,62.8,56.7,62.8,56.8C62.8,56.8,62.8,56.8,62.8,56.8z"/>
	<path class="st0" d="M71.7,32.6C71.7,32.6,71.7,32.6,71.7,32.6L71.7,32.6C71.7,32.6,71.7,32.5,71.7,32.6
		C71.7,32.5,71.7,32.5,71.7,32.6z"/>
	<path class="st0" d="M71.7,32.3C71.7,32.3,71.7,32.3,71.7,32.3L71.7,32.3C71.7,32.3,71.7,32.3,71.7,32.3z"/>
	<path class="st0" d="M71.7,32.2C71.7,32.2,71.7,32.2,71.7,32.2C71.7,32.2,71.8,32.2,71.7,32.2z"/>
	<path class="st0" d="M82.5,39c-0.1-0.1-0.2-0.3-0.4-0.4c0.1-0.1-0.1-0.1-0.1-0.3c0.3-0.5,0.1-0.7,0-0.5c-0.1-0.3-0.2-0.7-0.3-1
		c-0.1-0.1-0.2-0.2-0.3-0.4c-0.1-0.1-0.1-0.2,0-0.3c-0.2-0.3-0.1-0.2-0.2-0.6c0.1-0.2-0.7-0.6-0.8-0.7l0.1,0c-0.2-0.3-0.3-0.7-0.6-1
		c-0.9-0.9-2.2-1.2-3.1-1.4c0,0.1,0.2,0,0.2,0.2c-0.5-0.1-1-0.4-1.6-0.5c-0.1-0.1-0.2-0.2-0.2-0.2c-0.1-0.1-0.1,0.1-0.2,0V32
		c-0.2,0.1-0.3-0.2-0.4-0.1c0,0.1-0.1,0.1-0.1,0c0-0.1-0.2,0-0.2-0.1v0c0,0-0.1,0-0.1,0c-0.1,0-0.8,0.4-0.8,0.5l-0.1,0
		c-0.1,0-0.1,0.1-0.1,0.1h-0.1l0,0l-0.1,0c0,0-0.1-0.1,0-0.1c-0.1,0-0.2,0.1-0.2,0.1c0.2,0.1,0.4,0.2,0.6,0.4c-0.1,0.1-0.2,0-0.3,0
		c-0.1-0.1-0.3-0.2-0.5-0.2c0,0-0.1,0.2-0.1,0.1c-0.1-0.1-0.1,0-0.2-0.1c0.1-0.1,0.2,0,0.2,0c0-0.1-0.2-0.1-0.3-0.1
		c0,0-0.2,0-0.3,0.1c0-0.1,0-0.1-0.1-0.1l0,0l0,0c0,0-0.1,0-0.1,0c-0.1,0-0.1,0.1-0.1,0.1c0,0,0,0.1,0,0.1c-0.2,0.1-0.3,0.3-0.3,0.3
		c0.1,0,0,0.1,0,0.2l0,0c0.3,0-0.2,0.8,0.2,0.8c-0.2-0.2,0-0.2,0.2-0.2c0,0,0.1,0.1,0.2,0.2c0.1,0,0.1-0.1,0.1-0.1
		c0.1,0,0.2,0.1,0.2,0.2c0.1-0.1,0.1,0.1,0.2,0c0.1,0,0,0,0-0.1c0.1,0,0.3,0,0.4,0c0,0.1,0.2,0.2,0.1,0.4c-0.2,0,0.1-0.2-0.1-0.2
		c0.1,0.2-0.2,0.1-0.2,0.2c0.1,0.1,0.2,0.1,0.3,0l0,0c0.1,0,0.2-0.1,0.3,0c0,0.1,0,0.1,0,0.1l0.1,0c0,0,0,0,0-0.1c0.1,0,0.1,0,0.2,0
		c0,0.1,0.6-0.3,0.6-0.2c0,0,0.1,0,0.1,0c-0.2,0-0.7,0.2-0.6,0.2c0.1,0.1,0.9-0.3,1-0.2c0.1,0,0.1,0,0.1-0.1c0.1,0,0,0.1,0,0.2
		c0,0,0,0,0,0l0.1,0.1c0.2-0.1,0.4,0.1,0.6-0.1c-0.1,0.1-0.1,0.2-0.2,0.3l0,0c0,0-0.1,0-0.1,0.1c0.1,0.1,0.2,0,0.3,0
		c0,0,0,0,0.1,0.1v0c0,0.1,0,0.1,0,0.1l0,0c0,0.2,0.4-0.1,0.6,0c0.1,0,0,0,0.1-0.1c0.2,0.1,0.3,0.2,0.5,0.3c0.1-0.1,0.1-0.1,0-0.2
		l0.1,0.1c-0.2,0.2,0.2,0.3,0,0.5c0,0.1,0.1,0.1,0.2,0.1c0-0.1,0.1-0.2,0.2-0.1c0.1,0.1,0.1,0.1,0.2,0.2c0,0.1,0,0.1-0.1,0.2
		c0.2,0,0.1,0.2,0.2,0.2c0.1,0,0.3,0.1,0.3-0.1c0.1,0,0.1,0.1,0,0.2l0.1,0.1c-0.3-0.1-0.6-0.2-0.9-0.4c0.3,0.3,0.6,0.7,0.8,0.8
		c0.2,0.2,0.5,0.2,1,0c-0.3,0.4-0.2,1-0.1,0.9c0.2,0,0.3,0.1,0.4,0.2c0.8,0.5,0.9,1.8,0.9,3.1c0,0.4,0,1,0,1.1
		c0,0.1-0.4,0.5-0.6,0.7c-0.1,0-0.1,0.1-0.2,0.1c0.1,0,0.1,0,0.2-0.1c-0.1,0.3-0.2,0.6-0.4,0.9c0.1,0,0.1,0.1,0.3,0.1l-0.2,0.1
		c0,0.3-0.3,0.5-0.4,0.6c0-0.1-0.2-0.1-0.3,0l0.1,0c-0.2,0.1-0.4,0.2-0.6,0.3c-0.2,0.1-0.4,0.2-0.7,0.2c-0.1,0-0.1,0-0.2,0
		c-0.1,0.1-0.2,0.1-0.4,0.2c0-0.2-0.4-0.1-0.2-0.2c-0.3,0.2-0.6,0.2-0.9,0.4c-1.1,0.2-2.3,0.5-3.4,0.8l0,0.1
		c-0.4,0.1-0.8,0.5-1.3,0.4c-0.3,0.2-0.9,0.4-1,0.7c-0.4,0.1-0.6,0.2-1,0.3c0.1,0.2-0.4,0.2-0.2,0.3c0.3,0.2,0.3,0,0.5,0.2l0,0
		c1.1,0.2,2.2,0.3,3.3,0.3c0.7-0.2,1.6-0.2,2.3-0.3c0.8-0.2,1.8-0.4,2.5-0.7c0.2-0.1,0.3,0,0.5,0c0.3-0.1,0.7-0.3,1.2-0.5
		c0.4-0.2,0.8-0.4,1.2-0.7c0,0,0,0,0,0c0.4-0.3,0.8-0.4,1.1-0.7c0,0,0-0.1,0-0.1c0.1,0,0.5-0.5,0.8-1.2c0.1-0.3,0.3-0.7,0.3-1
		s0.1-0.5,0.1-0.6c0-0.1,0-0.1,0-0.2c0-0.2,0.1-0.5,0.1-0.8c0-0.2,0.1-0.5,0.1-0.7C82.5,39.8,82.6,39.4,82.5,39z M71.5,32.9
		C71.5,32.9,71.5,32.9,71.5,32.9C71.4,33,71.4,32.9,71.5,32.9z M71.7,32.6C71.7,32.6,71.7,32.6,71.7,32.6
		C71.7,32.6,71.7,32.6,71.7,32.6C71.7,32.6,71.7,32.6,71.7,32.6C71.7,32.6,71.7,32.6,71.7,32.6c-0.1-0.1-0.2,0-0.2,0
		c0,0,0,0.1,0,0.1c0,0-0.1,0-0.1,0.1c0,0,0,0,0,0l0,0c0,0,0,0-0.1,0c0,0,0,0,0,0c0,0,0.1,0,0.1,0c-0.1,0,0.1-0.1,0.2-0.3
		C71.6,32.5,71.7,32.5,71.7,32.6C71.7,32.5,71.7,32.5,71.7,32.6L71.7,32.6C71.8,32.5,71.7,32.5,71.7,32.6z"/>
	<path class="st0" d="M38.5,51C38.5,50.9,38.5,50.9,38.5,51C38.5,50.9,38.5,50.9,38.5,51C38.5,50.9,38.5,50.9,38.5,51z"/>
	<path class="st0" d="M38.5,51.2C38.5,51.2,38.5,51.2,38.5,51.2C38.5,51.2,38.4,51.2,38.5,51.2C38.4,51.2,38.5,51.2,38.5,51.2z"/>
	<path class="st0" d="M38.3,51.3c0,0,0,0,0.1,0C38.3,51.2,38.2,51.3,38.3,51.3z"/>
	<path class="st0" d="M41.5,54.6c0.4-0.4,0.8-0.9,1.2-1.4c0-0.2,0.1-0.4,0-0.6c-0.1-0.4-0.4-0.8-0.8-0.9c-0.3-0.2-0.6-0.3-0.8-0.2
		c-0.7-0.5-1.2-0.6-1.9-0.8c0.2-0.2,0.5-0.4,0-0.5c0.3,0.2-0.2,0.1-0.5,0.1c0-0.1-0.2-0.2-0.4-0.3c-0.2,0-0.1,0-0.2,0.1
		c-0.1-0.1-0.3-0.1-0.3-0.2c-0.2,0.1-0.3-0.1-0.5-0.1c0-0.1,0-0.2-0.1-0.2c-0.1,0-0.2,0-0.3,0.1l0-0.1c-0.1,0-0.2-0.1-0.2-0.2
		c0,0,0.1,0,0.1,0c0,0-0.1-0.1-0.2-0.1c0,0,0,0,0,0c0.1,0,0.1-0.1,0.1-0.1L37,49c0-0.2-0.2-0.5-0.3-0.6c0,0,0-0.1,0-0.1
		c-0.1,0-0.1-0.1-0.2-0.1c0.1-0.1,0-0.2,0.1-0.2c-0.2,0-0.3-0.2-0.5-0.1c-0.4-0.3-0.9-0.3-1.3-0.1v0.1c-0.1,0.1-0.2,0.4-0.3,0.3
		c0,0.1-0.1,0.2-0.1,0.3c-0.1,0-0.2,0-0.3,0l0.2,0c0,0.1,0,0.1,0,0.2c-0.7,0-1.6,0-1.7-0.1c-0.2,0-0.3,0-0.3,0.1
		c-0.2-0.1,0.1-0.1-0.1-0.2c0,0,0,0,0,0L32,48.3c-0.4,0.1-1-0.1-1.4,0c0.1-0.1,0.3-0.2,0.5-0.2l0,0c0,0,0.3,0,0.3-0.1
		c-0.2-0.1-0.5-0.1-0.7,0c0,0-0.1,0-0.1-0.1c0,0,0,0,0,0c-0.1,0-0.1-0.1,0-0.1c0,0,0,0,0,0c-0.1-0.2-1,0-1.5-0.1c-0.1,0,0,0-0.2,0.1
		c-0.5-0.1-0.8-0.2-1.3-0.3c-0.2,0.1-0.2,0.1,0,0.2l-0.4,0c0.4-0.2-0.7-0.3-0.3-0.5c-0.1-0.1-0.3-0.1-0.5-0.1c0,0.1-0.1,0.2-0.3,0.1
		c-0.4-0.1-0.3-0.1-0.6-0.2c-0.1-0.1,0-0.1,0-0.2c-0.5,0.1-0.4-0.2-0.9-0.2c-0.3,0-0.8,0-0.9,0.1c-0.4,0-0.4-0.1-0.3-0.2l-0.3,0
		c1,0,2,0.1,3,0.2c-2.2-0.6-4.8-1.1-6.6,0c-0.2-0.5-2.5-0.7-2.5-0.5c-0.5,0.1-1,0.3-1.4,0.4c-1.5,0.4-3.1,0.9-4.6,1.7
		c-0.4,0.2-0.8,0.4-1.2,0.7c-0.4,0.3-0.8,0.6-1.2,1.2c-0.4,0.6-0.6,1.2-0.5,2c0,0.7,0.3,1.4,0.6,1.9c0.3,0.6,0.9,1.2,1.7,1.7
		c0.7,0.5,1.6,1,2.4,1.4c1.8,0.8,3.5,1.1,4.5,1.3c0.3,0,0.5,0.1,0.8,0.2c-0.5-0.1-0.5-0.1-0.9-0.2c1.2,0,2.2,0,3.2,0
		c-0.2-0.1-0.2-0.2-0.6-0.3l0.5,0.1c0.5-0.2,1.5-0.1,2-0.2c-0.1,0.1,0.3,0.2,0.6,0.2l-0.1-0.1c1.3,0.1,2.9,0,4.1,0
		c0.2,0,0.3,0,0.4,0.1l1.1-0.1c-0.1,0.2,1,0.1,0.4,0.2c0.8-0.2,1.7-0.2,2.5-0.5c1.4-0.2,2.9-0.4,4.4-0.7c1.5-0.3,3-0.7,4.4-1.4
		l-0.1,0C40.7,55.3,41.1,55,41.5,54.6z M38.6,50.9C38.6,50.9,38.5,50.9,38.6,50.9c0,0.1,0.3,0.1,0.4,0.1c0,0,0-0.1,0-0.1
		c0,0,0.1,0,0.1,0c0.1,0,0.1,0,0.2,0.1c-0.1,0-0.3,0.1-0.5,0.1c-0.1-0.1-0.4-0.1-0.3-0.2c0,0,0,0,0,0l-0.1,0
		C38.4,50.9,38.5,50.9,38.6,50.9z M37.4,50.7c0.1,0,0.2,0,0.3,0.1C37.6,50.8,37.5,50.8,37.4,50.7C37.4,50.8,37.4,50.8,37.4,50.7z
		 M35.9,48.9C35.9,48.9,35.9,48.9,35.9,48.9C35.9,48.9,35.9,48.9,35.9,48.9C35.9,48.9,35.9,48.9,35.9,48.9z M34.3,48.7
		C34.3,48.7,34.3,48.7,34.3,48.7C34.3,48.7,34.3,48.7,34.3,48.7C34.3,48.7,34.3,48.7,34.3,48.7z M34.3,48.7L34.3,48.7
		c0,0-0.1,0-0.2,0C34.2,48.7,34.3,48.7,34.3,48.7z M34.1,48.7C34.2,48.7,34.2,48.7,34.1,48.7c0,0-0.1,0-0.1,0.1c0,0-0.1,0-0.1,0l0,0
		c-0.1,0-0.1,0-0.1,0c-0.1,0-0.2,0-0.2-0.1C33.8,48.7,33.9,48.7,34.1,48.7z M33.7,54.9c-1.9,0.3-4,0.6-5.7,0.8
		c-0.4,0.1-0.7-0.1-1-0.1c-1.5,0.1-3.5,0-5.3,0c0,0,0.1,0,0.1,0c-0.9,0-1.6-0.2-2.5-0.3c0,0-0.1,0-0.2,0c-0.1-0.1-1.4-0.1-2.7-0.3
		c-1.3-0.1-2.6-0.5-2.7-0.6l-0.3-0.1c-0.8-0.4-1.5-1-1.9-1.6c-0.4-0.7-0.2-0.8-0.2-1c-0.1-0.1,0-0.3,0.1-0.6
		c0.2-0.1,0.1-0.2,0.4-0.4c0.9,0,1.2-0.4,0.8-0.3c0.6-0.3,1.2-0.5,1.8-0.7c0.3-0.1,0.5-0.2,0.8-0.3c0.2-0.1,0.4,0,0.5,0
		c0.6-0.2,0.5,0,1.1-0.1c0.1,0.1,0.7-0.1,1.2-0.2c0.1,0.1,0.1,0.1,0.1,0.2c-0.3,0-0.5,0-0.7,0.1c0,0.1,0,0.1,0,0.3l-0.1-0.1
		c-0.1,0.2-0.3,0.1-0.4,0.2c0-0.1,0-0.1-0.1-0.2l0,0.1c-0.2-0.1-0.4,0-0.6,0c0,0,0,0-0.1-0.1l-0.1,0.1c0-0.2-0.2-0.1-0.1-0.2
		c-0.1,0.2-0.2,0.1-0.3,0.4c-0.4,0.2-0.6,0.5-0.7,1l0.1,0c0,0.2,0.3,0.4,0.2,0.6c0.1,0,0.2,0,0.3,0c0.1,0.1,0.1,0.2,0.1,0.2l-0.2,0
		c0.1,0,0.1,0.1,0.2,0.1c-0.1,0.1,0,0-0.1,0.1c-0.1,0.1,0,0.1,0,0.1l0,0c0,0,0.1,0,0,0.1c0,0-0.1,0.1-0.1,0.1l0,0c0,0,0,0,0,0
		c0,0,0,0,0,0c0,0.1,0.3-0.2,0.2-0.1c0,0,0,0.1,0,0c0,0-0.3,0.1-0.2,0.1c0,0.1,0.4-0.2,0.3-0.1c0,0,0,0,0.1-0.1c0,0-0.1,0.1-0.1,0.2
		c0,0,0,0,0,0l0,0.1c0.1-0.1,0.1,0.1,0.1-0.1c0,0.1-0.1,0.2-0.1,0.2l0,0c0,0,0,0-0.1,0.1c0,0,0,0,0.1,0l0,0.1l0,0c0,0,0,0,0,0.1l0,0
		c-0.1,0.2,0.1-0.1,0.2,0c0,0,0,0,0-0.1c0,0.1,0,0.2,0.1,0.2c0-0.1,0-0.1,0-0.2l0,0c-0.1,0.2,0,0.2,0,0.5c0,0.1,0,0.1,0.1,0
		c0-0.1,0-0.2,0.1-0.2c0,0.1,0,0,0.1,0.1c0,0.1,0,0.1,0,0.2c0.1-0.1,0.1,0.2,0.1,0.2c0,0,0.1,0,0.1-0.2c0.1,0,0.1,0.1,0.1,0.2l0.1,0
		c-0.2,0-0.4,0-0.5-0.1c0.3,0.5,1.2,0.8,1.1-0.3c0.2,0.5,0.8,0.5,0.7,0.3c0-0.1,0-0.3,0.1-0.4c0.1-0.7,0.6-0.9,0.8-1.8
		c0.1-0.2,0-0.9-0.3-1.3c-0.2-0.4-0.5-0.6-0.6-0.8c0,0-0.1-0.1-0.1-0.1c0.3-0.1,0.6-0.1,0.6-0.1l-0.1,0c0.8,0,1.3,0.3,2.1,0.3
		c2.2,0.1,4.6,0.1,6.6,0.3c0-0.2-0.5,0-0.5-0.2c1.2,0.1,2.4,0.4,3.6,0.5c0.2,0.1,0.5,0.2,0.6,0.2c0.4,0.1,0.2,0,0.5,0l0,0.1
		c0.4-0.1,0.6,0.2,1,0.2c0,0,0.2,0,0.3,0c0,0,0,0.1,0.1,0.1c0,0.1,0.2,0.2,0.5,0.1c0,0,0,0,0,0c0,0,0.1,0,0.2,0
		c-0.2,0.1-0.3,0.3-0.3,0.5c0,0.2,0.1,0.3,0.1,0.3c0.2,0,0.3,0.1,0.5,0.1c0.5,0.1,1,0.2,1.5,0.2c0.5-0.1,0.8-0.2,1.2-0.3
		c0.2-0.1,0.5-0.3,0.8-0.6c0.1,0,0.3,0.1,0.4,0.1c0.1,0,0.4,0.1,0.6,0.1c-0.1,0.1,0,0.1,0.1,0.1c0,0,0,0,0,0c0,0,0,0,0,0
		c0.1,0,0.1,0,0.2,0.1c0.1,0,0.2,0,0.2,0c0,0,0,0,0-0.1c0.2,0,0.4,0,0.5-0.1c0.1,0,0.1,0.1,0.2,0.2l0-0.1c0.2,0.1,0.4,0.3,0.7,0.5
		l0.3,0.2c0.1,0.1,0.2,0.2,0.2,0.2c0.1,0.2,0.3,0.3,0.2,0.5c0,0.1-0.1,0.2-0.2,0.2c0,0-0.1,0.1-0.1,0.1c0,0,0,0-0.2,0.1
		c-0.4,0.3-1,0.5-1.6,0.7C37.5,54.4,35.5,54.6,33.7,54.9z M16.8,50.7C16.8,50.7,16.8,50.7,16.8,50.7C16.8,50.8,16.8,50.7,16.8,50.7
		L16.8,50.7z M15.9,52c0,0-0.1,0.1-0.1,0.1C15.8,52.1,15.8,52,15.9,52C15.8,52,15.9,52,15.9,52z"/>
	<path class="st0" d="M27.3,52c0.2-0.2,0.3-0.4,0.2-0.6c0-0.2-0.1-0.3-0.2-0.2c-0.2,0-0.4,0-0.5,0c-0.5,0-1.1,0-1.5,0.2
		c-0.5,0.1-0.8,0.3-1.1,0.5c-0.4,0.2-0.8,0.8-1,1.4c0,0.1,0,0.1-0.1,0.2c0.1-0.1,0.1-0.1,0.1-0.2c0.1,0.3,0.2,0.6,0.4,0.8
		c0.1,0,0.1-0.1,0.2-0.2l0,0.1c0.2,0.1,0.3,0.3,0.4,0.3c-0.1,0-0.1,0.1-0.1,0.2l0.1,0c0,0.2,0.3,0.4,0.4,0.6c0,0,0,0.1,0,0.1
		c0.1,0,0.1,0,0.2,0.1c-0.1,0.1,0,0.2-0.1,0.2c0.2,0,0.3,0.1,0.5,0c0.5,0.2,1,0.2,1.3-0.1l0-0.1c0.1-0.1,0.1-0.4,0.3-0.4
		c0-0.1,0-0.2,0-0.3c0.1,0,0.2-0.1,0.3-0.1l-0.2,0c0-0.1,0-0.2,0-0.3c0.1,0,0,0,0.2,0c0.1,0,0.1,0,0.1-0.1l0,0c0,0-0.1,0,0-0.1
		c0.1,0,0.1,0,0.1,0l0,0c0,0,0,0-0.1,0c0,0,0,0,0,0c0.1,0-0.3-0.1-0.3-0.1c0,0,0,0,0,0c0,0,0.2,0.1,0.2,0.1c0.1,0-0.4-0.2-0.2-0.2
		c0,0,0,0-0.1,0c0,0,0.1,0,0.2,0c0,0,0,0,0,0l0.1,0c-0.1,0,0-0.1-0.1-0.1c0.1,0,0.2,0,0.3,0l0,0c0,0,0,0,0.1,0c0,0,0-0.1-0.1-0.1
		l0,0l0,0c0,0,0,0,0.1,0h0c0.2-0.1-0.2-0.1-0.1-0.2c0,0,0,0-0.1,0c0.1-0.1,0.1-0.1,0.1-0.2c-0.1,0-0.1,0-0.2,0.1l0,0
		c0.2-0.1,0.2-0.2,0.4-0.2c0,0,0-0.1,0-0.1c-0.1,0-0.1,0.1-0.2,0c0-0.1,0,0,0.1-0.1c0.1,0,0.1,0,0.1-0.1c-0.1,0,0.1-0.1,0.1-0.2
		c0,0-0.1-0.1-0.2,0c0,0,0.1-0.1,0.2-0.2l0,0c0.1,0.1,0.1,0.2,0.1,0.4C28.2,52.2,28.3,51.6,27.3,52z M25.4,54.2
		C25.4,54.2,25.4,54.2,25.4,54.2C25.4,54.2,25.4,54.2,25.4,54.2C25.4,54.2,25.4,54.2,25.4,54.2z M27,54.1c0,0,0.1,0,0.1,0
		C27.1,54.1,27,54.1,27,54.1C27,54.1,27,54.1,27,54.1z"/>
	<path class="st0" d="M6.5,55.4c0.1-0.1,0.1-0.2,0.1-0.3c0-0.1-0.1-0.2-0.1-0.1c-0.1,0-0.2,0-0.3,0c-0.3,0-0.6,0-0.8,0.1
		C5.1,55,5,55.1,4.8,55.2c-0.2,0.1-0.4,0.5-0.6,0.8c0,0,0,0.1,0,0.1c0-0.1,0-0.1,0.1-0.1c0.1,0.2,0.1,0.3,0.2,0.4c0,0,0.1,0,0.1-0.1
		l0,0.1c0.1,0,0.2,0.1,0.2,0.2c-0.1,0-0.1,0-0.1,0.1l0,0c0,0.1,0.2,0.2,0.2,0.3c0,0,0,0,0,0.1c0,0,0.1,0,0.1,0
		c-0.1,0.1,0,0.1-0.1,0.1c0.1,0,0.2,0.1,0.3,0c0.2,0.1,0.5,0.1,0.7-0.1l0,0c0.1-0.1,0.1-0.2,0.2-0.2c0-0.1,0-0.1,0-0.2
		c0.1,0,0.1,0,0.2-0.1H6.2c0,0,0-0.1,0-0.1c0.1,0,0,0,0.1,0c0.1,0,0.1,0,0,0h0c0,0,0,0,0,0c0,0,0.1,0,0.1,0l0,0c0,0,0,0,0,0
		c0,0,0,0,0,0c0,0-0.2-0.1-0.2-0.1c0,0,0,0,0,0c0,0,0.1,0.1,0.1,0.1c0,0-0.2-0.1-0.1-0.1c0,0,0,0-0.1,0c0,0,0.1,0,0.1,0c0,0,0,0,0,0
		l0.1,0c-0.1,0,0-0.1-0.1,0c0,0,0.1,0,0.2,0l0,0c0,0,0,0,0.1,0c0,0,0,0,0,0l0,0h0c0,0,0,0,0,0h0c0.1,0-0.1,0,0-0.1c0,0,0,0,0,0
		c0,0,0.1-0.1,0.1-0.1c-0.1,0-0.1,0-0.1,0l0,0c0.1,0,0.1-0.1,0.2-0.1c0,0,0,0,0,0c0,0-0.1,0-0.1,0c0,0,0,0,0-0.1c0,0,0.1,0,0.1,0
		c-0.1,0,0.1-0.1,0.1-0.1c0,0-0.1,0-0.1,0c0,0,0,0,0.1-0.1v0c0,0.1,0.1,0.1,0.1,0.2C6.9,55.5,7,55.1,6.5,55.4z"/>
	<path class="st0" d="M1,57.3C1,57.3,1,57.3,1,57.3C1,57.3,1,57.3,1,57.3c-0.1,0-0.2,0-0.2,0c0,0,0,0,0,0.1l0,0
		c-0.1,0.1-0.1,0-0.1,0.1c0,0,0,0,0-0.1v0c-0.1,0-0.1,0-0.2,0c0,0,0,0,0,0l-0.1,0c0,0-0.1,0,0-0.1c0,0.1-0.1,0-0.1,0.1
		C0.1,57.6,0,57.7,0,57.9l0,0C0,58,0.1,58,0.1,58.1c0,0,0.1,0,0.1,0c0,0,0,0,0,0.1l-0.1,0c0,0,0,0,0.1,0c0,0,0,0,0,0c0,0,0,0,0,0v0
		c0,0,0,0,0,0c0,0,0,0,0,0v0c0,0,0,0,0,0c0,0,0,0,0,0c0,0,0.1-0.1,0.1,0c0,0,0,0,0,0s-0.1,0-0.1,0c0,0,0.1-0.1,0.1,0c0,0,0,0,0,0
		c0,0,0,0,0,0.1l0,0l0,0c0,0,0,0,0.1,0c0,0,0,0.1-0.1,0.1v0c0,0,0,0,0,0c0,0,0,0,0,0v0v0c0,0,0,0,0,0l0,0c0,0.1,0.1,0,0.1,0
		c0,0,0,0,0,0c0,0,0,0.1,0,0.1c0,0,0,0,0-0.1l0,0c0,0.1,0,0.1,0,0.2c0,0,0,0,0,0c0,0,0,0,0,0c0,0,0,0,0,0c0,0,0,0,0,0.1
		c0,0,0,0.1,0.1,0c0,0-0.1,0-0.1,0C0.5,59,0.8,59,0.8,58.7C0.9,58.9,1,58.8,1,58.8c0,0,0-0.1,0-0.1c0-0.2,0.2-0.3,0.3-0.6
		c0-0.1,0-0.3-0.1-0.4C1.2,57.5,1.1,57.4,1,57.3z M0.5,58.8C0.5,58.8,0.6,58.8,0.5,58.8C0.6,58.7,0.6,58.8,0.5,58.8
		C0.6,58.8,0.6,58.8,0.5,58.8z"/>
	<path class="st0" d="M11.1,58.6C11.1,58.6,11,58.6,11.1,58.6L11.1,58.6C11,58.5,11,58.5,11,58.4c0,0,0.1,0,0.1,0h0
		c0-0.1,0-0.1,0-0.2c0,0,0,0,0,0l0,0c0.1,0,0,0,0.1,0c-0.1,0,0-0.1-0.1-0.1c-0.1-0.1-0.1-0.2-0.3-0.3l0,0c-0.1,0-0.1,0.1-0.2,0
		c0,0,0,0.1,0,0.1c0,0-0.1,0-0.1,0l0-0.1c0,0,0,0-0.1,0c0,0,0,0,0,0c0,0,0,0,0,0l0,0c0,0,0,0,0,0c0,0,0,0,0,0h0c0,0,0,0,0,0
		c0,0,0,0,0,0c0,0,0.1,0.1,0,0.1c0,0,0,0,0,0c0,0,0-0.1,0-0.1c0,0,0.1,0.1,0,0.1c0,0,0,0,0,0c0,0,0,0-0.1,0l0,0l0,0c0,0,0,0,0,0
		c0,0-0.1,0-0.1-0.1l0,0c0,0,0,0,0,0c0,0,0,0,0,0h0h0c0,0,0,0,0,0l0,0c-0.1,0,0,0,0,0c0,0,0,0,0,0c0,0-0.1,0-0.1,0c0,0,0,0,0.1,0
		l0,0c-0.1,0-0.1,0-0.2,0c0,0,0,0,0,0c0,0,0.1,0,0.1,0c0,0,0,0-0.1,0c0,0,0,0-0.1,0c0,0-0.1,0-0.1,0c0,0,0-0.1,0-0.1
		c-0.2,0.1-0.3,0.4,0.1,0.4c-0.2,0.1-0.2,0.2-0.1,0.2c0.1,0,0.1,0,0.1,0c0.2,0.1,0.3,0.2,0.6,0.3c0.1,0,0.3,0,0.4,0
		c0.1-0.1,0.2-0.1,0.3-0.2c0,0,0,0,0.1,0c0,0,0,0-0.1,0C11.1,58.8,11.1,58.7,11.1,58.6z M9.7,58.3C9.7,58.2,9.7,58.2,9.7,58.3
		C9.7,58.2,9.7,58.2,9.7,58.3C9.8,58.3,9.7,58.3,9.7,58.3z"/>
	<path class="st0" d="M43.1,57.3c0,0-0.1,0-0.1,0H43.1c-0.2-0.1-0.1-0.2-0.2-0.2c0,0,0.1,0,0.1,0h0c0-0.1,0-0.2,0-0.2c0,0,0,0,0,0
		l0-0.1c0.1,0,0-0.1,0.1,0c-0.1,0,0-0.1-0.1-0.1c-0.1-0.2-0.2-0.3-0.4-0.3l0,0c-0.1,0-0.2,0.1-0.2,0.1c0,0,0,0.1,0,0.1
		c0,0-0.1,0-0.1,0.1l0-0.1c0,0,0,0-0.1,0.1c0,0,0,0,0-0.1c0,0,0,0,0,0l0,0c0,0,0,0,0,0c0,0,0,0,0,0h0c0,0,0,0,0,0c0,0,0,0,0,0
		c0,0,0.1,0.1,0,0.1c0,0,0,0,0,0s0-0.1,0-0.1c0,0,0.1,0.2,0,0.1c0,0,0,0,0,0c0,0,0,0-0.1,0l0,0l0,0c0,0,0,0,0,0.1c0,0-0.1,0-0.1-0.1
		l0,0c0,0,0,0,0,0c0,0,0,0,0,0h0h0c0,0,0,0,0,0h0c-0.1,0,0,0.1,0,0.1c0,0,0,0,0,0c0,0-0.1,0-0.1,0c0,0,0,0,0.1,0l0,0
		c-0.1,0-0.1,0-0.2,0c0,0,0,0,0,0c0,0,0.1,0,0.1,0c0,0,0,0-0.1,0c0,0,0,0-0.1,0c0,0-0.1,0-0.1,0c0,0,0-0.1,0-0.1
		c-0.2,0.1-0.4,0.5,0.1,0.5c-0.2,0.1-0.2,0.3-0.2,0.3c0.1,0,0.1,0,0.2,0c0.3,0.1,0.4,0.3,0.7,0.4c0.1,0,0.4,0,0.5-0.1
		c0.2-0.1,0.3-0.2,0.4-0.2c0,0,0,0,0.1,0c0,0,0,0-0.1,0C43.1,57.4,43.1,57.3,43.1,57.3z M41.3,56.9C41.3,56.9,41.4,56.8,41.3,56.9
		C41.4,56.8,41.4,56.9,41.3,56.9C41.4,56.9,41.4,56.9,41.3,56.9z"/>
</g>
</svg>
