<?xml version="1.0" encoding="utf-8"?>
<!-- Generator: Adobe Illustrator 24.2.1, SVG Export Plug-In . SVG Version: 6.00 Build 0)  -->
<svg version="1.1" id="Layer_1" xmlns="http://www.w3.org/2000/svg" xmlns:xlink="http://www.w3.org/1999/xlink" x="0px" y="0px"
	 viewBox="0 0 206.1 7.3" style="enable-background:new 0 0 206.1 7.3;" xml:space="preserve">
<style type="text/css">
	.st0{fill:#FFFFFF;}
</style>
<g>
	<path class="st0" d="M98.2,3.4l-1.8,0.1c0.3,0.2-1.3,0.3-1.2,0.5c0.1-0.4-2.4-0.1-3.7-0.1L91,3.6C92.2,3.3,95.5,3.5,98.2,3.4z"/>
	<polygon class="st0" points="86.9,3.3 91.4,3.4 89.5,3.6 	"/>
	<path class="st0" d="M87.4,3.9C87.2,4,86.9,4,86.6,4C86.9,3.9,87.2,3.9,87.4,3.9z"/>
	<path class="st0" d="M80.6,3.5c2.4,0.1,4.2,0,6.2-0.1c-0.6,0.1-0.8,0.1-1.6,0.2c1.4,0,3.3,0.2,5,0.2c-0.7,0.2-1.7,0.1-2.8,0.2
		c0.3-0.1,0.4-0.1-0.1-0.2c-1.6,0.2-2.6-0.1-4.1,0.1L84.6,4c-0.2,0.3-3-0.3-2.9,0.2C79.7,3.8,83.2,3.7,80.6,3.5z"/>
	<path class="st0" d="M79.1,3.6c0.1,0.1,0.2,0.1,0.1,0.1C79.1,3.7,79,3.6,79.1,3.6z"/>
	<path class="st0" d="M77.7,3.8c0.4-0.1,1.4-0.1,1.5-0.2c0.2,0.1,0.7,0.2,0.2,0.3c-1.5,0-3.9,0.1-4.3-0.3C76.7,3.5,77,3.7,77.7,3.8z
		"/>
	<path class="st0" d="M73.1,3.6C73.2,3.6,73.8,4,75.3,4c-0.8,0.2-1.1-0.1-1.9,0.1l-1.1-0.3H73L73.1,3.6z"/>
	<path class="st0" d="M77.2,3c-1.7-0.2-4.7,0.1-4.2-0.4c0.8,0,1.5,0.1,1.7,0.1l-0.1-0.1C74.6,2.6,76.1,2.8,77.2,3z"/>
	<path class="st0" d="M73,2.6L73,2.6L73,2.6L73,2.6z"/>
	<path class="st0" d="M70.2,2.5c0.8,0,1.9,0,2.7,0.1C71.9,2.7,71.3,2.6,70.2,2.5z"/>
	<polygon class="st0" points="70.4,4 68.6,4 71,3.9 	"/>
	<path class="st0" d="M70.7,2.9c-0.5-0.1,2.6,0,2.8,0.2c-0.5,0.1-1.8-0.2-2,0.1C69.5,3.1,72.5,2.9,70.7,2.9z"/>
	<path class="st0" d="M65.2,4.1c-0.7-0.2-2,0.2-2.9,0.1L61.9,4C63.9,4.3,64.3,3.6,65.2,4.1z"/>
	<path class="st0" d="M57,3.8c0.3,0.1,0.8,0.1,0.8,0.2c0.7-0.1,0.6-0.2,1-0.2C60,4,61.9,3.8,62.9,4C62.4,4,62.3,4,62,4
		c-1.9,0.1-4.4-0.1-5.8,0.3C56.4,4.1,55.3,3.8,57,3.8z"/>
	<path class="st0" d="M63,2.6L63,2.6C63.1,2.5,63.1,2.6,63,2.6z"/>
	<path class="st0" d="M62.4,3.1L64.1,3c-0.5-0.2-2,0-2.3-0.2c0.1-0.1,0.9-0.2,1.2-0.2c0.4,0.4,2.1,0,1.4,0.5
		C63.8,3.1,63.2,3.1,62.4,3.1z"/>
	<path class="st0" d="M65.5,3.1c0.4-0.1,0.2-0.3,1.8-0.2l0.6,0.3C66.8,3,66.1,3,65.5,3.1z"/>
	<path class="st0" d="M64.3,3.1C64.3,3.1,64.3,3.1,64.3,3.1c0.4,0,0.8-0.1,1.2-0.1C65.3,3.1,65,3.1,64.3,3.1z"/>
	<path class="st0" d="M56.9,3.2L57.7,3l2.1,0.4c-1.6-0.2-3.4,0.2-3.7-0.2l-0.9,0.2l0.4-0.2C56.1,3,56.5,3,56.9,3
		C56.3,3,56.1,3.2,56.9,3.2z"/>
	<path class="st0" d="M51.6,3h-1C50,3,51.6,2.9,51.6,3z"/>
	<path class="st0" d="M55.7,3.1L55.7,3.1c-0.6,0.1-1.3,0.1-1.9,0.1C54.3,3.1,55,3.1,55.7,3.1z"/>
	<path class="st0" d="M58.3,2.7c1.8-0.1,0.8,0.2,1.2,0.2h-1.7L58.3,2.7z"/>
	<path class="st0" d="M59.6,2.9h1.2C60.1,3,59.7,3,59.6,2.9z"/>
	<path class="st0" d="M37.9,3.7c-0.9-0.2,0.2-0.3,1.2-0.3C38.2,3.5,37.7,3.6,37.9,3.7z"/>
	<path class="st0" d="M24.4,5C24.6,5,25,5,25.6,5C25.5,5.1,25.1,5.2,24.4,5z"/>
	<path class="st0" d="M34.4,4.8L34.4,4.8l0.2-0.1C34.5,4.8,34.4,4.8,34.4,4.8z"/>
	<path class="st0" d="M100.1,4c0.3,0,0.6,0,1,0C100.8,4,100.5,4,100.1,4L100.1,4z"/>
	<path class="st0" d="M101.2,3.5c-2.3,0.3,0.5,0.1-1.1,0.4c-1,0-2-0.1-2.9-0.1C99.4,3.9,99.6,3.3,101.2,3.5z"/>
	<path class="st0" d="M78.1,3.1L78.1,3.1C78,3.1,77.9,3.1,78.1,3.1z"/>
	<path class="st0" d="M167.7,3.1c0.5-0.1,1.4,0.1,2.3,0C169.2,3.2,167.9,3.4,167.7,3.1z"/>
	<path class="st0" d="M167.7,2.1L167.7,2.1c-0.1,0.1-0.2,0-0.4,0C167.5,2.1,167.6,2.1,167.7,2.1z"/>
	<path class="st0" d="M167.7,2.3V2.1C167.9,2.1,168,2.2,167.7,2.3z"/>
	<path class="st0" d="M164.6,2.1h1.5c0-0.2,0-0.3-1-0.2c0.2-0.1,1.1,0.1,1.6,0.1h-0.4c0.2,0.1,0.6,0.1,0.9,0.1
		C166,2.1,164.9,2.5,164.6,2.1z"/>
	<path class="st0" d="M162.5,2c0.6,0,2,0,1.6,0.2L162.5,2z"/>
	<path class="st0" d="M160.2,2.3c1.8-0.2,0.8,0.1,1.8,0.2c-0.3,0-0.6,0-0.9-0.1C162.1,2.3,160.5,2.3,160.2,2.3z"/>
	<path class="st0" d="M162.4,2.5c-0.2,0-0.3,0-0.4,0C162.1,2.4,162.3,2.4,162.4,2.5z"/>
	<path class="st0" d="M178.5,3.5l-0.1,0.1C178.3,3.6,178.3,3.5,178.5,3.5z"/>
	<path class="st0" d="M157,2.5h-0.1c-0.2,0-0.3,0-0.5,0H157z"/>
	<path class="st0" d="M206.1,4.7c-2.1,0.1-4,0.2-7,0c0.1-0.3-1.2-0.1-1.4-0.4c2.4,0.1-5.7-0.1-8.5-0.2L189,4.1c3.5,0,7.4,0,7.1,0.1
		c1.1-0.4-17.3-0.3-17.8-0.5l-0.2,0.2c-2.3-0.2-3.8-0.5-5.7-0.6L172,3.4c1.4-0.1,1.8,0.1,3.2,0.2c-2.5-0.1-2.9,0.1-4.9,0.1
		c0.1-0.3,1.6-0.2-0.8-0.3c-0.7,0.1,0.9,0.4-1.2,0.4c-2.6,0.1-2.1-0.4-4.3-0.4l1.5-0.1c-0.8,0-2.4-0.1-3.2,0.1
		c0.9,0,3.3,0.2,3.3,0.4c-1-0.1-3.1,0.1-3.9,0.1l0.5,0.2c-0.9,0.2-1.4-0.1-2.6,0.1c-1.1-0.1,0.7-0.3,0.1-0.4
		c-0.2,0.1-2.3,0.2-3.1,0.1c0.5-0.4,2.5,0.1,3.9-0.3l-2,0.1c-1.3-0.4,3.2,0,2.6-0.3c-1.5-0.4-3.1,0.4-4.5-0.2
		c0.9-0.1,3.9-0.1,3.5-0.3c-1,0.2-1.8-0.2-3.2-0.2l-1.8,0.2c-0.7-0.2-0.1-0.2,0.4-0.2c-2.5,0.2-6.8-0.1-10.4,0.2
		c-2.1-0.1-0.3-0.2-1.2-0.3c-1.1,0.3-3.1,0.1-4.3,0.1c-0.4,0-1-0.2-0.7-0.3l3,0.2c-0.1-0.2,0.3-0.4,1.4-0.3
		c-0.7,0.5,4.2-0.3,4.4,0.3V2l3.8,0.2h-0.1c0.4-0.1,3.3,0.2,5.3,0.1c-0.6-0.1-4.1,0-2.1-0.3c-1.6-0.2-4.4,0.1-7.2,0l0.6-0.2
		c-3-0.3-7,0.1-10.3,0l1,0.2c-1.2,0.1-2.7,0.3-3.8,0.1c1.4,0,0.7-0.1,0.4-0.2c-1.9-0.1-4.7,0-7.4-0.1c0,0,0.1,0.1,0,0.1l-2.8-0.2
		c-1.3,0.1-1.7,0.2-2.6,0.3C122,2,120.8,2,121.3,1.9c0.3,0,0.5,0,0.7,0c-1.4-0.3-1,0.1-2.7-0.1c1.3,0.2-0.4,0.3-0.3,0.5
		c-2-0.1-0.2-0.4-0.4-0.5c-2.5,0.1-2.8,0.3-5.3,0.4c-0.1-0.2,1.8-0.1,2-0.3c-0.7,0.1-1.5,0-1.7-0.1l1.5-0.1C112.5,2,110,2,107.2,1.9
		l0.2-0.1h-1.8l0.6,0.3c-1-0.1-2,0.2-2.5-0.1h0.4L103,2l1.2,0.3c-1.5,0.1-3.6-0.4-6.1-0.4c-0.5,0.3,4.3,0.1,4.6,0.6
		c-0.8,0.1-2.2,0.2-2.7,0.1c0.1-0.1,0.7-0.1,1.3-0.1c-2.2-0.2-5.4,0.2-6.8-0.3L96.1,2c-1.9-0.1-3.1,0.4-3.8,0.2l1.5,0.4
		c-1.9-0.2-4.4-0.2-6.2-0.3c0-0.3,2.6,0,2.5-0.1L89.2,2c-2.8,0.2-0.8,0.2-4.2,0.3V2.2c-1.1,0.3-4.2-0.3-3,0.2l0.9-0.2l-0.1,0.2
		l-3.9-0.2c0.4,0.2-1.5,0.1-1,0.3l-1.5-0.2c-0.7,0.3,2.7,0.4,2.8,0.6c-0.1,0.2-0.7,0.1-1.1,0.1c1.8,0.2,2.6-0.3,4.4-0.3L83.4,3V2.7
		C84.1,2.7,84.7,2.9,85,3c1.7-0.4,3.6,0.1,6.2,0c-2.2-0.2,1.4-0.3,1-0.3c1.2,0,4.1,0.4,5.1,0.2c0.7-0.1-1.5-0.2,0.2-0.2
		c1.1,0.1,1.8,0.2,1.1,0.3c2.4,0.1,5.2,0,7.8,0l-0.6-0.2c1.6-0.2,3.2,0.1,4.1,0.3c0.2-0.1,0.4,0,0.1-0.1c2.1-0.3,2.7,0.4,6.1,0.3
		c-0.2,0.3-1.7,0.3-2.8,0.2l0.3,0.3c-3,0-6.3-0.1-8.7-0.2l1.1,0.2c-2.1,0.4-1.5-0.4-3.4,0.1c-1.4-0.1,1-0.2,0-0.3
		c-1,0.1,0.3,0.5-1.4,0.5c6.4,0.2,13.7,0.1,20.4,0.2c0.1,0.1-0.2,0.1-0.6,0.1c2.3,0.4,21-0.7,21.6,0.1c0.3-0.1-0.8-0.2,0.7-0.2
		c0.1,0.1,0.5,0.1,0.2,0.2c3.6-0.4,8.4,0,12.8-0.2c-0.1,0.1,0.9,0.2,0.9,0.3c1.5-0.3,4,0,5.4-0.2l-0.7,0.2h4.4
		c0.1,0.1-0.5,0.1-0.8,0.1c1,0.1,1.2-0.1,1.3-0.2l2,0.3c5.7-0.5,12.9,0.3,19.4-0.1c1,0.2,1.8,0.3,3.5,0.4l-0.8,0.1
		c1.7,0.2,0.1-0.1,1.5,0c1,0.2,0.3,0.4-1,0.2c-0.8,0.1-0.3,0.2,0.3,0.2C196.9,5.4,201.9,5.2,206.1,4.7z M185,4c-0.2,0-0.4,0-0.6,0
		c-0.1,0-0.1,0-0.2,0C184.4,4,184.6,4,185,4z M189.1,4.1c-0.5,0-0.8-0.1-0.8-0.1c0.1,0,0.3,0,0.4,0L189.1,4.1z"/>
	<path class="st0" d="M35,4.6c-1.2-0.2-2.8,0.4-5,0.2c0.8,0.1,0.5-0.2,0.1-0.2c-1.4,0.1-3.7,0.1-5.2,0.1C25,4.7,25,4.6,25,4.6
		c-1.3,0.1-1.6,0.1-3,0.3c-5.2,0.4-12.4,0-16.9,0.5C3.7,5.6,6.5,5.5,6,5.6C1,5.2-0.4,4.5,0.2,3.8c0.2,0.1,0.4,0.1,0.6,0.1
		c0-0.1,0-0.3,0.8-0.2C3.2,3.7,1.2,3.9,2,4c1.7-0.6,5.3,0.4,7.1-0.3c7.4,0.1,16.3,0.2,23,0.1l-0.2,0.1c0.7,0.1,2.5,0,2.6-0.2L34.8,4
		c2.5,0.1-1.2-0.8,1.6-0.8c-1.5,0.2-0.2,0.5,0.8,0.5c-0.3,0.1-0.2,0.5-0.8,0.5l-1.6,0.2c-0.1-0.4-2.6-0.2-3.5-0.1c0,0,0.1,0,0.1,0.1
		c0.3,0,0.3,0,0.1,0.1c0.5,0.2,1.3,0.3,2.2,0.1c1.1,0.1,2.3,0.1,3.4,0c-0.5,0.2-1,0.4-2.4,0.4C36,4.8,33.9,4.8,35,4.6z"/>
	<path class="st0" d="M49.1,3.8L49.1,3.8c-0.1,0-0.2,0-0.3,0c0,0.1,0,0.1,0,0.1C49.9,4.1,52,3.5,52,3.7c-1.1,0.3-3.7,0.2-4,0.4
		c-0.3-0.1,0.6-0.2-0.3-0.3c-1.4,0.1-1.2,0.2-2.1,0.3L44.8,4c-0.1,0.3-1.6,0.2-3.2,0.2c1.9-0.2,3.8-0.3,5.9-0.4
		c-2.7-0.3-5.3,0.2-8.1,0.1c-1.4-0.2,1.3-0.1,1.4-0.2c-0.4-0.4-1.3,0.2-2-0.1c-0.1-0.3,3-0.3,4.2-0.5c1.1,0.1,1,0.1,1.4,0.3
		C44.7,3.2,45.7,3.2,46,3c2.2,0.2,3.4-0.2,5.5,0.1C51.6,3,51.6,3,51.6,3h0.2l-0.1,0.1c0.6,0.1,1.3,0.1,2.1,0.1
		C51.9,3.3,50.5,3.6,49.1,3.8L49.1,3.8z"/>
	<path class="st0" d="M38.6,4.2c0.1,0.1,0.1,0.1,0.1,0.1c0.8-0.1,1.8-0.1,2.8-0.1c-1.5,0.1-2.9,0.2-4.4,0.3
		C37.5,4.3,37.9,4.2,38.6,4.2z"/>
</g>
</svg>
