<?xml version="1.0" encoding="utf-8"?>
<!-- Generator: Adobe Illustrator 24.2.1, SVG Export Plug-In . SVG Version: 6.00 Build 0)  -->
<svg version="1.1" id="Layer_1" xmlns="http://www.w3.org/2000/svg" xmlns:xlink="http://www.w3.org/1999/xlink" x="0px" y="0px"
	 viewBox="0 0 43.78 45.69" style="enable-background:new 0 0 43.78 45.69;" xml:space="preserve">
<g>
	<g id="path3019_21_">
		<g>
			<g>
				<path d="M29.65,44.52c-3.04,1.09-6.53,1.44-10,0.98c-3.47-0.48-6.95-1.77-9.88-3.88c-2.93-2.09-5.38-4.85-7.02-7.97
					c-1.64-3.12-2.52-6.52-2.69-9.79c-0.29-3.93,0.64-8.01,2.49-11.66c1.93-3.61,4.83-6.78,8.41-8.9c3.53-2.21,7.73-3.25,11.84-3.3
					C26.9,0.06,31,1.1,34.42,3.19c-0.1,0.15-1.35-0.28-0.28,0.47c1.1,0.7,1.82,1.37,2.35,1.86c0.55,0.48,0.81,0.91,1,1.17
					c0.36,0.55,0.23,0.68,0.1,0.81c-0.07,0.07-0.74-0.57-1.33-1.07c-0.62-0.46-1.11-0.83-0.67-0.39c-0.72-0.59-1.65-1.13-2.55-1.66
					c-0.46-0.25-0.93-0.44-1.36-0.65c-0.43-0.21-0.84-0.38-1.21-0.49c-1.46-0.49-2.05-0.63-0.36,0.09c0.55,0.27,1.94,0.87,3.24,1.66
					c0.65,0.39,1.29,0.79,1.77,1.22c0.5,0.41,0.91,0.74,1.07,1.01c0.7,1-1.22-0.37-0.53,0.62c0.88,0.75,2.52,2.39,3.14,3.38
					c0.53,1.02-1.12-0.58-0.44,0.32c1.94,2.74,3.7,7.02,3.72,11.52c-0.09,0-0.18,0.3-0.26,0.3c-0.04,0-0.08-0.07-0.11-0.3
					c-0.04-0.21-0.09-0.55-0.14-1.09c-0.27-4.77-2.46-9.39-5.99-12.64c-3.5-3.28-8.28-5.1-13.08-5.01C17.71,4.37,13,6.41,9.62,9.8
					c-3.4,3.37-5.41,8.07-5.46,12.85c-0.1,4.78,1.71,9.52,4.96,13c3.22,3.5,7.81,5.66,12.54,5.91c4.74,0.3,9.52-1.3,13.11-4.37
					c3.62-3.05,5.99-7.49,6.49-12.17c0.08-1.07,0.15-1.68,0.21-1.93c0.05-0.29,0.12-0.15,0.17,0.19c0.05,0.34,0.09,0.93,0.13,1.64
					c-0.02,0.71-0.05,1.55-0.16,2.38c0.14-1.1,0.36-1.07,0.46-2.19c0.14,0.01,0.23,0.59,0.21,1.75c-0.02,0.58-0.16,1.29-0.31,2.16
					c-0.25,0.83-0.49,1.84-1.02,2.88c0.26-0.52,0.52-1.05,0.7-1.61c0.19-0.55,0.44-1.09,0.56-1.66c0.38-1.11,0.26,0.07,0.44,0.12
					c-0.31,1.16-0.8,2.25-0.69,2.3c0.08,0.03,0.25,0.1,0.34,0.14c0.46-1.13,1.2-3.47,1.31-4.7c-0.05,0.3-0.09,0.6-0.14,0.89
					c-0.07,0.28-0.13,0.54-0.18,0.76c-0.1,0.45-0.16,0.75-0.11,0.76c0.09,0.02,0.26,0.07,0.35,0.1c-0.29,1.22-0.87,2.68-1.61,4.06
					c-0.35,0.7-0.81,1.33-1.18,1.97c-0.43,0.6-0.84,1.17-1.2,1.68l0.21,0.17c0.39-0.5,0.85-1.05,1.27-1.67
					c0.38-0.65,0.84-1.3,1.18-2.02c0.71-1.41,1.26-2.9,1.6-4.12c-0.25,1.25-0.23,1.26-0.04,1.32c-0.16,0.46-0.32,0.91-0.48,1.37
					l-0.63,1.3l-0.32,0.65l-0.38,0.61l-0.77,1.22c-1.15,1.55-2.36,3.04-3.76,4.39c0.98-0.84,1.86-1.79,2.69-2.77
					c-0.33,0.56-0.88,1.28-1.58,2.04c-0.38,0.36-0.78,0.74-1.2,1.13c-0.43,0.39-0.93,0.72-1.42,1.09
					C33.89,42.82,31.49,43.89,29.65,44.52z"/>
			</g>
		</g>
	</g>
	<g id="Shape_4_8_">
		<g>
			<path d="M24.44,19.24l0.01-1.92c0-1,0.09-1.53,1.53-1.53h1.92v-3.83h-3.07c-3.69,0-4.98,1.86-4.98,4.98v2.3h-2.3v3.83h2.3v11.11
				h4.6V23.07h3.07l0.41-3.83H24.44z"/>
		</g>
	</g>
</g>
</svg>
