<?xml version="1.0" encoding="utf-8"?>
<!-- Generator: Adobe Illustrator 24.2.1, SVG Export Plug-In . SVG Version: 6.00 Build 0)  -->
<svg version="1.1" id="Layer_1" xmlns="http://www.w3.org/2000/svg" xmlns:xlink="http://www.w3.org/1999/xlink" x="0px" y="0px"
	 viewBox="0 0 6.24 200.34" style="enable-background:new 0 0 6.24 200.34;" xml:space="preserve">
<style type="text/css">
	.st0{fill:#1D1D1D;}
</style>
<g>
	<g>
		<g>
			<path class="st0" d="M6.24,152.53c-0.12-0.02-0.24,0.64-0.3-0.39c-0.11-3.25,0.29-5.85,0.18-9.1c-0.07-0.07-0.13-0.16-0.2-0.23
				c0.08-2.51,0.19-5.13,0.28-7.8c-0.03-4.92-0.07-9.82-0.14-14.69c-0.07,0.13-0.14,0.19-0.16-0.3c-0.05-2.03,0.02-4.84,0.04-7.75
				c-0.01-0.43-0.02-0.86-0.03-1.28c-0.04-0.33-0.11-0.42-0.15-0.47c0.01-1.32,0.03-2.48,0.05-3.57
				C5.42,92.66,4.96,78.16,4.51,62.44c-0.18-3.32-0.36-6.65-0.44-9.85C4,47.84,4.12,41.78,4.15,37.15
				c-0.69,0.71-1.03-10.57-1.73-8.32c0.01-3.08,0.04-7.72-0.16-7.95C1.67,20.16,0.99,17.79,0.64,9.6C0.56,6.39,0.81,1.47,0.69,0.34
				C0.5-1.44,0.27,4.49,0.08,2.71c-0.21,23.83,0.04,46.77,0.04,70.76c0.31,8.17,0.44,63.25,0.31,77.4c0,0.43,0.01,0.86,0.01,1.28
				c-0.04,7.72,0.01,17.09,0.28,23.62c0.16,3,0.36,6.04,0.55,9.08c0.11-1.41,0.23-2.72,0.34-3.85c-0.01,3.09-0.03,6.17,0.09,7.36
				c0.3,6.57,0.64,2.85,1.11,0.32c0.21-1.82,0.52,0.64,0.73-2.21c-0.01,2.05-0.01,3.08-0.03,5.14c0.2,0.24-0.1-6.34,0.22-4.91
				c-0.07,1.98,0.04,4.2,0.03,6.25c0.27-0.71,0.1-7.12,0.36-6.81c0.06,1.11-0.36,5.78-0.03,6.17c0.07,0.08,0.08-1.98,0.08-3.01
				c0.1,6.33,0.41,9.82,0.77,4.04c-0.01,2.01-0.15,4.84-0.1,6.96c0,0,0-0.01,0.01-0.02c0.01-1.06,0.08-2.89,0.08-3.86
				c-0.01,1.2-0.01,2.41-0.02,3.61c0.05-0.19,0.09-0.4,0.14-0.63c0.04-0.9,0.07-1.8,0.08-2.74c0,0.8-0.01,1.6-0.01,2.4
				c0.11-0.6,0.21-1.29,0.3-2.04c0.21-2.85,0.52-5.58,0.53-7.12C6.11,177.48,6.22,164.97,6.24,152.53z"/>
		</g>
	</g>
</g>
</svg>
