<?xml version="1.0" encoding="utf-8"?>
<!-- Generator: Adobe Illustrator 24.2.1, SVG Export Plug-In . SVG Version: 6.00 Build 0)  -->
<svg version="1.1" id="Layer_1" xmlns="http://www.w3.org/2000/svg" xmlns:xlink="http://www.w3.org/1999/xlink" x="0px" y="0px"
	 viewBox="0 0 655.3 8.7" style="enable-background:new 0 0 655.3 8.7;" xml:space="preserve">
<g>
	<path d="M206.8,2.7c20.1-0.5-20.2-0.5-29.9-0.5l2.3,0.2C175.9,2.6,195.4,2.7,206.8,2.7z"/>
	<path d="M194.1,6.7c3.8,0,9.6,0.1,13.6,0.1l-4-0.1c-4.1-0.2,3.5-0.2,5.2-0.3C201.2,6.5,193.8,6.6,194.1,6.7z"/>
	<path d="M368.9,2.2L364.7,2L346,2.3C354,2.4,363.4,2.3,368.9,2.2z"/>
	<path d="M252.9,2.7c21.3,0.1,43.5-0.3,64.7-0.3l12.9-0.3c-25.3-0.2-69.7-0.3-99.9-0.1C221.9,2.5,236.8,2.3,252.9,2.7z"/>
	<path d="M553.3,1.9c-1.4,0-2.6,0.1-2.6,0.1c-26.8,0-64-0.3-93.5,0.2c13.6,0.1,13.9,0.2,35.2,0.3c-15.9,0.6-32.8-0.1-51.9-0.1
		c15.6,0.1-4.9,0.4-18.2,0.5c-25.3-0.2-65.4-0.1-99.9-0.1c-14.8,0.2-63.6-0.1-56.5,0.5c-21,0.1-23.9-0.4-39.5-0.6
		C180,3.5,143.1,1.4,93.1,2.3C96.2,2,71.4,2,61.7,2C40.6,2-9.4,1.9,1.6,2.6C16,3.1,45.1,2.3,67.2,2.8c38,0.7-39.7,0.3-40.3,0.9
		C32,3.6,35,4,48.7,4c-28.5,0.3,17.8,0.7,0.1,1C89.9,5.4,86,5.4,106.9,6.2c24.7-0.1,17.8-0.7,24.8-1c26.2-0.3,46.8,0.4,69.6,0.2
		c-17.2,1,38,0.7,64.8,0.7c34.6,0.1,11.7-0.9,48.3-0.7c18.2,0.5-37.1,0.6-13.1,1.1l16.9-0.2c10.7-0.4,19.3-0.9,32.2-1.2
		c7.7,0,19.2,0,19.5,0.1c-15,0.2-10.4,0.5,5.4,0.7c7.4-0.2,9.2-0.2,12.7-0.3c-30.9-1,32.5-0.1,54.2-0.7c63.5-0.9,33.2,1.2,95.6,0.7
		C518.7,4.8,579,5.3,599.4,5c17.3,0,23.6,0.3,35.7,0.6c4.8-0.1,18.1-0.2,20.2-0.3C645.4,4.1,605.3,2.9,553.3,1.9z"/>
</g>
</svg>
