<?xml version="1.0" encoding="utf-8"?>
<!-- Generator: Adobe Illustrator 24.2.1, SVG Export Plug-In . SVG Version: 6.00 Build 0)  -->
<svg version="1.1" id="Layer_1" xmlns="http://www.w3.org/2000/svg" xmlns:xlink="http://www.w3.org/1999/xlink" x="0px" y="0px"
	 viewBox="0 0 1490 9" style="enable-background:new 0 0 1490 9;" xml:space="preserve">
<g>
	<path d="M1041.7,1.3c20.1-0.9-20.2-0.9-29.9-0.9l2.3,0.3C1010.8,1.2,1030.3,1.4,1041.7,1.3z"/>
	<path d="M1029,8.4c3.8,0,9.6,0.1,13.6,0.2l-4-0.1c-4.1-0.3,3.5-0.3,5.2-0.5C1036.1,7.9,1028.7,8.1,1029,8.4z"/>
	<path d="M842.4,3.1c-44.1-1.6-83.5,0.8-134.7-0.3c-11.8-0.2-36.8-0.3-38,0.3c-0.6,1.1,35.1,0.5,56.5,0.8c-23.8,1-63.4-0.1-95.6,0.3
		l22.1,0.8c-25.9,0.8-60.2-0.6-89-0.6l9-0.5c-17.3,0-37.5-0.9-42.3-0.1c11.6,0.1,15.8,0.4,27.1,0.2c2.3,0.3-7.2,0.4-8.9,0.6
		c-15.3,0-36.2,0.2-48.3-0.3c-12.9,0.5-53.6,0.1-40.8,1.2c-46.1-0.1-106-0.4-157.1,0.2C298,5.1,281.2,5.4,275,5.1
		c5.2-0.5-12.2-0.6-14.7-1.1c-65.9,1-139.6,0.4-207.6,1.2C32.6,6.1,19,5.9,0,6.1C26,7,68.9,7.6,109.5,7.9c31.3-1.1-35.7-1-32.3-1.4
		c-2.3-0.3,7.4-0.3,14.9-0.4c17.4,0.2,35.2,0.6,36,1.2l10.7-0.7c36.5,0,75.5,0.6,119.8,0.7c-12.7,0.6-18.4,0.7-38,0.3
		c-31.9,2.2,31.9-0.6,47,0.8c-2.4-0.4,18.7-0.4,30.2-0.4l-10.1-0.4l-14.9,0.4c-31.2-0.5,2.3-1.3,3.8-1.6c42-0.2,44.4,1.9,92.1,1.6
		c1.4-0.4-6.3-0.4-2.9-0.8c13.2-0.2,10.7-0.7,32-0.5c21.9,0.7,39.4-0.8,65-0.2c10.7,0.9-28,0.6-23.5,1.2l11.9,0.4
		c13.3-0.1,31.6,0.7,42.3,0.1l0.4,0.4c18.7-0.4,49.7-0.2,60.4-0.8c60.2,0.6,126.1-0.4,189.4-0.4L756.1,8c36.8,0.3,27.9-0.7,44.8-1.1
		c4,0.1,2.4,0.4,4.6,0.6c18.9-0.3-6.3-0.4,1.1-0.7c19.2,0,43.7-0.4,56,0.2l6.1-1.3C852.4,5,839.5,3.9,842.4,3.1z"/>
	<path d="M643.1,1.7c11.5,0,27.1,0.2,40.1-0.1c13.5,0,33.2,0.5,28.2,1.1c40.5,0.1,19.5-1.4,61.6-1.4C737.2,0.1,689.6,2,651.7,0.8
		C636.4,0.8,635.3,1.5,643.1,1.7z"/>
	<path d="M587,1.3c1.4,0,3.2,0.1,5.1,0.1C591.8,1.3,590.8,1.2,587,1.3z"/>
	<path d="M638.5,2.6c-4.4-0.9-31.8-1.1-46.3-1.3c0.3,0.1,0,0.2,1,0.2C594.1,2.4,625.2,2.7,638.5,2.6z"/>
	<path d="M597.9,4l8,0.2c3.8,0,17.8,0.4,15.2-0.1C614.9,3.7,605.4,3.8,597.9,4z"/>
	<path d="M521.2,2.3l-4.9-0.9l-13.3,0.1c23.1,0.1-16.5,0.6,2.9,0.8L521.2,2.3z"/>
	<path d="M476.1,1.6c-7.7,0-12-0.4-15.6-0.2l-5.4,0.3C464.9,1.8,470.6,1.8,476.1,1.6z"/>
	<path d="M501.5,3.6c9.5-0.1-10.4-0.7-14-0.4C493.6,3.3,492.2,3.8,501.5,3.6z"/>
	<path d="M408.1,8.9c19.3,0.1,26.5-0.3,43.5-0.5C434.7,8.6,416.9,8.2,408.1,8.9z"/>
	<path d="M1203.8,0.5l-4.2-0.3l-18.7,0.4C1188.9,0.9,1198.3,0.7,1203.8,0.5z"/>
	<path d="M1087.8,1.3c21.3,0.2,43.5-0.5,64.7-0.5l12.9-0.5c-25.3-0.3-69.7-0.5-99.9-0.1C1056.8,1.1,1071.7,0.7,1087.8,1.3z"/>
	<path d="M1388.2,0c-1.4,0-2.6,0.1-2.6,0.1c-26.8,0-64-0.6-93.5,0.4c13.6,0.2,13.9,0.4,35.2,0.6c-15.9,1.1-32.8-0.1-51.9-0.1
		c15.6,0.2-4.9,0.7-18.2,0.8c-25.3-0.3-65.4-0.2-99.9-0.1c-14.8,0.4-63.6-0.2-56.5,0.8c-21,0.1-23.9-0.7-39.5-1
		c-46.4,1.3-83.3-2.3-133.3-0.8c3.1-0.6-21.7-0.5-31.4-0.6c-21.1,0-71.1-0.1-60.1,1.1c14.4,0.8,43.5-0.5,65.6,0.3
		c38,1.3-39.7,0.5-40.3,1.6c5.1-0.2,8.1,0.6,21.8,0.5c-28.5,0.5,17.8,1.2,0.1,1.8c41.1,0.6,37.2,0.7,58.1,2
		c24.7-0.2,17.8-1.2,24.8-1.7c26.2-0.5,46.8,0.7,69.6,0.4c-17.2,1.7,38,1.3,64.8,1.3c34.6,0.1,11.7-1.5,48.3-1.3
		c18.2,0.8-37.1,1.1-13.1,1.9l16.9-0.3c10.7-0.7,19.3-1.5,32.2-2c7.7,0,19.2,0,19.5,0.2c-15,0.3-10.4,0.9,5.4,1.3
		c7.4-0.3,9.2-0.3,12.7-0.6c-30.9-1.8,32.5-0.1,54.2-1.2c63.5-1.5,33.2,2.1,95.6,1.3c-19.1-1.6,41.2-0.8,61.6-1.4
		c17.3,0,23.6,0.5,35.7,1c4.8-0.2,18.1-0.3,20.2-0.6C1480.3,3.8,1440.2,1.8,1388.2,0z"/>
</g>
</svg>
