<?xml version="1.0" encoding="utf-8"?>
<!-- Generator: Adobe Illustrator 24.2.1, SVG Export Plug-In . SVG Version: 6.00 Build 0)  -->
<svg version="1.1" id="Layer_1" xmlns="http://www.w3.org/2000/svg" xmlns:xlink="http://www.w3.org/1999/xlink" x="0px" y="0px"
	 viewBox="0 0 206 54.7" style="enable-background:new 0 0 206 54.7;" xml:space="preserve">
<style type="text/css">
	.st0{fill:#FFFFFF;}
</style>
<g>
	<path class="st0" d="M205.1,21.2c-0.6,0-1.2,0-1.5,0.3c-0.7,1.5-0.3-1.1-0.9,0.4c-0.2-1.7,2.2-0.3,2.1-2.6l-0.3,0.1
		c-0.4-0.9,0.6-2.5-0.2-3.2c0.1-1,0.3-1.2,0.6-1.1c-0.1-1.1-0.2-2.3-0.4-3.4c-0.1-0.1-0.2-0.1-0.3-0.1l0.1,1.8
		c0-0.3-0.2-0.1-0.3-0.2c0.5-0.6-0.3-1.8-0.9-2.6c-0.6-0.8-0.9-1.3,0.6-1.1c0.2,0.2,0.2,0.9,0.5,1c0,0,0,0,0,0
		c-1.6-5-6.2-9.1-19.8-9.2h-4.8c-0.4,0.4-1.6,0.7-5,0.9c-1.4-0.2-4.7,0.1-4.5-0.6c-0.9-0.3-1.8,0.6-2.9,0l-0.5-0.3l0.1,0h-7.4
		c3-0.5,9.7-0.2,10.5-1.4c-3.8,0.6-7.4,0.7-11,0.8l-2.3,0.4c-0.1,0.5,1.9,0.5,3,0.9l1.3-0.1c-1.3,2-7.1,0.5-11.4,0.5
		c-0.3,0.1-0.9,0.1-1.8,0.1c0.5-0.1,1.2-0.1,1.8-0.1c1.5-0.2-2.2-0.7-0.4-1.1l-1.4-0.1c-0.3,0-0.5,0-0.8,0.1h-12.9
		c-2.6,0.2-5.1,0.5-7.5,0.8c0.2-0.1,0.9-0.3,0.1-0.5c-2.3,0-3.8,0.6-5,1.1c0.1,0,0.2,0,0.2,0l-1.3,0.4c0.3-0.1,0.7-0.2,1.1-0.4
		c-1.9-0.4-4.8,0.3-7,0.4c-2.5-0.6-4.1-1.2-8.3-0.8l0.1-0.5L103,1.7c0.8-0.1,0.5-0.3,0.3-0.4c0.2-0.1,0.4,0,1,0c0-0.1,0-0.2,0-0.3
		c-2.3,0-5.2,0.1-8.4,0.1c0,0.5,0.2,1.1,0.9,1.4c3.2,0.5-2.2,0.4,1,0.9c-3.5,0.3-1.1-2.2-5.8-1.9l0.2,0.3c-1.9,0.5-5.2-0.5-6.6,0.4
		c-2.7-0.1-2.5-0.4-2.1-0.8c-2,0-4,0.1-5.8,0.1c-1,0.2-1.8,0.5-1.8,0.8l3.9,0c-0.6,0-0.1,0.2-0.4,0.3c-2.7-1-9.8,3-7.8,0
		c0.5-0.2,1.9-0.1,2.3-0.4c-0.2-0.7-2.9-0.3-4.9-0.4c-2.1,0.7-4.4,1.9-7.7,1.5c-1.1-0.2-0.5-0.6-1.6-0.8C53.3,3.3,53.5,1.7,46.6,2
		c-2.4-0.5-5.1-0.5-7.8-0.6l-0.4,0c0,0,0,0,0,0c-1.6,0-3.2-0.1-4.7-0.4c-0.3,0-0.7,0-1,0c-0.1,0.4-3,0.1-3.8,0
		c-0.6-0.3-2.8-0.7-4.4-0.6c0.2,0,0.3-0.1,0.4-0.1c-1.1,0-2.1,0-3.2,0.1c-0.9,0-1.8,0.1-2.7,0.1l-1.4,0.1h-0.9
		c-0.4,0-0.7,0.1-1.1,0.1c-2.8,0.4-5.4,2.4-7,5.2c-1.5,2.6-3,5.2-4.4,7.5c0.9-1,2.1-2.5,2.2-1.9c-2.6,4.7-2.9,3.6-3.8,4.2
		c-0.3,0.6-0.5,1-0.7,1.4c-0.2,0.5-0.3,0.9-0.4,1.3c-0.3,1-0.4,1.7-0.3,2.5c0,0.8,0.1,1.6,0.1,2.7C0.7,25,2.5,26.1,2.3,27
		c-0.1,1-0.2,1.9-0.2,2.7c-0.1,1.6-2.1,2.9-2,4.2c0.1,1.3,0.1,2.5,0.2,3.9c0.1,1.5,0.2,3.1,0.5,5.3c0.3-0.4,0.5-0.7,0.8-1
		c0.2,1.6,0.7,3,1.2,4s1,1.7,1.6,2.4c0.6,0.6,1.3,1.2,2.1,1.6c0.9,0.5,1.9,0.5,3.3,0.7c0.1,0.1-0.3,0.3-1.1,0.4
		C8,51.5,7,51.5,6.1,51c1.2,0.7,2.2,0.6,3,0.7s1.4,0.2,2,0.4c1,0.3,1.8,0.5,3.8,0.3l-3.1,1.4c3.1-0.1,7.6-0.5,6,0.7
		c5.4-1.5,14.7-0.9,21.4-1.8L38.7,54c3.4-1.4,12.7,0.1,15.7-1.6l0.5,0.5l6.9-1.5c3.1,0.1,2.1,1.8,2.3,1.4c6.8-0.3,12.2-0.4,16.6,0.2
		c1.1-1.5,8.3-1.9,14-2.1c27.6,0.9,53.1,4.5,78.8,2.8c1.2,0,2.4-0.2,3.8-0.4h10.1c0.6,0.1,1.1,0.2,1.6,0.2c-0.5,0.2-1.1,0.3-1.6,0.3
		c-1.1,0.2-0.9,0.5-0.2,0.7c0.8,0.3,2.5,0.3,3.9-0.4c0.1-0.2,0.2-0.3,0.3-0.5c3.6,0,6.3-1,8.3-2.4l-0.1-1.1
		c-0.4-0.2-0.7,0.8-1.2,1.2l0,0.6c-1.7-1.1,0.4-3.5,0.9-5.5c0-0.2,0-0.4,0.1-0.9c0,0.3,0,0.6-0.1,0.9c0.1,0.8,0.9-0.9,1.1,0.1
		l0.3-0.7c-0.1,0.7,0.1,2.2-0.2,4c1.5-4.8,1.7-9.9,1.5-14.1c0.1,0.1,0.2,0.5,0.5,0.2c0.3-1.1-0.3-2-0.7-2.6c0,0,0,0.1-0.1,0.1
		l-0.2-0.7c0.1,0.2,0.2,0.4,0.3,0.6c0.6-0.8,0.1-2.3,0.2-3.4c0.8-1.1,1.5-1.8,1.4-3.8l0.5,0.1l0.5-1.6c0,0.4,0.2,0.3,0.4,0.2
		c0.1,0.1,0,0.2-0.1,0.5c0.2,0.1,0.6,0,0.9-0.1L205.1,21.2z M203.1,15.5c0.5,0,0.5,1.3,1,1.5c-0.5,1.5-0.5-0.5-1-0.1L203.1,15.5z
		 M87.2,3.4l-2.9,0c-0.1-0.5,2.8-0.6,3.1-1.1C90.7,2.8,86.5,2.9,87.2,3.4z M148.8,5.3c-4,1.7-13.1,1.3-18.5,2.1
		C130,7.7,130.6,8,127.6,8c0.7-0.3,1.7-0.5,2.8-0.7c0.1,0,0.1-0.1,0.2-0.1l-6.5-0.7C132.1,5.1,140,5.6,148.8,5.3z M122.9,50.7
		c-9.5-1,2.7-0.9,0.7-2l8.5,0.1C132.3,49.9,123.7,49.7,122.9,50.7z M136.2,51.9c-4.3-1.2,1.5-0.9,0.7-2l4,0.3
		C140.8,51.3,136.8,51,136.2,51.9z M144.6,49.6c-0.2,0.2-0.1,0.6-1.3,0.4C143.6,49.8,144.1,49.7,144.6,49.6
		C144.6,49.6,144.6,49.5,144.6,49.6l-2.5-0.9c3.6-0.8,6.9,0,10.7,0.2C150.7,50,147,49.2,144.6,49.6z M199.5,41.4
		c-0.5-0.7-0.1-2-0.2-2.8c-0.1-0.1-0.3,0-0.2-0.5c0.1,0.1,0.2,0.3,0.2,0.5c0,0,0,0,0,0l0.5-0.9C200.1,39.1,199.7,40.1,199.5,41.4z"
		/>
	<path class="st0" d="M200.4,50.4l-0.1,0.4c0.1-0.1,0.2-0.1,0.3-0.2C200.5,50.5,200.4,50.5,200.4,50.4z"/>
	<path class="st0" d="M204.5,28c-0.4,1.1-0.3,1.7,0,2.4c0.7-1.2,0.1,0.3,0.8-0.3c-0.1,4.3-0.9,8.4-1.9,12.2
		c-1.2,2.2-1.3,4.4-1.2,6.7c2.6-3,3.1-6.4,3.2-6.1l0.6-4.4l-0.5-10.6C205.2,28.5,205,28.9,204.5,28z M205.4,40.5
		c-0.1,0.1-0.1,0.2-0.2,0.3l0.3-0.8L205.4,40.5z"/>
</g>
</svg>
