<?xml version="1.0" encoding="utf-8"?>
<!-- Generator: Adobe Illustrator 24.2.1, SVG Export Plug-In . SVG Version: 6.00 Build 0)  -->
<svg version="1.1" id="Layer_1" xmlns="http://www.w3.org/2000/svg" xmlns:xlink="http://www.w3.org/1999/xlink" x="0px" y="0px"
	 viewBox="0 0 45.48 45.53" style="enable-background:new 0 0 45.48 45.53;" xml:space="preserve">
<style type="text/css">
	.st0{fill:#1D1D1D;}
</style>
<g>
	<g id="path3019_22_">
		<g>
			<g>
				<path class="st0" d="M21.51,3.93c0.01-0.08-0.39-0.14,0.22-0.21c1.94-0.21,3.48,0.25,5.36,0.57l0.16-0.09
					c0.36,0.11,0.72,0.21,1.09,0.32c0.36,0.13,0.71,0.29,1.07,0.43c0.73,0.26,1.4,0.67,2.1,1.03c2.6,1.31,4.83,3.28,6.58,5.58
					c-0.01-0.09,0.01-0.14,0.2,0.08c0.41,0.45,0.72,1.11,1.14,1.78c0.2,0.34,0.35,0.73,0.53,1.1c0.18,0.38,0.38,0.76,0.5,1.18
					c0.1,0.24,0.19,0.48,0.28,0.71c0.09,0.18,0.16,0.21,0.19,0.23c0.26,0.74,0.37,1.44,0.54,2.07c0.94,4.16,0.66,8.77-1.34,12.84
					c-1.94,4.07-5.41,7.63-9.93,9.61c-1.87,0.93-3.95,1.43-5.97,1.66c-3.01,0.3-6.9-0.41-9.55-1.69c0.06,0.15-0.31,0.09-0.89-0.08
					c-0.59-0.15-1.34-0.5-2.06-0.85c-1.44-0.71-2.7-1.55-2.27-0.9c-1.64-1.28-3.63-3.67-3.78-3.76c-0.28-0.09-0.84-0.33-1.59-1.26
					c-0.39-0.46-0.88-1.04-1.35-1.9c-0.53-0.82-1.01-1.91-1.52-3.27c-0.16-0.55-0.32-1.17-0.47-1.81c-0.12-0.65-0.19-1.32-0.28-1.94
					c-0.12-1.25-0.1-2.32-0.17-2.71C0.14,21.39,0.18,25.6,0,24.35c0.15,2.13,0.55,4.25,1.32,6.24c0.32,1.02,0.83,1.96,1.28,2.92
					c0.55,0.9,1.04,1.85,1.71,2.68c2.48,3.44,5.96,6.09,9.86,7.69c1.96,0.79,4.03,1.28,6.12,1.53c2.1,0.16,4.23,0.19,6.32-0.22
					l0.79-0.12l0.77-0.2c0.51-0.14,1.03-0.26,1.54-0.41c0.99-0.37,2.02-0.69,2.96-1.2c0.98-0.43,1.88-1.01,2.79-1.57
					c0.45-0.3,0.86-0.63,1.3-0.95c0.44-0.31,0.85-0.66,1.24-1.03c1.07-0.97,3.68-3.55,5.59-7.84c0.92-2.14,1.63-4.69,1.83-7.44
					c0.21-2.75-0.07-5.7-0.96-8.51c-0.88-2.82-2.34-5.47-4.19-7.69C38.42,6,36.19,4.22,33.94,2.96c-2.26-1.27-4.54-2.03-6.53-2.48
					C25.4,0.1,23.68-0.01,22.43,0l-0.91,0.05c-2.74,0.13-5.75,0.86-8.39,2.15C10.48,3.48,8.25,5.28,6.7,6.99
					c-1.41,1.58-2.53,3.43-3.43,5.33c0.55-0.82,1.07-1.55,1.58-2.15c-1.21,1.74-2.13,3.67-2.32,4.47c-0.35,1.07-0.53,1.73-0.55,2.1
					c-0.04,0.37,0,0.43,0.1,0.31c0.1-0.12,0.23-0.43,0.41-0.8c0.2-0.35,0.43-0.75,0.65-1.14c0.27-0.54,0.31-0.41,0.39-0.35
					c0.08,0.06,0.15,0.01,0.62-0.78c-0.31,0.59-0.47,1.06-0.64,1.53c-0.16,0.47-0.38,0.93-0.53,1.58c0.02,0.05,0.09-0.18,0.19-0.53
					c0.12-0.34,0.29-0.8,0.44-1.23c0.28-0.89,0.72-1.6,0.59-1.15c-0.58,1.13-0.97,2.52-1.27,3.8c0.16-0.2,0.39-1.31,0.81-2.28
					c0.34-1,0.83-1.84,0.85-1.72c-0.37,0.6-1.55,3.35-1.35,3.67c0.03,0.06,0.34-1.21,0.61-1.8c-0.67,1.89-0.81,3.46-0.8,4.05
					c0.01,0.6,0.14,0.24,0.58-1.49c-0.16,0.6-0.25,1.34-0.4,2.09c-0.09,0.75-0.12,1.52-0.15,2.18l0-0.01
					c0.06-0.65,0.1-1.79,0.21-2.38c-0.12,0.73-0.1,1.48-0.16,2.22c0.04-0.12,0.07-0.25,0.11-0.39c0.07-0.55,0.08-1.11,0.16-1.68
					c-0.08,0.48-0.07,0.98-0.1,1.47c0.09-0.36,0.18-0.78,0.27-1.23c0.36-1.71,0.94-3.24,1.27-4.1c1.24-3.49,3.52-6.61,6.47-8.83
					c1.45-1.14,3.11-2,4.83-2.65C17.86,4.4,19.69,4.06,21.51,3.93z"/>
			</g>
		</g>
	</g>
	<g id="Shape_137_4_">
		<path d="M22.81,18.07c-2.53,0-4.58,2.05-4.58,4.58c0,2.53,2.05,4.58,4.58,4.58c2.53,0,4.58-2.05,4.58-4.58
			C27.39,20.12,25.34,18.07,22.81,18.07z M22.81,25.43c-1.54,0-2.78-1.25-2.78-2.78c0-1.54,1.25-2.78,2.78-2.78
			c1.54,0,2.78,1.25,2.78,2.78C25.59,24.18,24.35,25.43,22.81,25.43z M29.46,12.92H16.15c-1.7,0-3.07,1.38-3.07,3.07V29.3
			c0,1.7,1.37,3.07,3.07,3.07h13.31c1.7,0,3.07-1.37,3.07-3.07V15.99C32.53,14.3,31.16,12.92,29.46,12.92z M30.49,29.3
			c0,0.57-0.46,1.02-1.02,1.02H16.15c-0.57,0-1.02-0.46-1.02-1.02V19.06h3.33c1.03-1.25,2.59-2.05,4.34-2.05
			c1.75,0,3.31,0.8,4.34,2.05h3.33V29.3z M29.46,17.02c-0.57,0-1.02-0.46-1.02-1.02c0-0.57,0.46-1.02,1.02-1.02
			c0.57,0,1.02,0.46,1.02,1.02C30.49,16.56,30.03,17.02,29.46,17.02z"/>
	</g>
</g>
</svg>
