<?xml version="1.0" encoding="utf-8"?>
<!-- Generator: Adobe Illustrator 24.2.1, SVG Export Plug-In . SVG Version: 6.00 Build 0)  -->
<svg version="1.1" id="Isolation_Mode" xmlns="http://www.w3.org/2000/svg" xmlns:xlink="http://www.w3.org/1999/xlink" x="0px"
	 y="0px" viewBox="0 0 170 28.22" style="enable-background:new 0 0 170 28.22;" xml:space="preserve">
<style type="text/css">
	.st0{fill:#FFFFFF;}
</style>
<g>
	<path d="M0,4.63h7.05c1.5,0,2.78,0.23,4.05,0.69c1.27,0.46,2.31,1.16,3.12,1.97c0.93,0.81,1.62,1.85,2.08,3.01
		c0.46,1.16,0.69,2.43,0.69,3.7l0,0c0,1.27-0.23,2.54-0.69,3.7c-0.46,1.16-1.16,2.2-2.08,3.01c-0.93,0.81-1.97,1.5-3.12,1.97
		c-1.27,0.46-2.54,0.69-4.05,0.69H0V4.63z M7.05,20.59c1.04,0,1.85-0.12,2.66-0.46c0.81-0.35,1.5-0.81,2.08-1.27
		c0.58-0.58,1.04-1.27,1.27-2.08c0.35-0.81,0.46-1.62,0.46-2.54l0,0c0-0.93-0.12-1.73-0.46-2.54c-0.35-0.81-0.81-1.5-1.27-2.08
		c-0.58-0.69-1.27-1.16-2.08-1.39C8.9,7.86,7.98,7.63,7.05,7.63H3.24v12.84h3.82V20.59z"/>
	<path d="M26.48,4.63h13.99v3.01H29.84v4.86h9.48v3.01h-9.48v5.09h10.76v3.01H26.48V4.63z"/>
	<path d="M49.96,4.63h3.59l5.78,8.9l5.78-8.9h3.59v18.85h-3.24V10.06l-5.9,8.9h-0.12l-6.24-8.9v13.53h-3.24V4.63z"/>
	<path d="M86.39,23.82c-1.27,0-2.31-0.23-3.35-0.58c-1.04-0.35-1.85-0.93-2.54-1.62c-0.69-0.69-1.27-1.62-1.62-2.54
		c-0.35-1.04-0.58-2.2-0.58-3.59V4.63h3.24v10.76c0,1.73,0.46,3.12,1.27,4.05c0.81,0.93,1.97,1.39,3.47,1.39
		c1.5,0,2.66-0.46,3.47-1.27c0.81-0.93,1.27-2.2,1.27-3.93V4.63h3.24v10.76c0,1.39-0.23,2.66-0.58,3.7
		c-0.35,1.04-0.93,1.97-1.62,2.66c-0.69,0.69-1.5,1.27-2.54,1.62C88.82,23.71,87.66,23.82,86.39,23.82z"/>
	<path d="M116.57,4.63h3.82l-13.53,18.97h-3.82L116.57,4.63z"/>
	<polygon class="st0" points="104.43,0 99.69,0 108.01,11.8 110.33,8.67 	"/>
	<polygon class="st0" points="115.65,15.96 113.33,19.2 119.69,28.22 124.32,28.22 	"/>
	<path d="M129.52,4.63h13.88v3.01h-10.64v4.86h9.48v3.01h-9.48v5.09h10.76v3.01h-13.99V4.63z"/>
	<path d="M153,4.63h7.05c1.5,0,2.78,0.23,4.05,0.69c1.27,0.46,2.31,1.16,3.12,1.97c0.93,0.81,1.62,1.85,2.08,3.01
		c0.46,1.16,0.69,2.43,0.69,3.7l0,0c0,1.27-0.23,2.54-0.69,3.7c-0.46,1.16-1.16,2.2-2.08,3.01c-0.93,0.81-1.97,1.5-3.12,1.97
		c-1.27,0.46-2.54,0.69-4.05,0.69H153V4.63z M159.94,20.59c1.04,0,1.85-0.12,2.66-0.46c0.81-0.35,1.5-0.81,2.08-1.27
		c0.58-0.58,1.04-1.27,1.27-2.08c0.35-0.81,0.46-1.62,0.46-2.54l0,0c0-0.93-0.12-1.73-0.46-2.54c-0.35-0.81-0.81-1.5-1.27-2.08
		c-0.58-0.58-1.27-1.04-2.08-1.39c-0.81-0.35-1.73-0.46-2.66-0.46h-3.7v12.84H159.94z"/>
</g>
</svg>
