<?xml version="1.0" encoding="utf-8"?>
<!-- Generator: Adobe Illustrator 24.2.1, SVG Export Plug-In . SVG Version: 6.00 Build 0)  -->
<svg version="1.1" id="Layer_1" xmlns="http://www.w3.org/2000/svg" xmlns:xlink="http://www.w3.org/1999/xlink" x="0px" y="0px"
	 viewBox="0 0 82.1 82.5" style="enable-background:new 0 0 82.1 82.5;" xml:space="preserve">
<style type="text/css">
	.st0{fill:#FFFFFF;}
</style>
<g>
	<path class="st0" d="M55.5,25.3c0.1-0.5,0.4-0.8,0.5-1.3c0.1-0.7,0.1-1.3,0.1-2c0-0.8-0.1-1.5-0.2-2.2c-0.2,0,0.1,0.3-0.2,0.3
		c-0.1-0.8,0-1.5-0.2-2.2c0-0.1,0.1-0.3,0.1-0.4c0-0.2-0.1-0.1-0.1-0.3l0.2-0.1c-0.2-0.2,0.1-0.4,0-0.6c-0.1,0-0.1-0.1-0.1-0.1
		c0.2,0-0.1-0.2,0.1-0.3h0c0,0,0-0.1,0-0.1c-0.1-0.1-0.7-0.7-0.8-0.8l0,0c0-0.1-0.2-0.1-0.2-0.1l0-0.1l0,0l0-0.1c0,0,0.1-0.1,0.2,0
		c-0.1-0.1-0.1-0.2-0.1-0.2c-0.1,0.2-0.2,0.5-0.3,0.8c-0.1-0.1,0-0.3-0.1-0.4c0.1-0.1,0.1-0.4,0.2-0.6c0,0-0.2,0-0.1-0.2
		c0.1-0.1,0-0.1,0.1-0.2c0.1,0.1,0.1,0.2,0.1,0.3c0.2,0,0.1-0.2,0.1-0.3c0,0,0-0.2-0.1-0.3c0.1,0,0.1,0,0.1-0.1c0,0,0-0.1,0-0.1
		c0-0.1,0-0.1-0.1-0.1c0,0-0.1,0-0.1,0c-0.2-0.2-0.3-0.4-0.3-0.3c0,0.1-0.2-0.1-0.2,0l0,0c0,0.3-0.9-0.3-0.9,0.1
		c0.2-0.2,0.2,0.1,0.2,0.2c-0.1,0-0.2,0.1-0.2,0.2c0,0.1,0.1,0.1,0.1,0.1c0,0.1-0.1,0.2-0.2,0.2c0.1,0.1-0.1,0.2,0,0.3
		c0.1,0.1,0,0,0.1,0c0,0.2,0,0.4,0,0.5c-0.1,0.1-0.2,0.2-0.4,0.2c0-0.2,0.3,0,0.2-0.2c-0.2,0.1-0.1-0.2-0.3-0.2
		c-0.1,0.1-0.1,0.3,0,0.4l0,0c0,0.1,0.1,0.3,0,0.5c-0.1,0-0.1,0-0.2,0l0,0.2c0,0,0.1,0,0.1,0c0.1,0.1,0.1,0.1,0,0.2c0,0,0,0.1,0,0.1
		c0,0,0,0,0,0c-0.1,0.1,0.7,1.2,0.6,1.3c0,0.1,0.1,0.2,0.1,0.1c0,0.2-0.2,0-0.2,0.1c0,0,0,0,0,0l-0.1,0.1c0.2,0.2,0.1,0.5,0.3,0.7
		c-0.1,0-0.3,0-0.4-0.2l0,0c0,0-0.1-0.1-0.2-0.1c0,0.2,0,0.3,0.1,0.4c0,0,0,0.1,0,0.1l0,0c0,0.1,0,0.1-0.1,0h0
		c-0.2,0.1,0.3,0.5,0.2,0.8c0,0.1,0,0,0.1,0.1c0,0.3-0.1,0.5-0.1,0.7c0.1,0.1,0.2,0.1,0.3-0.1v0.2c-0.3-0.1-0.2,0.4-0.5,0.3
		c-0.1,0.1,0,0.2,0,0.3c0.1,0,0.2,0,0.2,0.1c-0.1,0.2,0,0.2-0.1,0.3c-0.1,0-0.1,0-0.2,0c0.1,0.2-0.2,0.2-0.2,0.4
		c0,0.1,0,0.4,0.2,0.4c0,0.2-0.1,0.2-0.3,0.2l0,0.2c0-0.5,0-1,0-1.5c-0.1,0.3-0.2,0.6-0.3,0.8c0,0.1-0.1,0.3-0.1,0.4
		c0,0.2-0.1,0.3-0.1,0.5c-0.1,0.6,0.1,1.2,0.6,1.7c-0.6,0.1-1,1.2-0.9,1.2c0,0.1,0.1,0.2,0.1,0.4c0,0.1,0,0.3,0.1,0.3
		c0.1,0.1,0.2,0.3,0.2,0.4c0,0.1,0,0.2,0,0.2c-0.1,0-0.1,0-0.2,0c-0.1,0-0.2,0-0.2,0l-0.1,0l-0.1,0l-0.2,0c-0.4-0.1-0.9-0.1-1.4-0.2
		c-0.2,0-0.5,0-0.9-0.1c0-2-0.2-4.1-0.4-6.2l-0.1,0.1c-0.1-0.8-0.5-1.6-0.4-2.6c-0.2-0.7-0.4-1.8-0.7-2.1c0-0.8-0.2-1.2-0.3-2
		c-0.2,0.2-0.2-0.8-0.4-0.4c-0.3,0.5,0,0.6-0.3,1.1l0.1,0c-0.3,2.2-0.5,4.4-0.6,6.6c0.2,1.5,0,3.1,0.1,4.6c0,0.3,0,0.5,0,0.8
		c-0.4,0-0.8-0.1-1.1-0.1c-0.2,0-0.3,0-0.5-0.1c0.3,0.1,0.3,0.1,0.5,0.1c-0.5,0.1-1,0.3-1.5,0.4c-0.1-0.5-0.2-0.9-0.2-1.3
		c0-0.1,0-0.2,0.1-0.2l-0.1-0.6c0.2,0,0.1-0.5,0.3-0.2c-0.2-0.4-0.1-0.9-0.4-1.4c0-0.9-0.1-1.5,0-2.3c0.1-0.8,0.1-1.6,0.2-2.5h0
		c0-0.6-0.2-1.2,0.1-1.9c-0.1-0.5-0.1-1.3-0.5-1.5c0-0.6-0.1-0.8-0.2-1.3c-0.2,0.1-0.2-0.5-0.4-0.2c-0.3,0.3,0,0.4-0.3,0.6h0.1
		c-0.4,1.3-0.9,2.6-1.4,4.1c-0.1,1.1-0.5,2.2-0.5,3.5c0,0.3,0,0.7,0,1c0,0.3,0.1,0.6,0.1,0.9c0.1,0.6,0.2,1.2,0.3,1.7
		c0.1,0.2-0.1,0.4-0.1,0.7c0.1,0.5,0.2,1,0.3,1.6c0.1,0.3,0.1,0.6,0.2,0.9l0.1,0.5c0,0.1,0.1,0.4,0.3,0.6c0.2,0.3,0.6,0.6,0.9,0.7
		c-0.1,0-0.2-0.1-0.3-0.1c0.7,0.3,1.1,0.2,1.1,0.2c0.3,0,0.7,0.1,1.1,0.1c0-0.1,0.1-0.1,0.1-0.1c0,0.1,1.1,0,2-0.2
		c0,0.2,0,0.4,0.1,0.6c0.1,0.3-0.1,0.6-0.2,0.9c0.1,1.3,0,3,0.1,4.4c0,0,0-0.1,0-0.1c0,0.8-0.2,1.4-0.1,2.1c0.1,0,0.1,0.1,0.1,0.2
		c-0.2,0.1,0.5,4.5,0.4,4.8c0,0.1,0,0.2,0,0.2c-0.1,1.6-0.6,3.3-0.5,4.7c0.1,0.3,0.2,0.6,0.4,0.9c-0.1,0.2,0.1,0.3,0.1,0.6
		c-0.5,0.7-0.3,1.2-0.1,0.8c0.1,0.6,0,1.2,0,1.8c0,0.2,0.1,0.5,0.1,0.8c0,0.2,0,0.3-0.2,0.4c0.1,0.6,0,0.4-0.1,1
		c-0.2,0.1,0.3,1.5,0.2,1.6l0-0.1c0,0.7-0.4,1.1-0.4,1.8c-0.1,1.8,0,3.8,0,5.5c0.2,0,0-0.4,0.2-0.4c0,1-0.2,2-0.3,3
		c0,0.2-0.1,0.4-0.2,0.5c-0.1,0.3,0.1,0.2,0.1,0.4l-0.2,0c0.1,0.3-0.2,0.5-0.1,0.8c0.1,0,0.1,0.1,0.1,0.2c-0.2,0,0,0.4-0.1,0.3h0
		c0,0.1,0,0.1,0,0.2c0.1,0.1,0.5,1.4,0.6,1.5l0,0.1c0,0.2,0.1,0.3,0.2,0.2v0.2l0,0V70c0,0-0.1,0.1-0.2,0c0.1,0.1,0.1,0.3,0.1,0.4
		c0.1-0.4,0.2-0.8,0.4-1.2c0.1,0.2,0,0.4,0,0.6C47,70,47,70.5,46.9,70.8c0,0.1,0.2,0.1,0.1,0.3c-0.1,0.1,0,0.2-0.1,0.3
		c-0.1-0.2,0-0.3,0-0.5c-0.2,0-0.1,0.4-0.1,0.5c0,0.1,0,0.4,0.1,0.6c-0.1,0-0.1,0-0.1,0.1c0,0,0,0.1,0,0.1c0,0.1,0,0.2,0.1,0.2
		c0,0,0.1,0,0.1,0c0.2,0.3,0.3,0.7,0.3,0.6c0,0,0,0,0,0c0,0,0-0.1,0-0.1c0,0.1-0.2-0.2-0.3-0.4c0-0.1,0-0.3,0.1-0.3c0,0,0,0,0,0
		l0-0.1c0,0,0,0.1,0,0.1c0,0,0,0,0,0.1c0,0,0,0,0,0c0,0,0,0,0,0c0,0,0,0,0,0c0,0,0,0,0,0.1c0,0.1,0,0.3,0,0.4c0.1,0,0.1,0,0.1,0
		c0,0,0.1,0.1,0.1,0.2c0,0,0,0,0,0l0,0c0,0,0,0.1,0,0.1c0,0,0,0.1,0,0.1c0,0,0,0,0,0c0,0,0,0,0,0c0,0,0.1,0,0.1,0l0,0
		c0-0.5,0.9,0.4,0.9-0.2C48,72.9,48,72.5,48,72.3c0.1,0,0.2-0.2,0.2-0.4c0-0.2-0.1-0.1-0.1-0.1c0-0.1,0.1-0.3,0.2-0.3
		c-0.1-0.1,0.1-0.2,0-0.4c-0.1-0.2-0.1,0-0.1-0.1c0-0.2,0-0.5,0-0.7c0.1-0.1,0.3-0.3,0.4-0.1c0,0.3-0.2-0.1-0.2,0.2
		c0.2-0.2,0.1,0.3,0.2,0.4c0.1-0.1,0.1-0.3,0.1-0.5l0,0c0-0.2-0.1-0.5,0-0.7c0.1,0,0.1,0,0.2,0.1l0-0.2c0,0,0-0.1-0.1,0
		c-0.1-0.1,0-0.2,0-0.3c0,0,0-0.1,0-0.2c0,0,0,0,0,0c0.1-0.1-0.4-1.9-0.3-2c0-0.1,0-0.3-0.1-0.2c0-0.2,0.2,0.1,0.2-0.1c0,0,0,0,0,0
		l0.1-0.1c-0.1-0.3,0-0.8-0.1-1.1c0.1,0.1,0.3,0.2,0.3,0.4l0,0c0,0,0.1,0.2,0.1,0.2c0.1-0.2,0-0.4,0-0.6c0,0,0-0.1,0.1-0.1h0
		c0-0.1,0.1-0.1,0.1,0c0,0,0,0,0,0c0.2-0.1-0.2-0.8,0-1.2c0-0.1,0,0-0.1-0.2c0.1-0.4,0.2-0.7,0.2-1.1c-0.1-0.1-0.2-0.1-0.3,0l0-0.3
		c0.3,0.3,0.3-0.6,0.5-0.3c0.1-0.1,0.1-0.3,0-0.4c-0.1,0-0.2,0-0.2-0.3c0.1-0.3,0.1-0.2,0.2-0.5c0.1-0.1,0.1,0,0.2,0
		c-0.1-0.4,0.2-0.3,0.2-0.7c0-0.2,0-0.7-0.2-0.7c0-0.3,0.1-0.3,0.3-0.3l0-0.2c0,0.8,0,1.6-0.1,2.5c0.5-1.8,1-3.9-0.2-5.3
		c0.6-0.2,0.9-1.9,0.7-1.9c-0.1-0.4-0.2-0.7-0.3-1.1c-0.5-2.3-0.3-4.9-0.1-7.6c0.1-1.5,0.2-5.4,0.4-7c0-0.2,0-0.4,0.1-0.7
		c-0.1,0.4-0.1,0.4-0.1,0.7c-0.2-0.9-0.3-1.7-0.4-2.5c-0.1,0.1-0.2,0.2-0.3,0.5l0.1-0.4c-0.3-0.4-0.2-1.2-0.4-1.6
		c0.1,0.1,0.2-0.2,0.2-0.5l-0.1,0.1c0.1-1.1-0.1-2.3,0-3.3c0-0.1,0-0.2,0.1-0.3l-0.1-0.9c0,0,0.1,0,0.1-0.1c0.7,0.2,1.3,0.3,1.9,0.3
		c0.1-0.1,0.2-0.1,0.3-0.2c0.2-0.1,0.3-0.1,0.5-0.2c0.3,0.1,0.3-0.1,0.6-0.1c1,0.5,1.3,0,0.9,0c0.3-0.1,0.5-0.2,0.7-0.4
		c0.2-0.2,0.3-0.5,0.4-0.7c0-0.3,0.1-0.5,0.1-0.8c0-0.2,0.1-0.3,0.2-0.4c0-0.3,0-0.4,0.1-0.5c0-0.1,0.1-0.2,0.2-0.4
		c0.2-0.1-0.2-1.1-0.1-1.2L55.5,25.3z M53.2,16.7c-0.1-0.2-0.2-0.4-0.3-0.6c0.2,0.2,0.4,0.5,0.3,0.5C53.3,16.6,53.2,16.7,53.2,16.7z
		 M47.4,72.6C47.4,72.6,47.4,72.6,47.4,72.6C47.5,72.7,47.4,72.7,47.4,72.6z M48.5,67.8c0,0.3,0.1,0.8,0.2,1
		c-0.1-0.4-0.3-0.9-0.3-0.8C48.5,67.8,48.5,67.8,48.5,67.8z M54.3,13.4L54.3,13.4C54.3,13.3,54.2,13.3,54.3,13.4c0-0.1,0-0.1,0-0.1
		C54.3,13.3,54.3,13.3,54.3,13.4c0-0.1,0.2,0,0.3,0.2c-0.1,0.1-0.1,0.2-0.2,0.2c0,0,0,0,0,0l0,0c0,0,0,0,0-0.1c0,0,0,0,0,0
		c0,0,0,0,0,0c0,0,0,0,0,0c0,0,0,0,0,0c0,0,0,0,0,0c0.1,0,0-0.2,0-0.2c-0.1,0-0.1,0-0.1,0C54.3,13.5,54.3,13.4,54.3,13.4
		C54.3,13.4,54.3,13.4,54.3,13.4z"/>
	<path class="st0" d="M47.1,72.9C47.2,72.9,47.2,72.9,47.1,72.9C47.2,72.9,47.1,72.9,47.1,72.9C47.1,72.9,47.1,72.9,47.1,72.9z"/>
	<path class="st0" d="M54.8,13.8c0,0-0.1,0-0.1-0.1C54.8,13.8,54.9,13.8,54.8,13.8z"/>
	<path class="st0" d="M46.6,72c0,0,0.1,0,0.1,0.1C46.6,72,46.5,71.9,46.6,72z"/>
	<path class="st0" d="M30.7,71.4c0,0,0,0,0.1,0.2C30.7,71.4,30.7,71.3,30.7,71.4z"/>
	<path class="st0" d="M31.1,71.6C31.1,71.6,31.1,71.6,31.1,71.6C31.1,71.6,31.1,71.6,31.1,71.6C31.1,71.6,31.1,71.6,31.1,71.6z"/>
	<path class="st0" d="M34.4,17.9l0-0.6l0.1-1.4l-0.2-1.5l0.3-0.2l0.2-3.1l-0.7,1.2l-0.3-2.7l-2.5,7c0,0.1,0,0.1-0.1,0.2
		c0.1,0,0.1-0.1,0.2-0.1l0.3-0.2l-0.2,0.3l0,0c0,0.2-0.1,0.4-0.1,0.7h0c0,0,0,0,0,0c-0.2,0.6-0.5,1.3-0.6,1.7
		c-0.1-0.2-0.3,0.2-0.5,0.6l0.2-0.1c-0.8,1.4-1.6,3.2-2.2,4.5c-0.1,0.2-0.2,0.3-0.3,0.4c-0.2,0.5-0.3,0.9-0.5,1.4
		c-0.1-0.2-0.6,1.1-0.4,0.4c-0.2,1.1-0.6,2.2-0.6,3.2c-0.4,1.9-0.4,3.9-0.3,5.7c0.1,1.9,0.3,3.7,0.5,5.6l0.1-0.1
		c0.2,1.3,0.5,2.4,0.9,4c0.3,0.5,0.6,1.1,1,1.6c0.4,0.4,0.9,0.7,1.1,0.7c0.5,0.4,0.9,0.5,1.2,0.5c0.1,0,0.2,0,0.4,0
		c-0.1,0.4-0.2,0.8-0.2,1.3c-0.2,2.8-0.1,5.8-0.2,8.4c0.2,0,0-0.6,0.2-0.6c-0.1,1.5-0.3,3.1-0.4,4.6c0,0.3-0.2,0.6-0.2,0.7
		c-0.1,0.5,0.1,0.3,0.1,0.7l-0.2,0c0.1,0.5-0.2,0.8-0.1,1.3c0.1,0,0.1,0.2,0.1,0.4c-0.2,0,0,0.5-0.2,0.5h0c0,0.1,0,0.2,0,0.3
		c0.1,0.2,0.5,2.1,0.6,2.3l0,0.1c0,0.3,0.1,0.4,0.2,0.2l0,0.4l0,0l0,0.4c0,0.1-0.1,0.1-0.2,0c0.1,0.2,0.1,0.4,0.1,0.6
		c0.1-0.5,0.3-1.2,0.4-1.8c0.1,0.2,0,0.7,0,0.9c-0.1,0.3-0.2,0.9-0.3,1.4c0,0.1,0.2,0.2,0.1,0.4c-0.1,0.1,0,0.3-0.1,0.5
		c-0.1-0.2,0-0.5,0-0.7c-0.2,0-0.1,0.6-0.2,0.8c0,0.1,0,0.5,0,0.8c-0.1-0.1-0.1,0-0.1,0.2c0,0,0,0,0,0.1c0,0,0,0,0,0
		c0,0.1,0,0.2,0,0.2c0,0.2,0,0.3,0.1,0.2c0,0,0.1,0,0.1-0.1c0.1,0.5,0.3,1,0.3,0.9c0-0.1,0-0.1,0.1,0c0,0,0,0,0,0c0,0,0.1,0.1,0.1,0
		l0-0.1c0-0.8,0.9,0.7,0.9-0.3c-0.2,0.4-0.2-0.1-0.2-0.6c0.1,0,0.2-0.2,0.2-0.6c0-0.3-0.1-0.2-0.1-0.2c0-0.2,0.1-0.4,0.2-0.4
		c-0.1-0.2,0.1-0.3,0-0.6c-0.1-0.2-0.1,0-0.1-0.1c0-0.3,0-0.8,0.1-1.1c0.1-0.1,0.3-0.4,0.4-0.2c0,0.5-0.2-0.2-0.2,0.3
		c0.2-0.2,0.1,0.5,0.2,0.6c0.1-0.2,0.1-0.5,0.1-0.8l0,0c0-0.3-0.1-0.8,0-1c0.1,0.1,0.1-0.1,0.2,0.1l0-0.4c0,0,0-0.1-0.1,0
		c-0.1-0.2,0-0.3,0-0.5c0,0,0-0.1,0-0.3c0,0,0,0,0,0c0.1-0.2-0.4-2.9-0.2-3c0-0.2,0-0.4-0.1-0.4c0-0.3,0.2,0.1,0.2-0.1
		c0,0,0,0,0-0.1l0.1-0.2c-0.1-0.5,0-1.2-0.1-1.7c0.1,0.2,0.2,0.3,0.3,0.7l0,0.1c0,0,0,0.3,0.1,0.3c0.1-0.3,0-0.6,0-0.9
		c0-0.1,0-0.1,0.1-0.2c0,0,0,0,0,0c0.1-0.1,0.1-0.1,0.1-0.1c0,0,0,0,0,0c0.2-0.2-0.1-1.2,0-1.8c0-0.2,0,0-0.1-0.2
		c0.1-0.6,0.2-1,0.3-1.6c-0.1-0.2-0.1-0.2-0.3,0l0-0.5c0.3,0.4,0.3-0.9,0.5-0.4c0.1-0.1,0.1-0.4,0-0.7c-0.1,0-0.2-0.1-0.2-0.4
		c0.1-0.5,0.1-0.4,0.2-0.7c0.1-0.1,0.1,0,0.2,0c-0.1-0.6,0.2-0.5,0.2-1.1c0-0.4,0-1-0.2-1c0-0.5,0.1-0.5,0.3-0.4l0-0.4
		c0,1.2-0.1,2.5-0.2,3.8c0.6-2.7,1.1-6,0-8.1c0.6-0.2,1-2.9,0.8-2.9c-0.1-0.6-0.2-1.1-0.3-1.7c-0.4-3.6-0.2-7.5,0.1-11.5
		c0.1-2.2,0.2-8.4,0.4-10.7l0-1c0,0.6,0,0.6-0.1,1.1c-0.2-1.3-0.4-2.6-0.5-3.7l0-0.2l-0.1,0.2C34.6,17.4,34.5,17.5,34.4,17.9z
		 M31.3,72.8c0,0,0-0.1,0-0.2c0,0.1-0.2-0.2-0.3-0.6c0-0.2,0.1-0.5,0.1-0.5c0,0,0,0,0,0l0-0.1c0,0.1,0,0.2,0.1,0.3c0,0,0,0,0-0.1
		c-0.1,0.1,0,0.4,0,0.6c0.1,0,0.1-0.1,0.1-0.1c0,0.1,0,0.1,0.1,0.2c0,0,0,0,0,0.1l0,0c0,0.1,0,0.1,0,0.2
		C31.3,72.8,31.3,72.8,31.3,72.8z M31.5,72.4c0,0,0.1,0,0.1,0C31.6,72.5,31.6,72.5,31.5,72.4z M31.7,35.6c-0.1,0.4,0.1,0.4,0.1,0.9
		c-0.5,1.1-0.3,1.8-0.1,1.2c0.1,0.9,0,1.9,0,2.7c0,0.4,0.1,0.8,0.1,1.2c0,0.3,0,0.5-0.2,0.7c0.1,0.9-0.1,0.6-0.1,1.5
		c-0.2,0.2,0.2,2.2,0.2,2.5l0-0.1c0,0.3,0,0.5-0.1,0.8c-0.4-0.1-0.9-0.5-1.2-0.9c-0.2-0.2-0.3-0.5-0.4-0.7c-0.1-0.3-0.2-0.6-0.3-0.9
		c-0.3-1.3-0.3-2.8-0.3-4.5C29,37.6,29,35.1,29,32.9c0-2.3,0.5-4.7,1.2-6.7c0.2-0.5,0.4-0.7,0.7-1.1c0.2-0.5,0.5-1.1,0.8-1.7
		c0.2,1.6,0.3,3.2,0.2,3.4l0,0.4c-0.1,2.5-0.6,5-0.6,7.1C31.5,34.7,31.6,35.2,31.7,35.6z M32.7,65.4c0-0.1,0-0.2,0-0.3
		c0,0.4,0.2,1.3,0.2,1.7C32.9,66.2,32.7,65.3,32.7,65.4z"/>
	<polygon class="st0" points="34.7,14.2 34.6,15.8 34.7,17.1 37.1,12.3 	"/>
</g>
</svg>
