<?xml version="1.0" encoding="utf-8"?>
<!-- Generator: Adobe Illustrator 24.2.1, SVG Export Plug-In . SVG Version: 6.00 Build 0)  -->
<svg version="1.1" id="Layer_1" xmlns="http://www.w3.org/2000/svg" xmlns:xlink="http://www.w3.org/1999/xlink" x="0px" y="0px"
	 viewBox="0 0 114.9 2.9" style="enable-background:new 0 0 114.9 2.9;" xml:space="preserve">
<style type="text/css">
	.st0{fill:#FDD140;}
</style>
<g>
	<path class="st0" d="M9.2,0.2L9.2,0.2c0.1,0,0.2,0,0.3,0C9.4,0.2,9.3,0.2,9.2,0.2z"/>
	<path class="st0" d="M11,0.4L9.7,0.2c-0.1,0-0.2,0-0.3,0C10.3,0.3,10,0.4,11,0.4z"/>
	<path class="st0" d="M9.2,0.3C8.1,0.4,7.6,0.1,6,0.2c1.2,0.1,2.4,0.2,3.3,0.2L9.2,0.3z"/>
	<path class="st0" d="M110.4,0.3c-0.5,0-1.1,0-1.7,0c-0.8-0.1-1.7-0.2-2.7-0.2c-1.2,0.2-3.1,0.3-4.9,0.3c-0.1,0-0.2,0-0.4-0.1
		c-0.3,0-0.8,0.1-1.3,0.1c-0.6,0-1.1,0-1.6,0c-5.3-0.2-10.1-0.2-14.9-0.1c-3.8,0-7.6,0.2-11.2,0.4c-0.5-0.2-1.5-0.4-2.8-0.4
		c-3.7-0.1-8.8-0.3-11.5,0.3c-1.2-0.2-2.6-0.2-3.3-0.1c-1,0.1-2,0.2-3,0.2c-2.4-0.1-4.8-0.2-7.1-0.1c0,0,0,0,0.1,0
		c-1.5,0-2.9-0.1-4.3-0.1c-2.8,0.1-5.8-0.1-7.9,0c-1.4,0.1-2.7,0.1-3.9,0.1c0,0,0,0,0,0c-0.2,0-0.4,0-0.6-0.1c0,0,0,0,0,0l0,0
		c-0.2,0-0.5,0-0.7,0c0.3,0,0.5,0,0.7,0l0,0c-0.3,0-0.6,0-1,0c-1.5-0.1-3.3-0.2-3.8-0.3c-0.6,0.2,0.6,0.2,1.7,0.2
		c-1.2,0-2.6,0-3.9,0c0.5,0,0.9-0.1,1.5,0c0.3-0.1,0.2-0.1-0.2-0.2c-1.2,0-3.4-0.1-3.6,0.1c-0.2,0-0.4-0.1-0.6-0.1l-0.6,0.1l-0.3,0
		c0.1,0,0.1,0,0.2,0.1c-1.6,0-3.2-0.1-4.4,0.1c-0.1,0-0.2,0.1-0.3,0.1c-0.4-0.1,0.2-0.1,0.4-0.2c-1.1,0-1.9,0-2.2,0.1l1.8,0.1
		c-0.1,0.1-0.1,0.1-0.1,0.1c-0.6,0.1-1.1,0.2-1.3,0.1C9.2,1,8.1,0.8,7.1,0.7c0,0,0.1,0,0.1,0c0.7,0,1.8,0.1,2.2,0.1L8.1,0.5L7.6,0.6
		c-0.2,0-0.3,0-0.3-0.1c0,0,0,0,0,0c0,0,0,0,0,0l-0.1,0c0,0-0.1,0-0.1,0L7,0.5l-0.6,0c0,0,0,0,0,0C5.9,0.4,5.4,0.2,4.2,0.2
		c0,0,0,0,0,0C3.6,0.1,2.9,0.1,2.2,0C2.1,0,1.6,0,1.1,0.1c0,0-0.1,0-0.1,0C0.6,0.2,0.4,0.2,0.3,0.3C0.1,0.3,0,0.3,0,0.4
		c0.3,0.2,1.2,0.3,2.1,0.4l-0.2,0l0.1,0c0,0,0.1,0,0.1,0c0.7,0.1,1.5,0.2,2,0.2C4.4,1.1,4.7,1.2,5,1.3c0.6,0.2-0.8,0.3-1.2,0.3
		c2.1,0.6,7.6,0.6,12,0.6C16.5,2.3,17,2,17.7,2c0.3,0,0.6,0.1,1,0.1c0.7,0,1.7,0,2,0c2.6,0.4,7.4,0.2,10.5,0.3c2,0.1,4.1,0,6.4,0.2
		c2,0.2,5.1,0.1,7.8,0.1c0.4,0,0.7-0.1,1.1-0.1c1,0,2.7,0.1,3,0.1c3.9-0.2,7.5,0,10.7-0.1c4.8-0.1,9.4,0,13.8-0.2l0.3,0.1
		c0.5-0.1,1-0.1,1.1-0.2c0.2,0,0.5,0,0.7,0c0.7,0,1.4,0,1.8-0.1c0.6,0.1,0.2,0.1,0.5,0.1c0.8,0,1.8-0.1,2.7-0.1
		c0.3,0,0.7,0.1,1.5,0.1l0,0c2.8,0.1,5.7,0.3,7.1,0.6c1.5-0.4,3.4-0.1,5.2-0.2c2.1-0.1,4.6-0.3,6.2-0.1c2.6,0.2,4.9,0.1,6.9-0.1
		c0.1,0,0.2,0,0.3,0c0.1,0,0.2,0,0.3,0c2.3-0.2,4.3-0.6,6.3-0.8C114.5,1.1,114.1,0.5,110.4,0.3z M6.9,0.6C6.9,0.6,6.9,0.6,6.9,0.6
		c-0.1,0-0.1,0-0.2,0C6.7,0.6,6.8,0.6,6.9,0.6L6.9,0.6z"/>
</g>
</svg>
