<?xml version="1.0" encoding="utf-8"?>
<!-- Generator: Adobe Illustrator 24.2.1, SVG Export Plug-In . SVG Version: 6.00 Build 0)  -->
<svg version="1.1" id="Layer_1" xmlns="http://www.w3.org/2000/svg" xmlns:xlink="http://www.w3.org/1999/xlink" x="0px" y="0px"
	 viewBox="0 0 954 646" style="enable-background:new 0 0 954 646;" xml:space="preserve">
<style type="text/css">
	.st0{fill:#FFFFFF;}
	.st1{fill:#1D1D1D;}
	.st2{fill:#2E2E2E;}
</style>
<g>
	<path class="st0" d="M702.8,111.7c0-0.1-0.4-0.2,0.2-0.2c1.9-0.1,3.5,0.2,5.4,0.1l0.1-0.1c1.5,0.1,3.1,0.1,4.6,0.2
		c2.9,0,5.8-0.1,8.8-0.1c-0.1,0-0.1-0.1,0.2-0.1c1.2,0,2.9,0,4.6,0c0.3,0,0.5,0,0.8,0c0.2,0,0.2-0.1,0.3-0.1c0.8,0,1.5,0,2.1,0
		s1.2,0,1.9-0.1c0.1,0,0.3,0,0.4-0.1v0.3v0.2v0.6c0,0.9,0.1,1.8,0.1,2.7c0.1,1.8,0.1,3.7,0.2,5.6c0.1,3.8,0.2,7.6,0.4,11.6
		c0.1,2,0.2,4,0.3,5.9c0.1,2.8,0,6.4-0.1,9.2c0.5-0.4,0.7,6.3,1.2,5c0,1.8,0,4.6,0.1,4.7c0.4,0.4,0.8,1.8,1.1,6.7
		c0.1,1.9-0.1,4.8,0,5.5c0.1,1.1,0.3-2.5,0.4-1.4c0.1-14.2,0-27.9,0-42.2c0-1-0.1-3.1-0.1-5.9c0-3.3,0-7.5-0.1-12
		c-6.2,0-13.2,0-19.2,0.1c-5.5,0-10.2,0-12.7,0H703c-4.6,0-10.2,0-14.1,0.2c-1.7,0.1-3.6,0.2-5.4,0.4c0.8,0.1,1.6,0.2,2.3,0.2
		c-1.8,0-3.7,0-4.4,0.1c-3.9,0.2-1.7,0.4-0.2,0.7c1.1,0.1-0.4,0.3,1.3,0.5c-1.2,0-1.8,0-3.1,0c-0.1,0.1,3.8-0.1,2.9,0.1
		c-1.2,0-2.5,0-3.7,0c0.4,0.2,4.2,0.1,4.1,0.2c-0.7,0-3.4-0.2-3.7,0c0,0,1.2,0.1,1.8,0.1c-3.8,0.1-5.8,0.3-2.4,0.5
		c-1.2,0-2.9-0.1-4.1-0.1l0,0c0.6,0,1.7,0,2.3,0.1h-2.2l0.4,0.1c0.5,0,1.1,0,1.6,0.1H675c0.4,0.1,0.8,0.1,1.2,0.2
		c1.7,0.1,3.3,0.3,4.2,0.4C688,111.6,695.4,111.7,702.8,111.7z"/>
</g>
<g>
	<path class="st1" d="M67.9,202.1c0.2-0.1,0.4-0.3,0.5-0.5C68.3,201.7,68.1,201.9,67.9,202.1z"/>
	<path class="st1" d="M35.1,203.3c-0.1-0.2-0.3-0.4-0.5-0.5C34.7,202.9,34.9,203.1,35.1,203.3z"/>
	<path class="st1" d="M70.3,234.2c-3.9-4.1-8-7.9-12-12c-0.5-0.4-1.8-1.6-3.4-3.1c2.8-2.9,5.8-5.9,7.1-7.1c0.1-0.1,0.1-0.1,0.2-0.2
		c1.3-1.3,2.9-2.9,3.9-4.1c0.4-0.6,0.9-1.2,1.3-1.8c-0.3,0.2-0.6,0.4-0.8,0.5c0.5-0.5,1.1-1,1.2-1.3c1-1.3,0.2-0.8-0.5-0.6
		c-0.4,0.2-0.1-0.4-0.7,0c0.4-0.3,0.5-0.5,0.9-0.9c-0.1-0.1-1,1.1-0.9,0.7c0.4-0.3,0.7-0.7,1-1.1c-0.2,0-1.3,1.2-1.3,1
		c0.2-0.2,1.1-0.8,1.1-1c0,0-0.1,0.1-0.2,0.2c0.8-0.9,1.1-1.5,0-0.7c0.2-0.2,0.4-0.4,0.7-0.6c-0.1,0-0.1,0.1-0.2,0.1
		c0.2-0.2,0.4-0.4,0.6-0.6c-0.1,0-0.1,0-0.2,0c-0.2,0.1-0.3,0.3-0.5,0.4c0.1-0.1,0.3-0.3,0.4-0.4c-0.2,0.1-0.3,0.1-0.5,0.2
		c-0.6,0.4-1.2,0.7-1.5,1c-2.2,1.8-4.4,3.9-6.5,6c0.1,0.1,0.2,0,0.1,0.2c-0.5,0.6-1.1,0.9-1.6,1.5c0,0,0,0.1,0.1,0.1
		c-0.5,0.4-1,0.8-1.5,1.2c-0.8,0.8-1.6,1.7-2.4,2.6c0.1,0,0.1,0,0,0.1c-0.3,0.4-0.8,0.8-1.3,1.3c-0.1,0.1-0.1,0.2-0.2,0.2
		c0,0.1,0,0.1,0,0.2c-0.1,0.1-0.2,0.2-0.3,0.3c-2.9-2.9-6.1-6-7.4-7.3c-0.1-0.1-0.1-0.1-0.2-0.2c-1.3-1.3-2.9-2.9-4.1-3.9
		c-0.6-0.4-1.2-0.9-1.8-1.3c0.2,0.3,0.4,0.6,0.5,0.8c-0.5-0.5-1-1.1-1.3-1.2c-1.3-1-0.8-0.2-0.6,0.5c0.2,0.4-0.4,0.1,0,0.7
		c-0.3-0.4-0.5-0.5-0.9-0.9c-0.1,0.1,1.1,1,0.7,0.9c-0.3-0.4-0.7-0.7-1.1-1c0,0.2,1.2,1.3,1,1.3c-0.2-0.2-0.8-1.1-1-1.1
		c0,0,0.1,0.1,0.2,0.2c-0.9-0.8-1.5-1.1-0.7,0c-0.2-0.2-0.4-0.4-0.6-0.7c0,0.1,0.1,0.1,0.1,0.2c-0.2-0.2-0.4-0.4-0.6-0.6
		c0,0.1,0,0.1,0,0.2c0.1,0.2,0.3,0.3,0.4,0.5c-0.1-0.1-0.3-0.3-0.4-0.4c0.1,0.2,0.1,0.3,0.2,0.5c0.4,0.6,0.7,1.2,1,1.5
		c1.8,2.2,3.9,4.4,6,6.5c0.1-0.1,0-0.2,0.2-0.1c0.6,0.5,0.9,1.1,1.5,1.6c0,0,0.1,0,0.1-0.1c0.4,0.5,0.8,1,1.2,1.5
		c0.8,0.8,1.7,1.6,2.6,2.4c0-0.1,0-0.1,0.1,0c0.4,0.3,0.8,0.8,1.3,1.3c0.1,0.1,0.2,0.1,0.2,0.2c0.1,0,0.1,0,0.2,0
		c0.2,0.2,0.4,0.4,0.6,0.6c0.1,0.1,0.1,0.1,0.2,0.2c-1.6,1.8-3.2,3.7-4.8,5.7c-0.5,0.6-1,1.3-1.5,1.9c-0.8,0.8-1.9,1.8-2.7,2.6
		c0.4,0.2-1.3,2.3-0.6,2.2c-0.5,0.5-1.3,1.3-1.3,1.4c0.2,0.4,0.1,1.1-1.2,2.7c-0.5,0.6-1.5,1.3-1.6,1.6c-0.2,0.4,0.9-0.5,0.7-0.1
		c4.1-3.9,7.9-8,12-12c0.4-0.5,1.8-2,3.6-3.8c1.7,1.5,3.5,3,5.4,4.5c0.6,0.5,1.3,1,1.9,1.5c0.8,0.8,1.8,1.9,2.6,2.7
		c0.2-0.4,2.3,1.3,2.2,0.6c0.5,0.5,1.3,1.3,1.4,1.3c0.4-0.2,1.1-0.1,2.7,1.2c0.6,0.5,1.3,1.5,1.6,1.6
		C70.8,235.1,69.9,234,70.3,234.2z"/>
</g>
<path class="st1" d="M20.4,184.6c-1.6-1.8-3.3-3.3-5-5c-0.1-0.1-0.4-0.3-0.7-0.5c0.9-0.9,1.8-1.8,2.2-2.2l0.1-0.1
	c0.6-0.5,1.2-1.2,1.5-1.8c0.1-0.3,0.3-0.6,0.4-0.9c-0.2,0-0.3,0.1-0.4,0.1c0.2-0.2,0.5-0.4,0.5-0.6c0.3-0.6-0.1-0.5-0.5-0.5
	c-0.2,0-0.2-0.3-0.5-0.2c0.1-0.1,0.2-0.2,0.4-0.4c-0.1-0.1-0.4,0.5-0.5,0.2c0.2-0.1,0.3-0.3,0.4-0.5c-0.2-0.1-0.6,0.5-0.7,0.3
	c0-0.1,0.6-0.2,0.5-0.4c0,0-0.2,0.1-0.3,0.2c0.4-0.5,0.5-0.9-0.1-0.6c0.1-0.1,0.2-0.2,0.3-0.2c0,0-0.1,0-0.1,0
	c0.1-0.1,0.2-0.2,0.3-0.2h-0.1c-0.1,0-0.2,0-0.3,0c-0.3,0.1-0.6,0.1-0.8,0.3c-0.9,0.7-1.8,1.5-2.7,2.4c0.1,0.1,0.2,0.1,0.1,0.2
	c-0.2,0.3-0.6,0.3-0.7,0.6l0.1,0.1c-0.2,0.1-0.5,0.3-0.7,0.4c-0.3,0.4-0.7,0.7-1,1.1l0.1,0.1c0,0-0.1,0.1-0.1,0.1
	c-1-1-1.9-1.9-2.3-2.3l-0.1-0.1c-0.5-0.6-1.2-1.2-1.8-1.5c-0.3-0.1-0.6-0.3-0.9-0.4c0,0.2,0.1,0.3,0.1,0.4c-0.2-0.2-0.4-0.5-0.6-0.5
	c-0.6-0.3-0.5,0.1-0.5,0.5c0,0.2-0.3,0.2-0.2,0.5c-0.1-0.1-0.2-0.2-0.4-0.4c-0.1,0.1,0.5,0.4,0.2,0.5c-0.1-0.2-0.3-0.3-0.5-0.4
	c-0.1,0.2,0.5,0.6,0.3,0.7c-0.1,0-0.2-0.6-0.4-0.5c0,0,0.1,0.2,0.2,0.3c-0.5-0.4-0.9-0.5-0.6,0.1c-0.1-0.1-0.2-0.2-0.2-0.3
	c0,0,0,0.1,0,0.1c-0.1-0.1-0.2-0.2-0.2-0.3v0.1c0,0.1,0,0.2,0,0.3c0.1,0.3,0.1,0.6,0.3,0.8c0.7,0.8,1.6,1.8,2.4,2.7
	c0.1-0.1,0.1-0.2,0.2-0.1c0.3,0.2,0.3,0.6,0.6,0.7l0.1-0.1c0.1,0.2,0.3,0.5,0.4,0.7c0.4,0.3,0.7,0.7,1.1,1l0.1-0.1
	c0.2,0.1,0.3,0.3,0.4,0.5c-0.4,0.5-0.7,1.1-1.1,1.7c-0.1,0.3-0.3,0.6-0.5,0.9c-0.3,0.4-0.8,0.7-1.1,1.1c0.4,0.3-0.3,1.2,0.2,1.4
	c-0.2,0.2-0.6,0.5-0.5,0.6c0.2,0.3,0.4,0.8,0,1.6c-0.2,0.3-0.7,0.5-0.7,0.6c0,0.2,0.5-0.1,0.5,0.1c1.8-1.6,3.3-3.3,5-5
	c0.1-0.2,0.4-0.6,0.9-1.1c0.5,0.3,1.1,0.7,1.6,1.1c0.3,0.2,0.6,0.3,0.9,0.5c0.4,0.3,0.7,0.8,1.1,1.1c0.3-0.4,1.2,0.3,1.4-0.2
	c0.2,0.2,0.5,0.6,0.6,0.5c0.3-0.2,0.8-0.4,1.6,0c0.3,0.2,0.5,0.7,0.6,0.7C20.5,185.1,20.2,184.6,20.4,184.6z"/>
<g>
	<path class="st0" d="M389.7,637c0,0.1,0.4,0.2-0.2,0.2c-1.9,0.1-3.5-0.2-5.4-0.1l-0.1,0.1c-1.5-0.1-3.1-0.1-4.6-0.2
		c-2.9,0-5.8,0.1-8.8,0.1c0.1,0,0.1,0.1-0.2,0.1c-1.2,0-2.9,0-4.6,0c-0.3,0-0.5,0-0.8,0c-0.2,0-0.2,0.1-0.3,0.1c-0.8,0-1.5,0-2.1,0
		s-1.2,0-1.9,0.1c-0.1,0-0.3,0-0.4,0.1v-0.3V637v-0.6c0-0.9-0.1-1.8-0.1-2.7c-0.1-1.8-0.1-3.7-0.2-5.6c-0.1-3.8-0.2-7.6-0.4-11.6
		c-0.1-2-0.2-4-0.3-5.9c-0.1-2.8,0-6.4,0.1-9.2c-0.5,0.4-0.7-6.3-1.2-5c0-1.8,0-4.6-0.1-4.7c-0.4-0.4-0.8-1.8-1.1-6.7
		c-0.1-1.9,0.1-4.8,0-5.5c-0.1-1.1-0.3,2.5-0.4,1.4c-0.1,14.2,0,27.9,0,42.2c0,1,0.1,3.1,0.1,5.9c0,3.3,0,7.5,0.1,12
		c6.2,0,13.2,0,19.2-0.1c5.5,0,10.2,0,12.7,0h0.8c4.6,0,10.2,0,14.1-0.2c1.7-0.1,3.6-0.2,5.4-0.4c-0.8-0.1-1.6-0.2-2.3-0.2
		c1.8,0,3.7,0,4.4-0.1c3.9-0.2,1.7-0.4,0.2-0.7c-1.1-0.1,0.4-0.3-1.3-0.5c1.2,0,1.8,0,3.1,0c0.1-0.1-3.8,0.1-2.9-0.1
		c1.2,0,2.5,0,3.7,0c-0.4-0.2-4.2-0.1-4.1-0.2c0.7,0,3.4,0.2,3.7,0c0,0-1.2-0.1-1.8-0.1c3.8-0.1,5.8-0.3,2.4-0.5
		c1.2,0,2.9,0.1,4.1,0.1l0,0c-0.6,0-1.7,0-2.3-0.1h2.2l-0.4-0.1c-0.5,0-1.1,0-1.6-0.1h1.4c-0.4-0.1-0.8-0.1-1.2-0.2
		c-1.7-0.1-3.3-0.3-4.2-0.4C404.6,637.1,397.1,637,389.7,637z"/>
</g>
<g>
	<g>
		<path class="st2" d="M223.1,64.2c-0.1,0-0.2,0.1-0.2,0c-0.1-0.5,0.1-0.9,0-1.4h-0.1c0-0.4,0-0.8,0.1-1.2c-0.1-0.7-0.2-1.5-0.3-2.2
			h-0.1c-0.1-0.3-0.1-0.7-0.1-1.2c0-0.1,0-0.1,0-0.2l-0.1-0.1c0-0.2,0-0.4,0-0.5c-0.5-2.1-1-4.3-1.6-6.6c-0.2-0.5-0.3-1-0.5-1.5
			c-0.1-0.7-0.1-1.6-0.2-2.3c-0.4,0.2-0.9-1.5-1.3-1.1c0-0.5-0.1-1.2-0.2-1.2c-0.4-0.1-0.9-0.4-1.3-1.6c-0.1-0.5,0-1.2-0.1-1.4
			c-0.2-0.3-0.2,0.7-0.4,0.4c0.2,3.6,0.8,7,1.2,10.7c0.3,1.2,1.3,9.5,1.4,11.6c0,0.1,0,0.1,0,0.2c0.1,1.2,0.3,2.6,0.6,3.5
			c0.2,0.4,0.3,0.9,0.5,1.3c0.1-0.2,0.1-0.4,0.2-0.6c0,0.5,0.1,0.9,0.2,1.1c0.3,1,0.5,0.4,0.7,0c0.1-0.3,0.4,0.1,0.5-0.4
			c0,0.3,0,0.5,0.1,0.8c0.1,0-0.2-0.9,0.1-0.8c0,0.3,0.1,0.6,0.1,0.9c0.2-0.1,0-1.1,0.1-1.1c0.1,0.2-0.1,0.9,0.1,0.9
			c0,0,0-0.3,0-0.5c0.2,0.9,0.4,1.5,0.6,0.6c0,0.3,0,0.7,0,1.1l0,0c0-0.2,0-0.4,0-0.6c0,0.2,0,0.4,0,0.5l0.1-0.1c0-0.1,0-0.3,0-0.4
			c0,0.1,0,0.2,0,0.4c0.1-0.1,0.1-0.2,0.2-0.3c0.1-0.4,0.3-0.9,0.2-1.1C223.4,67.9,223.2,66.1,223.1,64.2z"/>
	</g>
	<g>
		<path class="st0" d="M197.9,65.9c-0.1,0,0,0.2-0.2,0.1c-0.6-0.6-0.8-1.2-1.4-1.8h-0.1c-0.4-0.5-0.7-1.1-1.1-1.6
			c-0.8-0.9-1.6-1.9-2.4-2.8c0,0.1,0,0.1-0.1,0c-0.4-0.4-0.8-0.9-1.2-1.5c-0.1-0.1-0.1-0.2-0.2-0.2c-0.1,0-0.1,0-0.2,0
			c-0.2-0.3-0.4-0.5-0.5-0.7c-2.5-2.6-5-5.2-7.8-8c-0.6-0.6-1.2-1.1-1.8-1.7c-0.8-0.9-1.7-2.1-2.4-3c-0.2,0.4-2.2-1.6-2.2-0.9
			c-0.5-0.6-1.2-1.5-1.3-1.5c-0.4,0.1-1.1-0.1-2.6-1.5c-0.6-0.6-1.2-1.6-1.5-1.8c-0.4-0.3,0.5,1,0.1,0.7c3.7,4.7,7.5,9,11.3,13.6
			c1.5,1.4,10.3,12,12.5,14.7c0.1,0.1,0.1,0.2,0.2,0.2c1.2,1.5,2.7,3.3,3.9,4.4c0.6,0.5,1.1,1,1.7,1.5c-0.2-0.3-0.3-0.6-0.4-0.9
			c0.5,0.6,1,1.2,1.2,1.4c1.2,1.1,0.8,0.3,0.6-0.4c-0.2-0.4,0.4-0.1,0-0.7c0.3,0.4,0.5,0.6,0.8,1c0.1,0-1.1-1.2-0.7-1
			c0.3,0.4,0.7,0.8,1,1.2c0-0.2-1.1-1.4-0.9-1.5c0.2,0.2,0.7,1.3,1,1.2c0,0-0.3-0.4-0.4-0.6c1.1,1.2,1.8,1.7,1,0.5
			c0.3,0.4,0.7,1,1.1,1.4l0,0c-0.2-0.2-0.4-0.6-0.6-0.8c0.2,0.2,0.4,0.5,0.6,0.7c0-0.1,0-0.1,0-0.2c-0.1-0.2-0.3-0.4-0.4-0.6
			c0.1,0.2,0.3,0.3,0.4,0.5c0-0.2-0.1-0.3-0.2-0.5c-0.3-0.6-0.6-1.3-0.9-1.6C201.8,70.7,199.8,68.3,197.9,65.9z"/>
	</g>
	<g>
		<path class="st2" d="M183.9,92.9c0,0.1,0.1,0.2-0.1,0.2c-0.4,0.1-0.8-0.2-1.2-0.2V93c-0.3-0.1-0.7-0.2-1-0.2c-0.6,0-1.2,0-2,0v0.1
			c-0.3,0-0.6-0.1-1-0.1h-0.2l-0.1,0.1c-0.2,0-0.3,0-0.5-0.1c-1.9,0.1-3.9,0.2-6,0.3c-0.5,0.1-0.9,0.1-1.3,0.1c-0.6,0-1.4-0.2-2-0.3
			c0,0.5-1.5,0.5-1.3,1c-0.4-0.1-1-0.2-1.1,0c-0.2,0.4-0.5,0.8-1.7,0.8c-0.4,0-1.1-0.3-1.2-0.2c-0.3,0.1,0.5,0.4,0.3,0.4
			c3.2,0.6,6.3,0.9,9.5,1.2c1.1,0,8.6,0.4,10.5,0.5h0.2c1,0.1,2.3,0.1,3.2-0.1c0.4-0.1,0.8-0.2,1.2-0.4c-0.2-0.1-0.4-0.2-0.5-0.2
			c0.4,0,0.8,0,1-0.1c0.9-0.2,0.4-0.4,0-0.7c-0.2-0.1,0.1-0.3-0.3-0.5c0.3,0,0.4,0,0.7,0c0-0.1-0.8,0.1-0.7-0.1c0.3,0.1,0.6,0,0.8,0
			c-0.1-0.2-1-0.1-0.9-0.2c0.1,0,0.8,0.2,0.8,0c0,0-0.3-0.1-0.4-0.1c0.8-0.1,1.3-0.3,0.5-0.5c0.3,0,0.6,0.1,0.9,0.1l0,0
			c-0.1,0-0.4,0-0.5-0.1h0.5l-0.1-0.1c-0.1,0-0.2,0-0.4-0.1h0.3c-0.1-0.1-0.2-0.1-0.3-0.2c-0.4-0.1-0.7-0.3-0.9-0.4
			C187.1,93.1,185.4,93,183.9,92.9z"/>
	</g>
</g>
<g>
	<path class="st2" d="M451.5,61.3c0,0.1,0.8,0.2-0.5,0.2c-4.3,0.1-7.7-0.2-11.9-0.1l-0.3,0.1c-3.3-0.1-6.7-0.1-10.2-0.2
		c-6.5,0-12.9,0.1-19.3,0.1c0.2,0,0.2,0.1-0.4,0.1c-0.8,0-1.6,0-2.5,0c-0.3,0-0.6,0-0.9,0h-0.2c0-0.1,0-0.3,0-0.5c0-0.8,0-1.6,0-2.4
		c0-0.6,0-1.1,0-1.7c0-0.4-0.1-0.5-0.1-0.6c0-1.7,0-3.3,0-4.7s0-2.8-0.1-4.2c0-0.7,0-1.4,0-2.2c0-0.2,0-0.4,0-0.6
		c15.2-0.2,31.1-0.5,48.1-0.7c4.4-0.1,8.8-0.2,12.9-0.3c6.2-0.1,14.2,0,20.2,0.1c-0.9-0.5,13.9-0.7,10.9-1.2c4,0,10.1,0,10.4-0.1
		s0.9-0.3,1.9-0.4c1.2-0.1,1.9-0.3,6.1-0.4c0.1,2.5,0.2,5.6,0.3,9.6c0.1,4.2-0.1,10.7,0,12.1c0.1,2.3,0.3-5.5,0.4-3.1
		c0-6.5,0-12.9,0-19.3c-25.9,0-51.4,0-77.7,0.1c-2.2,0-6.8,0.1-13,0.1c-6.7,0-15.1,0-24.1,0.1c0,7.7,0,15.9,0,24
		c19.9,0,39.3,0,47.8,0h1.7c10.1,0,22.4,0,31-0.2c3.9-0.1,7.9-0.2,11.9-0.4c-1.8-0.1-3.5-0.2-5-0.2c4.1,0,8.1,0,9.7-0.1
		c8.6-0.2,3.7-0.4,0.4-0.7c-2.4-0.1,0.8-0.3-2.9-0.5c2.7,0,4,0,6.7,0c0.3-0.1-8.3,0.1-6.4-0.1c2.6,0,5.5,0,8.2,0
		c-0.9-0.2-9.3-0.1-8.9-0.2c1.5,0,7.6,0.2,8.1,0c0.1,0-2.6-0.1-3.9-0.1c8.3-0.1,12.9-0.3,5.3-0.5c2.6,0,6.4,0.1,9.1,0.1l0,0
		c-1.4,0-3.8,0-5.1-0.1h4.7c-0.3,0-0.5-0.1-0.8-0.1c-1.2,0-2.4,0-3.6-0.1h3.1c-0.8-0.1-1.7-0.1-2.7-0.2c-3.7-0.1-7.3-0.3-9.3-0.4
		C484.2,61.4,467.8,61.4,451.5,61.3z"/>
</g>
<g>
	<path class="st0" d="M486,65.9c0.1,0,0.2-0.8,0.2,0.5c0.1,4.1-0.2,7.4-0.1,11.6l0.1,0.3c-0.1,3.2-0.1,6.5-0.2,9.9v2.4v0.3l0,0l0,0
		c-4,0-7.9,0.1-11.8,0.1c0.2,0,0.2,0.1-0.4,0.1c-2.6,0-6.2,0-9.8,0c-0.5,0-1.1,0-1.6,0c-0.4,0-0.5,0.1-0.6,0.1c-1.7,0-3.2,0-4.5,0
		s-2.7,0-4.1,0.1c-0.7,0-1.4,0-2.1,0c-0.2,0-0.4,0-0.6,0c-0.2-14.7-0.5-30.1-0.7-46.5c-0.1-4.3-0.2-8.5-0.3-12.5
		c0-6,0-13.7,0.1-19.6c-0.3,0.5-0.5-4.2-0.7-7.6c2.4-0.1,4.2-0.3,3-0.5c3.9,0,9.8,0,10.1-0.1c0.9-0.4,3.9-0.8,14.3-1.1
		c4.1-0.1,10.3,0.1,11.8,0c2.3-0.1-5.3-0.3-3-0.4c-12.9,0-25.6,0-38.3-0.1c0,18.5,0,36.9,0.1,55.9c0,2.1,0.1,6.6,0.1,12.6
		c0,6.5,0,14.6,0.1,23.4c14,0,29.6,0,42.9-0.1c0-11.6,0-21.4,0-26.8v-1.6c0-9.8,0-21.7-0.2-30c-0.1-3.8-0.2-7.7-0.4-11.5
		c-0.1,1.8-0.2,3.4-0.2,4.9c0-3.9,0-7.8-0.1-9.4c-0.2-8.4-0.4-3.6-0.7-0.4c-0.1,2.3-0.3-0.8-0.5,2.8c0-2.6,0-3.9,0-6.5
		c-0.1-0.3,0.1,8.1-0.1,6.2c0-2.5,0-5.3,0-7.9c-0.2,0.9-0.1,9.1-0.2,8.7c0-1.4,0.2-7.3,0-7.8c0-0.1-0.1,2.5-0.1,3.8
		c-0.1-8-0.3-12.5-0.5-5.1c0-2.6,0.1-6.2,0.1-8.9l0,0c0,1.3,0,3.7-0.1,4.9V5.5c0,0.3-0.1,0.5-0.1,0.8c0,1.2,0,2.3-0.1,3.5V6.7
		c-0.1,0.8-0.1,1.7-0.2,2.6c-0.1,3.6-0.3,7.1-0.4,9.1C486.1,34.2,486.1,50.1,486,65.9z"/>
</g>
<g>
	<path class="st2" d="M286.1,526.1c-0.1,0-0.2,0.8-0.2-0.5c-0.1-4,0.2-7.3,0.1-11.4l-0.1-0.3c0.1-3.1,0.1-6.4,0.2-9.7
		c0-6.1-0.1-12.2-0.1-18.3c0,0.2-0.1,0.2-0.1-0.4c0-2.5,0-6,0-9.7c0-0.5,0-1.1,0-1.6c0-0.4-0.1-0.5-0.1-0.6c0-1.6,0-3.1,0-4.5
		c0-1.3,0-2.6-0.1-4c0-0.7,0-1.4,0-2.1c0-0.2,0-0.3,0-0.5c10.1-0.2,20.6-0.3,32-0.5c0,0.6,0,1.2,0.1,1.8c0,1,0,2,0.1,3.1
		c0,2.1,0.1,4.3,0.1,6.5c0.1,4.2,0.2,8.4,0.3,12.3c0,5.9,0,13.5-0.1,19.3c0.5-0.9,0.7,13.2,1.2,10.4c0,3.8,0,9.6,0.1,9.9
		c0.4,0.9,0.8,3.9,1.1,14.1c0.1,4-0.1,10.1,0,11.6c0.1,2.2,0.3-5.2,0.4-3c0-14.7,0-29.1,0-43.5c0-15.1,0-30.2-0.1-45.6
		c-0.8,0-1.6,0-2.4,0c-4.5,0-19.1,0.1-36.2,0.2c0,24.3,0,54,0,64.9v1.6c0,4.1,0,8.5,0,12.9c0,5,0.1,9.8,0.1,14.2c2,0,4,0,5.8-0.1
		c3.7-0.1,7.5-0.2,11.3-0.4c-1.7-0.1-3.4-0.2-4.8-0.2c3.9,0,7.7,0,9.2-0.1c8.2-0.2,3.6-0.4,0.4-0.7c-2.3-0.1,0.8-0.3-2.8-0.5
		c2.6,0,3.8,0,6.4,0c0.3-0.1-7.9,0.1-6.1-0.1c2.5,0,5.2,0,7.8,0c-0.9-0.2-8.9-0.1-8.5-0.2c1.4,0,7.2,0.2,7.7,0
		c0.1,0-2.5-0.1-3.8-0.1c7.9-0.1,12.3-0.3,5-0.5c2.5,0,6,0.1,8.7,0.1l0,0c-1.3,0-3.6,0-4.8-0.1h4.5c-0.3,0-0.5-0.1-0.8-0.1
		c-1.1,0-2.3,0-3.4-0.1h3c-0.8-0.1-1.7-0.1-2.6-0.2c-3.6-0.1-7-0.3-8.9-0.4c-6.6,0-13.2-0.1-19.8-0.1
		C286.1,541.4,286.1,533.7,286.1,526.1z"/>
</g>
<g>
	<path class="st0" d="M336.8,502.7c0,0.1,0.4,0.2-0.2,0.2c-1.9,0.1-3.4-0.2-5.3-0.1l-0.1,0.1c-1.4-0.1-3-0.1-4.6-0.2
		c-2.9,0-5.7,0.1-8.6,0.1c0.1,0,0.1,0.1-0.2,0.1c-1.2,0-2.8,0-4.5,0c-0.3,0-0.5,0-0.7,0s-0.2,0.1-0.3,0.1c-0.8,0-1.4,0-2.1,0
		c-0.6,0-1.2,0-1.8,0.1c-0.1,0-0.3,0-0.4,0.1V503v-0.1c0-0.1,0,0,0-0.3c0-0.8-0.1-1.5-0.1-2.3c-0.1-1.5-0.1-3.1-0.2-4.7
		s-0.1-3.2-0.2-4.8c0-0.8-0.1-1.6-0.1-2.5c0-0.5-0.1-1-0.1-1.5c0.2,0,0.5,0,0.7-0.1c0.4,0,0.8,0,1.3-0.1c1.9-0.1,3.9-0.2,5.8-0.3
		c2.8,0,6.3,0,9,0.1c-0.4-0.5,6.2-0.7,4.9-1.2c1.8,0,4.5,0,4.6-0.1c0.4-0.4,1.8-0.8,6.6-1.1c1.9-0.1,4.7,0.1,5.4,0
		c1-0.1-2.4-0.3-1.4-0.4c-6.4-0.1-12.6-0.1-18.9,0c-6.9,0-13.9,0-21,0.1c0,1.8,0,3.6,0,5.5c0,1,0.1,3,0.1,5.8c0,3.3,0,7.3,0.1,11.8
		c6.1,0,12.9,0,18.9-0.1c5.4,0,10,0,12.5,0h0.7c3.4,0,7.2,0,10.8,0c0-1.5,0-2.9-0.1-4.3c0-0.8-0.1-1.5-0.1-2.3
		c-0.1-1.7-0.2-3.5-0.4-5.3c-0.1,0.8-0.2,1.5-0.2,2.2c0-1.8,0-3.6-0.1-4.3c-0.2-3.8-0.4-1.7-0.7-0.2c-0.1,1.1-0.3-0.4-0.5,1.3
		c0-1.2,0-1.8,0-3c-0.1-0.1,0.1,3.7-0.1,2.9c0-1.2,0-2.4,0-3.6c-0.2,0.4-0.1,4.2-0.2,4c0-0.6,0.2-3.4,0-3.6c0,0-0.1,1.2-0.1,1.8
		c-0.1-3.7-0.3-5.7-0.5-2.4c0-1.2,0.1-2.8,0.1-4.1l0,0c0,0.6,0,1.7-0.1,2.3V486l-0.1,0.4c0,0.5,0,1.1-0.1,1.6v-1.4
		c-0.1,0.3-0.1,0.8-0.2,1.2c-0.1,1.7-0.3,3.3-0.4,4.2c0,3.7-0.1,7.4-0.1,11c-0.1,0,0.1,0-0.2,0h-2.2L336.8,502.7z"/>
</g>
<g>
	<path class="st0" d="M246.1,461.1c0,0.1,0.6,0.2-0.3,0.2c-2.9,0.1-5.2-0.2-8.1-0.1l-0.2,0.1c-2.2-0.1-4.6-0.1-7-0.2
		c-4.4,0-8.8,0.1-13.1,0.1c0.1,0,0.2,0.1-0.3,0.1c-1.8,0-4.3,0-6.9,0c-0.4,0-0.8,0-1.1,0s-0.4,0.1-0.4,0.1c-1.2,0-2.2,0-3.2,0
		c-1.7,0-4.5,0.1-4.3,0.1v-0.2v-0.1c0-0.1,0,0,0-0.3c0-0.8,0-1.5,0-2.3c0-1.5-0.1-3.1-0.1-4.7s-0.1-3.2-0.1-4.8c0-0.8,0-1.6-0.1-2.5
		v-0.8v-0.5c0.2,0,0.5,0,0.7,0c0.5,0,1,0,1.5,0c1.2,0,2.4-0.1,3.6-0.1c2.5-0.1,5.1-0.1,7.7-0.2c3-0.1,5.9-0.2,8.8-0.3
		c4.2,0,9.7,0,13.8,0.1c-0.6-0.5,9.5-0.7,7.4-1.2c2.8,0,6.9,0,7.1-0.1c0.6-0.4,2.8-0.8,10.1-1.1c2.9-0.1,7.3,0.1,8.3,0
		c1.6-0.1-3.7-0.3-2.1-0.4c-21.3-0.1-41.8,0-63.3,0c-1.2,0-1.8,0.1-6.9,0.1c0,5.5,0.1,13.7,0.1,22.9c17.6,0,39.1,0,47,0h1.1
		c6.9,0,15.3,0,21.1-0.2c1.4,0,2.9-0.1,4.3-0.1c0-1.4-0.1-2.8-0.1-4.1L271,458c-0.1,1.3-0.2,2.5-0.2,3.6c0-3,0-5.6-0.1-6.7
		c-0.2-5.9-0.4-2.5-0.7-0.3c-0.1,1.6-0.3-0.6-0.5,2c0-1.8,0-2.8,0-4.6c-0.1-0.2,0.1,5.7-0.1,4.4c0-1.8,0-3.8,0-5.6
		c-0.2,0.6-0.1,6.4-0.2,6.1c0-1,0.2-5.2,0-5.5c0-0.1-0.1,1.8-0.1,2.7c-0.1-5.7-0.3-8.8-0.5-3.6c0-1.8,0.1-4.3,0.1-6.2l0,0
		c0,0.9,0,2.6-0.1,3.5v-3.2c0,0.2-0.1,0.4-0.1,0.6c0,0.8,0,1.6-0.1,2.5v-2.1c-0.1,0.6-0.1,1.2-0.2,1.8c-0.1,2.5-0.3,5-0.4,6.4v4.9
		v2.5c0,0.6,0,0.3,0,0.4v0.1C260.5,461.1,253.3,461.1,246.1,461.1z"/>
</g>
</svg>
