<?xml version="1.0" encoding="utf-8"?>
<!-- Generator: Adobe Illustrator 24.2.1, SVG Export Plug-In . SVG Version: 6.00 Build 0)  -->
<svg version="1.1" id="Layer_1" xmlns="http://www.w3.org/2000/svg" xmlns:xlink="http://www.w3.org/1999/xlink" x="0px" y="0px"
	 viewBox="0 0 1312 758" style="enable-background:new 0 0 1312 758;" xml:space="preserve">
<style type="text/css">
	.st0{fill:#FFFFFF;}
	.st1{fill:#1D1D1D;}
	.st2{fill:#2E2E2E;}
</style>
<g>
	<path class="st0" d="M114,4.4c-14.2-0.1-27.9,0-42.2,0c-1,0-3.1,0.1-5.9,0.1c-3.3,0-7.5,0-12,0.1c0,6.2,0,13.2,0.1,19.2
		c0,5.5,0,10.2,0,12.7v0.8c0,4.6,0,10.2,0.2,14.1c0.1,1.7,0.2,3.6,0.4,5.4c0.1-0.8,0.2-1.6,0.2-2.3c0,1.8,0,3.7,0.1,4.4
		c0.2,3.9,0.4,1.7,0.7,0.2c0.1-1.1,0.3,0.4,0.5-1.3c0,1.2,0,1.8,0,3.1c0.1,0.1-0.1-3.8,0.1-2.9c0,1.2,0,2.5,0,3.7
		c0.1-0.1,0.1-0.6,0.1-1.1c0,0.4,0,0.7,0.1,0.7c0,0,0.1-1.2,0.1-1.8c0.1,3.7,0.3,5.8,0.5,2.3c0,1.2-0.1,2.9-0.1,4.1
		c0.1-0.6,0.1-1.7,0.1-2.2v2.2l0.1-0.4c0-0.5,0-1.1,0.1-1.6v1.4c0.1-0.4,0.1-0.8,0.2-1.2c0.1-1.7,0.3-3.3,0.4-4.2
		c0-7.6,0-15,0.1-22.4c-0.1,0-0.2,0.4-0.2-0.2c-0.1-1.9,0.2-3.5,0.1-5.4l-0.1-0.1c0.1-1.5,0.1-3.1,0.2-4.6c0-2.9-0.1-5.8-0.1-8.8
		c0,0.1-0.1,0.1-0.1-0.2c0-1.2,0-2.9,0-4.6c0-0.3,0-0.5,0-0.8c0-0.2-0.1-0.2-0.1-0.3c0-0.8,0-1.5,0-2.1c0-0.6,0-1.2-0.1-1.9
		c0-0.1,0-0.3-0.1-0.4h0.3h0.2h0.6c0.9,0,1.8-0.1,2.7-0.1c1.8-0.1,3.7-0.1,5.6-0.2c3.8-0.1,7.6-0.2,11.6-0.4c2-0.1,4-0.2,5.9-0.3
		c2.8-0.1,6.4,0,9.2,0.1c-0.4-0.5,6.3-0.7,5-1.2c1.8,0,4.6,0,4.7-0.1c0.4-0.4,1.8-0.8,6.7-1.1c1.9-0.1,4.8,0.1,5.5,0
		C116.5,4.7,112.9,4.5,114,4.4z M56.3,59.2c0-0.9,0-1.6,0.1-1.6C56.4,57.9,56.4,58.5,56.3,59.2z"/>
	<g>
		<path class="st1" d="M797.6,676.7c0.1,0,0.2-0.4,0.2,0.2c0.1,1.9-0.2,3.5-0.1,5.4l0.1,0.1c-0.1,1.5-0.1,3.1-0.2,4.6
			c0,2.9,0.1,5.8,0.1,8.8c0-0.1,0.1-0.1,0.1,0.2c0,1.2,0,2.9,0,4.6c0,0.3,0,0.5,0,0.8c0,0.2,0.1,0.2,0.1,0.3c0,0.8,0,1.5,0,2.1
			s0,1.2,0.1,1.9c0,0.1,0,0.3,0.1,0.4h-0.3h-0.2H797c-0.9,0-1.8,0.1-2.7,0.1c-1.8,0.1-3.7,0.1-5.6,0.2c-3.8,0.1-7.6,0.2-11.6,0.4
			c-2,0.1-4,0.2-5.9,0.3c-2.8,0-6.4,0-9.2-0.1c0.4,0.5-6.3,0.7-5,1.2c-1.8,0-4.6,0-4.7,0.1c-0.4,0.4-1.8,0.8-6.7,1.1
			c-1.9,0.1-4.8-0.1-5.5,0c-1.1,0.1,2.5,0.3,1.4,0.4c14.2,0.1,27.9,0,42.2,0c1,0,3.1-0.1,5.9-0.1c3.3,0,7.5,0,12-0.1
			c0-6.2,0-13.2-0.1-19.2c0-5.5,0-10.2,0-12.7v-0.8c0-4.6,0-10.2-0.2-14.1c-0.1-1.7-0.2-3.6-0.4-5.4c-0.1,0.8-0.2,1.6-0.2,2.3
			c0-1.8,0-3.7-0.1-4.4c-0.2-3.9-0.4-1.7-0.7-0.2c-0.1,1.1-0.3-0.4-0.5,1.3c0-1.2,0-1.8,0-3.1c-0.1-0.1,0.1,3.8-0.1,2.9
			c0-1.2,0-2.5,0-3.7c-0.2,0.4-0.1,4.2-0.2,4.1c0-0.7,0.2-3.4,0-3.7c0,0-0.1,1.2-0.1,1.8c-0.1-3.8-0.3-5.8-0.5-2.4
			c0-1.2,0.1-2.9,0.1-4.1l0,0c0,0.6,0,1.7-0.1,2.3v-2.2l-0.1,0.4c0,0.5,0,1.1-0.1,1.6v-1.4c-0.1,0.4-0.1,0.8-0.2,1.2
			c-0.1,1.7-0.3,3.3-0.4,4.2C797.7,661.9,797.6,669.3,797.6,676.7z"/>
	</g>
	<g>
		<path class="st1" d="M1275.7,97.3c0.1,0.2,0.3,0.4,0.5,0.5C1276.1,97.7,1275.9,97.5,1275.7,97.3z"/>
		<path class="st1" d="M1276.2,97.4c-0.1-0.2-0.1-0.3-0.2-0.5c-0.4-0.6-0.7-1.2-1-1.5c-1.9-2.2-3.9-4.4-6-6.5
			c-0.1,0.1,0,0.2-0.2,0.1c-0.6-0.5-0.9-1.1-1.5-1.6c0,0-0.1,0-0.1,0.1c-0.4-0.5-0.8-1-1.2-1.5c-0.8-0.8-1.7-1.6-2.6-2.4
			c0,0.1,0,0.1-0.1,0c-0.4-0.3-0.8-0.8-1.3-1.3c-0.1-0.1-0.2-0.1-0.2-0.2c-0.1,0-0.1,0-0.2,0c-0.1-0.1-0.3-0.3-0.4-0.4
			c2.9-2.9,6-6.1,7.3-7.4c0.1-0.1,0.1-0.1,0.2-0.2c1.3-1.3,2.9-2.9,3.9-4.1c0.4-0.6,0.9-1.2,1.3-1.8c-0.3,0.2-0.6,0.4-0.8,0.5
			c0.5-0.5,1.1-1,1.2-1.3c1-1.3,0.2-0.8-0.5-0.6c-0.4,0.2-0.1-0.4-0.7,0c0.4-0.3,0.5-0.5,0.9-0.9c-0.1-0.1-1,1.1-0.9,0.7
			c0.4-0.3,0.7-0.7,1-1.1c-0.2,0-1.3,1.2-1.3,1c0.2-0.2,1.1-0.8,1.1-1c0,0-0.1,0.1-0.2,0.2c0.8-0.9,1.1-1.5,0-0.7
			c0.2-0.2,0.4-0.4,0.7-0.6c-0.1,0-0.1,0.1-0.2,0.1c0.2-0.2,0.4-0.4,0.6-0.6c-0.1,0-0.1,0-0.2,0c-0.2,0.1-0.3,0.3-0.5,0.4
			c0.1-0.1,0.3-0.3,0.4-0.4c-0.2,0.1-0.3,0.1-0.5,0.2c-0.6,0.4-1.2,0.7-1.5,1c-2.2,1.9-4.3,3.9-6.5,6c0.1,0.1,0.2,0,0.1,0.2
			c-0.5,0.6-1.1,0.9-1.6,1.5c0,0,0,0.1,0.1,0.1c-0.5,0.4-1,0.8-1.5,1.2c-0.8,0.8-1.6,1.7-2.4,2.6c0.1,0,0.1,0,0,0.1
			c-0.3,0.4-0.8,0.8-1.3,1.3c-0.1,0.1-0.1,0.2-0.2,0.2c0,0.1,0,0.1,0,0.2c-0.2,0.2-0.4,0.4-0.6,0.6c-0.1,0.1-0.1,0.1-0.2,0.2
			c-1.8-1.5-3.7-3.1-5.6-4.7c-0.6-0.5-1.3-1-1.9-1.5c-0.8-0.8-1.8-1.9-2.6-2.7c-0.2,0.4-2.3-1.3-2.2-0.6c-0.5-0.5-1.3-1.3-1.4-1.3
			c-0.4,0.2-1.1,0.1-2.7-1.2c-0.6-0.5-1.3-1.5-1.6-1.6c-0.4-0.2,0.5,0.9,0.1,0.7c3.9,4.1,8,7.9,12,12c0.5,0.4,2,1.8,3.7,3.5
			c-1.5,1.7-3,3.5-4.5,5.4c-0.5,0.6-1,1.3-1.5,1.9c-0.8,0.8-1.9,1.8-2.7,2.6c0.4,0.2-1.3,2.3-0.6,2.2c-0.5,0.5-1.3,1.3-1.3,1.4
			c0.2,0.4,0.1,1.1-1.2,2.7c-0.5,0.6-1.5,1.3-1.6,1.6c-0.2,0.4,0.9-0.5,0.7-0.1c4.1-3.9,7.9-8,12-12c0.4-0.5,1.6-1.8,3.1-3.4
			c2.9,2.8,5.9,5.9,7.2,7.2c0.1,0.1,0.1,0.1,0.2,0.2c1.3,1.3,2.9,2.9,4.1,3.9c0.6,0.4,1.2,0.9,1.8,1.3c-0.2-0.3-0.4-0.6-0.5-0.8
			c0.5,0.5,1,1.1,1.3,1.2c1.3,1,0.8,0.2,0.6-0.5c-0.2-0.4,0.4-0.1,0-0.7c0.3,0.4,0.5,0.5,0.9,0.9c0.1-0.1-1.1-1-0.7-0.9
			c0.3,0.4,0.7,0.7,1.1,1c0-0.2-1.2-1.3-1-1.3c0.2,0.2,0.8,1.1,1,1.1c0,0-0.1-0.1-0.2-0.2c0.9,0.8,1.5,1.1,0.7,0
			c0.2,0.2,0.4,0.4,0.6,0.7c0-0.1-0.1-0.1-0.1-0.2c0.2,0.2,0.4,0.4,0.6,0.6C1276.2,97.6,1276.2,97.6,1276.2,97.4
			c-0.1-0.1-0.3-0.2-0.4-0.4C1275.9,97.1,1276.1,97.3,1276.2,97.4z"/>
		<path class="st1" d="M1274.4,64.4c0.2-0.1,0.4-0.3,0.5-0.5C1274.8,64,1274.6,64.2,1274.4,64.4z"/>
	</g>
	<path class="st1" d="M1306.2,46.4c-0.7-0.9-1.5-1.8-2.4-2.7c-0.1,0.1-0.1,0.2-0.2,0.1c-0.3-0.2-0.3-0.6-0.6-0.7l-0.1,0.1
		c-0.1-0.2-0.3-0.5-0.4-0.7c-0.4-0.3-0.7-0.7-1.1-1l-0.1,0.1c0,0-0.1-0.1-0.1-0.1c1-1,1.9-1.9,2.3-2.3l0.1-0.1
		c0.6-0.5,1.2-1.2,1.5-1.8c0.1-0.3,0.3-0.6,0.4-0.9c-0.2,0-0.3,0.1-0.4,0.1c0.2-0.2,0.5-0.4,0.5-0.6c0.3-0.6-0.1-0.5-0.5-0.5
		c-0.2,0-0.2-0.3-0.5-0.2c0.1-0.1,0.2-0.2,0.4-0.4c-0.1-0.1-0.4,0.5-0.5,0.2c0.2-0.1,0.3-0.3,0.4-0.5c-0.2-0.1-0.6,0.5-0.7,0.3
		c0-0.1,0.6-0.2,0.5-0.4c0,0-0.2,0.1-0.3,0.2c0.4-0.5,0.5-0.9-0.1-0.6c0.1-0.1,0.2-0.2,0.3-0.2c0,0-0.1,0-0.1,0c0,0,0,0,0,0
		c0,0,0,0,0,0c0,0,0,0,0,0c0,0,0,0,0,0c0.1-0.1,0.2-0.2,0.3-0.2h-0.1c-0.1,0-0.2,0-0.3,0c-0.3,0.1-0.6,0.1-0.8,0.3
		c-0.9,0.7-1.8,1.5-2.7,2.4c0.1,0.1,0.2,0.1,0.1,0.2c-0.2,0.3-0.6,0.3-0.7,0.6l0.1,0.1c-0.2,0.1-0.5,0.3-0.7,0.4
		c-0.3,0.4-0.7,0.7-1,1.1l0.1,0.1c-0.1,0.2-0.3,0.3-0.5,0.4c-0.5-0.4-1.1-0.7-1.7-1.1c-0.3-0.2-0.6-0.3-0.9-0.5
		c-0.4-0.3-0.7-0.8-1.1-1.1c-0.3,0.4-1.2-0.3-1.4,0.2c-0.2-0.2-0.5-0.6-0.6-0.5c-0.3,0.2-0.8,0.4-1.6,0c-0.3-0.2-0.5-0.7-0.6-0.7
		c-0.2,0,0.1,0.5-0.1,0.5c1.6,1.8,3.3,3.3,5,5c0.2,0.1,0.6,0.4,1.1,0.9c-0.3,0.5-0.7,1.1-1.1,1.6c-0.2,0.3-0.3,0.6-0.5,0.9
		c-0.3,0.4-0.8,0.7-1.1,1.1c0.4,0.3-0.3,1.2,0.2,1.4c-0.2,0.2-0.6,0.5-0.5,0.6c0.2,0.3,0.4,0.8,0,1.6c-0.2,0.3-0.7,0.5-0.7,0.6
		c0,0.2,0.5-0.1,0.5,0.1c1.8-1.6,3.3-3.3,5-5c0.1-0.1,0.3-0.4,0.5-0.7c0.9,0.9,1.8,1.8,2.2,2.2l0.1,0.1c0.5,0.6,1.2,1.2,1.8,1.5
		c0.3,0.1,0.6,0.3,0.9,0.4c0-0.2-0.1-0.3-0.1-0.4c0.2,0.2,0.4,0.5,0.6,0.5c0.6,0.3,0.5-0.1,0.5-0.5c0-0.2,0.3-0.2,0.2-0.5
		c0.1,0.1,0.2,0.2,0.4,0.4c0.1-0.1-0.5-0.4-0.2-0.5c0.1,0.2,0.3,0.3,0.5,0.4c0.1-0.2-0.5-0.6-0.3-0.7c0.1,0,0.2,0.6,0.4,0.5
		c0,0-0.1-0.2-0.2-0.3c0.5,0.4,0.9,0.5,0.6-0.1c0.1,0.1,0.2,0.2,0.2,0.3c0,0,0-0.1,0-0.1c0.1,0.1,0.2,0.2,0.2,0.3v-0.1
		c0-0.1,0-0.2,0-0.3C1306.4,46.9,1306.4,46.6,1306.2,46.4z"/>
	<g>
		<g>
			<path class="st2" d="M1222.1,471c0.1,0,0.2-0.1,0.2,0c0.1,0.5-0.1,0.9,0,1.4h0.1c0,0.4,0,0.8-0.1,1.2c0.1,0.7,0.2,1.5,0.3,2.2
				h0.1c0.1,0.3,0.1,0.7,0.1,1.2c0,0.1,0,0.1,0,0.2l0.1,0.1c0,0.2,0,0.4,0,0.5c0.5,2.1,1,4.3,1.6,6.6c0.2,0.5,0.3,1,0.5,1.5
				c0.1,0.7,0.1,1.6,0.2,2.3c0.4-0.2,0.9,1.5,1.3,1.1c0,0.5,0.1,1.2,0.2,1.2c0.4,0.1,0.9,0.4,1.3,1.6c0.1,0.5,0,1.2,0.1,1.4
				c0.2,0.3,0.2-0.7,0.4-0.4c-0.2-3.6-0.8-7-1.2-10.7c-0.3-1.2-1.3-9.5-1.4-11.6c0-0.1,0-0.1,0-0.2c-0.1-1.2-0.3-2.6-0.6-3.5
				c-0.2-0.4-0.3-0.9-0.5-1.3c-0.1,0.2-0.1,0.4-0.2,0.6c0-0.5-0.1-0.9-0.2-1.1c-0.3-1-0.5-0.4-0.7,0c-0.1,0.3-0.4-0.1-0.5,0.4
				c0-0.3,0-0.5-0.1-0.8c-0.1,0,0.2,0.9-0.1,0.8c0-0.3-0.1-0.6-0.1-0.9c-0.2,0.1,0,1.1-0.1,1.1c-0.1-0.2,0.1-0.9-0.1-0.9
				c0,0,0,0.3,0,0.5c-0.2-0.9-0.4-1.5-0.6-0.6c0-0.3,0-0.7,0-1.1l0,0c0,0.2,0,0.4,0,0.6c0-0.2,0-0.4,0-0.5l-0.1,0.1
				c0,0.1,0,0.3,0,0.4c0-0.1,0-0.2,0-0.4c-0.1,0.1-0.1,0.2-0.2,0.3c-0.1,0.4-0.3,0.9-0.2,1.1C1221.8,467.2,1221.9,469.1,1222.1,471z
				"/>
		</g>
		<g>
			<path class="st0" d="M1247.3,469.3c0.1,0,0-0.2,0.2-0.1c0.6,0.6,0.8,1.2,1.4,1.8h0.1c0.4,0.5,0.7,1.1,1.1,1.6
				c0.8,0.9,1.6,1.9,2.4,2.8c0-0.1,0-0.1,0.1,0c0.4,0.4,0.8,0.9,1.2,1.5c0.1,0.1,0.1,0.2,0.2,0.2s0.1,0,0.2,0
				c0.2,0.3,0.4,0.5,0.5,0.7c2.5,2.6,5,5.2,7.8,8c0.6,0.6,1.2,1.1,1.8,1.7c0.8,0.9,1.7,2.1,2.4,3c0.2-0.4,2.2,1.6,2.2,0.9
				c0.5,0.6,1.2,1.5,1.3,1.5c0.4-0.1,1.1,0.1,2.6,1.5c0.6,0.6,1.2,1.6,1.5,1.8c0.4,0.3-0.5-1-0.1-0.7c-3.7-4.7-7.5-9-11.3-13.6
				c-1.5-1.4-10.3-12-12.5-14.7c-0.1-0.1-0.1-0.2-0.2-0.2c-1.2-1.5-2.7-3.3-3.9-4.4c-0.6-0.5-1.1-1-1.7-1.5c0.2,0.3,0.3,0.6,0.4,0.9
				c-0.5-0.6-1-1.2-1.2-1.4c-1.2-1.1-0.8-0.3-0.6,0.4c0.2,0.4-0.4,0.1,0,0.7c-0.3-0.4-0.5-0.6-0.8-1c-0.1,0,1.1,1.2,0.7,1
				c-0.3-0.4-0.7-0.8-1-1.2c0,0.2,1.1,1.4,0.9,1.5c-0.2-0.2-0.7-1.3-1-1.2c0,0,0.3,0.4,0.4,0.6c-1.1-1.2-1.8-1.7-1-0.5
				c-0.3-0.4-0.7-1-1.1-1.4l0,0c0.2,0.2,0.4,0.6,0.6,0.8c-0.2-0.2-0.4-0.5-0.6-0.7c0,0.1,0,0.1,0,0.2c0.1,0.2,0.3,0.4,0.4,0.6
				c-0.1-0.2-0.3-0.3-0.4-0.5c0,0.2,0.1,0.3,0.2,0.5c0.3,0.6,0.6,1.3,0.9,1.6C1243.4,464.4,1245.4,466.9,1247.3,469.3z"/>
		</g>
		<g>
			<path class="st2" d="M1261.3,442.2c0-0.1-0.1-0.2,0.1-0.2c0.4-0.1,0.8,0.2,1.2,0.2v-0.1c0.3,0.1,0.7,0.2,1,0.2c0.6,0,1.2,0,2,0
				v-0.1c0.3,0,0.6,0.1,1,0.1h0.2l0.1-0.1c0.2,0,0.3,0,0.5,0.1c1.9-0.1,3.9-0.2,6-0.3c0.5-0.1,0.9-0.1,1.3-0.1c0.6,0,1.4,0.2,2,0.3
				c0-0.5,1.5-0.5,1.3-1c0.4,0.1,1,0.2,1.1,0c0.2-0.4,0.5-0.8,1.7-0.8c0.4,0,1.1,0.3,1.2,0.2c0.3-0.1-0.5-0.4-0.3-0.4
				c-3.2-0.6-6.3-0.9-9.5-1.2c-1.1,0-8.6-0.4-10.5-0.5h-0.2c-1-0.1-2.3-0.1-3.2,0.1c-0.4,0.1-0.8,0.2-1.2,0.4
				c0.2,0.1,0.4,0.2,0.5,0.2c-0.4,0-0.8,0-1,0.1c-0.9,0.2-0.4,0.4,0,0.7c0.2,0.1-0.1,0.3,0.3,0.5c-0.3,0-0.4,0-0.7,0
				c0,0.1,0.8-0.1,0.7,0.1c-0.3-0.1-0.6,0-0.8,0c0.1,0.2,1,0.1,0.9,0.2c-0.1,0-0.8-0.2-0.8,0c0,0,0.3,0.1,0.4,0.1
				c-0.8,0.1-1.3,0.3-0.5,0.5c-0.3,0-0.6-0.1-0.9-0.1l0,0c0.1,0,0.4,0,0.5,0.1h-0.5l0.1,0.1c0.1,0,0.2,0,0.4,0.1h-0.3
				c0.1,0.1,0.2,0.1,0.3,0.2c0.4,0.1,0.7,0.3,0.9,0.4C1258.1,442,1259.7,442.1,1261.3,442.2z"/>
		</g>
	</g>
	<g>
		<path class="st2" d="M283.1,724.8c-0.1,0.1,1.5,0.2-0.9,0.2c-7.4,0.1-13.3-0.2-20.7-0.1L261,725c-5.7-0.1-11.7-0.1-17.7-0.2
			c-11.2,0-22.3,0.1-33.4,0.1c0.3,0,0.4,0.1-0.7,0.1c-4.6,0-11,0-17.6,0c-1,0-2,0-2.9,0c-0.8,0-0.9,0.1-1.1,0.1c-3,0-5.6,0-8.1,0
			c-4.3,0-8.6,0.1-13.4,0.1c-0.1-12.4-0.2-25.1-0.4-39.2c13.1-0.1,27.7-0.3,42.7-0.4c7.6-0.1,15.2-0.2,22.4-0.3
			c10.8,0,24.6,0,35.1,0.1c-1.6-0.5,24-0.7,18.9-1.2c7,0,17.5,0,18.1-0.1c1.6-0.4,7-0.8,25.7-1.1c7.3-0.1,18.5,0.1,21.1,0
			c4-0.1-9.4-0.3-5.4-0.4c-54.2,0-106.3,0-160.9,0c-3.7,0-11,0.1-20.9,0.1c0,12.2,0.1,28.3,0.1,45.9c43.7,0,97.2,0,116.7,0
			c1,0,1.9,0,2.9,0c17.5,0,38.9,0,53.7-0.2c5-0.1,10-0.2,15.1-0.2c0-2.8-0.1-5.6-0.1-8.3c-0.1,2.9-0.1,5.7-0.2,8c-1.1,0-1.9,0-2.8,0
			c0.9,0,1.8,0,2.7,0c0-3.6,0-7,0-10c0-2.6-0.1-4.7-0.1-6c-0.2-14.9-0.4-6.5-0.7-0.7c-0.1,4.1-0.3-1.5-0.5,5c0-4.7,0-7,0-11.7
			c-0.1-0.5,0.1,14.4-0.1,11.2c0-4.5,0-9.5,0-14.2c-0.2,1.6-0.1,16.2-0.2,15.5c0-2.5,0.2-13.1,0-14c0-0.2-0.1,4.5-0.1,6.8
			c-0.1-14.4-0.3-22.3-0.5-9.2c0-4.6,0-11,0.1-15.8l0,0c0,2.4,0,6.6-0.1,8.8c0-2.7,0-5.5,0-8.2c0,0.4-0.1,0.9-0.1,1.4
			c0,2.1,0,4.1-0.1,6.2c0-1.8,0-3.6,0-5.5c-0.1,1.4-0.1,3-0.2,4.6c-0.1,6.5-0.3,12.7-0.4,16.2c0,5.5,0,11-0.1,16.6
			C326.2,724.9,304.6,724.9,283.1,724.8z"/>
	</g>
	<g>
		<path class="st0" d="M329.5,749.5c0.1,0,0.2-0.5,0.2,0.3c0,0.1,0,0.2,0,0.2c-0.1,0-0.1,0-0.2,0l0,0h-0.4h-0.8
			c-1.1,0-2.2-0.1-3.4,0l-0.2,0.1c-2.4-0.1-4.9-0.1-7.5-0.2c-4.7,0-9.4,0.1-14.1,0.1c0.1,0,0.2,0.1-0.3,0.1c-1.9,0-4.6,0-7.4,0
			c-0.4,0-0.8,0-1.2,0c-0.3,0-0.4,0.1-0.5,0.1c-1.3,0-2.4,0-3.4,0s-2,0-3.1,0.1h-0.8H286h-0.1h-0.4c-0.2-11-0.5-22.5-0.7-34.7
			c-0.1-3.2-0.2-6.4-0.3-9.5c0-0.6,0-1.2,0-1.8c3.9,0,8.3,0,11.8,0.1c-0.7-0.5,10.1-0.7,8-1.2c3,0,7.4,0,7.6-0.1
			c0.7-0.4,3-0.8,10.8-1.1c3.1-0.1,7.8,0.1,8.9,0c1.7-0.1-4-0.3-2.3-0.4c-7.7,0-15.3,0-22.8-0.1c-8.2,0-16.5,0-24.7,0
			c0,8.1,0,16.2,0,24.5c0,1.6,0.1,5,0.1,9.5c0,5,0,11.3,0.1,18.1c19,0,42.2,0,51.4,0c0-0.6,0-1,0-1.4v-2.3c0-7.6,0-16.4-0.2-22.8
			c-0.1-2.8-0.2-5.8-0.4-8.7c-0.1,1.3-0.2,2.6-0.2,3.7c0-3,0-5.9-0.1-7.1c-0.2-6.3-0.4-2.7-0.7-0.3c-0.1,1.7-0.3-0.6-0.5,2.1
			c0-2,0-3,0-4.9c-0.1-0.2,0.1,6.1-0.1,4.7c0-1.9,0-4,0-6c-0.2,0.7-0.1,6.8-0.2,6.5c0-1.1,0.2-5.5,0-5.9c0-0.1-0.1,1.9-0.1,2.9
			c-0.1-6.1-0.3-9.4-0.5-3.9c0-1.9,0.1-4.6,0.1-6.7l0,0c0,1,0,2.8-0.1,3.7v-3.5c0,0.2-0.1,0.4-0.1,0.6c0,0.9,0,1.7-0.1,2.6v-2.3
			c-0.1,0.6-0.1,1.3-0.2,2c-0.1,2.7-0.3,5.4-0.4,6.8C329.7,725.6,329.6,737.6,329.5,749.5z"/>
	</g>
	<g>
		<path class="st0" d="M194.4,640.9l0.1-0.1l0,0c0,0,0,0,0.1,0v0.1v0.3c0,0.5,0,1,0,1.5c0,1,0,2-0.1,3c0,2-0.1,3.9-0.1,6.1l0.1,0.3
			c-0.1,3.4-0.1,6.9-0.2,10.5c0,6.6,0.1,13.2,0.1,19.7c0-0.2,0.1-0.3,0.1,0.4c0,2.7,0,6.5,0,10.4c0,0.6,0,1.2,0,1.7
			c0,0.4,0.1,0.6,0.1,0.6c0,1.8,0,3.3,0,4.8c0,1.4,0,2.9,0.1,4.3c0,0.7,0,1.5,0,2.2v0.3v0.1v0.3c-15.6,0.2-31.9,0.5-49.3,0.7
			c-4.3,0.1-8.5,0.2-12.5,0.3v-0.1c0-3,0-6.4,0-9.9c0-3.6,0-7.2,0-10.3c-0.5,1-0.7-14.2-1.2-11.2c0-4.1,0-10.4-0.1-10.7
			c-0.4-1-0.8-4.2-1.1-15.2c-0.1-4.3,0.1-10.9,0-12.4c-0.1-2.4-0.3,5.6-0.4,3.2c0,23.4,0,46.1,0,69.2c9.9,0,19.9,0,30,0
			c2.2,0,7-0.1,13.3-0.1c6.8,0,15.4,0,24.6-0.1c0-26.1,0-58,0-69.7c0-1,0-1.9,0-2.9c0-0.4,0-0.9,0-1.3c-5.7,0-11.9,0-17.9,0
			c-5.4,0.1-10.6,0.1-14.9,0.2c-4,0.1-8.1,0.2-12.2,0.4c1.9,0.1,3.6,0.2,5.2,0.2c-4.1,0-8.3,0-9.9,0.1c-8.8,0.2-3.8,0.4-0.4,0.7
			c2.4,0.1-0.9,0.3,3,0.5c-2.8,0-4.1,0-6.9,0c-0.3,0.1,8.5-0.1,6.6,0.1c-2.7,0-5.6,0-8.4,0c1,0.2,9.6,0.1,9.1,0.2
			c-1.5,0-7.8-0.2-8.3,0c-0.1,0,2.7,0.1,4,0.1c-8.5,0.1-13.2,0.3-5.4,0.5c-2.7,0-6.5-0.1-9.4-0.1l0,0c1.4,0,3.9,0,5.2,0.1h-4.9
			c0.3,0,0.6,0.1,0.8,0.1c1.2,0,2.4,0,3.7,0.1c-1.1,0-2.1,0-3.2,0c0.9,0.1,1.8,0.1,2.7,0.2c3.8,0.1,7.5,0.3,9.6,0.4
			C162.4,640.8,178.4,640.9,194.4,640.9L194.4,640.9z"/>
	</g>
</g>
</svg>
