<?xml version="1.0" encoding="utf-8"?>
<!-- Generator: Adobe Illustrator 24.2.1, SVG Export Plug-In . SVG Version: 6.00 Build 0)  -->
<svg version="1.1" id="Layer_1" xmlns="http://www.w3.org/2000/svg" xmlns:xlink="http://www.w3.org/1999/xlink" x="0px" y="0px"
	 viewBox="0 0 1610 129.9" style="enable-background:new 0 0 1610 129.9;" xml:space="preserve">
<style type="text/css">
	.st0{fill:#FDD140;}
</style>
<rect x="2.4" y="0" class="st0" width="1607.6" height="129.9"/>
<g>
	<path d="M2.4,10.1c1.9,0.2-3.1,0.5,0,0.8c3.1,0.3-3.9,0.6,0,1c15.5,1.4,66.8,3.2,83.2,4.7l1,0.1l36.7,3.6c6,2.5,7.6,0.9,40.7,4.4
		l-25.8-3l65.2,6.3c-0.7,0.1-0.9,0.2-0.3,0.5c2.1,0.9,4.2,1.9,10.3,2.9l25.5,1.3c63.4,6.7-26.6-0.2,15.9,5.5
		c9.2,0.8,13.8,1.2,17.7,1.3c20.9,1,14.9,0,2.9-2.1c60.6,5.6,37.1,8.4,70,11.7c45.3,3.9,17.8-2,28.8-2c-0.8,3,81.2,13.8,147.6,22
		c15.6,1.5,31.6,3.5,47.9,5.7c8.2,1.2,16.5,2.4,24.8,3.7c4.2,0.6,8.5,1.2,12.7,1.9c4.3,0.6,8.6,1.3,12.9,1.8
		c34.7,4.3,71,6.7,108.5,7.2c16,0.8,34.4,1.8,54.1,2.8c19.7,1,40.6,2,61.5,3.3c0,0.2,0.1,0.3,0,0.5c1-0.1,1.7-0.2,1.7-0.4
		c15.3,1.9,40.9,3.4,63.5,5.8c11.3,1.1,21.8,2.6,29.9,3.9c8.2,1.4,14.1,2.7,15.8,3.8l7.6,0.6c18.8,1.9,18.8,2.1,16.8,2.4
		c-2,0.2-6.1,0.5,4.7,1.7c17.5,1.2,37.8,2.8,56,3.2c18.2,0.4,34.3-0.2,43.2-2.1c2.8,0.1-0.9,0.4,2,0.5l14.1-1.1
		c4.7-0.4,9.4-0.8,14.1-1.3c1.8-0.9,7.4-2.2,2.7-2.6c6.5-0.5,12.1-2,21.5-2.7c23.4-2.9,3,1.1,11.5,0.7c9.9-1.4,20-3.3,30.1-5.4
		c20.3-2.8,56.9-7.7,87.4-11.8c1.9,0,4.9-0.1,8.2-0.2c6.6-0.4,14.8-0.5,18.9-0.6l10.9-0.9c6.8-0.3,12-0.5,15.7-0.8
		c3.7-0.2,5.8-0.4,6.6-0.7c1.5-0.5-2.6-1.3-11.3-1.7c-1.6,0.3-4.6,0.6-8.5,0.8c-3.9,0.3-8.6,0.6-13.6,0.8c-1.9,0.2-3.8,0.3-5.8,0.4
		c17-2.3,29.1-3.8,29.9-3.8c0.4,0,5.2,0.1,13.4,0.1c5.1,0.9,17.9,1.6,32.8,2.7c19.4,1.5,42.2,3.3,55.7,4.4c13.5,1.7,27.6,3,41.9,3.7
		c3.6,0.2,7.2,0.3,10.7,0.4l5.4,0.2l5.4,0c7.1,0,14.3,0,21.3,0c14-0.6,27.6-0.9,40.2-1.8c3.2-0.2,6.3-0.4,9.3-0.5
		c3-0.2,6-0.3,8.9-0.5c5.8-0.4,11.4-0.8,16.6-1c-6.1,0.9-13.4,1.8-20.9,2.5c-7.5,0.5-15.3,0.9-22.5,1.3c-3.6,0.2-7,0.2-10.2,0.3
		c-3.2,0.1-6.1,0.2-8.6,0.2c-5.1,0.2-8.6,0.5-9.8,0.9l11.4,0.6c6.4,0,13.8,0.2,21.5-0.2c3.8-0.1,7.8-0.3,11.7-0.4
		c3.9-0.2,7.8-0.2,11.7-0.6c7.7-0.6,15-1.3,21.3-2c6.3-0.8,11.7-1.9,15.4-2.8c-7.1,0.4-10.9,0.4-13.6,0.3c-2.6-0.2-4.1-0.5-6.5-0.7
		c2.8-0.4,5.1-0.7,7-1.1c2-0.4,3.7-0.7,5.5-1.1c2.7-0.6,7.3-1.1,12.3-1.8c3.3,0,5.2,0.1,5.2,0.1V87c0.5-0.1,0.2-0.1,0-0.2v-0.2v-8
		v-1.1v-4.3V0H2.4v8.4c-2.6,0-1,0,0,0.1v0.1c-2.3,0.1-0.5,0.2,0,0.2v0C0,9.2-1.5,9.6,2.4,10.1z"/>
	<path d="M424.5,58.6c-9.2-0.9-17-1.1-36.1-3.2c-11.7-0.4,1,2.2,15.5,3.8C410.9,59.1,441.7,61.6,424.5,58.6z"/>
	<path d="M1007.4,117.9c0.4,0.5,4.9,0.9,11,1.3c6.1,0.3,13.7,0.5,20.3,0.6l3.8-1.4C1030.9,118.5,1019.2,118.3,1007.4,117.9z"/>
</g>
</svg>
