<?xml version="1.0" encoding="utf-8"?>
<!-- Generator: Adobe Illustrator 24.2.1, SVG Export Plug-In . SVG Version: 6.00 Build 0)  -->
<svg version="1.1" id="Layer_1" xmlns="http://www.w3.org/2000/svg" xmlns:xlink="http://www.w3.org/1999/xlink" x="0px" y="0px"
	 viewBox="0 0 1610 129.9" style="enable-background:new 0 0 1610 129.9;" xml:space="preserve">
<style type="text/css">
	.st0{fill:#FDD140;}
</style>
<rect x="2.4" class="st0" width="1607.6" height="129.9"/>
<g>
	<path d="M2.4,121L2.4,121c-0.5,0.1-2.3,0.2,0,0.3v0.1c-1,0.1-2.6,0.1,0,0.1v8.4h1607.3V56.6v-4.3v-1.1v-8v-0.2
		c0.2-0.1,0.5-0.1,0-0.2v-0.8c0,0-1.8,0-5.2,0.1c-5.1-0.7-9.6-1.2-12.3-1.8c-1.8-0.4-3.5-0.7-5.5-1.1c-2-0.4-4.2-0.7-7-1.1
		c2.4-0.2,3.8-0.5,6.5-0.7c2.6-0.1,6.4-0.1,13.6,0.3c-3.7-0.9-9-2-15.4-2.8c-6.3-0.7-13.7-1.4-21.3-2c-3.8-0.4-7.7-0.4-11.7-0.6
		c-3.9-0.1-7.8-0.3-11.7-0.4c-7.7-0.4-15.1-0.2-21.5-0.2l-11.4,0.6c1.2,0.5,4.7,0.8,9.8,0.9c2.5,0.1,5.4,0.1,8.6,0.2
		c3.2,0.1,6.6,0.1,10.2,0.3c7.2,0.4,15,0.8,22.5,1.3c7.5,0.7,14.8,1.6,20.9,2.5c-5.2-0.2-10.8-0.6-16.6-1c-2.9-0.3-5.9-0.4-8.9-0.5
		c-3-0.2-6.1-0.4-9.3-0.5c-12.6-1-26.2-1.3-40.2-1.8c-7,0-14.1,0-21.3,0l-5.4,0l-5.4,0.2c-3.6,0.1-7.2,0.2-10.7,0.4
		c-14.3,0.7-28.4,2-41.9,3.7c-13.5,1.1-36.3,2.8-55.7,4.4c-14.9,1.1-27.7,1.8-32.8,2.7c-8.2,0.1-13,0.1-13.4,0.1
		c-0.8,0-12.9-1.6-29.9-3.8c2,0.1,3.9,0.3,5.8,0.4c5,0.2,9.7,0.6,13.6,0.8c3.9,0.2,6.9,0.5,8.5,0.8c8.7-0.3,12.8-1.2,11.3-1.7
		c-0.7-0.3-2.9-0.5-6.6-0.7c-3.7-0.2-8.9-0.5-15.7-0.8l-10.9-0.9c-4.1,0-12.2-0.1-18.9-0.6c-3.3-0.1-6.2-0.3-8.2-0.2
		c-30.5-4.1-67.1-9.1-87.4-11.8c-10.1-2.1-20.1-4-30.1-5.4c-8.5-0.4,11.9,3.6-11.5,0.7c-9.3-0.8-14.9-2.2-21.5-2.7
		c4.7-0.3-0.8-1.7-2.7-2.6c-4.7-0.5-9.4-0.9-14.1-1.3l-14.1-1.1c-2.9,0.1,0.9,0.4-2,0.5c-8.9-1.9-25-2.5-43.2-2.1
		c-18.2,0.4-38.5,1.9-56,3.2c-10.8,1.3-6.8,1.5-4.7,1.7c2,0.3,2.1,0.5-16.8,2.4l-7.6,0.6c-1.7,1.1-7.6,2.4-15.8,3.8
		c-8.1,1.3-18.6,2.9-29.9,3.9c-22.5,2.4-48.1,3.9-63.5,5.8c0-0.2-0.6-0.3-1.7-0.4c0.1,0.2,0,0.3,0,0.5c-20.9,1.3-41.8,2.4-61.5,3.3
		c-19.7,1-38.1,1.9-54.1,2.8c-37.5,0.5-73.9,2.9-108.5,7.2c-4.3,0.5-8.6,1.1-12.9,1.8c-4.3,0.6-8.5,1.2-12.7,1.9
		c-8.4,1.2-16.7,2.5-24.8,3.7c-16.4,2.2-32.4,4.2-47.9,5.7c-66.3,8.2-148.4,19-147.6,22c-11,0,16.5-5.9-28.8-2
		c-33,3.3-9.4,6.1-70,11.7c12-2.1,18.1-3.1-2.9-2.1c-3.9,0.1-8.5,0.5-17.7,1.3c-42.5,5.7,47.5-1.2-15.9,5.5l-25.5,1.3
		c-6,1-8.2,2-10.3,2.9c-0.5,0.2-0.4,0.4,0.3,0.5l-65.2,6.3l25.8-3c-33.2,3.5-34.7,2-40.7,4.4l-36.7,3.6l-1,0.1
		c-16.4,1.5-67.7,3.3-83.2,4.7c-3.9,0.4,3.1,0.7,0,1c-3.1,0.3,1.9,0.5,0,0.8C-1.5,120.3,0,120.7,2.4,121z"/>
	<path d="M403.8,70.7c-14.5,1.7-27.2,4.2-15.5,3.8c19.1-2.1,26.9-2.4,36.1-3.2C441.7,68.3,410.9,70.8,403.8,70.7z"/>
	<path d="M1042.6,11.5l-3.8-1.4c-6.7,0.1-14.3,0.3-20.3,0.6c-6,0.4-10.6,0.8-11,1.3C1019.2,11.6,1030.9,11.4,1042.6,11.5z"/>
</g>
</svg>
