<?xml version="1.0" encoding="utf-8"?>
<!-- Generator: Adobe Illustrator 24.2.1, SVG Export Plug-In . SVG Version: 6.00 Build 0)  -->
<svg version="1.1" id="Layer_1" xmlns="http://www.w3.org/2000/svg" xmlns:xlink="http://www.w3.org/1999/xlink" x="0px" y="0px"
	 viewBox="0 0 8 1340" style="enable-background:new 0 0 8 1340;" xml:space="preserve">
<style type="text/css">
	.st0{fill:#FFFFFF;}
</style>
<g>
	<path class="st0" d="M6.87,936.79c-0.13-10.2,0.08-27.71,0.54-24.8l0.28-2.07C7.64,918.6,7.64,954.84,6.87,936.79z"/>
	<path class="st0" d="M4.82,939.24c0.16-8.82,0.28-2.07,0.45-0.54l-0.04,12.14C5.01,954.53,4.88,944.33,4.82,939.24z"/>
	<path class="st0" d="M0.47,934.1l-0.11,3.59c0.11-3.59,0.16-8.82,0.16-12.26c0.23-0.29,0.47,6.33,0.36,13.36
		C0.71,937.27,0.7,930.38,0.47,934.1z"/>
	<path class="st0" d="M5.21,757.63c-0.69-2.63-1.7,8.93-2.37,23.54l-1.15-5.51c0.56-11.03,0.24-33.09,0.22-50.32
		c-0.24-6.62-0.38,15.99-0.63-0.97c0.17-1.92,0.46-0.53,0.57-4.12c-0.31-15.17-1.21-7.19-0.97-40.26l0.56-11.02
		c-0.02-56.9-0.95-116.16-0.39-170.31c-0.58-9.64-0.39-37.5-0.76-54.31l0.34-0.4c-0.58-9.66,0.14-26.05,0.06-38.04l0.33-10.74
		c0.57-4.11,0.27,30.74,1.11,21.1c0.48-23.01-0.79-38.74-0.19-58.42c0.15-19.15-0.25-16.95-0.44-28.8
		c-0.35-3.04-0.34,3.85-0.74,2.61c-0.23-42.87,1.6-45.06,1.43-82.81c-0.29-1.38-1.01-31.55-1.43-3.45l0.36,13.36l-0.39,9.1
		c-0.01-10.34,0.02-29.35-0.38-27.15c1.29-13.62-1.23-70.99,0.74-42.3c-0.32,17.64-0.26,22.76,0.27,34.19
		c0.12-39.84,0.64-74.95,0.66-107.76l-0.58-9.64c0.57-0.69,0.95-16.68,1.1-32.37c-0.12-6.75-0.08-15.44-0.36-13.36
		c-0.35-3.05-0.21,57.18-1.22,29.05C1.21,61.99,1.73,23.4,2.56,0C2.7,17.1,2.54,29.35,3.31,47.41c0.76,61.18,0.17,127.45,1.1,186.73
		c-0.4,2.2-0.55,17.92-0.95,13.21c-0.28,5.51,0.03,20.69-0.54,24.8c0.57,45.9,0.25,99.76,0.19,141.25
		c1.01-11.57,0.66,25.09,1.08,36.66c-0.44,10.89-0.25,29.63-0.23,43.41c0.17,1.51,0.24,10.06,0.52,7.99
		c-0.13-10.2,0.1-13.91,0.2-24.38c0.75,4.28-0.03,22.46-0.06,38.03l-0.41-8.13c-0.02,25.91-1.3,56.76-0.58,80.06l0.72-19.84
		c0.32,28.94-0.66,64.6,0.23,85.99c0.26-19.3-0.3-51.41,0.68-50.85c0.52,1.1,0.49,23.56,0.27,34.18
		C4.54,682.51,6.64,717.97,5.21,757.63z"/>
	<path class="st0" d="M6.9,695.23c-0.05-37.9-1.39-19.03-1.27-55.41c0.52,4.56,0.95-13.2,0.99-25.34
		c-0.3-11.72-0.09-25.77-0.11-36.1c0.11-7.04,0.73-6.07,0.75,7.72C6.23,620.14,7.88,662.99,6.9,695.23z"/>
	<path class="st0" d="M4.03,728c-0.08-18.9,1.13-11.7,0.82-30.3c0.64,7.86,0.01,10.32,0.04,27.55l-0.36-9.93L4.03,728z"/>
	<path class="st0" d="M5.65,574.23c-0.07-12,0.23-39.95,0.92-40.77c0.06-1.78,0.4,1.25,0.28-5.51
		C6.63,538.56,6.56,569.69,5.65,574.23z"/>
	<path class="st0" d="M2.92,627.52c-0.12-6.75-0.13-13.64-0.15-23.96C2.9,610.31,3.2,618.56,2.92,627.52z"/>
	<path class="st0" d="M4.38,558.5c-0.51,2.35-0.13-10.2-0.13-13.64l0.22-7.18C4.59,544.46,4.65,553.01,4.38,558.5z"/>
	<path class="st0" d="M5.9,454.91c0.21-17.5,0.65,18.2,0.74-2.62l0.07,11.99l-0.79,4.4L5.9,454.91z"/>
	<path class="st0" d="M6.6,428.19c-0.18-4.98-0.24-10.08-0.08-18.9l0.29,4.84C6.93,417.42,6.59,421.29,6.6,428.19z"/>
	<path class="st0" d="M4.81,451.04c-0.18-8.43,0.22-7.17,0.38-12.55C5.42,441.67,4.87,459.57,4.81,451.04z"/>
	<path class="st0" d="M0.01,367.06c0.64,7.86,0.26,23.84,0.45,39.14C0.27,390.9-0.08,384.42,0.01,367.06z"/>
	<path class="st0" d="M7.43,1062.05c-0.22,7.16-0.04,15.57,0.14,20.53l0.22-3.73L7.43,1062.05z"/>
	<path class="st0" d="M7.75,958.15c-0.75-7.72-0.39,5.65-0.94,20.11c-0.15,19.15,0.45,39.13,0.42,58.16L7.64,1048
		C7.9,1025.26,8.13,985.3,7.75,958.15z"/>
	<path class="st0" d="M4.02,943.64c-0.32,14.18,0.21,32.53,0.23,42.85c0.09-17.36,0.12-39.82,0.16-51.94
		C4.24,933.03,4.13,940.06,4.02,943.64z"/>
	<path class="st0" d="M7.85,1246.15c-0.03-24.11,0.55-57.58-0.4-84.06c-0.16,12.27-0.38,12.54-0.53,31.68
		c-0.99-14.34,0.13-29.48,0.11-46.71c-0.21,14.06-0.63-4.4-0.71-16.4c0.26-22.73,0.15-58.83,0.11-89.85
		c-0.36-13.35,0.21-57.18-0.75-50.84c-0.08-18.9,0.66-21.5,0.87-35.55c-1.14-41.76,2.07-74.93,0.7-119.88
		c0.57,2.77,0.49-19.55,0.53-28.24c0.03-19.01,0.09-63.93-0.98-54.03c-0.73,12.95,0.45,39.13-0.26,58.97
		c-1.15,34.16-0.45-35.68-1.42-36.25c0.18,4.97-0.68,7.71-0.37,22.87c-0.44-32.25-1.07,13.35-1.66-3.19
		c-0.58,36.92-0.58,33.48-1.81,52.21c0.2,22.19,1.05,16,1.51,22.34c0.49,23.56-0.63,42.13-0.37,62.56
		c-1.5-15.45-1.15,34.16-1.12,58.27c-0.07,31.14,1.33,10.49,1.2,43.42c-0.72,16.39-0.96-33.36-1.73-11.74l0.31,15.16
		c0.58,9.67,1.34,17.38,1.75,28.97c0.01,6.89,0.02,17.23-0.21,17.49c-0.25-13.52-0.81-9.39-1.14,4.83c0.24,6.61,0.3,8.26,0.53,11.43
		c1.62-27.81,0.09,29.22,1.03,48.78c1.33,57.07-1.9,29.89-1.2,85.98c1.4-17.21,0.73,37.08,1.27,55.41
		c-0.04,15.57-0.43,21.22-0.87,32.1c0.15,4.28,0.23,16.3,0.51,18.12c1.88-8.69,3.65-44.78,5.21-91.52
		C7.92,1247.21,7.89,1246.11,7.85,1246.15z"/>
</g>
</svg>
