<?xml version="1.0" encoding="utf-8"?>
<!-- Generator: Adobe Illustrator 24.2.1, SVG Export Plug-In . SVG Version: 6.00 Build 0)  -->
<svg version="1.1" id="Layer_1" xmlns="http://www.w3.org/2000/svg" xmlns:xlink="http://www.w3.org/1999/xlink" x="0px" y="0px"
	 viewBox="0 0 7.34 1320.77" style="enable-background:new 0 0 7.34 1320.77;" xml:space="preserve">
<style type="text/css">
	.st0{fill:#FFFFFF;}
	.st1{fill:none;stroke:#FFFFFF;stroke-width:0;stroke-linecap:round;stroke-linejoin:round;}
</style>
<g>
	<path class="st0" d="M1.8,729.35c-0.28-6.25-0.4-19.98,0.09-19.71c-0.48-0.27-0.48-0.27-0.83-9.62c0.32,0.2,0.23-8.21,0.21-13.54
		c-0.23,4.41-0.27,10.46-0.35,22.58c0.7,11.05-0.36,33.99,0.4,44.34C1.49,745.9,1.98,738.59,1.8,729.35z"/>
	<path class="st0" d="M3.91,679.69l-0.19-1.63l0.3,19.17C3.87,693.35,3.69,680.31,3.91,679.69z"/>
	<path class="st0" d="M3.4,617.8c0.35,1.73,0.56-8.02,0.88-7.84c-0.71,0.36-0.14-15.29-0.23-23.7l-0.54-3.38
		c-0.4,8.15-0.22,28.76-0.28,46.22L3.4,617.8z"/>
	<path class="st0" d="M3.8,602.08l-0.35-5.52C3.55,601.17,3.6,611.84,3.8,602.08z"/>
	<path class="st0" d="M1.89,613.87c-0.05,13.65,0.23-8.22,0.35,5.52C2.14,614.78,2.12,609.45,1.89,613.87z"/>
	<polygon class="st0" points="2.98,556.74 3.24,585.78 3.48,573.77 	"/>
	<path class="st0" d="M4.14,555.15c0,3.79-0.2,9.76-0.39,4.34c0.43-10.39-0.18-16.83,0.19-26.5l0.18,9.23
		c0.45-1.26-0.46-19.28,0.34-18.8c-0.57-12.5-0.69,9.49-1.09-6.74c0.14,15.3-0.03,26.6-0.17,39.43c0.16-3.71,0.13-5.23,0.27-10.48
		c0.02,9.13,0.27,21.45,0.32,32.11C4.32,571.98,3.84,564.1,4.14,555.15z"/>
	<path class="st0" d="M4.26,508.86c0.04-9.86,0.06-25.05-0.55-27.68c-0.43,10.38,0.08,12.22,0.34,16.91c-0.1,3-0.14,12.84-0.46,8.85
		C3.71,505.48,4.03,513.3,4.26,508.86z"/>
	<path class="st0" d="M4.36,470.17l-0.54-7.19l0.09,4.62l-0.39,0.54c0.1,0.82,0.8,4.28,0.76,14.13
		C4.58,477.14,4.23,475.38,4.36,470.17z"/>
	<path class="st0" d="M1.69,467.79c0.27-6.68,0.11-10.58-0.04-18.26c0.05,10.68,0.04,25.85,0.26,29.05l-0.1-0.84
		c0,0,0.28,10.05,0.66,17.14C2.09,484,2.66,464.58,1.69,467.79z"/>
	<path class="st0" d="M1.64,481.45l-0.31-7.79L1.64,481.45z"/>
	<polygon class="st0" points="4.23,439.68 4.06,454.76 4.22,451.07 	"/>
	<path class="st0" d="M2.6,457.69c0.08-12.1-0.43,6.6-0.41-4.79c-0.06-3.08,0.02,16.71,0.27,17.63
		C2.56,467.57,2.15,458.95,2.6,457.69z"/>
	<path class="st0" d="M4.28,429.83l-0.41-12.41L4.28,429.83z"/>
	<path class="st0" d="M4.54,398.8l-0.29-2.44c0.24-12.02-0.16-28.24,0.46-36.98c-0.36,2.06-0.74-5-0.84,5.57
		c0.19,1.64,0.19,5.42,0.41,4.81c-0.07,4.52-0.33,3.59-0.43,6.6c0.31,7.76,0.08,19.8,0.36,26.03c-0.06-3.06,0-3.79,0.04-6.04
		c0.5,13.22-0.72,15.52,0.11,21.33C4.1,412.99,4.66,404.96,4.54,398.8z"/>
	<path class="st0" d="M2.57,399.89L2.46,410.5c-0.38-3.29-0.02-12.95-0.37-14.68c-0.23,0.64-0.33,11.19-0.49,7.32
		c0.9,1.29,0.05,14.48,1.05,8.98c0.11,13.74-0.55,4.23-0.5,18.71l0.48,4.08C2.39,418.8,2.81,416.02,2.57,399.89z"/>
	<path class="st0" d="M2.71,358.95l0.3-5.15l-0.42,2.79C2.51,332.96,4.24,319.11,4,304.83c-0.57-17.83,0.28-34.4,0.19-52.59
		c-0.37-8.86-0.21,8.52-0.44,9.44c-0.71-2.55,0.38-8.64-0.21-12.77c-0.52-1.16-0.56,18.62-0.87,26.43c0.07,6.8,0.23,6.69,0.53,8.77
		c-0.29,1.72-0.38,8.63-0.66,10.36c0.41,14.16-0.36,21.58,0.08,35.51c-0.39,4.34-0.08-10.44-0.13-5.82l0.01,7.6l0.06-0.8
		c0.4,10.34,0.03,29.44-0.24,36.1c0.13-5.21,0.46-8.85,0.58-2.68l-0.46,5.05l0.66,13.31C2.66,372.6,3.55,360.94,2.71,358.95z"/>
	<path class="st0" d="M1.89,373.66c-0.24,15.83,0.68-1.88,0.47,15.47l-0.04-18.28L1.89,373.66z"/>
	<path class="st0" d="M3.02,297.93l0.31-7.83C2.7,294.36,3.55,306.67,3.02,297.93z"/>
	<polygon class="st0" points="3.02,269.05 3.61,273.19 3.27,265.81 	"/>
	<path class="st0" d="M3.73,242.69c-0.3-5.87-0.55,1.15-0.47,7.96C3.28,244.51,3.53,241.31,3.73,242.69z"/>
	<path class="st0" d="M4.86,199.28c0,13.27,0.15-11.76,0.67-2.23C5.28,195.32,4.95,188.6,4.86,199.28z"/>
	<path class="st0" d="M6.24,156.33c0.11,4.8,0.01,6.75-0.13,7.4C6.12,160.25,6.15,157.47,6.24,156.33z"/>
	<path class="st0" d="M4.43,321.93c0,1.52,0,3.16-0.02,4.66C4.42,324.99,4.43,323.5,4.43,321.93z"/>
	<path class="st0" d="M4.44,318.88c0,1-0.01,2.03-0.01,3.04C4.43,320.79,4.43,319.77,4.44,318.88z"/>
	<path class="st0" d="M5.7,220.33c0,0.03,0,0.03,0,0.04c-0.02,0.35-0.03,0.68-0.06,1.04L5.7,220.33z"/>
	<path class="st0" d="M4.18,641.07c0.03,2.57,0.04,4.57,0.04,6.17c-0.01-2.03-0.02-4.09-0.04-6.1C4.18,641.1,4.18,641.1,4.18,641.07
		z"/>
	<path class="st0" d="M3.37,648.22c-0.38-10.89,0.88-11.64,0.61-29.31c0.08,7.12,0.14,14.59,0.2,22.23
		C3.59,651.25,3.86,633.32,3.37,648.22z"/>
	<path class="st0" d="M2.67,500.93c-0.01-0.22-0.01-0.4-0.02-0.61C2.63,499.24,2.65,499.8,2.67,500.93z"/>
	<polygon class="st0" points="3.98,1127.47 4.14,1127.57 3.94,1137.32 	"/>
	<path class="st0" d="M4.27,1126.12l0.31-16.54l0.09,98.06l-0.22-3.18C4.16,1205.81,4.53,1123.24,4.27,1126.12z"/>
	<path class="st0" d="M4.02,1121.4c-0.67-9.52,0.24-15.82-0.23-27.49c0.31,7.79,0.66,13.32,0.49,20.83L4.02,1121.4z"/>
	<path class="st1" d="M2.73,1088.71c0.13-5.24-0.15-11.5-0.05-14.46C3.2,1076.07,2.8,1084.21,2.73,1088.71z"/>
	<path class="st0" d="M0.78,1074.62c-0.01-0.82-0.01-1.62,0-2.43c0.03,0.96,0.06,1.83,0.1,2.49L0.78,1074.62z"/>
	<path class="st0" d="M0.87,1074.68l0.23,0.14C1.01,1076.53,0.94,1076.06,0.87,1074.68z"/>
	<path class="st0" d="M0.78,1072.19c-0.07-2.17-0.15-4.73-0.24-6.06l-0.03,2.25c-0.06-3.08-0.25-8.52-0.12-9.97
		c-0.04,6.06,0.12,6.16,0.44,6.34l0.04-9.85C1.63,1056.77,0.83,1063.43,0.78,1072.19z"/>
	<path class="st1" d="M0.59,1041.08l0.44,10.13C0.61,1054,0.59,1044.86,0.59,1041.08z"/>
	<path class="st0" d="M1.09,1026.16c0.13,2.36,0.08,12.21,0.28,6.24c0.09,1.62,0.07,3.52,0.07,5.55
		C1.34,1031.29,0.82,1037.56,1.09,1026.16z"/>
	<path class="st0" d="M1.44,1037.95c0.01,0.79,0.02,1.68,0.02,2.86C1.44,1039.85,1.44,1038.89,1.44,1037.95z"/>
	<path class="st1" d="M3.35,1143.81c0.06-1.23,0.12-1.18,0.17-0.65L3.35,1143.81z"/>
	<path class="st0" d="M1.56,1005.92l0-3.79c0,1.09,0.01,2.09,0.02,3.06L1.56,1005.92z"/>
	<path class="st0" d="M5.64,1320.77c0.13-13.24,0.28-25.8-0.01-44.92c-0.55,0.44-0.15-7.69-0.73-8.8
		c0.08,19.81-0.34-74.63-0.59-58.82l0.25,4.73l-0.57-4.92c0.15-9.49,0.6-22.48,0.27-28.94c0.18-1.77,0.03,80.94,0.19,77.81
		c-0.66,7.33-0.64-110.72-0.94-113.76l0.35-1.31c-0.37-14.67-0.88-24.09-1.12-36.42l0.42-2.79c-0.14,9.04,0.15,11.51,0.33,20.74
		c-0.08-16,0.18-18.9,0.1-31.1c-0.55,0.43-0.27,10.48-0.57-4.9c0.23-4.43,0.83,5.8,0.72-7.95c0.15-16.63-0.66-13.3-0.71-27.79
		l-0.2,9.76c-0.03-5.34-0.14-15.3,0.15-20.44c-0.04,6.06,0.27,21.45,0.82,21.01c-0.12-6.14,0.09-19.7,0.06-25.05l0.38,3.27
		c0.36-5.86-0.18-9.23,0.15-16.63c-0.22-6.98-0.55,4.23-0.71,0.34c0.13-1.44,0.34-15,0.09-19.7c-0.81,3.31,0.24,16.09-0.54,24.75
		l0.14-12.84c-0.8-8.07,0.01,20.53-0.63,16.36c-0.83-9.63,0.79-20.07-0.26-29.03c-0.2,5.94-0.22,24.94-0.51,22.5
		c0.3-6.7-0.27-11.51-0.37-20.76L1.96,994c-0.25-4.73-0.26-0.91-0.42,2.79c0.47-16.44-0.08-44.14,0.49-67.37
		c-0.11-13.75-0.35-1.73-0.64-7.98c0.49-7.32,0.09-19.7,0.09-27.3c0.03-2.26-0.44-6.36-0.64-4.19l0.3,19.18
		c-0.26-0.93-0.68,1.88-0.62,8.74c0.94-4.75-0.58,27.03,0.49,28.42l-0.48-0.28l0.33,24.52l0.06-0.73
		c-0.16-0.09,0.33,20.73,0.12,34.28c-0.16-3.9,0.03-26.58-0.5-13.22c-0.28-10.05,0.16-28.03-0.05-46.38l-0.33,3.58
		c-0.46-19.28,0.15-44.77,0.04-66.1l0.44,6.34c0.17-7.51,0.53-17.16,0.15-24.23c0.02,9.13-0.23,4.43-0.42,2.79
		c-0.24-12.32,0.03-30.4-0.14-47.23c0,0,0.1,0.82,0.16,0.1l-0.27-17.64c0.07-8.34,0.33-11.2,0.63-16.34
		c-0.06-3.08-0.05-10.7-0.31-7.8c-0.02,1.64-0.05,3.28-0.02,4.36c-0.49-8.91,0.14-6.24-0.16-17.4c0.41,8.62,0.58-2.69,1-1.67
		c-0.18-13.05-0.74-1.21-0.93-2.84c0.24-15.84,0.6-17.88,0.68-33.8c-0.26-0.92-0.17,11.29-0.46,12.64
		c0.07-4.53,0.04-9.85-0.05-10.67l-0.2,9.76c0.31-16.54,0.39-32.46,0.18-50.83l-0.13,1.44l0.01-11.39l0.48,4.1
		c-0.12-6.14,0.3-12.74-0.08-16.02l-0.03,2.26l-0.15-7.7l0.47,7.91c0.2-9.78-0.78-23.29-0.7-39.2c0.65-3.43,0.23,27.48,1.06,29.52
		c0.13-5.25,0.27-14.27,0.05-17.47c-0.23,0.64-0.23,4.43-0.23,8.24C0.8,635.27,1.5,614.4,0.77,605.59L0.5,616.07
		c-0.08-12.2,0.79-20.04,0.32-24.13l0.83,9.61c-0.41-12.4-0.32-28.31-0.63-39.9c-0.48-0.29,0.01,16.73-0.08,15.92l-0.35-5.53
		c0.28-18.07,0.3-5.16,0.58-27.03l-0.32-0.2c0.49-7.31-0.45-26.86,0.41-19.5l-0.2,5.94l0.39-0.51l-0.26-25.27
		c0.29,2.46,0.2-9.74,0.59-6.48l-0.34-9.32c0.55-4.24,0.66,17.12,1.08,18.11c0.25-0.33,0.22-4.72,0.19-6.87
		c0.41,11.23-0.55,16.76-0.56,27.92l0.35,5.55l-0.48-0.3c0.09,4.62,0.41,8.6,0.6,10.24c-0.66,11.02,0.14,22.88-0.01,39.53
		c-0.28-13.83-0.46,8.85-0.59,6.49c-0.01,7.59,0.84,26.36,0.25,32.84c-0.23,4.43-0.34-9.31-0.45,1.26c0.06,6.88,0.31,11.6,0.54,7.16
		c0.14,15.3,0.03,33.47,0.04,50.19l-0.32-3.99c-0.27,10.48,0.17,20.64,0.52,26.15c-0.13,1.44-0.04,2.26-0.23,0.64
		C1.81,717.96,3,721.72,2.88,743.67c0.45-1.24,0.5-11.1,0.28-18.05l0.51,1.82c0.02-19-0.09-40.34-0.39-55.72l0.38,7.07
		c0.69-13.29-0.67-9.54,0.12-21.99c-0.18-9.24-0.27,6.69-0.48-0.28c0.15-6.54,0.89,1.68,0.92-9.27c0.26,41.08,0.22,87.85,0.3,130.87
		c0.1,0.82,0.13-1.45,0.17-3.7c0.69,14.85-1.17,134.53,0.18,138.4c-0.2,2.15-0.41-4.81-0.39,4.32c0.1,0.83,0.22,3.17,0.42,1.02
		c-0.73,23.12,0.04,54-0.44,81.83c0.23-0.62,0.35,5.53,0.51,5.63c-0.53,9.55,0.04,25.85-0.26,34.8l0.26-2.89l0,28.14
		c0.1,0.83,0.1-2.99,0.13-5.24c0.12,6.14-0.17,7.51-0.39,8.11l0.57,12.52c-0.94,36.68,0.52,82.4-0.07,124.62
		c0.44,6.34,0.63,11.77,0.69,22.46l0.13-5.24c0.38,10.87-0.23,0.63-0.04,9.86c0.28,6.26,0.67,1.91,0.43-6.6
		c0.15-5.32,0.31-2.04,0.42,1.77C6.76,1261.79,6.46,1293.33,5.64,1320.77z"/>
	<path class="st0" d="M7.34,38.23c-0.21,3.68-0.18-14.55-0.64-5.64c-0.87,28.35-0.18,74.4-0.86,107.97
		c-0.34,8.95-0.35,11.33-0.53,19.4c0.07,0.15,0.17,0.17,0.25-0.22c-0.03,9.15,0.1,23.93-0.12,33.06c0.09,2.6,0.44,4.51,0.36-0.47
		c0.31,13.89-0.65,23.97-0.37,31.8c0.23-6.75,0.33,6.72,0.52-1.35c0.05,14.56-1.19,13.25-1.34,24.76c0.1,0.68,0.2,1.39,0.22-0.93
		c-0.53,12.56,0.31,38.56-0.56,39.94l0.36,5.07c-0.28,5.52-0.48,4.15-0.6,13.35c0.14,6,0.32-0.23,0.45,1.96
		c-0.35,2.53-0.19,18.61-0.69,25.93c-0.55,0.42,0.73-13.03,0.24-20.3c-0.11-0.23-0.14,0.82-0.15,2.31
		c0.13-38.12,1.67-67.16,1.26-98.51c0.39-6.89,0.03-12.19-0.35-15.25c-0.17,5.66-0.54,21.79,0.22,22.17l-0.5,9.8
		c0.04,3.72-0.74,3.64-0.86,5.24c0.09-6.91-0.66-14.74-0.94-5.41c-0.09-18.18,1.63,5.86,1.43-10.24l-0.55-2.35
		c0.3,3.05,0.55-10.89,0.37-16.1l-0.11,2.16c0.26-42.86,0.02-100.07-0.17-147.48c1.37-11.64-0.48-34.78,0.63-45.73
		c-0.19-5.22-0.49,7.43-0.66-2.58C3.58,5.58,3.94,5.14,4.04,5.36C4.01,3.85,3.97,2.32,3.93,0.77C5.27-2.88,6.46,5.9,7.34,38.23z"/>
</g>
</svg>
