<?xml version="1.0" encoding="utf-8"?>
<!-- Generator: Adobe Illustrator 24.2.1, SVG Export Plug-In . SVG Version: 6.00 Build 0)  -->
<svg version="1.1" id="Layer_1" xmlns="http://www.w3.org/2000/svg" xmlns:xlink="http://www.w3.org/1999/xlink" x="0px" y="0px"
	 viewBox="0 0 170 240" style="enable-background:new 0 0 170 240;" xml:space="preserve">
<style type="text/css">
	.st0{fill:#FFFFFF;}
</style>
<path class="st0" d="M169.7,85.7V84l-0.1-4.2l-0.3-4.2c-0.1-1.4-0.3-2.8-0.5-4.2c-0.8-5.5-2-11-3.8-16.3
	c-3.6-10.6-9.2-20.4-16.6-28.7c-7.3-8.3-16.2-15-26.2-19.5c-9.8-4.6-20.7-6.9-31.3-7c-2.5,0-5,0-7.5,0c-1.3,0-2.5,0-3.8,0
	c-1.4,0-2.7,0-4,0.2c-5.3,0.3-10.6,1.2-15.7,2.7C49.6,5.8,39.9,11,31.7,17.8c-8.1,7-15,15.5-20.1,24.8C6.4,52.1,3,62.4,1.7,72.9
	c-0.1,0.6-0.2,1.4-0.3,2.2c-0.1,0.8-0.2,1.7-0.3,2.6c-0.2,1.9-0.3,3.8-0.4,5.8c-0.1,3.6-0.3,7.4-0.3,9.8C0.1,112.9,0,134.9,0,156.9
	v4.2c0,1.6,0.1,3,0.1,4.6c0.1,1.5,0.2,3,0.4,4.5c0.2,1.5,0.3,3,0.6,4.5c0.9,5.9,2.5,11.7,4.4,17.1c4,11,10.2,20.6,17.3,28.3
	c3.5,3.8,7.3,7,10.8,9.5s7,4.3,9.7,5.7c1.5,0.6,2.8,1.2,3.9,1.7c1.2,0.4,2.2,0.7,3,1c1.7,0.5,2.6,0.7,2.6,0.7
	c4.7,1.6,9.6,2.1,5.1,0.4c-4.6-1.6-12.5-5.1-18.5-9.5c-6.1-4.3-10.3-8.8-10.1-9c0,0,1,0.7,2.4,2c0.7,0.6,1.5,1.4,2.4,2.1
	c0.4,0.4,0.9,0.7,1.4,1.1c0.5,0.3,1,0.7,1.5,1.1c0.2-0.3,3.3,1.6,7.2,3.3c3.8,1.8,8.2,3.5,10.4,4.4c2.2,0.7,9.4,3.1,17.2,3.7
	c3.1,0.4,6.4,0.7,9.6,0.7h9.8c11.6,0,22.6-2.9,32.5-7.9l2.3-0.2c-0.5,0.4-0.3,0.4,0.7,0l0,0c0.2-0.1,0.5-0.2,0.7-0.3
	c2.1-1,6.4-3.3,11.9-8c0.8-0.6,1.5-1.4,2.2-2l1.3-0.7c-0.7,0.7-0.2,0.4,0.6-0.3l0,0l0,0c0.5-0.4,1.1-0.9,1.7-1.6
	c0.1-0.1,0.2-0.1,0.2-0.2l2.2-2c-0.1,0.1-0.3,0.3-0.5,0.6c-3.2,3.6-6.9,7.1-10.7,10.2c3-2.3,5.9-4.9,8.8-7.9
	c1.1-1.1,2.3-2.5,3.3-3.7l0.1-0.1l0.1-0.1c1.6-2,3.1-3.9,4.6-6c5-7.2,8.7-15.2,11-22.4c1.7-4.8,2.8-9.8,3-9.7
	c0.3-1.6,0.6-3.1,0.7-4.7c0.1-0.7,0.2-1.6,0.3-2.3s0.1-1.6,0.2-2.3c0.1-0.7,0.1-1.6,0.2-2.3c0-0.7,0-1.5,0.1-2.2
	c0.1-1.5,0.1-2.9,0.1-4.3c0-5.5,0.1-10.7,0.2-15.6c0.2-9.8,0.6-18.3,1-25.7c0.2-2.4,0.2-9.8,0.2-18.3
	C169.8,94.7,169.7,90.1,169.7,85.7z"/>
</svg>
