<?xml version="1.0" encoding="utf-8"?>
<!-- Generator: Adobe Illustrator 24.2.1, SVG Export Plug-In . SVG Version: 6.00 Build 0)  -->
<svg version="1.1" id="Layer_1" xmlns="http://www.w3.org/2000/svg" xmlns:xlink="http://www.w3.org/1999/xlink" x="0px" y="0px"
	 viewBox="0 0 252.42 135.35" style="enable-background:new 0 0 252.42 135.35;" xml:space="preserve">
<g>
	<g>
		<g>
			<g>
				<path d="M249.84,99.83l-0.02,0.39c0,0.46-0.01,0.91-0.01,1.36c0.24,1.57,0.17,4.75,0.11,8.92c0.07,0,0.14-0.36,0.18,1.11
					c-0.14,6.62,0,3.31,0.14,8.09c0-1.47-0.02-3.32,0.05-4.05l0.07,9.19c0.14-1.27,0.29-2.3,0.41-0.77c0.28-0.93,0.62,2.1,0.91,3.24
					c0.04-1.65,0.08-2.96,0.11-3.57c0.12,0.22,0.17,1.79,0.19,3.72c0.03-0.15,0.06-0.31,0.09-0.6c-0.03,0.29-0.06,0.45-0.09,0.6
					c0,1.27,0,2.69,0.01,4.01c0.04-0.74,0.07-1.47,0.13-1.11v-5.52c0.03-0.18,0.05,0,0.07,0.33l-0.07-1.43l-0.07,1.09
					c-0.05,0.38-0.09-0.36-0.13-1.09c-0.02-1.47,0.04-1.85,0.07-2.57l-0.13-2.95c-0.22-1.1-0.13,7.73-0.33,2.95l0.05-1.48
					c-0.05-2.2-0.05-5.15-0.2-6.62c0.25-2.21-0.2-6.25,0.15-6.63c0.16-8.47-0.11-19.51,0.25-27.97c-0.24-1.47-0.69-1.47-0.98-5.15
					c0.04-0.73,0.07-1.85,0.13-1.47l-0.13-2.58c0,1.47,0.02,3.32-0.07,4.05c-0.11-4.05-0.2,1.84-0.33,1.48l-0.13-5.52l-0.05,0.65
					c-0.07,9.88-0.3,19.76-0.42,29.64L249.84,99.83z"/>
				<path d="M181.87,0l0.11,0.27c-25.86,0.21-54.46,0.25-84.69,0.2C66.56,0.38,34.18,0.28,1.25,0.18C1.19,21.1,1.12,42.24,1.06,63.3
					c-0.01,20.56-0.03,41.06-0.04,61.21L0,121.97c0.03,1.54,0.07,3.1,0.1,4.68c0.03,2.42,0.06,4.88,0.1,7.4
					c13.48-0.23,27.59-0.47,41.42-0.7c12.97-0.23,25.69-0.49,37.3-0.81l-10.13-0.18c9.28-0.56,32.99-0.92,47.62-0.79l-1.44,0.26
					c-20.04,0.15,1.36,0.09-6.76,0.81l-3.48,0.13l2.04,0.13l3.49-0.13c-0.39,0.15-0.09,0.35-3.38,0.41l4.64,0.03
					c9.99,0.72,10.01,1.34,8.76,2.15c2.62-0.1-0.11-0.89,11.03-0.63l-1.46,0.26l12.19-0.47l5.43,0.34
					c4.35-0.17,7.15-0.34,11.61-0.24l1.35-0.53c19.95,0.2,45.11-0.42,65.35-0.03c4.44-0.52,15.3,0.17,26.62-0.26l-4.86-0.57
					c-12.21-0.77-40.77-0.36-60.53-0.64l0.77-0.3c4.15-0.09,7.15-0.34,12.29-0.2l1.34-0.53c-8.67-1.87-35.62,0.4-42.8,0.13
					c-15.22-0.52,9.95-1.14,2.68-1.07c16.74-0.71-13.97-1.33-21.06-1.95c-19.69-1.24-62.96-0.62-89-0.58
					c-7.44,0.23-15.32,0.38-23.45,0.46c-4.07,0.03-8.2,0.06-12.38,0.09c-3.24,0.01-6.52,0.01-9.82,0.02
					c0.03-7.21,0.07-14.5,0.1-21.74c0.07-8.19,0.14-16.33,0.21-24.28C6.06,66.73,6.2,51.6,6.19,38.39
					c0.04-5.21-0.07-11.27-0.23-17.58c-0.08-3.16-0.17-6.38-0.26-9.59c-0.04-1.61-0.08-3.21-0.13-4.8l-0.01-0.6L5.55,5.55L5.54,5.47
					L5.51,5.12L5.46,4.39C5.88,4.36,6.29,4.34,6.7,4.32c1.29-0.02,2.56-0.03,3.81-0.05c2.49-0.02,4.86-0.02,7.09,0.01
					c4.45,0.06,8.27,0.25,11.11,0.63l36.13,0.34l-0.77,0.31c35.16,0.1,73.96-0.63,106.78-0.86c14.34-0.07,18.67-0.85,25.19,0
					c8.85,0.17,18.19,0.18,27.7,0.11c4.75-0.05,9.55-0.11,14.34-0.16c2.4-0.04,4.8-0.07,7.19-0.11l3.37-0.06l1.06-0.06l0.04,0.62
					l0.02,0.33l0.01,0.17l0.01,0.49c0.02,1.44,0.05,2.87,0.07,4.3c0.04,2.86,0.08,5.69,0.13,8.49c0.05,5.6,0.1,11.07,0.15,16.32
					c0.27-0.1,0.56,3.76,0.71-1.37c-0.17-7.11-0.08-14.77,0.14-20.7c0.11-2.97,0.25-5.51,0.42-7.33c0.16-1.41,0.34-2.41,0.53-2.68
					l-0.07,4.93l0.4-6.1l-3.01-0.2l-6.1,0.23c-1.56-0.18-2.26-0.33-2.36-0.44c-10.46-0.26-19.55-0.92-30.39-1.36
					C202.68,0.32,193.92,0.36,181.87,0z"/>
			</g>
		</g>
	</g>
</g>
</svg>
