<?xml version="1.0" encoding="utf-8"?>
<!-- Generator: Adobe Illustrator 24.2.1, SVG Export Plug-In . SVG Version: 6.00 Build 0)  -->
<svg version="1.1" id="Layer_1" xmlns="http://www.w3.org/2000/svg" xmlns:xlink="http://www.w3.org/1999/xlink" x="0px" y="0px"
	 viewBox="0 0 206.9 55.2" style="enable-background:new 0 0 206.9 55.2;" xml:space="preserve">
<style type="text/css">
	.st0{fill:#FDD140;}
</style>
<g>
	<path class="st0" d="M195.7,50.1c0.4-0.5,0.8-1,1.1-1.5C196.7,48.7,196.4,49.2,195.7,50.1z"/>
	<path class="st0" d="M42.2,54.9c0-0.1,0-0.1,0-0.2C42.1,54.8,42.1,54.9,42.2,54.9z"/>
	<path class="st0" d="M201.4,33.2c-0.1,0.2-0.2,0.4-0.2,0.6C201.2,34,201.4,33.4,201.4,33.2z"/>
	<path class="st0" d="M195.1,53.9c0,0,0.1-0.1,0.2-0.1C195.2,53.8,195.1,53.8,195.1,53.9z"/>
	<path class="st0" d="M206.8,13.7c-0.2-1.4-0.6-2.7-1.2-3.8c-1.1-2.3-2.6-3.7-3.7-4.9c0.1,0.4,0.2,0.7,0.3,1.1
		c-1-0.8-2.4-1.3-3.7-1.4c-0.2,0-0.3,0-0.5,0c-0.1,0-0.2,0-0.4,0s-0.5,0-0.7,0c-0.4,0-0.8,0.1-1.1,0.1c0.1-0.2,0.5-0.3,1-0.4
		c0.2,0,0.5-0.1,0.8-0.1c0.2,0,0.3,0,0.5,0s0.4,0,0.6,0c-0.2,0-0.6-0.1-0.8-0.1h-0.6c-0.4,0-0.8,0-1.1,0c-0.7,0-1.4,0.1-2.1,0.2
		c-1.3,0.2-2.6,0.4-3.6,0.7c1.5,0.5,1.7,0.5,3.2,0.9c-2,1.1-2.4-0.7-5-0.1c-0.1-0.7,0.8-0.6,0.2-1.3c-1.1,0.5-2.9,0.4-4.1,0.8
		c-0.7-0.7,0.5-1.3,3.2-1.4c2,0.6,4.3-0.5,5.9,0.1l-1-0.5c2-0.2,3.2-0.1,5-0.4l-0.1,0.1l0.2-0.2l0.3-0.2l0.7-0.3
		c-0.5-0.1-1.1-0.1-1.3-0.1c0.1-0.1,0.2-0.1,0.3-0.2c0.2-0.1,0.4-0.1,0.6-0.1c0.5-0.1,1-0.2,1.5-0.1c0.9,0,1.8,0.4,2.4,0.6
		c-0.5-0.3-0.9-0.5-1.3-0.6c-0.5-0.1-0.9-0.2-1.3-0.2c-0.8-0.1-1.3,0.1-1.8,0.3c-0.7,0.4-1,0.8-1.7,1.2c-2.6,0-3.6-1.3-5.4-0.7
		c-0.1-0.3-1.6-0.7-0.4-1c1.4-0.2,2.5,0.3,2.6-0.2c-1.5,0-0.9-0.3-3.2-0.2c-0.4,0.7-2.2,1.3-3.8,1.8c-1.7,0.3-4,0.3-5.4,0.1
		c1.7-0.1,3.5-0.7,3-1.2c-1,0.7-3.4-0.5-2.9,0.4c-2-0.1-5.4,0-5.6-0.8c1.9-0.3,3.8,0.2,5.4,0c-0.4,0-0.9-0.2-0.6-0.4l2.4,0.1
		c-1.8-0.4-1.5-0.7-3.8-0.6c0.2,0.1,0.4,0.2,0.2,0.2c-0.6,0-1.3,0-1.9,0l-0.1-0.7c-1.7,0.3-5.1-0.6-8.2,0l0.3-0.1
		c-2.5-0.1-2.7,1.3-5.5,1.5c0.8-0.3,0.4-0.7,0.3-1c-1.4,0.4-2.1-0.2-3.5-0.4c1.6,0.4-1.1,0.8,0.1,1c0.1,0.7-2.8,0.7-4.2,0.7
		c-0.9-1,4.5-0.5,2.3-1.5c-1.4-0.1-1.8,0.5-0.8,0.6c-1.8-0.1-4.6-0.2-5.9-0.8c-2.2,0.7-3,0.3-4.4,1.3c1.2,0,1.2-0.7,2.7-0.3
		l-1.6,0.7c-2.1,0-3.8-0.6-5.2-0.7l1.5-0.3L144.7,1c0.6-0.3,2.5-0.1,2.3-0.7c-1.4,0.7-2.5,0-4.3,0.5l0.1-0.1
		c-3.2,0.5-5.5-1.1-7.5,0.3c0.6,0,1.7,0.5,1.4,0.8C136,1.3,134,1.4,134.1,1l0.6-0.1c-1.8-0.1-2.9-0.2-3.5,0c-0.5,0.5,0,0.9-1.3,1.1
		c-3.2-0.3,1.3-1.1-0.9-1.5L126,1l-0.7-0.4c-4.4-0.4-7.8,1-12.5,1c-0.1-0.7,3.3-1,4.5-1.1c-1.5-0.7-3.5,0.2-5.5-0.2
		c-1.8-0.1-3.2,0.5-2.9,1c-2.2,0.3-1.6-0.4-1.9-0.6c-0.7,0.8-3.5,0.5-5.3,0.7l-0.1-0.5l-2.8,0.6c0.7,0,0.1,0.5,0.1,0.7h-0.7
		c2.8,1.2,6.2-0.9,9,0.5c-0.9,0.2,0.3,0.4-0.6,0.6c-0.7,0-0.9-0.1-0.9-0.3c-0.4,0.4-1.6,0.7-0.1,0.7c-0.1,1-3.1,0.7-5.2,1
		c-1.7-0.6,1.7-0.9,2.6-1.4c-0.8,0.1-1.5,0.5-2.6,0.2l0.3-0.7c-2.9,0.4-0.8,0.6-1.4,1.3c-0.8,0.9-2.6,0-3.4,0L96.8,4
		C94.5,3.7,94,4.4,92,4.4l-1-0.6c2.5,0.7,3.1-1,4.5-0.6c-3.7-0.7,0.8-1.5,2-2.1c-1.6,0.1-3,0-3.9-0.3c-2.3,0.9-4.9-0.3-7.1,0.8
		C85.3,1.4,87.6,1,86.3,1c-2.4-0.1-4.9,0-7.5,0.5c-1.3,0-1.1-0.3-1.5-0.7C71,0.4,68.5,2.1,61.7,1.7l1-0.4c-1.4-0.1-2.7-0.2-3.4,0.3
		c-1.7-1.3-6,0.7-8.3-0.6c-3-0.2-3.2,0.8-5.6,1c0-0.3,0.7-0.8-0.5-0.9C37.1,1.6,30,1.7,21.4,1.9c0.1-0.1,0.5-0.2,0.7-0.2
		c-0.7,0-1.4,0-2.1,0h-1l-1.2,0.1c-2.3,0.2-4.5,1.5-6.1,3.5c-0.4,0.5-0.8,1-1.1,1.6C10.4,7.3,10.2,7.6,10,8c-0.4,0.7-0.8,1.4-1.2,2
		c-0.8,1.3-1.6,2.5-2.4,3.6c-0.5,1-2,3.8-1.2,3.3c0.7-1,1.2-0.8,1.4-0.5c-1.1,2-1.5,2.5-1.9,2.7c-0.2,0.1-0.3,0.1-0.5,0.2
		c-0.1,0.1-0.2,0.1-0.3,0.2s-0.1,0.1-0.2,0.2c-0.1,0.1-0.1,0.2-0.2,0.3c-0.2,0.3-0.4,0.6-0.6,1.1c-0.7,0.6-0.4-0.5,0.1-1.6
		c0.1-0.3,0.2-0.4,0.2-0.5c0.1-0.1,0.1-0.3,0.1-0.4c0.1-0.3,0.1-0.5,0-0.6L3,18.6l-0.2,0.3L2.7,19l-0.1,0.2c-1,1.7-1.5,4.1-1.6,5.7
		C0.1,28.7,0.7,32.1,0.6,35c0-1.3-0.6-0.4-0.4-2.6c0,0.3,0.1,0.1,0.1,0.4c-0.1-2.5-0.1-3.3-0.2-3.9c0-0.6-0.2-1-0.1-2.6
		c-0.3,4.4,0.2,9,0.5,12.2c0.3-0.9,0.6,2.7,1.2,3.6v0.2c0.2-0.1,0.9,2,1.1,2.6c-0.1,0.4-0.2,0.8-0.3,1.2c0.6,1.5,0.1-0.6,0.7,0.9
		c0.1,0.3,0.3,0.6,0.5,1s0.5,1,0.8,1.6C5.2,50.8,6,52,7,52.9s2.1,1.3,3,1.4c0.4,0.1,0.8,0.2,1.1,0.2c0.1,0,0.3,0.1,0.4,0.1
		c0.1,0.1,0.1,0.1,0.1,0.1c1.7-0.1,2.2-0.5,4-0.4c-0.1,0.2-0.6,0.3-0.6,0.4c3.8,0.2,8.5-0.1,12.2,0.4c3-0.2,5.5-0.3,7.4-0.9
		c-0.8,0.1-3.1-0.1-1.7-0.6c0.8-0.3,2-0.2,3.2-0.4C36,53.7,39.4,53.7,37,54c0.6,0.9,5.3-0.2,5.3,0.8c0.6-0.3,4.1-0.1,5.4-0.6
		c0.3,0.4-1.9,0.3-1.9,0.6l1.6-0.1V55c3.1,0.2,3.6-0.9,5.4-1.1L52.7,54l1.2-0.1l-1.5,0.8c1.9-0.1,3-0.8,5.1-0.9l0.2,0.2l1.3-0.3
		c-0.2,0-0.3,0.1-0.2,0.2c1.2-0.7,4.1-0.4,5.2-1c0.9,0.1,1.6,1,2.8,0.4L66.7,54c-2.9,0.1-1.1-0.6-4.1-0.3c2.3,1.1,8.5,1,12.7,0.9
		c3.4-0.6,9,0.4,10.4-1l-0.4,0.5l5.7,0.5c4.9-0.2,9.8,0.2,13.5-0.5l1,0.5c3.8-1.5,13-0.6,15.5-2.4c2.2,0.4-0.6,0.7-0.9,1
		c1.6,0.1,4.3-1,5.8-0.2c0,0.3-2.2,0.3-1.2,0.4c1.2,0.5,1.7-0.5,3,0.1c-0.6-0.5,2.1,0.8,4,0.7c-0.4,0-0.4,0-0.5-0.1
		c-0.3-0.4,1.2-0.3,2-0.4c0,0-0.1,0.1-0.3,0.1c10-0.7,21.5-1,32.1-0.5l-2,0.4c1.5-0.3,4.2-0.1,5.1,0h-0.2c2.8,0.8,3.2-0.8,5.4,0.1
		L173,54c3.4,0,5.4,0.9,8.8,0.4c2.6,0.3,2.3-1.2,4.1-0.9c1.5,0,2.2-0.5,2.3-0.7h-0.7c-0.8-0.5,1.6-0.4,2.7-0.6
		c-0.7-0.7-0.4-1.8-2.8-2.6h2.8c0.8,0,1.6-0.2,2.3-0.6c-0.1,0.1-0.2,0.2-0.3,0.3c0.2-0.1,0.8-0.6,1.1-0.7c-0.4,0.5-1.1,1-1.8,1.3
		c-0.6,0.3-1.2,0.5-1.3,0.6c0.9-0.2,1.3-0.2,1.8-0.3s1.1-0.2,1.8-1.1c0,0.3-0.1,0.9-1.2,1.3c0.8-0.1,1.6-0.6,2.3-1.2
		c0.6-0.5,1.1-1.1,1.5-1.3c-1.2,1.3-1.8,2.3-2,2.7c0.6-0.4,1.5-1.3,2.1-2.3c0.2-0.6,0.4-1.2,0.5-1.7c0.1-0.3,0.1-0.5,0.2-0.7
		c0-0.2,0-0.3,0.1-0.4c0.7,0.2,1.4-5,1.5-3c-0.1-0.4,0.4-2.3,0.9-3.2c0.2,0.2-0.4,2.8-0.4,4c-1.2,5.2-0.4-0.3-1,0.7l-0.6,1.9
		l-0.4,1.3c-0.2,0.5-0.3,0.9-0.5,1.3c0.2-0.2,0,0.4,0,0.6c-0.1,0.2,0.3,0.3,0.9-1.6c0.1,2.1-2.4,5.4-5,5.9c-0.3,0.2,0.1,0.2,0.5,0
		c0.5-0.2,1-0.5,1.3-0.7c-0.2,0.3-1,1.1-1.3,1.5c-0.1,0.2-0.1,0.4,0.2,0.3c0.3,0,0.9-0.2,1.8-0.7c-0.2,0.1,0.1-0.2,0.4-0.6
		c0.3-0.4,0.5-0.7-0.6-0.1c0.8-0.6,2.1-1.8,2.9-2.8c0.5-0.5,0.7-1.1,0.8-1.2c0.2-0.2,0.2-0.1,0.1,0.6c0.2-0.7,0.5-1.5,0.7-2.4
		c0.1-0.5,0.2-1.1,0.4-1.7c0.2-1.1,0.5-2.2,0.6-2.8c0.4-0.2-0.2,1.1-0.3,1.8l1.2-4.5l-0.7,1.1c1.2-3.1,1.1-5.5,1.6-8.2
		c0.4,0.6-0.2,2.8-0.5,4.6c1.1-1.3,0-1.2,0.9-3.9c0.2-0.3,0.3-0.3,0.4-0.1l0.2-2.4c0.2-0.5,0.2-0.3,0.2,0c0.5-3.7-0.7-0.2,0.5-5.2
		c-1.2,2.8-0.4,2.7-1.2,5.1c-0.8,1.2,0.2-3.2,0.2-4c0.4-1.2,0.9-1.7,1.2-2.4c0.2-0.3,0.4-0.7,0.5-1.2c0.1-0.3,0.2-0.5,0.2-0.7
		c0-0.1,0-0.2,0-0.3c0-0.1,0.1-0.3,0.2-0.4c-0.1,0.2-0.1,0.4-0.2,0.5c0,0.1,0,0.2,0,0.2c0,0.1,0.1,0.2,0.1,0.2c0.1,0,0,0.4-0.4,1.9
		c-0.3,1.8,0.5-0.8,0.9-1c0.1-0.4-0.1-0.4-0.2-0.5c-0.1,0-0.1-0.2-0.1-0.3c0-0.1,0-0.1,0-0.2v-0.1c0-0.1,0.1-0.2,0.1-0.3v0.1
		l0.2-0.8c0.1-0.5,0.3-0.9,0.4-1.4c0.2-0.9,0.4-1.9,0.4-2.9C207,16.6,207,15.1,206.8,13.7z M169.5,7.4h-0.8l1.1-0.2
		C169.6,7.3,169.6,7.4,169.5,7.4z M168.1,7.4h-16.9c0.9-0.4,2.7-0.8,3.6-1.1c-0.4,0.3,0.3,0.4,0,0.6l3.5-0.8
		c1.1,0.3,1.4,0.8,0.8,1.1c2,0.2,5.3-0.6,5.3,0.3c2.5-0.1-0.8-0.5-1-0.7h0.2l-2.7,0.1c-0.3-1,3,0.2,3.5-0.7c0.4-1.8,3.8,0.6,5.6,0.3
		L168.1,7.4z M195.3,45.2l0.1-0.3c0,0,0,0,0.1-0.1L195.3,45.2z M203.9,20c-0.1,0.4-0.1,0.7-0.1,0.9c0,0.5-0.1,0.8-0.1,1.1
		c0.1,0.5,0,1.5-0.7,4c0.3,0.4-0.6,4.2-1.6,6.9l0.8-1.2c-0.2,3.2-0.7,0.3-1.3,4.2c-1.1,1.1-2.8,3.5-2.7,1.1c-1,2.5-0.9,3.6-1.6,5.9
		c-0.5,0.6-0.6,0.3-0.6-0.1l2.1-6.8c0,0.5,0.1,0.6,0.4,0c0.6-1.2,0.4-1.7,0.3-2.3l2.9-9.4c0.2-0.4,0.4-0.9,0.6-1.4
		c0.1-0.4,0.3-0.9,0.5-1.3c0-0.1,0.1-0.2,0.1-0.4c0.1-0.1,0.1-0.2,0.2-0.3c0.1-0.2,0.3-0.5,0.4-0.8c-0.1,0.1-0.2,0.2-0.4,0.2
		c0.3-0.6,0.5-1.2,0.7-1.8l0.3,0.1C204.1,19.2,204,19.6,203.9,20z"/>
	<path class="st0" d="M0.1,26.3c0-0.4,0.1-0.8,0.1-1.2C0.2,25.6,0.1,26,0.1,26.3z"/>
	<path class="st0" d="M201.4,33.2l0.1-0.3l-0.2,0.4C201.4,33.1,201.4,33.2,201.4,33.2z"/>
</g>
</svg>
