<?xml version="1.0" encoding="utf-8"?>
<!-- Generator: Adobe Illustrator 24.2.1, SVG Export Plug-In . SVG Version: 6.00 Build 0)  -->
<svg version="1.1" id="Layer_1" xmlns="http://www.w3.org/2000/svg" xmlns:xlink="http://www.w3.org/1999/xlink" x="0px" y="0px"
	 viewBox="0 0 45.48 45.53" style="enable-background:new 0 0 45.48 45.53;" xml:space="preserve">
<style type="text/css">
	.st0{fill:#1D1D1D;}
</style>
<g>
	<g id="path3019_19_">
		<g>
			<g>
				<path class="st0" d="M23.96,41.6c-0.01,0.08,0.39,0.14-0.22,0.21c-1.94,0.21-3.48-0.25-5.36-0.57l-0.16,0.09
					c-0.36-0.11-0.72-0.21-1.09-0.32c-0.36-0.13-0.71-0.29-1.07-0.43c-0.73-0.26-1.4-0.67-2.1-1.03c-2.6-1.31-4.83-3.28-6.58-5.58
					c0.01,0.09-0.01,0.14-0.2-0.08c-0.41-0.45-0.72-1.11-1.14-1.78c-0.2-0.34-0.35-0.73-0.53-1.1c-0.18-0.38-0.38-0.76-0.5-1.18
					c-0.1-0.24-0.19-0.48-0.28-0.71c-0.09-0.18-0.16-0.21-0.19-0.23C4.28,28.14,4.16,27.44,4,26.82c-0.94-4.16-0.66-8.77,1.34-12.84
					c1.94-4.07,5.41-7.63,9.93-9.61c1.87-0.93,3.95-1.43,5.97-1.66c3.01-0.3,6.9,0.41,9.55,1.69c-0.06-0.15,0.31-0.09,0.89,0.09
					c0.59,0.15,1.34,0.5,2.06,0.85c1.44,0.71,2.7,1.55,2.27,0.9c1.64,1.28,3.63,3.67,3.78,3.76c0.28,0.09,0.84,0.33,1.59,1.26
					c0.39,0.46,0.88,1.04,1.35,1.9c0.53,0.82,1.01,1.91,1.52,3.27c0.16,0.55,0.32,1.17,0.47,1.81c0.12,0.65,0.19,1.32,0.28,1.94
					c0.12,1.25,0.1,2.32,0.17,2.71c0.18,1.25,0.14-2.95,0.32-1.7c-0.15-2.13-0.55-4.25-1.32-6.24c-0.32-1.02-0.83-1.96-1.28-2.92
					c-0.55-0.9-1.04-1.85-1.71-2.68c-2.48-3.44-5.96-6.09-9.86-7.69c-1.96-0.79-4.03-1.28-6.12-1.53c-2.1-0.16-4.23-0.19-6.32,0.22
					l-0.79,0.12l-0.77,0.2c-0.51,0.14-1.03,0.26-1.54,0.41c-0.99,0.37-2.02,0.69-2.96,1.2c-0.98,0.43-1.88,1.01-2.79,1.57
					c-0.45,0.3-0.86,0.63-1.3,0.95C8.28,5.09,7.88,5.44,7.48,5.81C6.41,6.77,3.8,9.36,1.9,13.65c-0.92,2.14-1.63,4.69-1.83,7.44
					c-0.21,2.75,0.07,5.7,0.96,8.51c0.88,2.82,2.34,5.47,4.19,7.69c1.84,2.23,4.06,4.01,6.32,5.27c2.26,1.27,4.54,2.03,6.53,2.48
					c2.01,0.38,3.73,0.49,4.98,0.48l0.91-0.05c2.74-0.13,5.75-0.86,8.39-2.15c2.65-1.27,4.88-3.08,6.42-4.79
					c1.41-1.58,2.53-3.43,3.43-5.33c-0.55,0.82-1.07,1.55-1.58,2.15c1.21-1.74,2.13-3.67,2.32-4.47c0.35-1.07,0.53-1.73,0.55-2.1
					c0.04-0.37,0-0.43-0.1-0.3c-0.1,0.12-0.23,0.43-0.41,0.8c-0.2,0.35-0.43,0.75-0.65,1.14c-0.27,0.54-0.31,0.41-0.39,0.35
					c-0.08-0.06-0.15-0.01-0.62,0.78c0.31-0.59,0.47-1.06,0.64-1.53c0.16-0.47,0.38-0.93,0.53-1.58c-0.02-0.05-0.09,0.18-0.19,0.53
					c-0.12,0.34-0.29,0.8-0.44,1.23c-0.28,0.89-0.72,1.6-0.59,1.15c0.58-1.13,0.97-2.52,1.27-3.8c-0.16,0.2-0.39,1.31-0.81,2.28
					c-0.34,1-0.83,1.84-0.85,1.72c0.37-0.6,1.55-3.35,1.35-3.67c-0.03-0.06-0.34,1.21-0.61,1.8c0.67-1.89,0.81-3.46,0.8-4.05
					c-0.01-0.6-0.14-0.24-0.58,1.49c0.16-0.6,0.25-1.34,0.4-2.09c0.09-0.75,0.12-1.52,0.15-2.18l0,0.01
					c-0.06,0.65-0.1,1.79-0.21,2.38c0.12-0.73,0.1-1.48,0.16-2.22c-0.04,0.12-0.07,0.25-0.11,0.39c-0.07,0.55-0.08,1.11-0.16,1.68
					c0.08-0.48,0.07-0.98,0.1-1.47c-0.09,0.36-0.18,0.78-0.27,1.23c-0.36,1.71-0.94,3.24-1.27,4.1c-1.24,3.49-3.52,6.61-6.47,8.83
					c-1.45,1.14-3.11,2-4.83,2.65C27.62,41.13,25.79,41.47,23.96,41.6z"/>
			</g>
		</g>
	</g>
	<g id="Shape_15_12_">
		<g>
			<path d="M32.39,16.88c-0.72,0.32-1.48,0.53-2.29,0.63c0.82-0.49,1.46-1.27,1.75-2.2c-0.77,0.45-1.62,0.79-2.53,0.96
				c-0.73-0.77-1.76-1.25-2.91-1.25c-2.2,0-3.99,1.78-3.99,3.97c0,0.31,0.04,0.62,0.1,0.91c-3.32-0.17-6.26-1.75-8.22-4.15
				c-0.34,0.59-0.54,1.27-0.54,2c0,1.38,0.7,2.59,1.78,3.31c-0.65-0.02-1.27-0.2-1.81-0.5v0.05c0,1.92,1.37,3.53,3.2,3.89
				c-0.34,0.09-0.69,0.14-1.05,0.14c-0.26,0-0.51-0.02-0.75-0.07c0.51,1.58,1.98,2.73,3.73,2.76c-1.37,1.07-3.09,1.7-4.96,1.7
				c-0.32,0-0.64-0.02-0.95-0.05c1.77,1.13,3.86,1.78,6.12,1.78c7.34,0,11.35-6.05,11.35-11.3c0-0.17,0-0.34-0.01-0.51
				C31.18,18.37,31.86,17.67,32.39,16.88z"/>
		</g>
	</g>
</g>
</svg>
