<?xml version="1.0" encoding="utf-8"?>
<!-- Generator: Adobe Illustrator 24.2.1, SVG Export Plug-In . SVG Version: 6.00 Build 0)  -->
<svg version="1.1" id="Layer_1" xmlns="http://www.w3.org/2000/svg" xmlns:xlink="http://www.w3.org/1999/xlink" x="0px" y="0px"
	 viewBox="0 0 160.56 103.12" style="enable-background:new 0 0 160.56 103.12;" xml:space="preserve">
<style type="text/css">
	.st0{fill:#FFFFFF;}
</style>
<g>
	<path class="st0" d="M114.63,29.34c0.3-0.27,0.26-0.89,0.9-0.51c1.87,1.32,2.19,3.56,4.06,4.89l0.58-0.35
		c1.02,1.45,2.08,2.96,3.16,4.5c2.49,2.35,5,4.65,7.55,6.89c0.11-0.23,0.23-0.42,0.53-0.24c0.56,0.44,1.14,1.04,1.76,1.72
		c0.15,0.17,0.31,0.35,0.47,0.52c0.11,0.12,0.07,0.09,0.09,0.11l0.01,0.04c0.02,0.06,0.04,0.12,0.06,0.16l0.17,0.01
		c0.15-0.05,0.37-0.15,0.51-0.22c0.09,0.12,0.12,0.24,0.13,0.35c0.37,0.1,0.81,0.26,1.33,0.5c0.09,0.31,0.07,0.75-0.08,1.33
		c-0.07,0.29-0.18,0.61-0.32,0.97l-0.11,0.28l-0.47,0.64l-0.99,1.32c-2.66,3.53-5.4,7.16-8.22,10.91c-1.21,2.06-2.42,4.12-3.8,5.89
		c-2.16,2.51-5.43,5.18-7.76,7.4c1.98,1.28-2.77,7.62-0.01,8.17c-1.55,1.48-3.88,3.7-3.54,4.28c1.03,1.74,1.46,4.5-1.73,9.36
		c-1.38,1.77-4.38,3.61-4.66,4.44c-0.43,1.32,3.02-1.07,2.59,0.25c12.21-11.21,22.88-23.08,34.69-34.86
		c0.66-0.95,2.27-2.81,4.47-5.24c0.28-0.3,0.56-0.61,0.85-0.94c0.55-0.57,1.11-1.16,1.68-1.76c1.2-1.25,2.46-2.56,3.77-3.92
		c2.6-2.67,5.38-5.54,8.27-8.52c-6.82-6.7-14.4-14.15-21.04-20.67c-4.54-4.51-8.38-8.43-10.37-10.61l-0.65-0.61
		c-3.7-3.88-8.43-8.36-12.26-10.95c-1.86-1.09-3.82-2.12-5.76-3.16c0.42,0.96,0.8,1.87,1.09,2.69c-1.48-1.55-2.96-3.1-3.84-3.39
		c-3.93-2.53-2.91,0.11-2.78,2.47c0.41,1.38-1.55,0.92-0.64,2.81c-0.98-1.03-1.48-1.55-2.47-2.59c-0.58,0.35,3.35,2.88,1.89,2.93
		c-0.8-1.15-2.17-1.96-3.15-2.99c-0.28,0.98,3.26,3.74,2.49,4.2c-0.69-0.4-2-3.68-2.96-3.1c-0.19,0.12,0.79,1.15,1.29,1.67
		c-3.35-2.88-5.79-3.86-3.79-0.18c-0.96-1.01-2.03-2.73-3.18-3.67c0,0.01,0,0.01,0,0.02c0.49,0.55,1.23,1.6,1.7,2.09l-1.73-1.82
		c-0.01,0.2-0.02,0.41-0.01,0.63c0.35,0.54,0.71,1.06,1.16,1.53l-1.15-1.21c0.04,0.54,0.14,1.13,0.29,1.72
		c0.9,1.9,1.52,3.97,2.26,4.74C102.68,16.78,108.57,23.18,114.63,29.34z"/>
</g>
<g>
	<path class="st0" d="M85.56,40.26c-0.01,0.4,0.36,0.81-0.22,0.99c-1.82,0.38-3.28-0.97-5.1-0.59c-0.04,0.22-0.09,0.43-0.13,0.65
		c-1.41-0.28-2.88-0.64-4.38-0.95c-2.76,0.09-5.51,0.25-8.24,0.47c0.07,0.24,0.1,0.46-0.17,0.55c-1.14,0.17-2.71-0.06-4.34-0.12
		c-0.24,0.04-0.48,0.08-0.72,0.11c-0.19,0.14-0.23,0.37-0.26,0.51c-0.74-0.02-1.39-0.08-2-0.15c-8.01,1.29-16.15,2.8-24.97,4.29
		c-1.86,0.6-3.73,1.2-5.53,1.48c-2.66,0.25-6.06-0.18-8.66-0.25c0.4,2.31-5.93,3.44-4.67,5.77c-1.73-0.05-4.33-0.13-4.46,0.53
		c-0.4,1.96-1.73,4.21-6.33,5.39c-1.8,0.28-4.56-0.55-5.19-0.15c-1,0.63,2.33,1.38,1.33,2.01c13.37,0.71,26.24-0.14,39.69-0.12
		c4.58-1.02,35.48-1.47,43.41-1.02c0.24-0.01,0.48-0.02,0.72-0.03c4.33,0.13,9.59-0.05,13.25-0.93c1.68-0.54,3.39-1.2,5.09-1.84
		c-0.79-0.38-1.52-0.76-2.16-1.14c1.73,0.05,3.46,0.1,4.13-0.32c3.69-0.99,1.6-2.14,0.18-3.71c-1.02-0.69,0.36-1.74-1.24-2.44
		c1.15,0.03,1.73,0.05,2.89,0.08c0.13-0.65-3.55,0.33-2.75-0.74c1.11,0.25,2.35-0.15,3.51-0.12c-0.4-0.89-3.99-0.33-3.82-1.2
		c0.62-0.2,3.24,1.19,3.46,0.1c0.04-0.22-1.11-0.25-1.69-0.27c3.55-0.33,5.51-1.37,2.27-2.56c1.13,0.03,2.72,0.49,3.91,0.34
		c0-0.01-0.01-0.01-0.01-0.02c-0.59-0.04-1.62-0.26-2.17-0.28c0.67,0.02,1.35,0.04,2.03,0.06c-0.11-0.15-0.23-0.3-0.35-0.45
		c-0.5-0.13-1.01-0.24-1.54-0.26c0.45,0.01,0.9,0.03,1.35,0.04c-0.34-0.35-0.72-0.7-1.15-1.02c-1.6-0.7-3.13-1.73-3.99-1.76
		C99.55,40.7,92.54,40.34,85.56,40.26z"/>
</g>
</svg>
