<?xml version="1.0" encoding="utf-8"?>
<!-- Generator: Adobe Illustrator 24.2.1, SVG Export Plug-In . SVG Version: 6.00 Build 0)  -->
<svg version="1.1" id="Layer_1" xmlns="http://www.w3.org/2000/svg" xmlns:xlink="http://www.w3.org/1999/xlink" x="0px" y="0px"
	 viewBox="0 0 207.5 243.7" style="enable-background:new 0 0 207.5 243.7;" xml:space="preserve">
<style type="text/css">
	.st0{fill:#FDD140;}
</style>
<g>
	<path class="st0" d="M166.3,84.9c-0.4,0.4-0.4,1.5-0.9,2.1l-0.1-0.1c0-0.1,0-0.3,0.1-0.4l-0.2-0.2c0,0,0,0,0,0
		c0.2-0.5,0.4-1,0.4-1.6c0-1.5-0.9-2.8-2.1-3.4c0,0,0,0,0,0l0,0c-0.1,0-0.1-0.1-0.2-0.1c0,0,0-0.1,0-0.1c-0.3-0.2-0.5-0.7-0.9-0.9
		c-0.3,0.1-0.6,0.1-1.1-0.1l0,0.1c-1.5,0.3-3.3,1.3-3.9,3.2c-0.3,0.9-0.4,2,0,3c0.3,1,1,1.8,1.9,2.4l-0.4,0.4
		c1.2,0.4,2.5,0.4,3.4-0.1c-0.1,0-0.2,0-0.4-0.1c0.3-0.3,1-0.6,1.5-0.8l0,0.1c-0.6,0.3,0.1,0-0.1,0.5l-0.1,0.1l0.1,0l0.1-0.1
		c0,0.1,0.1,0.2,0,0.2l0.2-0.1c0.5,0.2,0.7,0.4,0.8,0.8c0.1-0.1-0.2-0.4,0.3-0.5l0,0.1c0.1-0.2,0.2-0.3,0.3-0.5c0.1,0,0.2,0,0.3,0
		c0.1-0.2,0.1-0.3,0.3-0.4l-0.2-0.2c0.3-0.3,0.6-0.7,0.8-1.1c0.2-0.4,0.3-0.9,0.5-1.3c-0.2-0.2,0.2-0.6,0-1.1L166.3,84.9z
		 M164.4,87.4c-0.1,0-0.1,0-0.2,0c0.1-0.1,0.2-0.2,0.3-0.3C164.5,87.3,164.5,87.4,164.4,87.4z"/>
	<path class="st0" d="M166.3,123.3c-0.4,0.4-0.4,1.5-0.9,2.1l-0.1-0.1c0-0.1,0-0.3,0.1-0.4l-0.2-0.2c0,0,0,0,0,0
		c0.2-0.5,0.4-1,0.4-1.6c0-1.5-0.9-2.8-2.1-3.4c0,0,0,0,0,0l0,0c-0.1,0-0.1-0.1-0.2-0.1c0,0,0-0.1,0-0.1c-0.3-0.2-0.5-0.7-0.9-0.9
		c-0.3,0.1-0.6,0.1-1.1-0.1l0,0.1c-1.5,0.3-3.3,1.3-3.9,3.2c-0.3,0.9-0.4,2,0,3c0.3,1,1,1.8,1.9,2.4l-0.4,0.4
		c1.2,0.4,2.5,0.4,3.4-0.1c-0.1,0-0.2,0-0.4-0.1c0.3-0.3,1-0.6,1.5-0.8l0,0.1c-0.6,0.3,0.1,0-0.1,0.5l-0.1,0.1l0.1,0l0.1-0.1
		c0,0.1,0.1,0.2,0,0.2l0.2-0.1c0.5,0.2,0.7,0.4,0.8,0.8c0.1-0.1-0.2-0.4,0.3-0.5l0,0.1c0.1-0.2,0.2-0.3,0.3-0.5c0.1,0,0.2,0,0.3,0
		c0.1-0.2,0.1-0.3,0.3-0.4l-0.2-0.2c0.3-0.3,0.6-0.7,0.8-1.1c0.2-0.4,0.3-0.9,0.5-1.3c-0.2-0.2,0.2-0.6,0-1.1L166.3,123.3z
		 M164.4,125.9c-0.1,0-0.1,0-0.2,0c0.1-0.1,0.2-0.2,0.3-0.3C164.5,125.8,164.5,125.9,164.4,125.9z"/>
	<path class="st0" d="M166.6,161.6l-0.3,0.2c-0.4,0.4-0.4,1.5-0.9,2.1l-0.1-0.1c0-0.1,0-0.3,0.1-0.4l-0.2-0.2c0,0,0,0,0,0
		c0.2-0.5,0.4-1,0.4-1.6c0-1.5-0.9-2.8-2.1-3.4c0,0,0,0,0,0l0,0c-0.1,0-0.1-0.1-0.2-0.1c0,0,0-0.1,0-0.1c-0.3-0.2-0.5-0.7-0.9-0.9
		c-0.3,0.1-0.6,0.1-1.1-0.1l0,0.1c-1.5,0.3-3.3,1.3-3.9,3.2c-0.3,0.9-0.4,2,0,3c0.3,1,1,1.8,1.9,2.4l-0.4,0.4
		c1.2,0.4,2.5,0.4,3.4-0.1c-0.1,0-0.2,0-0.4-0.1c0.3-0.3,1-0.6,1.5-0.8l0,0.1c-0.6,0.3,0.1,0-0.1,0.5l-0.1,0.1l0.1,0l0.1-0.1
		c0,0.1,0.1,0.2,0,0.2l0.2-0.1c0.5,0.2,0.7,0.4,0.8,0.8c0.1-0.1-0.2-0.4,0.3-0.5l0,0.1c0.1-0.2,0.2-0.3,0.3-0.5c0.1,0,0.2,0,0.3,0
		c0.1-0.2,0.1-0.3,0.3-0.4l-0.2-0.2c0.3-0.3,0.6-0.7,0.8-1.1c0.2-0.4,0.3-0.9,0.5-1.3C166.4,162.5,166.8,162.1,166.6,161.6z
		 M164.4,164.4c-0.1,0-0.1,0-0.2,0c0.1-0.1,0.2-0.2,0.3-0.3C164.5,164.3,164.5,164.4,164.4,164.4z"/>
	<path class="st0" d="M207.4,161.6l-0.3,0.2c-0.4,0.4-0.4,1.5-0.9,2.1l-0.1-0.1c0-0.1,0-0.3,0.1-0.4l-0.2-0.2c0,0,0,0,0,0
		c0.2-0.5,0.4-1,0.4-1.6c0-1.5-0.9-2.8-2.1-3.4c0,0,0,0,0,0l0,0c-0.1,0-0.1-0.1-0.2-0.1c0,0,0-0.1,0-0.1c-0.3-0.2-0.5-0.7-0.9-0.9
		c-0.3,0.1-0.6,0.1-1.1-0.1l0,0.1c-1.5,0.3-3.3,1.3-3.9,3.2c-0.3,0.9-0.4,2,0,3c0.3,1,1,1.8,1.9,2.4l-0.4,0.4
		c1.2,0.4,2.5,0.4,3.4-0.1c-0.1,0-0.2,0-0.4-0.1c0.3-0.3,1-0.6,1.5-0.8l0,0.1c-0.6,0.3,0.1,0-0.1,0.5l-0.1,0.1l0.1,0l0.1-0.1
		c0,0.1,0.1,0.2,0,0.2l0.2-0.1c0.5,0.2,0.7,0.4,0.8,0.8c0.1-0.1-0.2-0.4,0.3-0.5l0,0.1c0.1-0.2,0.2-0.3,0.3-0.5c0.1,0,0.2,0,0.3,0
		c0.1-0.2,0.1-0.3,0.3-0.4l-0.2-0.2c0.3-0.3,0.6-0.7,0.8-1.1c0.2-0.4,0.3-0.9,0.5-1.3C207.2,162.5,207.6,162.1,207.4,161.6z
		 M205.2,164.4c-0.1,0-0.1,0-0.2,0c0.1-0.1,0.2-0.2,0.3-0.3C205.3,164.3,205.3,164.4,205.2,164.4z"/>
	<path class="st0" d="M127.8,84.9c-0.4,0.4-0.4,1.5-0.9,2.1l-0.1-0.1c0-0.1,0-0.3,0.1-0.4l-0.2-0.2c0,0,0,0,0,0
		c0.2-0.5,0.4-1,0.4-1.6c0-1.5-0.9-2.8-2.1-3.4c0,0,0,0,0,0l0,0c-0.1,0-0.1-0.1-0.2-0.1c0,0,0-0.1,0-0.1c-0.3-0.2-0.5-0.7-0.9-0.9
		c-0.3,0.1-0.6,0.1-1.1-0.1l0,0.1c-1.5,0.3-3.3,1.3-3.9,3.2c-0.3,0.9-0.4,2,0,3c0.3,1,1,1.8,1.9,2.4l-0.4,0.4
		c1.2,0.4,2.5,0.4,3.4-0.1c-0.1,0-0.2,0-0.4-0.1c0.3-0.3,1-0.6,1.5-0.8l0,0.1c-0.6,0.3,0.1,0-0.1,0.5l-0.1,0.1l0.1,0l0.1-0.1
		c0,0.1,0.1,0.2,0,0.2l0.2-0.1c0.5,0.2,0.7,0.4,0.8,0.8c0.1-0.1-0.2-0.4,0.3-0.5l0,0.1c0.1-0.2,0.2-0.3,0.3-0.5c0.1,0,0.2,0,0.3,0
		c0.1-0.2,0.1-0.3,0.3-0.4l-0.2-0.2c0.3-0.3,0.6-0.7,0.8-1.1c0.2-0.4,0.3-0.9,0.5-1.3c-0.2-0.2,0.2-0.6,0-1.1L127.8,84.9z
		 M125.9,87.4c-0.1,0-0.1,0-0.2,0c0.1-0.1,0.2-0.2,0.3-0.3C126,87.3,126,87.4,125.9,87.4z"/>
	<path class="st0" d="M127.8,123.3c-0.4,0.4-0.4,1.5-0.9,2.1l-0.1-0.1c0-0.1,0-0.3,0.1-0.4l-0.2-0.2c0,0,0,0,0,0
		c0.2-0.5,0.4-1,0.4-1.6c0-1.5-0.9-2.8-2.1-3.4c0,0,0,0,0,0l0,0c-0.1,0-0.1-0.1-0.2-0.1c0,0,0-0.1,0-0.1c-0.3-0.2-0.5-0.7-0.9-0.9
		c-0.3,0.1-0.6,0.1-1.1-0.1l0,0.1c-1.5,0.3-3.3,1.3-3.9,3.2c-0.3,0.9-0.4,2,0,3c0.3,1,1,1.8,1.9,2.4l-0.4,0.4
		c1.2,0.4,2.5,0.4,3.4-0.1c-0.1,0-0.2,0-0.4-0.1c0.3-0.3,1-0.6,1.5-0.8l0,0.1c-0.6,0.3,0.1,0-0.1,0.5l-0.1,0.1l0.1,0l0.1-0.1
		c0,0.1,0.1,0.2,0,0.2l0.2-0.1c0.5,0.2,0.7,0.4,0.8,0.8c0.1-0.1-0.2-0.4,0.3-0.5l0,0.1c0.1-0.2,0.2-0.3,0.3-0.5c0.1,0,0.2,0,0.3,0
		c0.1-0.2,0.1-0.3,0.3-0.4l-0.2-0.2c0.3-0.3,0.6-0.7,0.8-1.1c0.2-0.4,0.3-0.9,0.5-1.3c-0.2-0.2,0.2-0.6,0-1.1L127.8,123.3z
		 M125.9,125.9c-0.1,0-0.1,0-0.2,0c0.1-0.1,0.2-0.2,0.3-0.3C126,125.8,126,125.9,125.9,125.9z"/>
	<path class="st0" d="M127.8,161.8c-0.4,0.4-0.4,1.5-0.9,2.1l-0.1-0.1c0-0.1,0-0.3,0.1-0.4l-0.2-0.2c0,0,0,0,0,0
		c0.2-0.5,0.4-1,0.4-1.6c0-1.5-0.9-2.8-2.1-3.4c0,0,0,0,0,0l0,0c-0.1,0-0.1-0.1-0.2-0.1c0,0,0-0.1,0-0.1c-0.3-0.2-0.5-0.7-0.9-0.9
		c-0.3,0.1-0.6,0.1-1.1-0.1l0,0.1c-1.5,0.3-3.3,1.3-3.9,3.2c-0.3,0.9-0.4,2,0,3c0.3,1,1,1.8,1.9,2.4l-0.4,0.4
		c1.2,0.4,2.5,0.4,3.4-0.1c-0.1,0-0.2,0-0.4-0.1c0.3-0.3,1-0.6,1.5-0.8l0,0.1c-0.6,0.3,0.1,0-0.1,0.5l-0.1,0.1l0.1,0l0.1-0.1
		c0,0.1,0.1,0.2,0,0.2l0.2-0.1c0.5,0.2,0.7,0.4,0.8,0.8c0.1-0.1-0.2-0.4,0.3-0.5l0,0.1c0.1-0.2,0.2-0.3,0.3-0.5c0.1,0,0.2,0,0.3,0
		c0.1-0.2,0.1-0.3,0.3-0.4l-0.2-0.2c0.3-0.3,0.6-0.7,0.8-1.1c0.2-0.4,0.3-0.9,0.5-1.3c-0.2-0.2,0.2-0.6,0-1.1L127.8,161.8z
		 M125.9,164.4c-0.1,0-0.1,0-0.2,0c0.1-0.1,0.2-0.2,0.3-0.3C126,164.3,126,164.4,125.9,164.4z"/>
	<path class="st0" d="M127.8,200.3c-0.4,0.4-0.4,1.5-0.9,2.1l-0.1-0.1c0-0.1,0-0.3,0.1-0.4l-0.2-0.2c0,0,0,0,0,0
		c0.2-0.5,0.4-1,0.4-1.6c0-1.5-0.9-2.8-2.1-3.4c0,0,0,0,0,0l0,0c-0.1,0-0.1-0.1-0.2-0.1c0,0,0-0.1,0-0.1c-0.3-0.2-0.5-0.7-0.9-0.9
		c-0.3,0.1-0.6,0.1-1.1-0.1l0,0.1c-1.5,0.3-3.3,1.3-3.9,3.2c-0.3,0.9-0.4,2,0,3c0.3,1,1,1.8,1.9,2.4l-0.4,0.4
		c1.2,0.4,2.5,0.4,3.4-0.1c-0.1,0-0.2,0-0.4-0.1c0.3-0.3,1-0.6,1.5-0.8l0,0.1c-0.6,0.3,0.1,0-0.1,0.5l-0.1,0.1l0.1,0l0.1-0.1
		c0,0.1,0.1,0.2,0,0.2l0.2-0.1c0.5,0.2,0.7,0.4,0.8,0.8c0.1-0.1-0.2-0.4,0.3-0.5l0,0.1c0.1-0.2,0.2-0.3,0.3-0.5c0.1,0,0.2,0,0.3,0
		c0.1-0.2,0.1-0.3,0.3-0.4l-0.2-0.2c0.3-0.3,0.6-0.7,0.8-1.1c0.2-0.4,0.3-0.9,0.5-1.3c-0.2-0.2,0.2-0.6,0-1.1L127.8,200.3z
		 M125.9,202.9c-0.1,0-0.1,0-0.2,0c0.1-0.1,0.2-0.2,0.3-0.3C126,202.7,126,202.9,125.9,202.9z"/>
	<path class="st0" d="M128.1,238.6l-0.3,0.2c-0.4,0.4-0.4,1.5-0.9,2.1l-0.1-0.1c0-0.1,0-0.3,0.1-0.4l-0.2-0.2c0,0,0,0,0,0
		c0.2-0.5,0.4-1,0.4-1.6c0-1.5-0.9-2.8-2.1-3.4c0,0,0,0,0,0l0,0c-0.1,0-0.1-0.1-0.2-0.1c0,0,0-0.1,0-0.1c-0.3-0.2-0.5-0.7-0.9-0.9
		c-0.3,0.1-0.6,0.1-1.1-0.1l0,0.1c-1.5,0.3-3.3,1.3-3.9,3.2c-0.3,0.9-0.4,2,0,3c0.3,1,1,1.8,1.9,2.4l-0.4,0.4
		c1.2,0.4,2.5,0.4,3.4-0.1c-0.1,0-0.2,0-0.4-0.1c0.3-0.3,1-0.6,1.5-0.8l0,0.1c-0.6,0.3,0.1,0-0.1,0.5l-0.1,0.1l0.1,0l0.1-0.1
		c0,0.1,0.1,0.2,0,0.2l0.2-0.1c0.5,0.2,0.7,0.4,0.8,0.8c0.1-0.1-0.2-0.4,0.3-0.5l0,0.1c0.1-0.2,0.2-0.3,0.3-0.5c0.1,0,0.2,0,0.3,0
		c0.1-0.2,0.1-0.3,0.3-0.4l-0.2-0.2c0.3-0.3,0.6-0.7,0.8-1.1c0.2-0.4,0.3-0.9,0.5-1.3C127.9,239.5,128.3,239.1,128.1,238.6z
		 M125.9,241.4c-0.1,0-0.1,0-0.2,0c0.1-0.1,0.2-0.2,0.3-0.3C126,241.2,126,241.3,125.9,241.4z"/>
	<path class="st0" d="M89.3,123.3c-0.4,0.4-0.4,1.5-0.9,2.1l-0.1-0.1c0-0.1,0-0.3,0.1-0.4l-0.2-0.2c0,0,0,0,0,0
		c0.2-0.5,0.4-1,0.4-1.6c0-1.5-0.9-2.8-2.1-3.4c0,0,0,0,0,0l0,0c-0.1,0-0.1-0.1-0.2-0.1c0,0,0-0.1,0-0.1c-0.3-0.2-0.5-0.7-0.9-0.9
		c-0.3,0.1-0.6,0.1-1.1-0.1l0,0.1c-1.5,0.3-3.3,1.3-3.9,3.2c-0.3,0.9-0.4,2,0,3c0.3,1,1,1.8,1.9,2.4l-0.4,0.4
		c1.2,0.4,2.5,0.4,3.4-0.1c-0.1,0-0.2,0-0.4-0.1c0.3-0.3,1-0.6,1.5-0.8l0,0.1c-0.6,0.3,0.1,0-0.1,0.5l-0.1,0.1l0.1,0l0.1-0.1
		c0,0.1,0.1,0.2,0,0.2l0.2-0.1c0.5,0.2,0.7,0.4,0.8,0.8c0.1-0.1-0.2-0.4,0.3-0.5l0,0.1c0.1-0.2,0.2-0.3,0.3-0.5c0.1,0,0.2,0,0.3,0
		c0.1-0.2,0.1-0.3,0.3-0.4l-0.2-0.2c0.3-0.3,0.6-0.7,0.8-1.1c0.2-0.4,0.3-0.9,0.5-1.3c-0.2-0.2,0.2-0.6,0-1.1L89.3,123.3z
		 M87.4,125.9c-0.1,0-0.1,0-0.2,0c0.1-0.1,0.2-0.2,0.3-0.3C87.5,125.8,87.5,125.9,87.4,125.9z"/>
	<path class="st0" d="M166.3,4.9c-0.4,0.4-0.4,1.5-0.9,2.1l-0.1-0.1c0-0.1,0-0.3,0.1-0.4l-0.2-0.2c0,0,0,0,0,0
		c0.2-0.5,0.4-1,0.4-1.6c0-1.5-0.9-2.8-2.1-3.4c0,0,0,0,0,0l0,0c-0.1,0-0.1-0.1-0.2-0.1c0,0,0-0.1,0-0.1c-0.3-0.2-0.5-0.7-0.9-0.9
		c-0.3,0.1-0.6,0.1-1.1-0.1l0,0.1c-1.5,0.3-3.3,1.3-3.9,3.2c-0.3,0.9-0.4,2,0,3c0.3,1,1,1.8,1.9,2.4l-0.4,0.4
		c1.2,0.4,2.5,0.4,3.4-0.1c-0.1,0-0.2,0-0.4-0.1c0.3-0.3,1-0.6,1.5-0.8l0,0.1c-0.6,0.3,0.1,0-0.1,0.5l-0.1,0.1l0.1,0l0.1-0.1
		c0,0.1,0.1,0.2,0,0.2l0.2-0.1c0.5,0.2,0.7,0.4,0.8,0.8c0.1-0.1-0.2-0.4,0.3-0.5l0,0.1c0.1-0.2,0.2-0.3,0.3-0.5c0.1,0,0.2,0,0.3,0
		c0.1-0.2,0.1-0.3,0.3-0.4l-0.2-0.2c0.3-0.3,0.6-0.7,0.8-1.1c0.2-0.4,0.3-0.9,0.5-1.3c-0.2-0.2,0.2-0.6,0-1.1L166.3,4.9z M164.4,7.4
		c-0.1,0-0.1,0-0.2,0c0.1-0.1,0.2-0.2,0.3-0.3C164.5,7.3,164.5,7.4,164.4,7.4z"/>
	<path class="st0" d="M166.3,43.3c-0.4,0.4-0.4,1.5-0.9,2.1l-0.1-0.1c0-0.1,0-0.3,0.1-0.4l-0.2-0.2c0,0,0,0,0,0
		c0.2-0.5,0.4-1,0.4-1.6c0-1.5-0.9-2.8-2.1-3.4c0,0,0,0,0,0l0,0c-0.1,0-0.1-0.1-0.2-0.1c0,0,0-0.1,0-0.1c-0.3-0.2-0.5-0.7-0.9-0.9
		c-0.3,0.1-0.6,0.1-1.1-0.1l0,0.1c-1.5,0.3-3.3,1.3-3.9,3.2c-0.3,0.9-0.4,2,0,3c0.3,1,1,1.8,1.9,2.4l-0.4,0.4
		c1.2,0.4,2.5,0.4,3.4-0.1c-0.1,0-0.2,0-0.4-0.1c0.3-0.3,1-0.6,1.5-0.8l0,0.1c-0.6,0.3,0.1,0-0.1,0.5l-0.1,0.1l0.1,0l0.1-0.1
		c0,0.1,0.1,0.2,0,0.2l0.2-0.1c0.5,0.2,0.7,0.4,0.8,0.8c0.1-0.1-0.2-0.4,0.3-0.5l0,0.1c0.1-0.2,0.2-0.3,0.3-0.5c0.1,0,0.2,0,0.3,0
		c0.1-0.2,0.1-0.3,0.3-0.4l-0.2-0.2c0.3-0.3,0.6-0.7,0.8-1.1c0.2-0.4,0.3-0.9,0.5-1.3c-0.2-0.2,0.2-0.6,0-1.1L166.3,43.3z
		 M164.4,45.9c-0.1,0-0.1,0-0.2,0c0.1-0.1,0.2-0.2,0.3-0.3C164.5,45.8,164.5,45.9,164.4,45.9z"/>
	<path class="st0" d="M127.8,4.9c-0.4,0.4-0.4,1.5-0.9,2.1l-0.1-0.1c0-0.1,0-0.3,0.1-0.4l-0.2-0.2c0,0,0,0,0,0
		c0.2-0.5,0.4-1,0.4-1.6c0-1.5-0.9-2.8-2.1-3.4c0,0,0,0,0,0l0,0c-0.1,0-0.1-0.1-0.2-0.1c0,0,0-0.1,0-0.1c-0.3-0.2-0.5-0.7-0.9-0.9
		c-0.3,0.1-0.6,0.1-1.1-0.1l0,0.1c-1.5,0.3-3.3,1.3-3.9,3.2c-0.3,0.9-0.4,2,0,3c0.3,1,1,1.8,1.9,2.4l-0.4,0.4
		c1.2,0.4,2.5,0.4,3.4-0.1c-0.1,0-0.2,0-0.4-0.1c0.3-0.3,1-0.6,1.5-0.8l0,0.1c-0.6,0.3,0.1,0-0.1,0.5l-0.1,0.1l0.1,0l0.1-0.1
		c0,0.1,0.1,0.2,0,0.2l0.2-0.1c0.5,0.2,0.7,0.4,0.8,0.8c0.1-0.1-0.2-0.4,0.3-0.5l0,0.1c0.1-0.2,0.2-0.3,0.3-0.5c0.1,0,0.2,0,0.3,0
		c0.1-0.2,0.1-0.3,0.3-0.4l-0.2-0.2c0.3-0.3,0.6-0.7,0.8-1.1c0.2-0.4,0.3-0.9,0.5-1.3c-0.2-0.2,0.2-0.6,0-1.1L127.8,4.9z M125.9,7.4
		c-0.1,0-0.1,0-0.2,0c0.1-0.1,0.2-0.2,0.3-0.3C126,7.3,126,7.4,125.9,7.4z"/>
	<path class="st0" d="M127.8,43.3c-0.4,0.4-0.4,1.5-0.9,2.1l-0.1-0.1c0-0.1,0-0.3,0.1-0.4l-0.2-0.2c0,0,0,0,0,0
		c0.2-0.5,0.4-1,0.4-1.6c0-1.5-0.9-2.8-2.1-3.4c0,0,0,0,0,0l0,0c-0.1,0-0.1-0.1-0.2-0.1c0,0,0-0.1,0-0.1c-0.3-0.2-0.5-0.7-0.9-0.9
		c-0.3,0.1-0.6,0.1-1.1-0.1l0,0.1c-1.5,0.3-3.3,1.3-3.9,3.2c-0.3,0.9-0.4,2,0,3c0.3,1,1,1.8,1.9,2.4l-0.4,0.4
		c1.2,0.4,2.5,0.4,3.4-0.1c-0.1,0-0.2,0-0.4-0.1c0.3-0.3,1-0.6,1.5-0.8l0,0.1c-0.6,0.3,0.1,0-0.1,0.5l-0.1,0.1l0.1,0l0.1-0.1
		c0,0.1,0.1,0.2,0,0.2l0.2-0.1c0.5,0.2,0.7,0.4,0.8,0.8c0.1-0.1-0.2-0.4,0.3-0.5l0,0.1c0.1-0.2,0.2-0.3,0.3-0.5c0.1,0,0.2,0,0.3,0
		c0.1-0.2,0.1-0.3,0.3-0.4l-0.2-0.2c0.3-0.3,0.6-0.7,0.8-1.1c0.2-0.4,0.3-0.9,0.5-1.3c-0.2-0.2,0.2-0.6,0-1.1L127.8,43.3z
		 M125.9,45.9c-0.1,0-0.1,0-0.2,0c0.1-0.1,0.2-0.2,0.3-0.3C126,45.8,126,45.9,125.9,45.9z"/>
	<path class="st0" d="M89.3,161.8c-0.4,0.4-0.4,1.5-0.9,2.1l-0.1-0.1c0-0.1,0-0.3,0.1-0.4l-0.2-0.2c0,0,0,0,0,0
		c0.2-0.5,0.4-1,0.4-1.6c0-1.5-0.9-2.8-2.1-3.4c0,0,0,0,0,0l0,0c-0.1,0-0.1-0.1-0.2-0.1c0,0,0-0.1,0-0.1c-0.3-0.2-0.5-0.7-0.9-0.9
		c-0.3,0.1-0.6,0.1-1.1-0.1l0,0.1c-1.5,0.3-3.3,1.3-3.9,3.2c-0.3,0.9-0.4,2,0,3c0.3,1,1,1.8,1.9,2.4l-0.4,0.4
		c1.2,0.4,2.5,0.4,3.4-0.1c-0.1,0-0.2,0-0.4-0.1c0.3-0.3,1-0.6,1.5-0.8l0,0.1c-0.6,0.3,0.1,0-0.1,0.5l-0.1,0.1l0.1,0l0.1-0.1
		c0,0.1,0.1,0.2,0,0.2l0.2-0.1c0.5,0.2,0.7,0.4,0.8,0.8c0.1-0.1-0.2-0.4,0.3-0.5l0,0.1c0.1-0.2,0.2-0.3,0.3-0.5c0.1,0,0.2,0,0.3,0
		c0.1-0.2,0.1-0.3,0.3-0.4l-0.2-0.2c0.3-0.3,0.6-0.7,0.8-1.1c0.2-0.4,0.3-0.9,0.5-1.3c-0.2-0.2,0.2-0.6,0-1.1L89.3,161.8z
		 M87.4,164.4c-0.1,0-0.1,0-0.2,0c0.1-0.1,0.2-0.2,0.3-0.3C87.5,164.3,87.5,164.4,87.4,164.4z"/>
	<path class="st0" d="M47.8,123.3c-0.4,0.4-0.4,1.5-0.9,2.1l-0.1-0.1c0-0.1,0-0.3,0.1-0.4l-0.2-0.2c0,0,0,0,0,0
		c0.2-0.5,0.4-1,0.4-1.6c0-1.5-0.9-2.8-2.1-3.4c0,0,0,0,0,0l0,0c-0.1,0-0.1-0.1-0.2-0.1c0,0,0-0.1,0-0.1c-0.3-0.2-0.5-0.7-0.9-0.9
		c-0.3,0.1-0.6,0.1-1.1-0.1l0,0.1c-1.5,0.3-3.3,1.3-3.9,3.2c-0.3,0.9-0.4,2,0,3c0.3,1,1,1.8,1.9,2.4l-0.4,0.4
		c1.2,0.4,2.5,0.4,3.4-0.1c-0.1,0-0.2,0-0.4-0.1c0.3-0.3,1-0.6,1.5-0.8l0,0.1c-0.6,0.3,0.1,0-0.1,0.5l-0.1,0.1l0.1,0l0.1-0.1
		c0,0.1,0.1,0.2,0,0.2l0.2-0.1c0.5,0.2,0.7,0.4,0.8,0.8c0.1-0.1-0.2-0.4,0.3-0.5l0,0.1c0.1-0.2,0.2-0.3,0.3-0.5c0.1,0,0.2,0,0.3,0
		c0.1-0.2,0.1-0.3,0.3-0.4l-0.2-0.2c0.3-0.3,0.6-0.7,0.8-1.1c0.2-0.4,0.3-0.9,0.5-1.3c-0.2-0.2,0.2-0.6,0-1.1L47.8,123.3z
		 M45.9,125.9c-0.1,0-0.1,0-0.2,0c0.1-0.1,0.2-0.2,0.3-0.3C46,125.8,46,125.9,45.9,125.9z"/>
	<path class="st0" d="M48.1,161.6l-0.3,0.2c-0.4,0.4-0.4,1.5-0.9,2.1l-0.1-0.1c0-0.1,0-0.3,0.1-0.4l-0.2-0.2c0,0,0,0,0,0
		c0.2-0.5,0.4-1,0.4-1.6c0-1.5-0.9-2.8-2.1-3.4c0,0,0,0,0,0l0,0c-0.1,0-0.1-0.1-0.2-0.1c0,0,0-0.1,0-0.1c-0.3-0.2-0.5-0.7-0.9-0.9
		c-0.3,0.1-0.6,0.1-1.1-0.1l0,0.1c-1.5,0.3-3.3,1.3-3.9,3.2c-0.3,0.9-0.4,2,0,3c0.3,1,1,1.8,1.9,2.4l-0.4,0.4
		c1.2,0.4,2.5,0.4,3.4-0.1c-0.1,0-0.2,0-0.4-0.1c0.3-0.3,1-0.6,1.5-0.8l0,0.1c-0.6,0.3,0.1,0-0.1,0.5l-0.1,0.1l0.1,0l0.1-0.1
		c0,0.1,0.1,0.2,0,0.2l0.2-0.1c0.5,0.2,0.7,0.4,0.8,0.8c0.1-0.1-0.2-0.4,0.3-0.5l0,0.1c0.1-0.2,0.2-0.3,0.3-0.5c0.1,0,0.2,0,0.3,0
		c0.1-0.2,0.1-0.3,0.3-0.4l-0.2-0.2c0.3-0.3,0.6-0.7,0.8-1.1c0.2-0.4,0.3-0.9,0.5-1.3C47.9,162.5,48.3,162.1,48.1,161.6z
		 M45.9,164.4c-0.1,0-0.1,0-0.2,0c0.1-0.1,0.2-0.2,0.3-0.3C46,164.3,46,164.4,45.9,164.4z"/>
	<path class="st0" d="M9.3,123.3c-0.4,0.4-0.4,1.5-0.9,2.1l-0.1-0.1c0-0.1,0-0.3,0.1-0.4l-0.2-0.2c0,0,0,0,0,0
		c0.2-0.5,0.4-1,0.4-1.6c0-1.5-0.9-2.8-2.1-3.4c0,0,0,0,0,0l0,0c-0.1,0-0.1-0.1-0.2-0.1c0,0,0-0.1,0-0.1c-0.3-0.2-0.5-0.7-0.9-0.9
		c-0.3,0.1-0.6,0.1-1.1-0.1l0,0.1c-1.5,0.3-3.3,1.3-3.9,3.2c-0.3,0.9-0.4,2,0,3c0.3,1,1,1.8,1.9,2.4l-0.4,0.4
		c1.2,0.4,2.5,0.4,3.4-0.1c-0.1,0-0.2,0-0.4-0.1c0.3-0.3,1-0.6,1.5-0.8l0,0.1c-0.6,0.3,0.1,0-0.1,0.5l-0.1,0.1l0.1,0l0.1-0.1
		c0,0.1,0.1,0.2,0,0.2l0.2-0.1c0.5,0.2,0.7,0.4,0.8,0.8c0.1-0.1-0.2-0.4,0.3-0.5l0,0.1c0.1-0.2,0.2-0.3,0.3-0.5c0.1,0,0.2,0,0.3,0
		c0.1-0.2,0.1-0.3,0.3-0.4l-0.2-0.2c0.3-0.3,0.6-0.7,0.8-1.1c0.2-0.4,0.3-0.9,0.5-1.3c-0.2-0.2,0.2-0.6,0-1.1L9.3,123.3z M7.4,125.9
		c-0.1,0-0.1,0-0.2,0c0.1-0.1,0.2-0.2,0.3-0.3C7.5,125.8,7.5,125.9,7.4,125.9z"/>
	<path class="st0" d="M9.6,161.6l-0.3,0.2c-0.4,0.4-0.4,1.5-0.9,2.1l-0.1-0.1c0-0.1,0-0.3,0.1-0.4l-0.2-0.2c0,0,0,0,0,0
		c0.2-0.5,0.4-1,0.4-1.6c0-1.5-0.9-2.8-2.1-3.4c0,0,0,0,0,0l0,0c-0.1,0-0.1-0.1-0.2-0.1c0,0,0-0.1,0-0.1c-0.3-0.2-0.5-0.7-0.9-0.9
		c-0.3,0.1-0.6,0.1-1.1-0.1l0,0.1c-1.5,0.3-3.3,1.3-3.9,3.2c-0.3,0.9-0.4,2,0,3c0.3,1,1,1.8,1.9,2.4L1.8,166
		c1.2,0.4,2.5,0.4,3.4-0.1c-0.1,0-0.2,0-0.4-0.1c0.3-0.3,1-0.6,1.5-0.8l0,0.1c-0.6,0.3,0.1,0-0.1,0.5l-0.1,0.1l0.1,0l0.1-0.1
		c0,0.1,0.1,0.2,0,0.2l0.2-0.1c0.5,0.2,0.7,0.4,0.8,0.8c0.1-0.1-0.2-0.4,0.3-0.5l0,0.1c0.1-0.2,0.2-0.3,0.3-0.5c0.1,0,0.2,0,0.3,0
		c0.1-0.2,0.1-0.3,0.3-0.4l-0.2-0.2c0.3-0.3,0.6-0.7,0.8-1.1c0.2-0.4,0.3-0.9,0.5-1.3C9.4,162.5,9.8,162.1,9.6,161.6z M7.4,164.4
		c-0.1,0-0.1,0-0.2,0c0.1-0.1,0.2-0.2,0.3-0.3C7.5,164.3,7.5,164.4,7.4,164.4z"/>
	<path class="st0" d="M89.6,200.1l-0.3,0.2c-0.4,0.4-0.4,1.5-0.9,2.1l-0.1-0.1c0-0.1,0-0.3,0.1-0.4l-0.2-0.2c0,0,0,0,0,0
		c0.2-0.5,0.4-1,0.4-1.6c0-1.5-0.9-2.8-2.1-3.4c0,0,0,0,0,0l0,0c-0.1,0-0.1-0.1-0.2-0.1c0,0,0-0.1,0-0.1c-0.3-0.2-0.5-0.7-0.9-0.9
		c-0.3,0.1-0.6,0.1-1.1-0.1l0,0.1c-1.5,0.3-3.3,1.3-3.9,3.2c-0.3,0.9-0.4,2,0,3c0.3,1,1,1.8,1.9,2.4l-0.4,0.4
		c1.2,0.4,2.5,0.4,3.4-0.1c-0.1,0-0.2,0-0.4-0.1c0.3-0.3,1-0.6,1.5-0.8l0,0.1c-0.6,0.3,0.1,0-0.1,0.5l-0.1,0.1l0.1,0l0.1-0.1
		c0,0.1,0.1,0.2,0,0.2l0.2-0.1c0.5,0.2,0.7,0.4,0.8,0.8c0.1-0.1-0.2-0.4,0.3-0.5l0,0.1c0.1-0.2,0.2-0.3,0.3-0.5c0.1,0,0.2,0,0.3,0
		c0.1-0.2,0.1-0.3,0.3-0.4l-0.2-0.2c0.3-0.3,0.6-0.7,0.8-1.1c0.2-0.4,0.3-0.9,0.5-1.3C89.4,201,89.8,200.6,89.6,200.1z M87.4,202.9
		c-0.1,0-0.1,0-0.2,0c0.1-0.1,0.2-0.2,0.3-0.3C87.5,202.7,87.5,202.9,87.4,202.9z"/>
</g>
</svg>
