<?xml version="1.0" encoding="utf-8"?>
<!-- Generator: Adobe Illustrator 24.2.1, SVG Export Plug-In . SVG Version: 6.00 Build 0)  -->
<svg version="1.1" id="Layer_1" xmlns="http://www.w3.org/2000/svg" xmlns:xlink="http://www.w3.org/1999/xlink" x="0px" y="0px"
	 viewBox="0 0 243.7 284.6" style="enable-background:new 0 0 243.7 284.6;" xml:space="preserve">
<style type="text/css">
	.st0{fill:#FDD140;}
</style>
<g>
	<path class="st0" d="M89.3,120.1l0.1,0c-0.2-0.1-0.3-0.2-0.5-0.3c0-0.1,0-0.2,0-0.3c-0.2-0.1-0.3-0.1-0.4-0.3l-0.2,0.2
		c-0.3-0.3-0.7-0.6-1.1-0.8c-0.4-0.2-0.9-0.3-1.3-0.5c-0.2,0.2-0.6-0.2-1.1,0l0.2,0.3c0.4,0.4,1.5,0.4,2.1,0.9l-0.1,0.1
		c-0.1,0-0.3,0-0.4-0.1l-0.2,0.2c0,0,0,0,0,0c-0.5-0.2-1-0.4-1.6-0.4c-1.5,0-2.8,0.9-3.4,2.1c0,0,0,0,0,0l0,0c0,0.1-0.1,0.1-0.1,0.2
		c0,0-0.1,0-0.1,0c-0.2,0.3-0.7,0.5-0.9,0.9c0.1,0.3,0.1,0.6-0.1,1.1l0.1,0c0.3,1.5,1.3,3.3,3.2,3.9c0.9,0.3,2,0.4,3,0
		c1-0.3,1.8-1,2.4-1.9l0.4,0.4c0.4-1.2,0.4-2.5-0.1-3.4c0,0.1,0,0.2-0.1,0.4c-0.3-0.3-0.6-1-0.8-1.5l0.1,0c0.3,0.6,0-0.1,0.5,0.1
		l0.1,0.1l0-0.1l-0.1-0.1c0.1,0,0.2-0.1,0.2,0l-0.1-0.2c0.2-0.5,0.4-0.7,0.8-0.8C89.7,120.3,89.4,120.6,89.3,120.1z M87.1,120.1
		c0.2,0,0.3,0.1,0.3,0.1c0,0.1,0,0.1,0,0.2C87.4,120.3,87.2,120.2,87.1,120.1z"/>
	<path class="st0" d="M127.8,120.1l0.1,0c-0.2-0.1-0.3-0.2-0.5-0.3c0-0.1,0-0.2,0-0.3c-0.2-0.1-0.3-0.1-0.4-0.3l-0.2,0.2
		c-0.3-0.3-0.7-0.6-1.1-0.8c-0.4-0.2-0.9-0.3-1.3-0.5c-0.2,0.2-0.6-0.2-1.1,0l0.2,0.3c0.4,0.4,1.5,0.4,2.1,0.9l-0.1,0.1
		c-0.1,0-0.3,0-0.4-0.1l-0.2,0.2c0,0,0,0,0,0c-0.5-0.2-1-0.4-1.6-0.4c-1.5,0-2.8,0.9-3.4,2.1c0,0,0,0,0,0l0,0c0,0.1-0.1,0.1-0.1,0.2
		c0,0-0.1,0-0.1,0c-0.2,0.3-0.7,0.5-0.9,0.9c0.1,0.3,0.1,0.6-0.1,1.1l0.1,0c0.3,1.5,1.3,3.3,3.2,3.9c0.9,0.3,2,0.4,3,0
		c1-0.3,1.8-1,2.4-1.9l0.4,0.4c0.4-1.2,0.4-2.5-0.1-3.4c0,0.1,0,0.2-0.1,0.4c-0.3-0.3-0.6-1-0.8-1.5l0.1,0c0.3,0.6,0-0.1,0.5,0.1
		l0.1,0.1l0-0.1l-0.1-0.1c0.1,0,0.2-0.1,0.2,0l-0.1-0.2c0.2-0.5,0.4-0.7,0.8-0.8C128.2,120.3,127.9,120.6,127.8,120.1z M125.6,120.1
		c0.2,0,0.3,0.1,0.3,0.1c0,0.1,0,0.1,0,0.2C125.8,120.3,125.7,120.2,125.6,120.1z"/>
	<path class="st0" d="M166.2,120.1l0.1,0c-0.2-0.1-0.3-0.2-0.5-0.3c0-0.1,0-0.2,0-0.3c-0.2-0.1-0.3-0.1-0.4-0.3l-0.2,0.2
		c-0.3-0.3-0.7-0.6-1.1-0.8c-0.4-0.2-0.9-0.3-1.3-0.5c-0.2,0.2-0.6-0.2-1.1,0l0.2,0.3c0.4,0.4,1.5,0.4,2.1,0.9l-0.1,0.1
		c-0.1,0-0.3,0-0.4-0.1l-0.2,0.2c0,0,0,0,0,0c-0.5-0.2-1-0.4-1.6-0.4c-1.5,0-2.8,0.9-3.4,2.1c0,0,0,0,0,0l0,0c0,0.1-0.1,0.1-0.1,0.2
		c0,0-0.1,0-0.1,0c-0.2,0.3-0.7,0.5-0.9,0.9c0.1,0.3,0.1,0.6-0.1,1.1l0.1,0c0.3,1.5,1.3,3.3,3.2,3.9c0.9,0.3,2,0.4,3,0
		c1-0.3,1.8-1,2.4-1.9l0.4,0.4c0.4-1.2,0.4-2.5-0.1-3.4c0,0.1,0,0.2-0.1,0.4c-0.3-0.3-0.6-1-0.8-1.5l0.1,0c0.3,0.6,0-0.1,0.5,0.1
		l0.1,0.1l0-0.1l-0.1-0.1c0.1,0,0.2-0.1,0.2,0l-0.1-0.2c0.2-0.5,0.4-0.7,0.8-0.8C166.7,120.3,166.4,120.6,166.2,120.1z M164.1,120.1
		c0.2,0,0.3,0.1,0.3,0.1c0,0.1,0,0.1,0,0.2C164.3,120.3,164.2,120.2,164.1,120.1z"/>
	<path class="st0" d="M166.2,79.3l0.1,0c-0.2-0.1-0.3-0.2-0.5-0.3c0-0.1,0-0.2,0-0.3c-0.2-0.1-0.3-0.1-0.4-0.3l-0.2,0.2
		c-0.3-0.3-0.7-0.6-1.1-0.8c-0.4-0.2-0.9-0.3-1.3-0.5c-0.2,0.2-0.6-0.2-1.1,0l0.2,0.3c0.4,0.4,1.5,0.4,2.1,0.9l-0.1,0.1
		c-0.1,0-0.3,0-0.4-0.1l-0.2,0.2c0,0,0,0,0,0c-0.5-0.2-1-0.4-1.6-0.4c-1.5,0-2.8,0.9-3.4,2.1c0,0,0,0,0,0l0,0c0,0.1-0.1,0.1-0.1,0.2
		c0,0-0.1,0-0.1,0c-0.2,0.3-0.7,0.5-0.9,0.9c0.1,0.3,0.1,0.6-0.1,1.1l0.1,0c0.3,1.5,1.3,3.3,3.2,3.9c0.9,0.3,2,0.4,3,0
		c1-0.3,1.8-1,2.4-1.9l0.4,0.4c0.4-1.2,0.4-2.5-0.1-3.4c0,0.1,0,0.2-0.1,0.4c-0.3-0.3-0.6-1-0.8-1.5l0.1,0c0.3,0.6,0-0.1,0.5,0.1
		l0.1,0.1l0-0.1l-0.1-0.1c0.1,0,0.2-0.1,0.2,0l-0.1-0.2c0.2-0.5,0.4-0.7,0.8-0.8C166.7,79.5,166.4,79.8,166.2,79.3z M164.1,79.3
		c0.2,0,0.3,0.1,0.3,0.1c0,0.1,0,0.1,0,0.2C164.3,79.5,164.2,79.4,164.1,79.3z"/>
	<path class="st0" d="M89.8,158.9c-0.1-0.1-0.4,0.2-0.5-0.3l0.1,0c-0.2-0.1-0.3-0.2-0.5-0.3c0-0.1,0-0.2,0-0.3
		c-0.2-0.1-0.3-0.1-0.4-0.3l-0.2,0.2c-0.3-0.3-0.7-0.6-1.1-0.8c-0.4-0.2-0.9-0.3-1.3-0.5c-0.2,0.2-0.6-0.2-1.1,0l0.2,0.3
		c0.4,0.4,1.5,0.4,2.1,0.9l-0.1,0.1c-0.1,0-0.3,0-0.4-0.1l-0.2,0.2c0,0,0,0,0,0c-0.5-0.2-1-0.4-1.6-0.4c-1.5,0-2.8,0.9-3.4,2.1
		c0,0,0,0,0,0l0,0c0,0.1-0.1,0.1-0.1,0.2c0,0-0.1,0-0.1,0c-0.2,0.3-0.7,0.5-0.9,0.9c0.1,0.3,0.1,0.6-0.1,1.1l0.1,0
		c0.3,1.5,1.3,3.3,3.2,3.9c0.9,0.3,2,0.4,3,0c1-0.3,1.8-1,2.4-1.9l0.4,0.4c0.4-1.2,0.4-2.5-0.1-3.4c0,0.1,0,0.2-0.1,0.4
		c-0.3-0.3-0.6-1-0.8-1.5l0.1,0c0.3,0.6,0-0.1,0.5,0.1l0.1,0.1l0-0.1l-0.1-0.1c0.1,0,0.2-0.1,0.2,0l-0.1-0.2
		C89.2,159.2,89.4,159,89.8,158.9z M87.1,158.6c0.2,0,0.3,0.1,0.3,0.1c0,0.1,0,0.1,0,0.2C87.4,158.8,87.2,158.7,87.1,158.6z"/>
	<path class="st0" d="M127.8,158.6l0.1,0c-0.2-0.1-0.3-0.2-0.5-0.3c0-0.1,0-0.2,0-0.3c-0.2-0.1-0.3-0.1-0.4-0.3l-0.2,0.2
		c-0.3-0.3-0.7-0.6-1.1-0.8c-0.4-0.2-0.9-0.3-1.3-0.5c-0.2,0.2-0.6-0.2-1.1,0l0.2,0.3c0.4,0.4,1.5,0.4,2.1,0.9l-0.1,0.1
		c-0.1,0-0.3,0-0.4-0.1l-0.2,0.2c0,0,0,0,0,0c-0.5-0.2-1-0.4-1.6-0.4c-1.5,0-2.8,0.9-3.4,2.1c0,0,0,0,0,0l0,0c0,0.1-0.1,0.1-0.1,0.2
		c0,0-0.1,0-0.1,0c-0.2,0.3-0.7,0.5-0.9,0.9c0.1,0.3,0.1,0.6-0.1,1.1l0.1,0c0.3,1.5,1.3,3.3,3.2,3.9c0.9,0.3,2,0.4,3,0
		c1-0.3,1.8-1,2.4-1.9l0.4,0.4c0.4-1.2,0.4-2.5-0.1-3.4c0,0.1,0,0.2-0.1,0.4c-0.3-0.3-0.6-1-0.8-1.5l0.1,0c0.3,0.6,0-0.1,0.5,0.1
		l0.1,0.1l0-0.1l-0.1-0.1c0.1,0,0.2-0.1,0.2,0l-0.1-0.2c0.2-0.5,0.4-0.7,0.8-0.8C128.2,158.8,127.9,159.1,127.8,158.6z M125.6,158.6
		c0.2,0,0.3,0.1,0.3,0.1c0,0.1,0,0.1,0,0.2C125.8,158.8,125.7,158.7,125.6,158.6z"/>
	<path class="st0" d="M166.2,158.6l0.1,0c-0.2-0.1-0.3-0.2-0.5-0.3c0-0.1,0-0.2,0-0.3c-0.2-0.1-0.3-0.1-0.4-0.3l-0.2,0.2
		c-0.3-0.3-0.7-0.6-1.1-0.8c-0.4-0.2-0.9-0.3-1.3-0.5c-0.2,0.2-0.6-0.2-1.1,0l0.2,0.3c0.4,0.4,1.5,0.4,2.1,0.9l-0.1,0.1
		c-0.1,0-0.3,0-0.4-0.1l-0.2,0.2c0,0,0,0,0,0c-0.5-0.2-1-0.4-1.6-0.4c-1.5,0-2.8,0.9-3.4,2.1c0,0,0,0,0,0l0,0c0,0.1-0.1,0.1-0.1,0.2
		c0,0-0.1,0-0.1,0c-0.2,0.3-0.7,0.5-0.9,0.9c0.1,0.3,0.1,0.6-0.1,1.1l0.1,0c0.3,1.5,1.3,3.3,3.2,3.9c0.9,0.3,2,0.4,3,0
		c1-0.3,1.8-1,2.4-1.9l0.4,0.4c0.4-1.2,0.4-2.5-0.1-3.4c0,0.1,0,0.2-0.1,0.4c-0.3-0.3-0.6-1-0.8-1.5l0.1,0c0.3,0.6,0-0.1,0.5,0.1
		l0.1,0.1l0-0.1l-0.1-0.1c0.1,0,0.2-0.1,0.2,0l-0.1-0.2c0.2-0.5,0.4-0.7,0.8-0.8C166.7,158.8,166.4,159.1,166.2,158.6z M164.1,158.6
		c0.2,0,0.3,0.1,0.3,0.1c0,0.1,0,0.1,0,0.2C164.3,158.8,164.2,158.7,164.1,158.6z"/>
	<path class="st0" d="M204.7,158.6l0.1,0c-0.2-0.1-0.3-0.2-0.5-0.3c0-0.1,0-0.2,0-0.3c-0.2-0.1-0.3-0.1-0.4-0.3l-0.2,0.2
		c-0.3-0.3-0.7-0.6-1.1-0.8c-0.4-0.2-0.9-0.3-1.3-0.5c-0.2,0.2-0.6-0.2-1.1,0l0.2,0.3c0.4,0.4,1.5,0.4,2.1,0.9l-0.1,0.1
		c-0.1,0-0.3,0-0.4-0.1l-0.2,0.2c0,0,0,0,0,0c-0.5-0.2-1-0.4-1.6-0.4c-1.5,0-2.8,0.9-3.4,2.1c0,0,0,0,0,0l0,0c0,0.1-0.1,0.1-0.1,0.2
		c0,0-0.1,0-0.1,0c-0.2,0.3-0.7,0.5-0.9,0.9c0.1,0.3,0.1,0.6-0.1,1.1l0.1,0c0.3,1.5,1.3,3.3,3.2,3.9c0.9,0.3,2,0.4,3,0
		c1-0.3,1.8-1,2.4-1.9l0.4,0.4c0.4-1.2,0.4-2.5-0.1-3.4c0,0.1,0,0.2-0.1,0.4c-0.3-0.3-0.6-1-0.8-1.5l0.1,0c0.3,0.6,0-0.1,0.5,0.1
		l0.1,0.1l0-0.1l-0.1-0.1c0.1,0,0.2-0.1,0.2,0l-0.1-0.2c0.2-0.5,0.4-0.7,0.8-0.8C205.1,158.8,204.9,159.1,204.7,158.6z M202.6,158.6
		c0.2,0,0.3,0.1,0.3,0.1c0,0.1,0,0.1,0,0.2C202.8,158.8,202.7,158.7,202.6,158.6z"/>
	<path class="st0" d="M242.9,161.3c-0.3-0.3-0.6-1-0.8-1.5l0.1,0c0.3,0.6,0-0.1,0.5,0.1l0.1,0.1l0-0.1l-0.1-0.1c0.1,0,0.2-0.1,0.2,0
		l-0.1-0.2c0.2-0.5,0.4-0.7,0.8-0.8c-0.1-0.1-0.4,0.2-0.5-0.3l0.1,0c-0.2-0.1-0.3-0.2-0.5-0.3c0-0.1,0-0.2,0-0.3
		c-0.2-0.1-0.3-0.1-0.4-0.3l-0.2,0.2c-0.3-0.3-0.7-0.6-1.1-0.8c-0.4-0.2-0.9-0.3-1.3-0.5c-0.2,0.2-0.6-0.2-1.1,0l0.2,0.3
		c0.4,0.4,1.5,0.4,2.1,0.9l-0.1,0.1c-0.1,0-0.3,0-0.4-0.1l-0.2,0.2c0,0,0,0,0,0c-0.5-0.2-1-0.4-1.6-0.4c-1.5,0-2.8,0.9-3.4,2.1
		c0,0,0,0,0,0l0,0c0,0.1-0.1,0.1-0.1,0.2c0,0-0.1,0-0.1,0c-0.2,0.3-0.7,0.5-0.9,0.9c0.1,0.3,0.1,0.6-0.1,1.1l0.1,0
		c0.3,1.5,1.3,3.3,3.2,3.9c0.9,0.3,2,0.4,3,0c1-0.3,1.8-1,2.4-1.9l0.4,0.4c0.4-1.2,0.4-2.5-0.1-3.4
		C242.9,161.1,242.9,161.2,242.9,161.3z M241.1,158.6c0.2,0,0.3,0.1,0.3,0.1c0,0.1,0,0.1,0,0.2C241.3,158.8,241.2,158.7,241.1,158.6
		z"/>
	<path class="st0" d="M127.8,197.1l0.1,0c-0.2-0.1-0.3-0.2-0.5-0.3c0-0.1,0-0.2,0-0.3c-0.2-0.1-0.3-0.1-0.4-0.3l-0.2,0.2
		c-0.3-0.3-0.7-0.6-1.1-0.8c-0.4-0.2-0.9-0.3-1.3-0.5c-0.2,0.2-0.6-0.2-1.1,0l0.2,0.3c0.4,0.4,1.5,0.4,2.1,0.9l-0.1,0.1
		c-0.1,0-0.3,0-0.4-0.1l-0.2,0.2c0,0,0,0,0,0c-0.5-0.2-1-0.4-1.6-0.4c-1.5,0-2.8,0.9-3.4,2.1c0,0,0,0,0,0l0,0c0,0.1-0.1,0.1-0.1,0.2
		c0,0-0.1,0-0.1,0c-0.2,0.3-0.7,0.5-0.9,0.9c0.1,0.3,0.1,0.6-0.1,1.1l0.1,0c0.3,1.5,1.3,3.3,3.2,3.9c0.9,0.3,2,0.4,3,0
		c1-0.3,1.8-1,2.4-1.9l0.4,0.4c0.4-1.2,0.4-2.5-0.1-3.4c0,0.1,0,0.2-0.1,0.4c-0.3-0.3-0.6-1-0.8-1.5l0.1,0c0.3,0.6,0-0.1,0.5,0.1
		l0.1,0.1l0-0.1l-0.1-0.1c0.1,0,0.2-0.1,0.2,0l-0.1-0.2c0.2-0.5,0.4-0.7,0.8-0.8C128.2,197.3,127.9,197.6,127.8,197.1z M125.6,197.1
		c0.2,0,0.3,0.1,0.3,0.1c0,0.1,0,0.1,0,0.2C125.8,197.3,125.7,197.2,125.6,197.1z"/>
	<path class="st0" d="M47.8,120.1l0.1,0c-0.2-0.1-0.3-0.2-0.5-0.3c0-0.1,0-0.2,0-0.3c-0.2-0.1-0.3-0.1-0.4-0.3l-0.2,0.2
		c-0.3-0.3-0.7-0.6-1.1-0.8c-0.4-0.2-0.9-0.3-1.3-0.5c-0.2,0.2-0.6-0.2-1.1,0l0.2,0.3c0.4,0.4,1.5,0.4,2.1,0.9l-0.1,0.1
		c-0.1,0-0.3,0-0.4-0.1l-0.2,0.2c0,0,0,0,0,0c-0.5-0.2-1-0.4-1.6-0.4c-1.5,0-2.8,0.9-3.4,2.1c0,0,0,0,0,0l0,0c0,0.1-0.1,0.1-0.1,0.2
		c0,0-0.1,0-0.1,0c-0.2,0.3-0.7,0.5-0.9,0.9c0.1,0.3,0.1,0.6-0.1,1.1l0.1,0c0.3,1.5,1.3,3.3,3.2,3.9c0.9,0.3,2,0.4,3,0
		c1-0.3,1.8-1,2.4-1.9l0.4,0.4c0.4-1.2,0.4-2.5-0.1-3.4c0,0.1,0,0.2-0.1,0.4c-0.3-0.3-0.6-1-0.8-1.5l0.1,0c0.3,0.6,0-0.1,0.5,0.1
		l0.1,0.1l0-0.1l-0.1-0.1c0.1,0,0.2-0.1,0.2,0l-0.1-0.2c0.2-0.5,0.4-0.7,0.8-0.8C48.2,120.3,47.9,120.6,47.8,120.1z M45.6,120.1
		c0.2,0,0.3,0.1,0.3,0.1c0,0.1,0,0.1,0,0.2C45.8,120.3,45.7,120.2,45.6,120.1z"/>
	<path class="st0" d="M9.8,158.9c-0.1-0.1-0.4,0.2-0.5-0.3l0.1,0c-0.2-0.1-0.3-0.2-0.5-0.3c0-0.1,0-0.2,0-0.3
		c-0.2-0.1-0.3-0.1-0.4-0.3l-0.2,0.2c-0.3-0.3-0.7-0.6-1.1-0.8c-0.4-0.2-0.9-0.3-1.3-0.5c-0.2,0.2-0.6-0.2-1.1,0l0.2,0.3
		c0.4,0.4,1.5,0.4,2.1,0.9l-0.1,0.1c-0.1,0-0.3,0-0.4-0.1L6.3,158c0,0,0,0,0,0c-0.5-0.2-1-0.4-1.6-0.4c-1.5,0-2.8,0.9-3.4,2.1
		c0,0,0,0,0,0l0,0c0,0.1-0.1,0.1-0.1,0.2c0,0-0.1,0-0.1,0c-0.2,0.3-0.7,0.5-0.9,0.9c0.1,0.3,0.1,0.6-0.1,1.1l0.1,0
		c0.3,1.5,1.3,3.3,3.2,3.9c0.9,0.3,2,0.4,3,0c1-0.3,1.8-1,2.4-1.9l0.4,0.4c0.4-1.2,0.4-2.5-0.1-3.4c0,0.1,0,0.2-0.1,0.4
		c-0.3-0.3-0.6-1-0.8-1.5l0.1,0c0.3,0.6,0-0.1,0.5,0.1l0.1,0.1l0-0.1l-0.1-0.1c0.1,0,0.2-0.1,0.2,0L9,159.7
		C9.2,159.2,9.4,159,9.8,158.9z M7.1,158.6c0.2,0,0.3,0.1,0.3,0.1c0,0.1,0,0.1,0,0.2C7.4,158.8,7.2,158.7,7.1,158.6z"/>
	<path class="st0" d="M47.8,158.6l0.1,0c-0.2-0.1-0.3-0.2-0.5-0.3c0-0.1,0-0.2,0-0.3c-0.2-0.1-0.3-0.1-0.4-0.3l-0.2,0.2
		c-0.3-0.3-0.7-0.6-1.1-0.8c-0.4-0.2-0.9-0.3-1.3-0.5c-0.2,0.2-0.6-0.2-1.1,0l0.2,0.3c0.4,0.4,1.5,0.4,2.1,0.9l-0.1,0.1
		c-0.1,0-0.3,0-0.4-0.1l-0.2,0.2c0,0,0,0,0,0c-0.5-0.2-1-0.4-1.6-0.4c-1.5,0-2.8,0.9-3.4,2.1c0,0,0,0,0,0l0,0c0,0.1-0.1,0.1-0.1,0.2
		c0,0-0.1,0-0.1,0c-0.2,0.3-0.7,0.5-0.9,0.9c0.1,0.3,0.1,0.6-0.1,1.1l0.1,0c0.3,1.5,1.3,3.3,3.2,3.9c0.9,0.3,2,0.4,3,0
		c1-0.3,1.8-1,2.4-1.9l0.4,0.4c0.4-1.2,0.4-2.5-0.1-3.4c0,0.1,0,0.2-0.1,0.4c-0.3-0.3-0.6-1-0.8-1.5l0.1,0c0.3,0.6,0-0.1,0.5,0.1
		l0.1,0.1l0-0.1l-0.1-0.1c0.1,0,0.2-0.1,0.2,0l-0.1-0.2c0.2-0.5,0.4-0.7,0.8-0.8C48.2,158.8,47.9,159.1,47.8,158.6z M45.6,158.6
		c0.2,0,0.3,0.1,0.3,0.1c0,0.1,0,0.1,0,0.2C45.8,158.8,45.7,158.7,45.6,158.6z"/>
	<path class="st0" d="M166.2,197.1l0.1,0c-0.2-0.1-0.3-0.2-0.5-0.3c0-0.1,0-0.2,0-0.3c-0.2-0.1-0.3-0.1-0.4-0.3l-0.2,0.2
		c-0.3-0.3-0.7-0.6-1.1-0.8c-0.4-0.2-0.9-0.3-1.3-0.5c-0.2,0.2-0.6-0.2-1.1,0l0.2,0.3c0.4,0.4,1.5,0.4,2.1,0.9l-0.1,0.1
		c-0.1,0-0.3,0-0.4-0.1l-0.2,0.2c0,0,0,0,0,0c-0.5-0.2-1-0.4-1.6-0.4c-1.5,0-2.8,0.9-3.4,2.1c0,0,0,0,0,0l0,0c0,0.1-0.1,0.1-0.1,0.2
		c0,0-0.1,0-0.1,0c-0.2,0.3-0.7,0.5-0.9,0.9c0.1,0.3,0.1,0.6-0.1,1.1l0.1,0c0.3,1.5,1.3,3.3,3.2,3.9c0.9,0.3,2,0.4,3,0
		c1-0.3,1.8-1,2.4-1.9l0.4,0.4c0.4-1.2,0.4-2.5-0.1-3.4c0,0.1,0,0.2-0.1,0.4c-0.3-0.3-0.6-1-0.8-1.5l0.1,0c0.3,0.6,0-0.1,0.5,0.1
		l0.1,0.1l0-0.1l-0.1-0.1c0.1,0,0.2-0.1,0.2,0l-0.1-0.2c0.2-0.5,0.4-0.7,0.8-0.8C166.7,197.3,166.4,197.6,166.2,197.1z M164.1,197.1
		c0.2,0,0.3,0.1,0.3,0.1c0,0.1,0,0.1,0,0.2C164.3,197.3,164.2,197.2,164.1,197.1z"/>
	<path class="st0" d="M127.8,238.6l0.1,0c-0.2-0.1-0.3-0.2-0.5-0.3c0-0.1,0-0.2,0-0.3c-0.2-0.1-0.3-0.1-0.4-0.3l-0.2,0.2
		c-0.3-0.3-0.7-0.6-1.1-0.8c-0.4-0.2-0.9-0.3-1.3-0.5c-0.2,0.2-0.6-0.2-1.1,0l0.2,0.3c0.4,0.4,1.5,0.4,2.1,0.9l-0.1,0.1
		c-0.1,0-0.3,0-0.4-0.1l-0.2,0.2c0,0,0,0,0,0c-0.5-0.2-1-0.4-1.6-0.4c-1.5,0-2.8,0.9-3.4,2.1c0,0,0,0,0,0l0,0c0,0.1-0.1,0.1-0.1,0.2
		c0,0-0.1,0-0.1,0c-0.2,0.3-0.7,0.5-0.9,0.9c0.1,0.3,0.1,0.6-0.1,1.1l0.1,0c0.3,1.5,1.3,3.3,3.2,3.9c0.9,0.3,2,0.4,3,0
		c1-0.3,1.8-1,2.4-1.9l0.4,0.4c0.4-1.2,0.4-2.5-0.1-3.4c0,0.1,0,0.2-0.1,0.4c-0.3-0.3-0.6-1-0.8-1.5l0.1,0c0.3,0.6,0-0.1,0.5,0.1
		l0.1,0.1l0-0.1l-0.1-0.1c0.1,0,0.2-0.1,0.2,0l-0.1-0.2c0.2-0.5,0.4-0.7,0.8-0.8C128.2,238.8,127.9,239.1,127.8,238.6z M125.6,238.6
		c0.2,0,0.3,0.1,0.3,0.1c0,0.1,0,0.1,0,0.2C125.8,238.8,125.7,238.7,125.6,238.6z"/>
	<path class="st0" d="M166.8,238.9c-0.1-0.1-0.4,0.2-0.5-0.3l0.1,0c-0.2-0.1-0.3-0.2-0.5-0.3c0-0.1,0-0.2,0-0.3
		c-0.2-0.1-0.3-0.1-0.4-0.3l-0.2,0.2c-0.3-0.3-0.7-0.6-1.1-0.8c-0.4-0.2-0.9-0.3-1.3-0.5c-0.2,0.2-0.6-0.2-1.1,0l0.2,0.3
		c0.4,0.4,1.5,0.4,2.1,0.9l-0.1,0.1c-0.1,0-0.3,0-0.4-0.1l-0.2,0.2c0,0,0,0,0,0c-0.5-0.2-1-0.4-1.6-0.4c-1.5,0-2.8,0.9-3.4,2.1
		c0,0,0,0,0,0l0,0c0,0.1-0.1,0.1-0.1,0.2c0,0-0.1,0-0.1,0c-0.2,0.3-0.7,0.5-0.9,0.9c0.1,0.3,0.1,0.6-0.1,1.1l0.1,0
		c0.3,1.5,1.3,3.3,3.2,3.9c0.9,0.3,2,0.4,3,0c1-0.3,1.8-1,2.4-1.9l0.4,0.4c0.4-1.2,0.4-2.5-0.1-3.4c0,0.1,0,0.2-0.1,0.4
		c-0.3-0.3-0.6-1-0.8-1.5l0.1,0c0.3,0.6,0-0.1,0.5,0.1l0.1,0.1l0-0.1l-0.1-0.1c0.1,0,0.2-0.1,0.2,0l-0.1-0.2
		C166.1,239.2,166.4,239,166.8,238.9z M164.1,238.6c0.2,0,0.3,0.1,0.3,0.1c0,0.1,0,0.1,0,0.2C164.3,238.8,164.2,238.7,164.1,238.6z"
		/>
	<path class="st0" d="M86.2,197.1l0.1,0c-0.2-0.1-0.3-0.2-0.5-0.3c0-0.1,0-0.2,0-0.3c-0.2-0.1-0.3-0.1-0.4-0.3l-0.2,0.2
		c-0.3-0.3-0.7-0.6-1.1-0.8c-0.4-0.2-0.9-0.3-1.3-0.5c-0.2,0.2-0.6-0.2-1.1,0l0.2,0.3c0.4,0.4,1.5,0.4,2.1,0.9l-0.1,0.1
		c-0.1,0-0.3,0-0.4-0.1l-0.2,0.2c0,0,0,0,0,0c-0.5-0.2-1-0.4-1.6-0.4c-1.5,0-2.8,0.9-3.4,2.1c0,0,0,0,0,0l0,0c0,0.1-0.1,0.1-0.1,0.2
		c0,0-0.1,0-0.1,0c-0.2,0.3-0.7,0.5-0.9,0.9c0.1,0.3,0.1,0.6-0.1,1.1l0.1,0c0.3,1.5,1.3,3.3,3.2,3.9c0.9,0.3,2,0.4,3,0
		c1-0.3,1.8-1,2.4-1.9l0.4,0.4c0.4-1.2,0.4-2.5-0.1-3.4c0,0.1,0,0.2-0.1,0.4c-0.3-0.3-0.6-1-0.8-1.5l0.1,0c0.3,0.6,0-0.1,0.5,0.1
		l0.1,0.1l0-0.1l-0.1-0.1c0.1,0,0.2-0.1,0.2,0l-0.1-0.2c0.2-0.5,0.4-0.7,0.8-0.8C86.7,197.3,86.4,197.6,86.2,197.1z M84.1,197.1
		c0.2,0,0.3,0.1,0.3,0.1c0,0.1,0,0.1,0,0.2C84.3,197.3,84.2,197.2,84.1,197.1z"/>
	<path class="st0" d="M129.8,2.1l0.1,0c-0.2-0.1-0.3-0.2-0.5-0.3c0-0.1,0-0.2,0-0.3c-0.2-0.1-0.3-0.1-0.4-0.3l-0.2,0.2
		c-0.3-0.3-0.7-0.6-1.1-0.8c-0.4-0.2-0.9-0.3-1.3-0.5c-0.2,0.2-0.6-0.2-1.1,0l0.2,0.3c0.4,0.4,1.5,0.4,2.1,0.9l-0.1,0.1
		c-0.1,0-0.3,0-0.4-0.1l-0.2,0.2c0,0,0,0,0,0c-0.5-0.2-1-0.4-1.6-0.4c-1.5,0-2.8,0.9-3.4,2.1c0,0,0,0,0,0l0,0c0,0.1-0.1,0.1-0.1,0.2
		c0,0-0.1,0-0.1,0c-0.2,0.3-0.7,0.5-0.9,0.9c0.1,0.3,0.1,0.6-0.1,1.1l0.1,0c0.3,1.5,1.3,3.3,3.2,3.9c0.9,0.3,2,0.4,3,0
		c1-0.3,1.8-1,2.4-1.9l0.4,0.4c0.4-1.2,0.4-2.5-0.1-3.4c0,0.1,0,0.2-0.1,0.4c-0.3-0.3-0.6-1-0.8-1.5l0.1,0c0.3,0.6,0-0.1,0.5,0.1
		l0.1,0.1l0-0.1l-0.1-0.1c0.1,0,0.2-0.1,0.2,0l-0.1-0.2c0.2-0.5,0.4-0.7,0.8-0.8C130.2,2.3,129.9,2.6,129.8,2.1z M127.6,2.1
		c0.2,0,0.3,0.1,0.3,0.1c0,0.1,0,0.1,0,0.2C127.8,2.3,127.7,2.2,127.6,2.1z"/>
	<path class="st0" d="M91.8,40.9c-0.1-0.1-0.4,0.2-0.5-0.3l0.1,0c-0.2-0.1-0.3-0.2-0.5-0.3c0-0.1,0-0.2,0-0.3
		c-0.2-0.1-0.3-0.1-0.4-0.3l-0.2,0.2c-0.3-0.3-0.7-0.6-1.1-0.8c-0.4-0.2-0.9-0.3-1.3-0.5c-0.2,0.2-0.6-0.2-1.1,0l0.2,0.3
		c0.4,0.4,1.5,0.4,2.1,0.9l-0.1,0.1c-0.1,0-0.3,0-0.4-0.1L88.3,40c0,0,0,0,0,0c-0.5-0.2-1-0.4-1.6-0.4c-1.5,0-2.8,0.9-3.4,2.1
		c0,0,0,0,0,0l0,0c0,0.1-0.1,0.1-0.1,0.2c0,0-0.1,0-0.1,0c-0.2,0.3-0.7,0.5-0.9,0.9c0.1,0.3,0.1,0.6-0.1,1.1l0.1,0
		c0.3,1.5,1.3,3.3,3.2,3.9c0.9,0.3,2,0.4,3,0c1-0.3,1.8-1,2.4-1.9l0.4,0.4c0.4-1.2,0.4-2.5-0.1-3.4c0,0.1,0,0.2-0.1,0.4
		c-0.3-0.3-0.6-1-0.8-1.5l0.1,0c0.3,0.6,0-0.1,0.5,0.1l0.1,0.1l0-0.1l-0.1-0.1c0.1,0,0.2-0.1,0.2,0L91,41.7
		C91.2,41.2,91.4,41,91.8,40.9z M89.1,40.6c0.2,0,0.3,0.1,0.3,0.1c0,0.1,0,0.1,0,0.2C89.4,40.8,89.2,40.7,89.1,40.6z"/>
	<path class="st0" d="M129.8,40.6l0.1,0c-0.2-0.1-0.3-0.2-0.5-0.3c0-0.1,0-0.2,0-0.3c-0.2-0.1-0.3-0.1-0.4-0.3l-0.2,0.2
		c-0.3-0.3-0.7-0.6-1.1-0.8c-0.4-0.2-0.9-0.3-1.3-0.5c-0.2,0.2-0.6-0.2-1.1,0l0.2,0.3c0.4,0.4,1.5,0.4,2.1,0.9l-0.1,0.1
		c-0.1,0-0.3,0-0.4-0.1l-0.2,0.2c0,0,0,0,0,0c-0.5-0.2-1-0.4-1.6-0.4c-1.5,0-2.8,0.9-3.4,2.1c0,0,0,0,0,0l0,0c0,0.1-0.1,0.1-0.1,0.2
		c0,0-0.1,0-0.1,0c-0.2,0.3-0.7,0.5-0.9,0.9c0.1,0.3,0.1,0.6-0.1,1.1l0.1,0c0.3,1.5,1.3,3.3,3.2,3.9c0.9,0.3,2,0.4,3,0
		c1-0.3,1.8-1,2.4-1.9l0.4,0.4c0.4-1.2,0.4-2.5-0.1-3.4c0,0.1,0,0.2-0.1,0.4c-0.3-0.3-0.6-1-0.8-1.5l0.1,0c0.3,0.6,0-0.1,0.5,0.1
		l0.1,0.1l0-0.1l-0.1-0.1c0.1,0,0.2-0.1,0.2,0l-0.1-0.2c0.2-0.5,0.4-0.7,0.8-0.8C130.2,40.8,129.9,41.1,129.8,40.6z M127.6,40.6
		c0.2,0,0.3,0.1,0.3,0.1c0,0.1,0,0.1,0,0.2C127.8,40.8,127.7,40.7,127.6,40.6z"/>
	<path class="st0" d="M130.3,79.4c-0.1-0.1-0.4,0.2-0.5-0.3l0.1,0c-0.2-0.1-0.3-0.2-0.5-0.3c0-0.1,0-0.2,0-0.3
		c-0.2-0.1-0.3-0.1-0.4-0.3l-0.2,0.2c-0.3-0.3-0.7-0.6-1.1-0.8c-0.4-0.2-0.9-0.3-1.3-0.5c-0.2,0.2-0.6-0.2-1.1,0l0.2,0.3
		c0.4,0.4,1.5,0.4,2.1,0.9l-0.1,0.1c-0.1,0-0.3,0-0.4-0.1l-0.2,0.2c0,0,0,0,0,0c-0.5-0.2-1-0.4-1.6-0.4c-1.5,0-2.8,0.9-3.4,2.1
		c0,0,0,0,0,0l0,0c0,0.1-0.1,0.1-0.1,0.2c0,0-0.1,0-0.1,0c-0.2,0.3-0.7,0.5-0.9,0.9c0.1,0.3,0.1,0.6-0.1,1.1l0.1,0
		c0.3,1.5,1.3,3.3,3.2,3.9c0.9,0.3,2,0.4,3,0c1-0.3,1.8-1,2.4-1.9l0.4,0.4c0.4-1.2,0.4-2.5-0.1-3.4c0,0.1,0,0.2-0.1,0.4
		c-0.3-0.3-0.6-1-0.8-1.5l0.1,0c0.3,0.6,0-0.1,0.5,0.1l0.1,0.1l0-0.1l-0.1-0.1c0.1,0,0.2-0.1,0.2,0l-0.1-0.2
		C129.6,79.7,129.9,79.5,130.3,79.4z M127.6,79.1c0.2,0,0.3,0.1,0.3,0.1c0,0.1,0,0.1,0,0.2C127.8,79.3,127.7,79.2,127.6,79.1z"/>
	<path class="st0" d="M79.1,82.4c0.3,1.5,1.3,3.3,3.2,3.9c0.9,0.3,2,0.4,3,0c1-0.3,1.8-1,2.4-1.9l0.4,0.4c0.4-1.2,0.4-2.5-0.1-3.4
		c0,0.1,0,0.2-0.1,0.4c-0.3-0.3-0.6-1-0.8-1.5l0.1,0c0.3,0.6,0-0.1,0.5,0.1l0.1,0.1l0-0.1l-0.1-0.1c0.1,0,0.2-0.1,0.2,0L88,80.2
		c0.2-0.5,0.4-0.7,0.8-0.8c-0.1-0.1-0.4,0.2-0.5-0.3l0.1,0c-0.2-0.1-0.3-0.2-0.5-0.3c0-0.1,0-0.2,0-0.3c-0.2-0.1-0.3-0.1-0.4-0.3
		l-0.2,0.2c-0.3-0.3-0.7-0.6-1.1-0.8c-0.4-0.2-0.9-0.3-1.3-0.5c-0.2,0.2-0.6-0.2-1.1,0l0.2,0.3c0.4,0.4,1.5,0.4,2.1,0.9l-0.1,0.1
		c-0.1,0-0.3,0-0.4-0.1l-0.2,0.2c0,0,0,0,0,0c-0.5-0.2-1-0.4-1.6-0.4c-1.5,0-2.8,0.9-3.4,2.1c0,0,0,0,0,0l0,0c0,0.1-0.1,0.1-0.1,0.2
		c0,0-0.1,0-0.1,0c-0.2,0.3-0.7,0.5-0.9,0.9c0.1,0.3,0.1,0.6-0.1,1.1L79.1,82.4z M86.4,79.2c0,0.1,0,0.1,0,0.2
		c-0.1-0.1-0.2-0.2-0.3-0.3C86.3,79.1,86.4,79.1,86.4,79.2z"/>
	<path class="st0" d="M48.3,238.9c-0.1-0.1-0.4,0.2-0.5-0.3l0.1,0c-0.2-0.1-0.3-0.2-0.5-0.3c0-0.1,0-0.2,0-0.3
		c-0.2-0.1-0.3-0.1-0.4-0.3l-0.2,0.2c-0.3-0.3-0.7-0.6-1.1-0.8c-0.4-0.2-0.9-0.3-1.3-0.5c-0.2,0.2-0.6-0.2-1.1,0l0.2,0.3
		c0.4,0.4,1.5,0.4,2.1,0.9l-0.1,0.1c-0.1,0-0.3,0-0.4-0.1l-0.2,0.2c0,0,0,0,0,0c-0.5-0.2-1-0.4-1.6-0.4c-1.5,0-2.8,0.9-3.4,2.1
		c0,0,0,0,0,0l0,0c0,0.1-0.1,0.1-0.1,0.2c0,0-0.1,0-0.1,0c-0.2,0.3-0.7,0.5-0.9,0.9c0.1,0.3,0.1,0.6-0.1,1.1l0.1,0
		c0.3,1.5,1.3,3.3,3.2,3.9c0.9,0.3,2,0.4,3,0c1-0.3,1.8-1,2.4-1.9l0.4,0.4c0.4-1.2,0.4-2.5-0.1-3.4c0,0.1,0,0.2-0.1,0.4
		c-0.3-0.3-0.6-1-0.8-1.5l0.1,0c0.3,0.6,0-0.1,0.5,0.1l0.1,0.1l0-0.1l-0.1-0.1c0.1,0,0.2-0.1,0.2,0l-0.1-0.2
		C47.6,239.2,47.9,239,48.3,238.9z M45.6,238.6c0.2,0,0.3,0.1,0.3,0.1c0,0.1,0,0.1,0,0.2C45.8,238.8,45.7,238.7,45.6,238.6z"/>
	<path class="st0" d="M86.8,238.9c-0.1-0.1-0.4,0.2-0.5-0.3l0.1,0c-0.2-0.1-0.3-0.2-0.5-0.3c0-0.1,0-0.2,0-0.3
		c-0.2-0.1-0.3-0.1-0.4-0.3l-0.2,0.2c-0.3-0.3-0.7-0.6-1.1-0.8c-0.4-0.2-0.9-0.3-1.3-0.5c-0.2,0.2-0.6-0.2-1.1,0l0.2,0.3
		c0.4,0.4,1.5,0.4,2.1,0.9l-0.1,0.1c-0.1,0-0.3,0-0.4-0.1l-0.2,0.2c0,0,0,0,0,0c-0.5-0.2-1-0.4-1.6-0.4c-1.5,0-2.8,0.9-3.4,2.1
		c0,0,0,0,0,0l0,0c0,0.1-0.1,0.1-0.1,0.2c0,0-0.1,0-0.1,0c-0.2,0.3-0.7,0.5-0.9,0.9c0.1,0.3,0.1,0.6-0.1,1.1l0.1,0
		c0.3,1.5,1.3,3.3,3.2,3.9c0.9,0.3,2,0.4,3,0c1-0.3,1.8-1,2.4-1.9l0.4,0.4c0.4-1.2,0.4-2.5-0.1-3.4c0,0.1,0,0.2-0.1,0.4
		c-0.3-0.3-0.6-1-0.8-1.5l0.1,0c0.3,0.6,0-0.1,0.5,0.1l0.1,0.1l0-0.1l-0.1-0.1c0.1,0,0.2-0.1,0.2,0l-0.1-0.2
		C86.1,239.2,86.4,239,86.8,238.9z M84.1,238.6c0.2,0,0.3,0.1,0.3,0.1c0,0.1,0,0.1,0,0.2C84.3,238.8,84.2,238.7,84.1,238.6z"/>
	<path class="st0" d="M128.3,277.4c-0.1-0.1-0.4,0.2-0.5-0.3l0.1,0c-0.2-0.1-0.3-0.2-0.5-0.3c0-0.1,0-0.2,0-0.3
		c-0.2-0.1-0.3-0.1-0.4-0.3l-0.2,0.2c-0.3-0.3-0.7-0.6-1.1-0.8c-0.4-0.2-0.9-0.3-1.3-0.5c-0.2,0.2-0.6-0.2-1.1,0l0.2,0.3
		c0.4,0.4,1.5,0.4,2.1,0.9l-0.1,0.1c-0.1,0-0.3,0-0.4-0.1l-0.2,0.2c0,0,0,0,0,0c-0.5-0.2-1-0.4-1.6-0.4c-1.5,0-2.8,0.9-3.4,2.1
		c0,0,0,0,0,0l0,0c0,0.1-0.1,0.1-0.1,0.2c0,0-0.1,0-0.1,0c-0.2,0.3-0.7,0.5-0.9,0.9c0.1,0.3,0.1,0.6-0.1,1.1l0.1,0
		c0.3,1.5,1.3,3.3,3.2,3.9c0.9,0.3,2,0.4,3,0c1-0.3,1.8-1,2.4-1.9l0.4,0.4c0.4-1.2,0.4-2.5-0.1-3.4c0,0.1,0,0.2-0.1,0.4
		c-0.3-0.3-0.6-1-0.8-1.5l0.1,0c0.3,0.6,0-0.1,0.5,0.1l0.1,0.1l0-0.1l-0.1-0.1c0.1,0,0.2-0.1,0.2,0l-0.1-0.2
		C127.6,277.7,127.9,277.5,128.3,277.4z M125.6,277.1c0.2,0,0.3,0.1,0.3,0.1c0,0.1,0,0.1,0,0.2C125.8,277.3,125.7,277.2,125.6,277.1
		z"/>
	<path class="st0" d="M205.2,197.4c-0.1-0.1-0.4,0.2-0.5-0.3l0.1,0c-0.2-0.1-0.3-0.2-0.5-0.3c0-0.1,0-0.2,0-0.3
		c-0.2-0.1-0.3-0.1-0.4-0.3l-0.2,0.2c-0.3-0.3-0.7-0.6-1.1-0.8c-0.4-0.2-0.9-0.3-1.3-0.5c-0.2,0.2-0.6-0.2-1.1,0l0.2,0.3
		c0.4,0.4,1.5,0.4,2.1,0.9l-0.1,0.1c-0.1,0-0.3,0-0.4-0.1l-0.2,0.2c0,0,0,0,0,0c-0.5-0.2-1-0.4-1.6-0.4c-1.5,0-2.8,0.9-3.4,2.1
		c0,0,0,0,0,0l0,0c0,0.1-0.1,0.1-0.1,0.2c0,0-0.1,0-0.1,0c-0.2,0.3-0.7,0.5-0.9,0.9c0.1,0.3,0.1,0.6-0.1,1.1l0.1,0
		c0.3,1.5,1.3,3.3,3.2,3.9c0.9,0.3,2,0.4,3,0c1-0.3,1.8-1,2.4-1.9l0.4,0.4c0.4-1.2,0.4-2.5-0.1-3.4c0,0.1,0,0.2-0.1,0.4
		c-0.3-0.3-0.6-1-0.8-1.5l0.1,0c0.3,0.6,0-0.1,0.5,0.1l0.1,0.1l0-0.1l-0.1-0.1c0.1,0,0.2-0.1,0.2,0l-0.1-0.2
		C204.6,197.7,204.9,197.5,205.2,197.4z M202.6,197.1c0.2,0,0.3,0.1,0.3,0.1c0,0.1,0,0.1,0,0.2C202.8,197.3,202.7,197.2,202.6,197.1
		z"/>
</g>
</svg>
