<?xml version="1.0" encoding="utf-8"?>
<!-- Generator: Adobe Illustrator 24.2.1, SVG Export Plug-In . SVG Version: 6.00 Build 0)  -->
<svg version="1.1" id="Layer_1" xmlns="http://www.w3.org/2000/svg" xmlns:xlink="http://www.w3.org/1999/xlink" x="0px" y="0px"
	 viewBox="0 0 46.72 45.26" style="enable-background:new 0 0 46.72 45.26;" xml:space="preserve">
<style type="text/css">
	.st0{fill:#1D1D1D;}
</style>
<g>
	<g id="path3019_20_">
		<g>
			<g>
				<path class="st0" d="M45.02,31.56c-0.16,0.51-0.42,0.97-0.63,1.45c-0.22,0.48-0.43,0.96-0.71,1.41
					c2.28-3.86,3.32-8.51,2.98-13.09c-0.2-2.29-0.72-4.55-1.55-6.7c-0.88-2.14-2.07-4.13-3.49-5.94c-1.47-1.77-3.17-3.33-5.04-4.64
					c-1.91-1.25-3.96-2.26-6.11-2.96C28.3,0.44,26.08,0.07,23.86,0c-2.21-0.01-4.41,0.21-6.52,0.75c-0.54,0.1-1.31,0.35-2.11,0.56
					c-0.79,0.23-1.54,0.57-2.06,0.76C9.2,3.92,5.31,7.34,2.92,11.71c-1.19,2.18-2.06,4.53-2.51,6.9c-0.43,2.37-0.5,4.72-0.29,6.91
					c0.28,2.18,0.91,4.01,1.56,5.21c0.32,0.6,0.57,1.08,0.78,1.39c0.21,0.29,0.35,0.47,0.35,0.47c0.57,0.91,1.25,1.72,0.94,0.72
					c-0.19-0.48-0.52-1.12-0.78-1.85c-0.22-0.74-0.55-1.52-0.69-2.28c-0.37-1.5-0.45-2.79-0.31-2.81c0.09-0.01,0.16,1,0.44,1.98
					c0.15-0.03,0.48,0.67,0.92,1.44c0.45,0.77,0.88,1.65,1.12,2.07c0.14,0.23,0.41,0.7,0.76,1.29c0.42,0.56,0.87,1.29,1.41,1.93
					c1.06,1.32,2.33,2.41,2.69,2.72c1.11,0.95,0.23-0.3-0.93-2.13c-1.17-1.86-2.22-4.6-2.62-6.31c-0.44-1.7,0.32-0.09,0.52-0.17
					c-0.6-1.61-0.54-2.5-0.83-4.17c0.02,0,0.02-0.32,0.01-0.84c-0.01-0.26-0.01-0.57-0.02-0.91c0.02-0.34,0.05-0.72,0.08-1.12
					c0.01-0.2,0.02-0.4,0.04-0.61c0.03-0.2,0.07-0.41,0.1-0.62c0.07-0.41,0.11-0.84,0.21-1.25c0.22-0.8,0.36-1.59,0.61-2.17
					c0,0,0.06-0.21,0.21-0.71c0.07-0.26,0.2-0.58,0.38-0.97c0.2-0.39,0.35-0.9,0.7-1.44c0.43-0.73,0.37-0.77,0.32-0.8
					c0.06,0.04,0.06,0.04,0.12,0.07c0.13-0.42,0.53-0.92,0.91-1.43c0.36-0.53,0.83-0.97,1.08-1.31c0.05,0.05,0.05,0.05,0.1,0.09
					c0.49-0.7,1.16-1.24,1.78-1.81c0.32-0.28,0.68-0.5,1.02-0.76c0.34-0.25,0.67-0.51,1.04-0.73c0.04,0.06,0.04,0.06,0.07,0.12
					c0.36-0.21,0.72-0.42,1-0.58c0.28-0.15,0.48-0.2,0.5-0.18c0.03,0.06,0.03,0.06,0.06,0.12c0.4-0.13,0.94-0.44,1.42-0.63
					c0.49-0.18,0.88-0.32,0.9-0.25c-0.02-0.06-0.02-0.06-0.04-0.13c0.2-0.07,0.39-0.14,0.58-0.21C18.8,5.95,19,5.9,19.19,5.85
					c0.38-0.09,0.75-0.18,1.12-0.27c0.74-0.08,1.43-0.23,2.11-0.24c0.68-0.01,1.33-0.07,1.96,0.01c0.64,0.04,1.26,0.08,1.87,0.21
					c1.64,0.27,3.32,0.8,4.95,1.59c0.84,0.35,1.6,0.87,2.4,1.34c0.75,0.56,1.53,1.09,2.21,1.76c1.39,1.29,2.67,2.77,3.59,4.46
					c0.94,1.67,1.61,3.48,2.01,5.3c0.11,0.82,0.37,1.63,0.39,0.78c0.16,0.83,0.14,1.68,0.2,2.52c-0.04,0.84,0,1.05,0.04,1.27
					c0.04,0.21,0.11,0.43-0.03,1.27c-0.34,3.4-1.79,6.65-3.94,9.32c-2.21,2.63-5.11,4.69-8.39,5.74l-0.61,0.21l-0.63,0.15
					c-0.42,0.09-0.83,0.22-1.25,0.29c-0.85,0.11-1.7,0.27-2.56,0.27c-0.86,0.08-1.71-0.02-2.57-0.04c-0.85-0.14-1.71-0.19-2.53-0.43
					c-3.36-0.74-6.42-2.51-8.93-4.87c1.24,1.19,2.37,2.21,3.69,2.98c1.27,0.83,2.69,1.41,4.35,1.9c-0.02,0.07-0.06,0.2,0.8,0.4
					c2.55,0.65,5.47,0.69,7.94,0.21c2.5-0.45,4.5-1.4,5.72-1.91c0.78-0.4,1.74-0.58,3.76-2.39c-0.34,0.29-0.65,0.63-1.02,0.89
					l-1.09,0.8c0.04,0.06,0.12,0.17,0.12,0.17c1.53-0.98,3.05-2.39,4.38-3.95c1.32-1.58,2.31-3.41,3.03-5.09
					c0,0,0.13,0.05,0.19,0.07c0.19-0.59,0.43-1.16,0.59-1.75c0.21-0.42,0.27-0.11,0.08,0.65c-0.1,0.38-0.24,0.87-0.42,1.44
					c-0.21,0.56-0.5,1.18-0.8,1.86c-0.36,0.64-0.74,1.34-1.17,2.02c-0.24,0.33-0.48,0.66-0.71,0.99l-0.36,0.5l-0.4,0.45
					c-0.54,0.6-1.05,1.21-1.61,1.68c-0.54,0.5-1.04,0.97-1.53,1.31c0.04,0.05,0.12,0.16,0.16,0.22c0.53-0.36,1-0.8,1.48-1.23
					l0.09,0.1c-2.15,1.95-4.49,3.32-6.99,4.23c-2.5,0.9-5.18,1.35-8.08,1.22c0.24,0.01,0.54,0.03,0.88,0.04
					c0.33,0,0.7-0.03,1.06-0.04c0.36-0.02,0.73-0.04,1.06-0.05c0.33-0.05,0.63-0.09,0.87-0.13c0.01,0.07,0.02,0.14,0.98,0
					c-1.92,0.35-4.13,0.43-6.3,0.19c-2.19-0.21-4.3-0.87-6.11-1.58c-0.46-0.17-0.49-0.11-0.07,0.16c0.41,0.29,1.32,0.69,2.73,1.18
					c2.88,0.76,4.9,0.96,7.87,0.73l0.01,0.14c-0.5,0.02-1.06,0.04-1.65,0.07c-0.59,0.03-1.22-0.05-1.84-0.07
					c-0.63-0.01-1.24-0.14-1.83-0.21c-0.29-0.04-0.58-0.08-0.85-0.12c-0.27-0.06-0.53-0.11-0.77-0.17
					c-0.49-0.09-0.02,0.08,0.46,0.25c0.48,0.19,0.98,0.26,0.47,0.24c-0.5-0.09-0.99-0.23-1.48-0.34c-0.25-0.05-0.49-0.11-0.74-0.16
					c-0.24-0.07-0.48-0.14-0.73-0.21c1.44,0.52,3.19,0.84,4.96,1.04c1.77,0.11,3.55,0.11,5.06-0.11c1.02-0.04,2.02-0.23,2.06-0.1
					c2.49-0.62,4.65-1.51,6.44-2.53c0.93-0.45,1.71-1.05,2.49-1.52c0.75-0.52,1.41-1.06,2.05-1.52c0.38-0.36,1.55-1.44,2.58-2.97
					c0.29-0.36,0.54-0.77,0.78-1.19c0.24-0.42,0.49-0.84,0.73-1.25C44.33,33.13,44.75,32.3,45.02,31.56z"/>
			</g>
		</g>
	</g>
	<g id="Lozenge_4_">
		<g>
			<path d="M34.66,18.88c0,0-0.22-1.53-0.88-2.21c-0.85-0.89-1.79-0.89-2.23-0.94c-3.11-0.22-7.78-0.22-7.78-0.22h-0.01
				c0,0-4.67,0-7.78,0.22c-0.43,0.05-1.38,0.06-2.23,0.94c-0.67,0.67-0.88,2.21-0.88,2.21s-0.22,1.8-0.22,3.6v1.69
				c0,1.8,0.22,3.6,0.22,3.6s0.22,1.53,0.88,2.21c0.85,0.89,1.96,0.86,2.45,0.95c1.78,0.17,7.56,0.22,7.56,0.22s4.67-0.01,7.78-0.23
				c0.43-0.05,1.38-0.06,2.23-0.94c0.67-0.67,0.88-2.21,0.88-2.21s0.22-1.8,0.22-3.6v-1.69C34.88,20.68,34.66,18.88,34.66,18.88z
				 M21.48,26.21l0-6.25l6.01,3.13L21.48,26.21z"/>
		</g>
	</g>
</g>
</svg>
