<?xml version="1.0" encoding="UTF-8"?>
<svg width="1280px" height="720px" viewBox="0 0 1280 720" version="1.1" xmlns="http://www.w3.org/2000/svg" xmlns:xlink="http://www.w3.org/1999/xlink">
    <title>Microsoft Azure</title>
    <g id="Microsoft-Azure" stroke="none" stroke-width="1" fill="none" fill-rule="evenodd">
        <rect id="Rectangle-2" x="0" y="0" width="1280" height="720"></rect>
        <g id="Microsoft_Azure_Logo" transform="translate(224.000000, 240.000000)" fill="#0089D6" fill-rule="nonzero">
            <path d="M143.163214,227.183129 C182.921455,220.150789 215.759491,214.33153 216.136642,214.251446 L216.822378,214.105835 L179.286679,169.401343 C158.64206,144.813868 141.750998,124.601511 141.750998,124.484997 C141.750998,124.2644 180.509778,17.3949396 180.727667,17.0144684 C180.800517,16.8876162 207.177044,62.484059 244.666098,127.543523 C279.764037,188.45336 308.700586,238.673738 308.969542,239.144342 L309.458574,240 L190.167027,239.984593 L70.8755023,239.969249 L143.163214,227.183172 L143.163214,227.183129 Z M600.632334,216.371601 C582.47382,215.205907 571.912752,204.852853 569.114129,185.474246 C568.369666,180.31922 568.36682,180.18547 568.290636,146.71915 L568.216897,114.32935 L576.253387,114.32935 L584.289851,114.32935 L584.353138,145.658634 C584.410183,173.894848 584.445973,177.205505 584.715584,179.191841 C585.809782,187.253201 587.988146,192.674286 591.696811,196.565448 C594.66493,199.679607 598.139581,201.503028 602.949419,202.470591 C605.218585,202.927053 611.673815,202.927968 613.742656,202.472469 C618.618889,201.398012 622.527142,199.273329 625.974816,195.822566 C629.904442,191.889412 632.8115,186.309086 634.218123,179.998843 L634.6922,177.872062 L634.744991,146.277644 L634.797782,114.683233 L643.002516,114.683233 L651.207268,114.683233 L651.207268,164.350537 L651.207268,214.017835 L643.087038,214.017835 L634.966808,214.017835 L634.966808,206.137648 C634.966808,200.783318 634.9082,198.277014 634.784028,198.318461 C634.683518,198.35203 634.266474,198.990824 633.857267,199.738046 C631.059,204.847893 626.396783,209.520823 621.288068,212.336112 C615.164385,215.710713 609.023126,216.910646 600.632353,216.371977 L600.632334,216.371601 Z M784.942768,216.291337 C778.532793,215.808908 771.783452,213.602319 766.266956,210.18562 C754.639918,202.984246 747.760245,191.114044 745.745897,174.77852 C745.048846,169.125814 744.965068,161.532786 745.546741,156.729526 C746.846419,145.996967 751.058452,135.460987 757.056393,127.939249 C758.593994,126.011019 762.082163,122.518407 764.007854,120.978945 C769.208035,116.821733 775.290686,113.914674 781.748799,112.500074 C785.511606,111.675862 792.137963,111.288873 796.135729,111.659854 C806.178424,112.5918 815.382669,117.326275 821.638568,124.77798 C827.99447,132.348825 831.488017,142.9278 831.934153,155.95444 C832.004076,157.995921 832.021027,161.575148 831.97187,163.908278 L831.882425,168.150323 L796.709465,168.194915 L761.536505,168.239506 L761.536505,169.81111 C761.536505,174.595406 762.698175,180.044574 764.70645,184.68081 C766.438284,188.678854 769.419412,193.044628 771.86025,195.157343 C776.864978,199.489285 782.990106,202.082199 789.692528,202.706187 C792.177707,202.937537 798.511222,202.693974 801.343291,202.258267 C809.423364,201.014938 817.105264,197.841695 823.308854,193.184735 C824.038724,192.636822 824.7372,192.124914 824.861016,192.047179 C825.042207,191.933421 825.085028,193.364936 825.080444,199.382384 L825.074814,206.858942 L823.412622,207.888275 C816.394822,212.234146 808.355205,215.024691 799.842894,216.069312 C797.302566,216.381046 787.98086,216.519919 784.942868,216.291274 L784.942768,216.291337 Z M815.553671,153.233507 C815.553671,145.219489 812.180755,136.316908 807.407702,131.732779 C804.001373,128.461265 799.883569,126.461933 794.988302,125.702755 C792.672343,125.343579 787.791237,125.481914 785.349498,125.975922 C780.187754,127.020242 775.918313,129.292335 772.194511,132.976684 C768.275444,136.85423 765.337136,141.563836 763.489237,146.929777 C762.824755,148.859309 762.047561,152.027129 761.806322,153.789223 L761.691382,154.628798 L788.622517,154.628798 L815.553671,154.628798 L815.553671,153.233507 Z M338.438939,213.796518 C338.48014,213.675 350.424046,182.257608 364.980974,143.980093 L391.44811,74.3835522 L399.952146,74.3835522 L408.456163,74.3835522 L409.161745,76.1952612 C411.31793,81.7316838 462.147081,213.866549 462.147081,213.935197 C462.147081,213.980415 458.075932,214.016142 453.100083,214.016142 L444.053085,214.014253 L436.727226,194.484874 L429.401366,174.955502 L399.904046,174.955145 L370.406719,174.954794 L370.150381,175.617612 C370.009409,175.982161 366.879466,184.769756 363.194929,195.145613 L356.495809,214.010771 L347.429923,214.013902 C340.253881,214.016142 338.379661,213.970939 338.438939,213.796055 L338.438939,213.796518 Z M424.017299,160.051825 C424.017299,160.020887 419.087279,146.638529 413.061698,130.313307 C401.788874,99.7716342 401.158269,97.9340157 400.267617,93.0307374 C399.849972,90.731502 399.638651,90.6676082 399.390757,92.7656116 C399.213556,94.265242 398.445225,97.6208662 397.852894,99.4821896 C397.558989,100.405718 392.482593,114.356318 386.572001,130.483519 C380.661422,146.610721 375.825489,159.873747 375.825489,159.956905 C375.825489,160.04007 386.668652,160.108109 399.921397,160.108109 C413.174142,160.108109 424.017299,160.082808 424.017299,160.051806 L424.017299,160.051825 Z M467.619411,211.473947 L467.619411,208.930429 L497.007747,168.47903 L526.396082,128.027624 L499.788043,127.939249 L473.180004,127.850874 L473.133781,121.090111 L473.087557,114.32935 L511.572498,114.32935 L550.057432,114.32935 L550.057432,116.612828 L550.057432,118.896305 L520.665725,159.568307 C504.500286,181.937914 491.274018,200.277943 491.274018,200.323937 C491.274018,200.369907 504.341412,200.407559 520.312668,200.407559 L549.351324,200.407559 L549.351324,207.212506 L549.351324,214.017459 L508.485361,214.017459 L467.619411,214.017459 L467.619411,211.473947 Z M683.276285,213.899617 C683.211553,213.834822 683.158593,191.404998 683.158593,164.055568 L683.158593,114.32935 L691.190566,114.32935 L699.222534,114.32935 L699.222534,124.580963 C699.222534,130.219351 699.291006,134.832577 699.374715,134.832577 C699.458424,134.832577 699.849342,133.909632 700.243419,132.781589 C702.049273,127.612471 705.180981,122.782475 709.215695,118.943733 C712.850378,115.485594 717.004498,113.417609 721.90622,112.626202 C723.283133,112.403889 724.448205,112.361445 727.202025,112.433268 C730.660501,112.523466 732.468645,112.776592 734.572019,113.465 L735.233992,113.681657 L735.233992,122.02939 L735.233992,130.377119 L733.336329,129.42599 C729.984211,127.74587 726.676665,127.080992 722.70059,127.288005 C720.112901,127.422738 718.414418,127.75544 716.345627,128.532849 C712.089058,130.132379 708.636368,132.955672 706.223796,136.809538 C702.731231,142.388605 700.240297,149.559936 699.505611,156.151062 C699.373764,157.333892 699.296022,166.967149 699.265054,185.958084 L699.219331,214.017459 L691.306645,214.017459 C686.954677,214.017459 683.34101,213.964413 683.276297,213.899617 L683.276285,213.899617 Z M0,213.550413 C0,213.487471 17.6866395,182.745685 39.3036425,145.235309 L78.6072788,77.0346292 L124.411123,38.5469137 C149.603238,17.3786749 170.282809,0.0333263392 170.365717,0.00082308959 C170.448626,-0.0299348582 170.117229,0.805211902 169.629279,1.85758613 C169.14133,2.90996035 146.759892,50.9770281 119.892751,108.673288 L71.0434147,213.575577 L35.5217074,213.620168 C15.9847727,213.644719 0,213.613279 0,213.550387 L0,213.550413 Z" id="path21"></path>
        </g>
    </g>
</svg>