<?xml version="1.0" encoding="UTF-8"?>
<svg width="1280px" height="720px" viewBox="0 0 1280 720" version="1.1" xmlns="http://www.w3.org/2000/svg" xmlns:xlink="http://www.w3.org/1999/xlink">
    <title>Beamr</title>
    <g id="Beamr" stroke="none" stroke-width="1" fill="none" fill-rule="evenodd">
        <rect id="Rectangle-2" x="0" y="0" width="1280" height="720"></rect>
        <g id="beamr" transform="translate(232.000000, 253.000000)" fill-rule="nonzero">
            <rect id="Rectangle" fill="#FFFFFF" x="22" y="20" width="170" height="170"></rect>
            <path d="M198.793761,0 C199.906412,0.743055556 201.019064,0.743055556 202.131716,1.48611111 C209.920277,5.20138889 214,11.1458333 214,19.6909722 C214,51.6423611 214,83.59375 214,115.545139 C214,141.923611 214,168.302083 214,195.052083 C214,203.597222 209.17851,210.65625 201.760832,213.256944 C199.906412,214 198.051993,214 196.197574,214 C136.856153,214 77.8856153,214 18.5441941,214 C11.1265165,214 3.33795494,208.798611 0.741767764,200.996528 C0.370883882,200.253472 0.741767764,199.510417 0,199.138889 C0,137.836806 0,76.1631944 0,14.8611111 C0.741767764,13.0034722 1.48353553,11.1458333 2.59618718,9.28819444 C5.19237435,4.45833333 10.0138648,1.85763889 14.8353553,0 C76.0311958,0 137.59792,0 198.793761,0 Z M32.2668977,78.3923611 C32.2668977,87.3090278 32.2668977,96.2256944 32.2668977,105.142361 C32.2668977,112.572917 33.3795494,119.631944 35.2339688,126.319444 C45.6187175,163.84375 82.7071057,187.993056 120.166378,181.305556 C170.235702,172.388889 198.051993,118.888889 173.944541,70.9618056 C153.545927,30.4652778 100.880416,21.1770833 66.3882149,44.2118056 C63.05026,46.4409722 63.05026,46.4409722 61.9376083,42.7256944 C60.0831889,35.6666667 53.0363951,30.8368056 46.3604853,31.9513889 C38.5719237,33.0659722 33.0086655,39.3819444 33.0086655,47.1840278 C32.2668977,57.5868056 32.2668977,67.9895833 32.2668977,78.3923611 Z" id="Shape" fill="#0199FE"></path>
            <path d="M107.5,62 C132.487705,62 153,82 153,106.814815 C153,132 132.487705,152 107.5,152 C82.5122951,152 62,131.62963 62,106.814815 C62,82 82.1393443,62 107.5,62 Z" id="Path" fill="#0199FE"></path>
            <path d="M689.887097,87.328508 C686.548387,95.8457934 682.83871,104.733396 679.5,113.250681 C673.564516,128.063351 667.629032,142.876021 661.693548,157.688692 C660.951613,159.169959 660.209677,159.910592 658.725806,159.910592 C650.935484,159.910592 650.935484,159.910592 648.33871,152.874574 C639.806452,131.396202 630.903226,109.547513 622.370968,88.0691415 C622.370968,88.0691415 622,87.6988248 621.629032,87.328508 C621.629032,88.4394583 621.629032,89.1800918 621.629032,89.9207253 C621.629032,112.139731 621.629032,134.358736 621.629032,156.948058 C621.629032,159.540275 620.887097,160.280909 618.66129,159.910592 C612.725806,159.540275 607.16129,159.910592 601.225806,159.910592 C599.370968,159.910592 599,159.169959 599,157.318375 C599,123.61955 599,89.9207253 599,56.2219005 C599,54.3703168 599.370968,54 601.225806,54 C610.5,54 619.774194,54 628.677419,54 C630.532258,54 630.903226,54.7406335 631.645161,56.2219005 C639.435484,75.8486886 647.596774,95.8457934 655.387097,115.472581 C655.758065,116.213215 655.758065,116.583532 656.5,117.694482 C660.951613,106.955296 665.032258,96.5864269 669.112903,85.847241 C673.193548,76.2190053 676.903226,66.2204529 680.983871,56.5922173 C681.725806,54.7406335 682.83871,54 684.693548,54 C693.596774,54 702.5,54 711.774194,54 C713.629032,54 714,54.3703168 714,56.2219005 C714,89.9207253 714,123.61955 714,157.318375 C714,159.169959 713.629032,159.910592 711.403226,159.910592 C705.467742,159.910592 699.532258,159.910592 693.596774,159.910592 C691.370968,159.910592 691,159.169959 691,157.318375 C691,134.358736 691,111.02878 691,88.0691415 C690.258065,87.328508 689.887097,87.328508 689.887097,87.328508 Z" id="Path" fill="#343434"></path>
            <path d="M358.104693,105.517483 C369.930095,109.223776 377.690515,119.972028 376.951428,132.202797 C376.21234,146.657343 368.082376,156.664336 354.778799,159.258741 C351.822448,160 348.866098,160 345.909747,160 C327.802101,160 309.694454,160 291.586807,160 C289.369544,160 289,159.258741 289,157.405594 C289,123.678322 289,90.3216783 289,56.5944056 C289,54.3706294 289.369544,54 291.586807,54 C309.32491,54 327.432557,54 345.17066,54 C350.713817,54 355.88743,55.1118881 360.6915,57.7062937 C369.560552,62.5244755 374.364621,69.9370629 374.734165,79.5734266 C375.103709,89.2097902 371.777814,97.3636364 363.64785,102.552448 C361.800131,104.034965 359.952412,104.405594 358.104693,105.517483 Z M327.802101,115.895105 L327.802101,115.895105 C322.998031,115.895105 318.193961,115.895105 313.389892,115.895105 C312.28126,115.895105 311.542173,115.895105 311.542173,117.377622 C311.542173,124.41958 311.542173,131.461538 311.542173,138.503497 C311.542173,139.615385 311.911716,140.356643 313.389892,140.356643 C322.998031,140.356643 332.236626,140.356643 341.844765,140.356643 C348.12701,140.356643 352.561536,136.65035 353.670168,131.461538 C355.517887,123.307692 350.344273,116.265734 342.214309,115.895105 C337.41024,115.895105 332.60617,115.895105 327.802101,115.895105 Z M326.693469,96.6223776 C331.127995,96.6223776 335.192977,96.6223776 339.627503,96.6223776 C345.540204,96.6223776 349.605186,93.6573427 351.083361,89.2097902 C353.670168,81.0559441 348.12701,74.013986 338.888415,73.6433566 C330.388907,73.6433566 321.889399,73.6433566 313.389892,73.6433566 C311.911716,73.6433566 311.172629,74.013986 311.172629,75.8671329 C311.172629,82.1678322 311.172629,88.4685315 311.172629,94.3986014 C311.172629,96.2517483 311.911716,96.6223776 313.389892,96.6223776 C318.193961,96.2517483 322.628487,96.6223776 326.693469,96.6223776 Z" id="Shape" fill="#343434"></path>
            <path d="M816,160 C807.474138,160 799.318966,160 791.163793,160 C789.310345,160 789.310345,158.519783 788.568966,157.779674 C782.637931,146.678045 776.336207,135.94647 770.405172,124.844841 C769.293103,122.994569 768.181034,122.254461 766.327586,122.254461 C762.991379,122.624515 759.284483,122.624515 755.948276,122.254461 C753.724138,122.254461 752.612069,122.624515 752.612069,125.214895 C752.982759,135.94647 752.612069,146.678045 752.612069,157.40962 C752.612069,159.629946 752.241379,160 750.017241,160 C744.086207,160 738.155172,160 732.224138,160 C730.37069,160 730,159.629946 730,157.779674 C730,124.104732 730,90.0597362 730,56.3847944 C730,54.9045772 730.37069,54.1644686 731.853448,54.1644686 C748.534483,54.1644686 764.844828,53.7944143 781.525862,54.1644686 C808.215517,54.9045772 823.784483,81.9185415 810.810345,105.231963 C807.103448,111.89294 801.543103,116.703646 794.12931,118.923972 C791.905172,119.664081 791.905172,120.034135 793.017241,121.884407 C800.801724,134.466253 808.215517,147.048099 816,160 Z M752.612069,88.2094647 C752.612069,92.2800621 752.612069,96.3506594 752.612069,100.791311 C752.612069,101.901474 752.982759,102.641583 754.465517,102.641583 C762.62069,102.641583 770.405172,102.641583 778.560345,102.271528 C783.75,101.901474 788.568966,99.6811482 790.793103,94.5003879 C795.241379,84.878976 788.939655,74.5174554 777.448276,74.1474011 C769.663793,73.7773468 762.25,74.1474011 754.465517,74.1474011 C752.982759,74.1474011 752.612069,74.5174554 752.612069,75.9976726 C752.982759,80.06827 752.612069,84.1388673 752.612069,88.2094647 Z" id="Shape" fill="#343434"></path>
            <path d="M571.681347,160 C568.348512,160 564.645362,160 561.312528,160 C559.831268,160 559.090638,159.629371 558.720323,158.146853 C557.239063,153.328671 555.387488,148.881119 553.535914,144.062937 C553.165599,142.58042 552.424969,141.839161 550.943709,141.839161 C537.242056,141.839161 523.540402,141.839161 509.838749,141.839161 C508.357489,141.839161 507.616859,142.20979 506.876229,143.692308 C505.394969,148.13986 503.543395,152.587413 502.062135,157.405594 C501.321505,159.258741 500.21056,160 498.358985,160 C491.693316,160 485.027647,160 478.361977,160 C476.140088,160 475.399458,160 476.510403,157.034965 C487.619851,128.867133 498.358985,100.699301 509.098119,72.5314685 C511.320009,66.972028 513.541898,61.4125874 515.393473,55.8531469 C515.763788,54.3706294 516.874733,54 518.355993,54 C526.132607,54 533.909221,54 541.685835,54 C544.27804,54 545.01867,54.7412587 545.7593,56.965035 C557.609378,88.0979021 569.459457,118.86014 581.309535,149.993007 C582.42048,152.587413 583.16111,155.552448 584.64237,158.146853 C585.383,159.629371 585.012685,160 583.16111,160 C579.087646,160 575.384496,160 571.681347,160 Z M513.912213,122.195804 C523.910717,122.195804 533.909221,122.195804 543.53741,122.195804 C546.499929,122.195804 546.129615,121.454545 545.388985,119.230769 C540.57489,106.258741 535.760796,93.2867133 531.317016,80.3146853 C530.946701,79.5734266 530.946701,78.4615385 529.835756,78.0909091 C524.651347,92.5454545 519.096623,107.370629 513.912213,122.195804 Z" id="Shape" fill="#343434"></path>
            <path d="M390.369004,106.445993 C390.369004,89.825784 390.369004,73.2055749 390.369004,56.5853659 C390.369004,54.738676 390.738007,54 392.95203,54 C416.199262,54 439.446494,54 462.693727,54 C464.538745,54 465.276753,54.369338 464.907749,56.2160279 C464.907749,61.3867596 464.907749,66.5574913 464.907749,71.358885 C464.907749,73.2055749 464.169742,73.9442509 462.324723,73.9442509 C446.826568,73.9442509 431.328413,73.9442509 415.830258,73.9442509 C413.616236,73.9442509 412.878229,74.3135889 412.878229,76.8989547 C413.247232,82.4390244 412.878229,88.3484321 412.878229,93.8885017 C412.878229,95.7351916 413.247232,96.1045296 415.092251,96.1045296 C430.221402,96.1045296 445.719557,96.1045296 460.848708,96.1045296 C463.431734,96.1045296 463.800738,96.8432056 463.800738,99.0592334 C463.431734,103.860627 463.431734,108.662021 463.800738,113.094077 C463.800738,115.679443 463.062731,116.04878 460.479705,116.04878 C445.350554,116.04878 430.590406,116.04878 415.461255,116.04878 C413.247232,116.04878 412.509225,116.418118 412.509225,119.003484 C412.878229,124.912892 412.509225,130.8223 412.509225,136.731707 C412.509225,138.947735 412.878229,139.686411 415.461255,139.686411 C430.95941,139.686411 446.457565,139.686411 461.95572,139.686411 C464.169742,139.686411 464.907749,140.425087 464.907749,142.641115 C464.538745,147.442509 464.907749,152.61324 464.907749,157.414634 C464.907749,159.261324 464.169742,160 462.324723,160 C439.077491,160 415.830258,160 392.583026,160 C390.369004,160 390,159.261324 390,157.414634 C390.369004,140.055749 390.369004,123.43554 390.369004,106.445993 Z" id="Path" fill="#343434"></path>
        </g>
    </g>
</svg>