<?xml version="1.0" encoding="UTF-8"?>
<svg width="1280px" height="720px" viewBox="0 0 1280 720" version="1.1" xmlns="http://www.w3.org/2000/svg" xmlns:xlink="http://www.w3.org/1999/xlink">
    <title>Bitmovin</title>
    <g id="Bitmovin" stroke="none" stroke-width="1" fill="none" fill-rule="evenodd">
        <rect id="Rectangle-2" x="0" y="0" width="1280" height="720"></rect>
        <g id="bitmovin" transform="translate(343.000000, 176.000000)" fill="#24AAE1" fill-rule="nonzero">
            <path d="M269.537671,0 C273.839038,2.96774194 278.140405,5.93548387 282.441773,8.90322581 C319.541065,34.8035191 356.371522,60.7038123 393.470815,86.6041056 C398.309853,89.8416422 398.041018,94.1583578 393.470815,97.3958944 C353.145497,125.72434 312.551343,154.052786 272.226025,182.381232 C271.419519,182.920821 270.881848,183.190616 269.806506,184 C269.806506,182.651026 269.537671,181.841642 269.537671,181.032258 C269.537671,168.891496 269.537671,156.480938 269.537671,144.340176 C269.537671,142.181818 270.344177,141.102639 271.688355,140.02346 C292.388684,125.72434 313.089014,111.155425 333.520509,96.5865103 C338.090711,93.3489736 338.090711,90.3812317 333.520509,87.143695 C312.820179,72.5747801 292.388684,58.2756598 271.688355,43.7067449 C269.806506,42.3577713 269.268835,41.2785924 269.268835,39.1202346 C269.268835,26.9794721 269.268835,14.568915 269.268835,2.42815249 C269,1.88856305 268.731165,1.07917889 269.537671,0 Z" id="Path"></path>
            <path d="M245.727811,276.180869 C253.893491,260.65478 262.059172,245.945854 269.408284,230.692153 C271.857988,225.789178 274.579882,223.33769 280.295858,224.154853 C283.56213,224.699628 286.828402,224.42724 289.822485,224.154853 C291.455621,224.154853 292,224.42724 292,226.333953 C292,255.479418 292,284.624882 292,313.770347 C292,315.404672 291.455621,315.949447 289.822485,315.949447 C285.467456,315.949447 281.112426,315.949447 276.757396,315.949447 C274.579882,315.949447 274.035503,315.404672 274.035503,313.225572 C274.035503,295.520383 274.035503,277.542807 274.035503,259.837618 C274.035503,258.748068 274.035503,257.930905 274.035503,256.568968 C272.946746,257.113743 272.674556,258.203293 272.402367,259.020455 C265.597633,272.095056 258.792899,285.169657 251.988166,298.244258 C251.171598,300.150971 249.810651,300.423359 248.177515,300.695746 C242.733728,301.512909 240.011834,299.061421 237.83432,294.430833 C231.846154,282.173395 225.585799,270.460731 219.325444,258.47568 C219.053254,257.930905 219.053254,257.38613 217.964497,256.841355 C217.964497,257.930905 217.964497,258.748068 217.964497,259.837618 C217.964497,277.542807 217.964497,295.520383 217.964497,313.225572 C217.964497,315.404672 217.420118,316.221835 215.242604,315.949447 C210.887574,315.67706 206.532544,315.949447 202.449704,315.949447 C200.816568,315.949447 200,315.404672 200,313.770347 C200,284.624882 200,255.479418 200,226.60634 C200,224.699628 200.544379,224.42724 202.177515,224.42724 C207.076923,224.42724 211.704142,224.42724 216.60355,224.42724 C218.236686,224.42724 219.325444,224.972015 220.142012,226.60634 C228.035503,242.132429 236.201183,257.658518 244.094675,272.912219 C244.366864,273.729381 244.911243,274.818932 245.727811,276.180869 Z" id="Path"></path>
            <path d="M56.965582,269.557427 C61.2648712,271.177517 65.0267493,273.337637 67.713805,276.847831 C77.3872058,288.998504 73.3566221,306.549477 59.1152266,312.759821 C54.0098207,315.189955 48.3670036,316 42.9928921,316 C29.5576133,316 16.1223345,316 2.68705576,316 C0.537411151,316 0,315.189955 0,313.029835 C0,284.678265 0,256.05668 0,227.705109 C0,225.544989 0.537411151,225.00496 2.68705576,225.00496 C17.4658624,225.00496 32.2446691,225.274975 47.0234757,225.00496 C60.1900489,224.734945 68.5199218,235.535543 69.0573329,246.336141 C69.5947441,256.05668 66.3702772,263.617098 57.7716987,268.747383 C57.5029932,269.017398 57.2342876,269.017398 56.965582,269.557427 Z M32.2446691,277.117846 C32.2446691,277.117846 32.2446691,277.117846 32.2446691,277.117846 C28.2140854,277.117846 23.9147962,277.117846 19.8842126,277.117846 C18.5406847,277.117846 17.734568,277.117846 17.734568,279.007951 C17.734568,285.758325 17.734568,292.508699 17.734568,299.259073 C17.734568,300.609147 18.0032736,300.879162 19.3468014,300.879162 C27.6766743,300.879162 36.2752527,300.879162 44.6051255,300.609147 C50.5166482,300.339133 55.084643,294.938833 54.8159374,288.728489 C54.5472318,282.24813 50.2479426,277.117846 44.33642,277.117846 C40.5745419,277.117846 36.2752527,277.117846 32.2446691,277.117846 Z M31.1698468,240.395812 C27.4079687,240.395812 23.6460906,240.395812 20.1529182,240.395812 C18.2719791,240.395812 17.734568,240.935842 17.734568,242.825947 C17.734568,248.766276 18.0032736,254.706605 17.734568,260.646934 C17.734568,262.807054 18.5406847,263.077068 20.4216237,263.077068 C27.1392631,263.077068 34.1256081,263.077068 40.8432475,263.077068 C45.4112423,263.077068 48.9044147,261.186964 50.7853538,256.866724 C52.6662928,252.27647 52.3975872,247.686216 49.1731203,243.635992 C47.2921813,241.475872 45.1425367,240.395812 42.1867754,240.395812 C38.4248973,240.665827 34.6630192,240.395812 31.1698468,240.395812 Z" id="Shape"></path>
            <path d="M574.143836,283.610917 C574.143836,281.976378 574.143836,280.886685 574.143836,280.069416 C574.143836,262.361913 574.143836,244.65441 574.143836,226.946906 C574.143836,224.767521 574.684932,224.222675 576.849315,224.222675 C581.178082,224.495098 585.506849,224.222675 589.565068,224.222675 C591.458904,224.222675 592,224.495098 592,226.674483 C592,255.551335 592,284.700609 592,313.57746 C592,315.484422 591.458904,316.029269 589.835616,315.756845 C589.565068,315.756845 589.294521,315.756845 589.023973,315.756845 C585.236301,315.756845 581.178082,316.574115 577.931507,315.211999 C574.684932,313.849884 573.061644,309.763537 570.89726,307.039305 C558.181507,291.238764 545.465753,275.1658 532.75,259.365258 C532.208904,258.820412 531.938356,258.003143 530.856164,257.73072 C530.856164,258.547989 530.856164,259.365258 530.856164,260.454951 C530.856164,277.890031 530.856164,295.597534 530.856164,313.032614 C530.856164,315.211999 530.315068,315.756845 528.150685,315.756845 C524.092466,315.484422 519.763699,315.756845 515.705479,315.756845 C513.811644,315.756845 513,315.484422 513,313.305037 C513,284.428186 513,255.278912 513,226.40206 C513,224.767521 513.270548,223.950252 515.164384,224.222675 C518.952055,224.495098 523.010274,223.405406 526.256849,224.495098 C529.503425,225.584791 531.126712,229.943561 533.561644,232.667792 C546.277397,248.740757 558.993151,265.086144 571.979452,281.159108 C572.520548,281.976378 573.061644,282.521224 574.143836,283.610917 Z" id="Path"></path>
            <path d="M232.17602,30 C237.83616,34.03488 243.22677,37.800768 248.347849,41.297664 C269.640757,56.0922241 290.664135,70.8867842 311.957043,85.6813442 C317.347652,89.4472322 317.347652,93.4821123 311.957043,96.9790083 C286.082116,115.001472 260.476721,132.754944 234.601794,150.777408 C233.793203,151.315393 233.254142,152.391361 232.44555,151.853377 C231.636959,151.315393 232.17602,150.239424 232.17602,149.432448 C232.17602,140.28672 232.17602,131.409984 232.17602,122.264256 C232.17602,120.381312 232.715081,119.305344 234.062733,118.498368 C244.843953,110.966592 255.625172,103.703808 266.406391,96.1720323 C271.25794,92.6751363 271.25794,89.9852162 266.406391,86.4883202 C255.625172,78.9565442 244.843953,71.4247682 234.062733,63.8929921 C232.984611,63.0860161 232.17602,62.5480321 232.17602,60.9340801 C232.17602,50.9813761 232.17602,40.75968 232.17602,30 Z" id="Path"></path>
            <path d="M352.151914,224.011944 C365.647043,224.552163 378.062561,233.19567 385.619833,248.321807 C395.336326,266.959368 391.55769,290.188793 376.982951,303.964381 C357.819868,322.331833 328.400488,319.360628 313.285944,297.211642 C300.330621,278.303971 302.759744,252.103341 319.223801,235.896766 C327.320878,228.063588 337.03737,223.741835 352.151914,224.011944 Z M347.293668,239.6783 C341.625714,239.408191 336.497565,241.839177 331.909222,246.16093 C320.573314,257.235423 319.493703,278.303971 329.750001,290.999121 C339.466494,303.154053 357.280063,302.883943 366.456751,290.458902 C374.82373,279.1143 375.093633,262.097396 367.266458,250.482684 C362.948017,243.729944 356.470356,239.6783 347.293668,239.6783 Z" id="Shape"></path>
            <path d="M430.625565,283.402746 C433.051046,276.346307 435.476528,270.104074 437.632512,263.86184 C441.944479,251.648774 446.256446,239.435708 450.298916,227.222642 C450.837912,225.594234 451.646405,224.780029 453.532891,225.051431 C457.844858,225.322832 462.156826,225.051431 466.199295,225.051431 C469.433271,225.051431 469.433271,225.051431 468.355279,228.036847 C462.156826,244.049533 456.227871,259.790818 450.029418,275.803505 C445.447952,287.473768 441.135985,299.14403 436.55452,311.085695 C435.476528,313.79971 433.85954,315.69952 430.895063,315.970921 C428.200083,316.242323 426.313597,314.613914 424.966108,311.085695 C414.186189,283.131344 403.136773,255.448395 392.356855,227.494044 C391.548361,225.322832 392.087357,225.051431 394.243341,225.051431 C398.555308,225.051431 403.136773,225.322832 407.44874,225.051431 C409.335226,225.051431 410.14372,225.594234 410.682716,227.222642 C416.881169,245.135139 423.34912,263.047636 429.547573,280.688731 C429.817071,281.502935 430.086569,282.045738 430.625565,283.402746 Z" id="Path"></path>
            <path d="M159.607143,278.023953 C159.607143,289.756428 159.607143,301.216054 159.607143,312.948529 C159.607143,315.404163 158.803571,316.222708 156.392857,315.94986 C152.375,315.677011 148.357143,315.677011 144.607143,315.94986 C142.464286,315.94986 141.928571,315.404163 141.928571,313.221377 C141.928571,289.756428 141.928571,266.291479 141.928571,243.099377 C141.928571,240.370895 141.392857,239.825198 138.714286,239.825198 C130.946429,240.098047 123.178571,239.825198 115.410714,239.825198 C113.535714,239.825198 113,239.279502 113,237.369564 C113.267857,233.822537 113.267857,230.27551 113,226.728482 C113,224.545696 113.535714,224 115.678571,224 C134.160714,224 152.910714,224 171.392857,224 C176.214286,224 180.767857,224 185.589286,224 C187.464286,224 188,224.545696 188,226.455634 C188,230.002661 187.732143,233.549689 188,237.096716 C188,239.006654 187.464286,239.825198 185.589286,239.55235 C177.553571,239.55235 169.785714,239.55235 161.75,239.55235 C159.875,239.55235 159.339286,240.098047 159.339286,242.007984 C159.607143,254.559004 159.607143,266.291479 159.607143,278.023953 Z" id="Path"></path>
            <path d="M102,270.383951 C102,284.571983 102,298.760015 102,313.220894 C102,315.403668 101.181818,316.222209 99,315.949362 C94.9090909,315.676515 90.5454545,315.676515 86.4545455,315.949362 C84.5454545,315.949362 84,315.403668 84,313.493741 C84,299.851402 84,286.481911 84,272.839572 C84,257.560153 84,242.55358 84,227.274161 C84,224.81854 84.5454545,224 87,224 C91.0909091,224.272847 95.4545455,224.272847 99.5454545,224 C101.454545,224 102,224.545694 102,226.455621 C102,241.189347 102,255.923072 102,270.383951 Z" id="Path"></path>
            <path d="M495,270.745566 C495,284.821124 495,298.896683 495,313.242925 C495,315.408396 494.184136,316.220447 492.008499,315.949763 C487.929178,315.67908 483.577904,315.67908 479.498584,315.949763 C477.594901,315.949763 476.779037,315.408396 477.050992,313.513609 C477.050992,301.062153 477.050992,288.340014 477.050992,275.888558 C477.050992,260.188897 477.050992,244.218551 477.050992,228.51889 C477.050992,225.270684 477.050992,225 480.586402,225 C484.393768,225 488.473088,225 492.280453,225 C494.456091,225 495,225.541368 495,227.706838 C495,242.053081 495,256.399323 495,270.745566 Z" id="Path"></path>
            <path d="M203,126 C203,119.480315 203,112.96063 203,106.440945 C203,105.354331 203.80597,104.811024 204.61194,104.53937 C208.641791,101.551181 212.671642,98.8346457 216.701493,95.8464567 C220.19403,93.4015748 220.19403,89.8700787 216.701493,87.4251969 C212.671642,84.4370079 208.641791,81.7204724 204.61194,78.7322835 C203.80597,78.1889764 203,77.6456693 203,76.5590551 C203,70.0393701 203,63.7913386 203,57 C205.149254,58.6299213 207.029851,59.7165354 208.910448,61.0748031 C220.731343,69.496063 232.552239,77.9173228 244.373134,86.0669291 C249.208955,89.3267717 249.208955,93.6732283 244.373134,96.9330709 C231.477612,106.169291 218.313433,115.405512 205.41791,124.370079 C204.880597,125.185039 204.074627,126 203,126 Z" id="Path"></path>
            <path d="M530.872564,344.003522 C529.539664,349.165838 528.206765,354.328154 526.873865,359.49047 C526.340705,361.935778 525.540965,364.109385 525.007805,366.554692 C524.741225,368.184897 523.941486,369 522.342006,369 C520.475946,369 520.209366,368.184897 519.942787,366.554692 C517.810147,357.860265 515.677507,349.165838 513.544868,340.743111 C513.278288,339.928009 512.211968,338.569505 514.078028,338.569505 C515.144348,338.569505 517.010407,337.482701 517.276987,339.928009 C518.343307,345.090325 519.676207,350.252641 520.742526,355.414957 C521.275686,358.131966 521.808846,360.577274 522.608586,363.565983 C524.474646,355.958359 526.340705,348.622436 528.206765,341.286513 C528.739925,339.656308 528.739925,337.754402 531.405724,338.026103 C533.804943,338.026103 533.538363,339.928009 533.804943,341.286513 C535.404423,348.622436 537.270483,355.686658 538.869962,363.022581 C540.736022,355.686658 542.602081,348.622436 544.201561,341.286513 C544.734721,338.569505 545.801041,337.482701 549,338.297804 C548.20026,341.558214 547.40052,344.546923 546.334201,347.807334 C544.734721,354.056453 542.868661,360.033872 541.269182,366.282991 C540.736022,367.913197 540.202862,368.456598 538.603382,368.456598 C537.003903,368.456598 536.470743,367.913197 536.204163,366.282991 C534.604683,359.218769 532.738624,351.611145 530.872564,344.003522 Z" id="Path"></path>
            <path d="M577.087503,365.119525 C576.815003,365.943663 576.542503,366.218375 576.542503,366.7678 C576.542503,368.416075 575.452502,368.416075 574.362501,368.416075 C573,368.416075 573,367.591938 573,366.493088 C573,357.152863 573,347.537925 573,338.1977 C573,336.549425 573.2725,336 575.180002,336 C576.815003,336 577.360003,336.549425 577.360003,338.1977 C577.360003,341.768963 577.360003,345.340225 577.360003,349.1862 C579.267505,347.812638 580.902506,346.164363 583.082508,345.88965 C588.532512,345.065513 592.620016,348.08735 593.710017,354.405738 C595.072518,361.822975 591.530015,367.86665 585.26251,368.9655 C582.265007,369.240213 579.540005,367.86665 577.087503,365.119525 Z M577.632504,357.152863 C577.632504,362.097688 578.995005,364.5701 582.265007,365.119525 C586.352511,365.943663 589.350013,363.745963 590.167514,359.350563 C591.257515,354.131025 589.077513,349.460913 585.26251,348.636775 C584.99001,348.636775 584.99001,348.636775 584.717509,348.636775 C580.085006,348.362063 577.632504,351.3839 577.632504,357.152863 Z" id="Shape"></path>
            <path d="M52.7780834,365.478949 C50.2888212,367.958487 47.7995591,369.611512 44.2039582,368.785 C41.714696,368.233991 39.7786032,367.131974 38.1190951,364.927941 C35.0766636,360.519874 35.3532483,353.356765 38.6722645,349.224202 C41.4381113,345.642647 46.6932203,344.816134 50.5654059,347.020168 C51.1185753,347.295672 51.6717446,348.122185 52.7780834,347.846681 C52.7780834,344.816134 52.7780834,341.510084 52.7780834,338.479538 C52.7780834,337.102017 52.7780834,336 54.7141762,336 C56.650269,336 56.9268536,336.826513 56.9268536,338.479538 C56.9268536,347.571176 56.9268536,356.938319 56.9268536,366.029958 C56.9268536,367.131974 57.480023,368.509495 55.5439302,368.509495 C53.6078374,368.509495 53.3312527,367.682983 53.3312527,366.029958 C53.0546681,366.029958 52.7780834,365.754453 52.7780834,365.478949 Z M52.5014987,357.213823 C52.5014987,357.213823 52.5014987,357.213823 52.5014987,357.213823 C52.5014987,356.387311 52.5014987,355.560798 52.5014987,354.734285 C52.224914,351.703739 50.5654059,349.499706 47.7995591,348.948697 C44.7571275,348.397689 42.2678654,349.77521 41.1615266,352.530252 C39.7786032,355.836302 39.7786032,359.142353 41.4381113,362.172899 C42.54445,364.652437 45.0337122,365.754453 47.7995591,365.203445 C50.5654059,364.652437 52.224914,362.999411 52.5014987,360.244369 C52.5014987,359.693361 52.5014987,358.591344 52.5014987,357.213823 Z" id="Shape"></path>
            <path d="M12.4720818,364.096181 C14.8477139,356.740451 17.223346,349.657157 19.5989781,342.301427 C19.8629372,341.484124 20.3908554,340.394386 20.6548146,339.577083 C21.1827328,337.397608 23.0304467,337.942477 24.3502423,338.487345 C25.6700379,338.75978 24.6142014,340.121952 24.3502423,340.939255 C21.4466919,349.657157 18.5431416,358.102623 15.6395912,366.820525 C15.111673,368.455131 14.3197956,369 12.4720818,369 C10.6243679,369 10.3604088,367.910262 9.83249052,366.54809 C7.19289929,358.102623 4.28934894,349.384722 1.64975771,340.939255 C1.38579858,340.121952 0.329962091,339.032214 1.64975771,338.487345 C2.96955332,338.214911 4.81726718,337.670042 5.34518543,339.849518 C7.45685841,347.205247 9.5685314,354.560976 11.9441635,361.916705 C11.9441635,362.461574 12.2081226,363.278877 12.4720818,364.096181 Z" id="Path"></path>
            <path d="M463.904457,349.13711 C464.945646,349.13711 465.205943,348.298571 465.726537,347.739545 C470.151588,344.105876 476.398719,346.062467 477.439908,352.211752 C478.481096,357.242986 477.700205,362.553732 477.960502,367.584966 C477.960502,369.262043 476.659017,368.98253 475.617828,368.98253 C474.576639,368.98253 473.795748,368.703017 474.056045,367.305453 C474.056045,363.671784 474.056045,359.758602 474.056045,356.124934 C474.056045,351.652726 472.233965,349.416623 469.1104,349.416623 C465.986834,349.416623 463.904457,352.211752 463.904457,356.124934 C463.904457,359.758602 463.904457,363.392271 463.904457,367.02594 C463.904457,368.703017 463.123566,368.98253 461.82208,368.98253 C460.520594,368.98253 460,368.423504 460,367.02594 C460,357.242986 460,347.460032 460,337.956591 C460,336.279513 460.780891,336 462.082377,336 C463.64416,336 463.904457,336.559026 463.904457,338.236104 C463.64416,341.869772 463.904457,345.223928 463.904457,349.13711 Z" id="Path"></path>
            <path d="M493.295962,358.45553 C491.436367,358.45553 489.576771,358.45553 487.717176,358.45553 C485.591924,358.45553 485.591924,359.267847 486.123237,360.892482 C486.920207,363.870978 489.045458,365.495612 491.96768,365.766385 C493.827275,365.766385 495.68687,366.037157 497.546466,365.22484 C498.343435,364.954067 499.140405,364.954067 499.406061,366.037157 C499.671718,366.849474 499.671718,367.391019 498.609092,367.932564 C493.827275,370.369515 486.123237,368.474109 483.466672,363.870978 C480.544451,358.726302 482.13839,350.603131 486.920207,347.624634 C490.108084,345.458455 493.827275,345.458455 497.015153,347.624634 C500.203031,349.790813 501,353.310855 501,356.830896 C501,357.913985 500.468687,358.184758 499.406061,358.184758 C497.280809,358.45553 495.421214,358.45553 493.295962,358.45553 Z M491.17071,355.477034 C492.498993,355.477034 493.827275,355.477034 495.421214,355.477034 C497.015153,355.477034 497.280809,354.664717 497.015153,353.310855 C496.48384,351.144675 495.155557,349.520041 492.764649,348.978496 C490.373741,348.436952 488.248489,349.520041 486.920207,351.68622 C486.388894,352.76931 485.591924,353.852399 486.123237,354.935489 C486.65455,355.747806 487.982833,355.206261 488.779802,355.206261 C489.576771,355.477034 490.373741,355.477034 491.17071,355.477034 Z" id="Shape"></path>
            <path d="M361.547855,358.21917 C359.711478,358.21917 357.8751,358.21917 356.038723,358.21917 C353.940005,357.944123 353.677666,359.044312 354.202345,360.969643 C354.989364,363.445069 356.825742,365.3704 359.711478,365.645448 C361.810195,365.920495 363.908912,365.920495 365.74529,365.095353 C366.532309,364.820306 367.056988,365.095353 367.319328,365.920495 C367.581667,366.745637 367.844007,367.295732 366.794648,367.845826 C362.334874,370.321252 354.464685,368.670968 351.841288,364.270211 C349.217892,359.594407 349.480231,354.918602 352.103628,350.517845 C354.202345,346.94223 357.350421,345.566993 361.285516,346.117088 C366.00763,346.667182 369.680385,352.443176 368.893366,357.394028 C368.631026,358.494217 368.106347,358.494217 367.319328,358.494217 C365.220611,358.21917 363.384233,358.21917 361.547855,358.21917 Z M359.449138,355.193649 C360.760836,355.193649 362.072535,355.193649 363.384233,355.193649 C364.958271,355.193649 365.220611,354.643555 364.958271,352.993271 C364.433592,350.792892 363.121893,348.867561 360.760836,348.592513 C358.39978,348.317466 356.301062,349.417655 355.251704,351.618034 C353.677666,354.368507 353.940005,355.193649 357.088081,355.193649 C357.8751,355.193649 358.662119,355.193649 359.449138,355.193649 Z" id="Shape"></path>
            <path d="M74.2709097,358.192163 C72.4215586,358.192163 70.5722076,358.192163 68.4586635,358.192163 C66.8735055,358.192163 66.6093125,358.740166 66.8735055,360.384175 C67.4018915,363.12419 69.5154355,365.316202 72.4215586,365.590204 C74.5351027,365.864205 76.3844537,365.864205 78.2338048,365.042201 C79.0263838,364.768199 79.5547698,364.768199 80.0831558,365.864205 C80.3473488,366.960211 80.3473488,367.508214 79.2905768,368.056217 C74.7992957,369.974228 68.1944705,368.878222 65.5525404,365.590204 C62.3822243,361.754183 62.1180313,354.630144 65.0241544,350.24612 C67.4018915,346.410099 72.1573656,345.040092 76.3844537,346.684101 C79.8189628,348.054108 82.4608929,352.986135 81.9325069,357.096157 C81.6683139,358.192163 81.1399279,358.466165 80.0831558,358.466165 C77.9696118,358.192163 76.1202607,358.192163 74.2709097,358.192163 Z M72.4215586,355.178147 C73.7425237,355.178147 75.0634887,355.178147 76.3844537,355.178147 C77.9696118,355.178147 78.2338048,354.630144 77.9696118,353.260137 C77.4412258,350.794123 76.1202607,348.876113 73.4783306,348.602111 C70.8364006,348.32811 68.9870495,349.698117 67.6660845,351.890129 C66.3451194,354.356143 66.6093125,354.904146 69.2512425,354.904146 C70.3080146,355.178147 71.3647866,355.178147 72.4215586,355.178147 Z" id="Shape"></path>
            <path d="M393,357.505728 C393,350.390227 397.512821,345.737783 404.282051,346.011456 C410.769231,346.011456 415,350.6639 415,357.232055 C415,364.073884 410.205128,369 403.717949,369 C397.230769,369 393,364.347557 393,357.505728 Z M410.769231,357.505728 C410.769231,352.032265 407.666667,348.748188 403.153846,349.021861 C399.487179,349.295534 396.948718,352.853285 396.948718,357.505728 C396.948718,362.158172 400.051282,365.715922 404,365.715922 C407.666667,365.989595 410.769231,362.158172 410.769231,357.505728 Z" id="Shape"></path>
            <path d="M560.55921,358.396849 C558.44044,358.396849 556.586516,358.396849 554.467746,358.396849 C553.143514,358.396849 552.878668,358.940645 553.143514,360.028237 C553.673207,363.291013 556.056823,365.466197 559.234979,365.738095 C561.088903,366.009993 562.942827,366.009993 564.79675,365.194299 C565.591289,364.922401 566.385828,364.922401 566.385828,366.009993 C566.650674,366.825687 566.650674,367.369483 565.591289,367.913279 C560.824056,370.360361 553.408361,368.457075 550.759898,364.378605 C547.581742,359.484441 548.905974,351.327501 553.143514,348.064725 C556.056823,345.617643 560.294364,345.345745 563.472519,347.249031 C566.385828,348.880419 568.239752,353.502685 567.974906,357.037359 C567.710059,358.396849 567.180367,358.396849 566.120982,358.396849 C564.531904,358.396849 562.413134,358.396849 560.55921,358.396849 Z M558.705286,355.405971 C560.029517,355.405971 561.353749,355.405971 562.67798,355.405971 C564.267058,355.405971 564.531904,354.862175 564.267058,353.230787 C563.737365,350.783705 562.413134,349.152317 560.029517,348.880419 C557.645901,348.608521 555.791977,349.696113 554.467746,351.599399 C553.938053,352.686991 553.143514,353.774583 553.673207,354.862175 C554.202899,355.677869 555.527131,355.134073 556.32167,355.405971 C557.116208,355.405971 557.910747,355.405971 558.705286,355.405971 Z" id="Shape"></path>
            <path d="M105,357.22619 C105,364.345238 100.544304,369 93.8607595,369 C87.7341772,369 83,364.071429 83,357.5 C83,350.654762 87.4556962,346 94.1392405,346 C100.544304,346 105,350.380952 105,357.22619 Z M87.1772152,357.5 C87.1772152,359.416667 87.7341772,361.333333 88.8481013,362.97619 C91.3544304,366.535714 95.8101266,366.809524 98.8734177,363.52381 C101.658228,360.238095 101.658228,354.214286 98.8734177,350.928571 C97.7594937,349.833333 96.6455696,349.011905 94.9746835,349.011905 C90.2405063,348.738095 87.1772152,352.02381 87.1772152,357.5 Z" id="Shape"></path>
            <path d="M135.706956,349.414972 C137.526071,347.46384 139.085312,346.348908 141.1643,346.070175 C145.58215,345.512709 149.480253,348.300039 149.740126,353.595967 C150,358.334429 149.740126,362.794158 150,367.53262 C150,369.483752 148.700632,368.926285 147.921012,368.926285 C146.621644,368.926285 146.101897,368.647552 146.101897,366.975154 C146.101897,363.351624 146.101897,359.449362 146.101897,355.825832 C146.101897,351.644836 144.542656,349.414972 141.424174,349.414972 C138.305691,349.414972 136.226703,351.923569 136.226703,356.104565 C136.226703,359.449362 136.226703,363.072891 136.226703,366.417688 C136.226703,367.811353 136.226703,368.926285 134.147715,368.926285 C132.3286,368.926285 132.068727,368.090086 132.068727,366.417688 C132.068727,360.564294 132.068727,354.432167 132.068727,348.578772 C132.068727,347.46384 131.54898,346.348908 133.368094,346.348908 C134.667462,346.348908 135.706956,346.348908 135.706956,348.300039 C135.706956,348.578772 135.706956,348.857505 135.706956,349.414972 Z" id="Path"></path>
            <path d="M326.295374,365.400488 C324.725979,366.52086 323.941281,367.921324 322.371886,368.48151 C317.663701,370.162068 313.217082,367.641231 312.432384,362.599558 C311.647687,357.557885 312.170819,352.516212 312.170819,347.474539 C312.170819,345.513888 313.478648,346.074074 314.263345,346.074074 C315.309609,346.074074 316.094306,346.074074 316.094306,347.754632 C316.094306,351.956026 316.094306,356.15742 316.094306,360.078722 C316.094306,362.599558 316.879004,364.840302 319.494662,365.400488 C322.11032,365.960674 324.464413,364.560209 325.510676,362.319465 C326.033808,361.479187 326.033808,360.358815 326.033808,359.238443 C326.033808,355.877327 326.033808,352.516212 326.033808,349.43519 C326.033808,348.034725 325.24911,346.074074 327.864769,346.074074 C330.480427,346.074074 329.957295,347.754632 329.957295,349.43519 C329.957295,355.037049 329.957295,360.919001 329.957295,366.52086 C329.957295,367.641231 330.218861,368.761603 328.649466,368.761603 C327.341637,368.761603 326.55694,368.201417 326.55694,366.800953 C326.55694,366.240767 326.55694,365.960674 326.295374,365.400488 Z" id="Path"></path>
            <path d="M266.617569,365.323923 C264.461982,367.844434 262.036948,369.244719 258.803569,368.964662 C255.300741,368.404548 252.875707,366.164093 252.33681,361.963241 C251.797914,357.202274 252.067362,352.441308 252.067362,347.680341 C252.067362,346 253.145155,346 254.222948,346 C255.300741,346 256.378534,346 256.378534,347.680341 C256.378534,351.601137 256.378534,355.521933 256.378534,359.442729 C256.378534,363.643582 258.264672,365.60398 261.498052,365.323923 C264.461982,365.323923 266.617569,363.083468 266.617569,359.722786 C266.617569,355.80199 266.617569,351.881194 266.617569,348.240455 C266.617569,346.560114 266.887017,346 268.773155,346 C270.389844,346 270.928741,346.560114 270.928741,348.240455 C270.928741,354.121649 270.928741,360.282899 270.928741,366.164093 C270.928741,367.284321 271.467637,368.684605 269.5815,368.684605 C267.695362,368.684605 267.425913,367.844434 267.425913,366.44415 C266.887017,365.884036 266.887017,365.884036 266.617569,365.323923 Z" id="Path"></path>
            <path d="M195.647026,365.678566 C193.481204,367.595908 191.856837,368.691532 189.691015,368.965438 C186.71301,369.239344 183.735005,367.869814 182.652094,365.40466 C181.298455,362.391694 182.110638,359.104822 184.547188,357.18748 C186.71301,355.544044 189.14956,354.996232 191.856837,354.722326 C192.939748,354.722326 194.834842,355.270138 194.834842,353.626701 C195.10557,351.709359 194.022659,350.065923 192.127565,349.518111 C189.961743,348.696393 188.066649,349.244205 186.171554,350.065923 C185.359371,350.339829 184.547188,351.435453 184.005732,349.792017 C183.464277,348.422487 184.005732,347.874675 185.088643,347.326863 C192.66902,343.766085 198.625031,347.600769 198.625031,356.091856 C198.625031,359.378728 198.625031,362.6656 198.625031,365.952472 C198.625031,367.048096 199.97867,368.417626 197.54212,368.691532 C196.459209,368.691532 195.376298,368.14372 195.647026,365.678566 Z M195.376298,359.92654 C194.834842,359.104822 196.188481,357.461386 194.293387,357.18748 C192.127565,356.913574 189.691015,357.18748 188.066649,358.55701 C186.171554,359.92654 185.900827,361.843882 186.71301,363.761224 C187.525193,365.678566 189.420287,365.952472 191.315382,365.678566 C193.751931,365.130754 195.10557,363.213412 195.376298,359.92654 Z" id="Shape"></path>
            <path d="M156.898547,359.333691 C156.898547,357.124249 156.898547,354.914807 156.898547,352.429185 C156.898547,351.048283 156.898547,349.667382 155.054017,349.943562 C154,349.943562 154,349.115021 154,348.286481 C154,347.45794 154,346.629399 155.054017,346.905579 C157.162051,347.18176 157.162051,345.524678 157.162051,344.143777 C157.425556,338.343991 160.851112,335.306009 166.121197,336.134549 C166.91171,336.134549 168.229232,336.134549 167.965727,337.791631 C167.702223,339.172532 167.438719,339.448712 166.121197,339.448712 C162.695642,339.172532 160.324103,342.486695 161.114616,345.800858 C161.37812,346.629399 161.641624,346.905579 162.432137,346.905579 C163.22265,346.905579 164.013163,346.905579 164.803676,346.905579 C165.857693,346.905579 166.384702,347.18176 166.384702,348.286481 C166.384702,349.667382 165.857693,349.943562 164.803676,349.943562 C161.37812,350.219742 161.37812,350.219742 161.37812,353.810086 C161.37812,358.22897 161.37812,362.371674 161.37812,366.790558 C161.37812,368.447639 160.851112,369 159.270086,369 C157.68906,369 157.425556,368.171459 157.425556,366.790558 C156.898547,364.304936 156.898547,361.819313 156.898547,359.333691 Z" id="Path"></path>
            <path d="M388.110234,359.68541 C388.110234,362.151037 388.110234,364.616664 388.110234,367.356249 C388.110234,369 387.289822,369 386.19594,369 C384.828588,369 384.281646,368.726041 384.281646,367.356249 C384.281646,362.424995 384.281646,357.493742 384.281646,352.562488 C384.281646,351.192696 384.281646,349.822903 382.367353,350.096861 C381.273471,350.096861 381,349.548944 381,348.45311 C381,347.631235 381,346.809359 382.093882,346.809359 C384.281646,347.083318 384.008176,345.713525 384.008176,344.343732 C384.281646,338.590603 388.110234,335.303101 393.306174,336.124976 C394.400056,336.398935 395.220468,336.398935 394.946997,337.768728 C394.673527,338.864562 394.400056,339.412479 393.032704,339.412479 C389.477587,339.13852 387.289822,341.878106 387.836763,345.713525 C388.110234,346.535401 388.383704,346.809359 389.204116,346.809359 C390.024528,346.809359 390.844939,346.809359 391.665351,346.809359 C392.759233,346.809359 393.306174,347.357276 393.306174,348.45311 C393.306174,349.548944 392.759233,349.822903 391.665351,350.096861 C387.836763,350.37082 387.836763,350.37082 387.836763,354.206239 C388.110234,356.123949 388.110234,358.041659 388.110234,359.68541 Z" id="Path"></path>
            <path d="M223.266553,357.235412 C223.266553,355.619212 223.266553,354.003012 223.266553,352.386813 C223.266553,351.039979 223.266553,349.693146 221.373939,349.962513 C220.292445,350.23188 220.022071,349.42378 220.022071,348.346313 C220.022071,347.538213 219.751698,346.460747 221.103565,346.730113 C223.536927,346.99948 223.266553,345.38328 223.266553,344.036447 C223.266553,343.228347 222.725806,341.881514 224.077674,341.612147 C224.888795,341.34278 225.970289,340.804047 226.781409,341.073414 C227.59253,341.34278 227.322156,342.689614 227.322156,343.497714 C227.051783,346.19138 227.862903,347.538213 230.837012,346.99948 C231.918506,346.730113 233,346.730113 233,348.346313 C233,350.23188 231.918506,350.23188 230.837012,349.962513 C227.862903,349.42378 227.322156,350.770613 227.322156,353.464279 C227.59253,356.157946 227.322156,359.120979 227.322156,361.814645 C227.322156,364.238945 228.40365,365.855145 231.107385,365.585778 C232.188879,365.585778 232.729626,365.855145 232.729626,366.932611 C232.729626,368.010078 232.459253,368.548811 231.377759,368.818178 C226.781409,369.626277 223.807301,367.740711 223.536927,363.161478 C223.266553,361.006545 223.266553,359.120979 223.266553,357.235412 C223.266553,357.235412 223.266553,357.235412 223.266553,357.235412 Z" id="Path"></path>
            <path d="M208.479463,368.973844 C207.093409,368.973844 205.707354,368.697051 204.598511,368.420258 C203.212456,367.866671 202.658035,367.313084 203.212456,365.929118 C203.766878,364.268358 204.598511,365.375531 205.430143,365.375531 C207.093409,365.929118 208.756674,366.482705 210.69715,365.929118 C212.083205,365.375531 212.914837,364.821945 213.192048,363.437978 C213.469259,362.054012 212.914837,360.946838 211.528783,360.116459 C210.142729,359.286079 208.756674,358.732492 207.37062,358.178905 C204.044089,356.518146 202.658035,354.303799 203.212456,351.259073 C203.766878,348.49114 206.261776,346.276793 209.865518,346 C211.528783,346 212.914837,346 214.300892,346.553587 C215.409735,346.83038 216.241368,347.107173 215.686946,348.767933 C215.132525,350.1519 214.578103,350.1519 213.469259,349.598313 C212.360416,349.044726 210.974361,349.044726 209.588307,349.32152 C208.202252,349.598313 207.093409,350.1519 206.816198,351.535866 C206.538987,352.919833 207.093409,354.027006 208.479463,354.580592 C209.311096,355.134179 210.142729,355.410972 210.974361,355.687766 C215.964157,357.625319 217.627423,360.116459 216.79579,363.991565 C216.518579,367.313084 213.192048,369.250638 208.479463,368.973844 Z" id="Path"></path>
            <path d="M286.931628,369 C282.336741,369 278.823003,367.078461 276.93099,362.686373 C275.038978,358.019779 276.120128,352.529668 279.363578,349.235602 C282.336741,346.216041 288.012778,345.118019 291.796804,346.765052 C292.877954,347.314063 292.877954,347.863074 292.607666,348.961096 C292.337379,349.784613 291.796804,350.333624 290.985941,350.059118 C290.715654,350.059118 290.445366,349.784613 290.175079,349.784613 C286.661341,349.235602 283.688178,349.510107 281.525878,352.804174 C279.633865,355.549229 279.633865,359.941317 281.525878,362.686373 C283.147603,365.431428 286.391053,366.52945 290.175079,365.705934 C291.256229,365.431428 292.337379,364.333406 292.877954,366.254945 C293.418529,368.176483 292.067091,368.450989 290.715654,368.450989 C289.364216,368.725494 288.012778,368.725494 286.931628,369 Z" id="Path"></path>
            <path d="M302.543286,341.039702 C302.543286,341.579391 302.543286,342.119081 302.543286,342.658771 C302.543286,346.706444 302.543286,346.706444 306.584332,346.976289 C307.661944,346.976289 308.20075,347.246133 307.931347,348.325513 C307.931347,349.404892 307.661944,349.944582 306.584332,350.214427 C305.237316,350.214427 303.351495,349.404892 302.543286,350.754117 C302.00448,351.833496 302.273883,353.72241 302.273883,355.071635 C302.273883,357.500238 302.273883,359.658997 302.273883,362.087601 C302.273883,365.055895 303.082092,365.865429 306.045526,365.865429 C306.853735,365.865429 307.661944,365.865429 307.661944,366.944809 C307.661944,368.024188 307.392541,368.833723 306.045526,368.833723 C301.19627,369.643257 298.50224,367.484498 298.50224,362.627291 C298.50224,359.119308 298.50224,355.611324 298.50224,352.373186 C298.50224,351.023962 298.232837,349.944582 296.616418,350.214427 C295.538806,350.484272 295.269403,349.674737 295,348.595358 C295,347.246133 295.538806,346.976289 296.616418,347.246133 C298.232837,347.515978 298.50224,346.436599 298.50224,345.087375 C298.50224,341.849236 299.849255,340.769857 302.543286,341.039702 Z" id="Path"></path>
            <path d="M445.595745,357.514121 C445.595745,355.897006 445.595745,354.549411 445.595745,352.932296 C445.595745,351.315181 445.87234,349.698067 443.106383,349.967586 C442,350.237105 442,349.159029 442,348.350471 C442,347.541914 442.276596,347.002876 443.382979,347.002876 C445.87234,347.272395 445.595745,345.924799 445.595745,344.307685 C445.595745,343.499127 445.042553,342.151532 446.148936,341.612494 C446.978723,341.342975 448.085106,340.803936 448.914894,341.073455 C449.744681,341.342975 449.191489,342.421051 449.191489,343.229608 C449.191489,347.002876 449.191489,347.002876 453.06383,347.002876 C454.170213,347.002876 455,347.002876 455,348.350471 C455,349.967586 454.170213,349.967586 452.787234,349.967586 C449.191489,349.967586 449.191489,350.237105 449.191489,353.740853 C449.191489,356.436045 449.191489,359.131236 449.191489,361.826427 C449.191489,364.252099 450.021277,365.869213 452.787234,365.599694 C453.893617,365.599694 454.446809,365.599694 454.446809,366.94729 C454.446809,368.025366 454.170213,368.564404 452.787234,368.833923 C447.808511,369.642481 445.319149,367.486328 445.042553,362.634984 C445.595745,361.017869 445.595745,359.131236 445.595745,357.514121 C445.595745,357.514121 445.595745,357.514121 445.595745,357.514121 Z" id="Path"></path>
            <path d="M119,354.267857 C119,349.982143 119,345.428571 119,341.142857 C119,339.535714 119.625,339 121.5,339 C123.375,339 124,339.535714 124,341.142857 C124,349.714286 124,358.285714 124,366.857143 C124,368.196429 124,369 121.8125,369 C119.625,369 119.3125,368.464286 119.3125,366.589286 C119,362.571429 119,358.285714 119,354.267857 Z" id="Path"></path>
            <path d="M241.574847,350.207317 C243.19188,347.963415 244.539408,346.280488 246.964958,346 C248.04298,346 248.851497,346 248.851497,347.402439 C248.851497,348.52439 249.660014,349.926829 247.503969,349.926829 C243.730891,350.487805 242.113858,352.45122 242.113858,356.378049 C242.113858,359.743902 242.113858,363.109756 242.113858,366.195122 C242.113858,367.597561 242.383363,369 240.227319,369 C237.801769,369 238.071274,367.597561 238.071274,365.914634 C238.071274,360.02439 238.071274,354.414634 238.071274,348.52439 C238.071274,347.402439 237.532263,346.280488 239.418802,346 C241.035835,346 241.574847,346.841463 241.574847,348.243902 C241.574847,349.085366 241.574847,349.646341 241.574847,350.207317 Z" id="Path"></path>
            <path d="M339.563063,350.156627 C341.199685,347.662651 342.836307,346.277108 345.29124,346 C346.382322,346 346.927862,346.277108 346.927862,347.662651 C346.927862,348.493976 347.473403,349.879518 345.564011,350.156627 C341.745226,350.710843 340.108603,352.650602 340.108603,356.53012 C340.108603,360.13253 340.108603,363.73494 340.108603,367.060241 C340.108603,368.722892 339.563063,369 338.199211,369 C336.835359,369 336.017048,368.722892 336.017048,367.060241 C336.017048,360.963855 336.017048,354.86747 336.017048,348.771084 C336.017048,347.662651 335.744278,346.554217 337.3809,346.554217 C338.744752,346.554217 339.563063,346.831325 339.563063,348.493976 C339.290292,348.771084 339.563063,349.048193 339.563063,350.156627 Z" id="Path"></path>
            <path d="M172.752416,350.710843 C174.330779,347.939759 175.646081,346.277108 178.276686,346 C179.065867,346 180.118109,346 179.855048,347.385542 C179.855048,348.216867 180.64423,349.879518 178.539746,350.156627 C174.8569,350.710843 173.278537,352.650602 173.015477,357.084337 C173.015477,360.409639 173.015477,363.73494 173.015477,367.060241 C173.015477,368.722892 172.489356,369 171.174053,369 C169.595691,369 169.06957,368.722892 169.06957,366.783133 C169.06957,360.686747 169.06957,354.86747 169.06957,348.771084 C169.06957,347.662651 168.543449,346.277108 170.384872,346.277108 C171.963235,346.277108 172.489356,346.831325 172.489356,348.493976 C172.752416,349.048193 172.752416,349.325301 172.752416,350.710843 Z" id="Path"></path>
            <path d="M424.526422,350.768293 C426.154001,347.963415 427.510317,346.280488 430.222949,346 C431.308002,346 432.121792,346 431.850528,347.402439 C431.850528,348.243902 432.664318,349.926829 430.494212,349.926829 C426.696527,350.487805 425.068948,352.45122 425.068948,356.658537 C425.068948,360.02439 425.068948,363.670732 425.068948,367.036585 C425.068948,368.719512 424.526422,369 423.170106,369 C421.542526,369 421,368.719512 421,366.756098 C421,360.585366 421,354.414634 421,348.243902 C421,347.121951 421,346 422.627579,346 C423.983895,346 424.797685,346.280488 424.797685,347.963415 C424.255159,349.085366 424.526422,349.646341 424.526422,350.768293 Z" id="Path"></path>
            <path d="M28,357.864198 C28,354.876543 28,351.888889 28,348.901235 C28,347.271605 28.9375,347 30.5,347 C32.0625,347 33,347.271605 33,348.901235 C33,354.876543 33,361.123457 33,367.098765 C33,369 32.0625,369 30.5,369 C28.625,369 28.3125,368.45679 28.3125,366.82716 C28.3125,364.111111 28,361.123457 28,357.864198 Z" id="Path"></path>
            <path d="M29.5,338 C31.1666667,338 32,339.099535 32,340.748839 C32,342.398142 30.8888889,343.222793 29.2222222,342.947909 C27.8333333,342.947909 27,341.848374 27,340.473955 C27,338.824652 28.1111111,338 29.5,338 Z" id="Path"></path>
        </g>
    </g>
</svg>