<?xml version="1.0" encoding="UTF-8"?>
<svg width="1280px" height="720px" viewBox="0 0 1280 720" version="1.1" xmlns="http://www.w3.org/2000/svg" xmlns:xlink="http://www.w3.org/1999/xlink">
    <title>Bitmovin</title>
    <defs>
        <polygon id="path-1" points="0.0835081967 0.0555844156 848.089761 0.0555844156 848.089761 214 0.0835081967 214"></polygon>
    </defs>
    <g id="Bitmovin" stroke="none" stroke-width="1" fill="none" fill-rule="evenodd">
        <rect id="Rectangle-2" x="0" y="0" width="1280" height="720"></rect>
        <g id="bitmovin-logo-long-notag-(1)-(2)" transform="translate(142.000000, 253.000000)">
            <path d="M343.995445,130.323225 C343.995445,128.345457 343.650705,126.44381 342.966829,124.618284 C342.278748,122.798294 341.356637,121.206668 340.197691,119.85171 C339.03314,118.495368 337.662585,117.428286 336.081822,116.646314 C334.498256,115.861573 332.756334,115.474046 330.857457,115.474046 L299.844797,115.474046 L299.844797,144.710141 L329.748961,144.710141 C331.752942,144.710141 333.627996,144.344759 335.368517,143.612611 C337.110439,142.884615 338.614125,141.868742 339.879576,140.566377 C341.146429,139.262628 342.148419,137.724978 342.88695,135.95343 C343.624078,134.180497 343.995445,132.30653 343.995445,130.323225 Z M299.844797,70.4490218 L299.844797,98.4339597 L326.424875,98.4339597 C330.118927,98.4339597 333.256629,97.1841872 335.844988,94.6777222 C338.427741,92.1781773 339.722621,88.7388811 339.722621,84.3598334 C339.722621,80.0915076 338.534246,76.7006521 336.160299,74.1997232 C333.784951,71.6987943 330.857457,70.4490218 327.375014,70.4490218 L299.844797,70.4490218 Z M366,134.390868 C366,139.079937 365.048459,143.200172 363.149582,146.741886 C361.250705,150.284984 358.639924,153.256481 355.314436,155.65084 C351.988948,158.052119 348.13654,159.872109 343.758611,161.121881 C339.37788,162.373038 334.709865,163 329.748961,163 L278,163 L278,52 L335.606752,52 C339.509611,52 343.046708,52.8345657 346.212437,54.5009289 C349.376766,56.1686762 352.068827,58.3332876 354.285819,60.987843 C356.502811,63.6465505 358.215304,66.6734081 359.430305,70.0559594 C360.642503,73.4468149 361.250705,76.8584307 361.250705,80.297727 C361.250705,85.7161756 359.878748,90.7983068 357.134836,95.5399683 C354.389521,100.283014 350.378756,103.799815 345.103941,106.094525 C351.540505,107.967108 356.634541,111.330283 360.380444,116.178514 C364.124946,121.021209 366,127.094301 366,134.390868 L366,134.390868 Z" id="Fill-1" fill="#30A2CF"></path>
            <polygon id="Fill-2" fill="#30A2CF" points="381 163 403 163 403 52 381 52"></polygon>
            <polyline id="Fill-3" fill="#30A2CF" points="504 70.9168215 470.946151 70.9168215 470.946151 163 449.212782 163 449.212782 70.9168215 416 70.9168215 416 52 504 52 504 70.9168215"></polyline>
            <polyline id="Fill-4" fill="#30A2CF" points="609.441594 163 609.441594 89.5194698 580.858383 144.239573 569.141617 144.239573 540.558406 89.5194698 540.558406 163 519 163 519 52 542.118245 52 574.919104 115.162641 608.036633 52 631 52 631 163 609.441594 163"></polyline>
            <path d="M668.858828,107.497916 C668.858828,112.31225 669.567499,116.97097 670.984843,121.468517 C672.400793,125.968843 674.444663,129.942579 677.119237,133.395283 C679.789634,136.847988 683.065674,139.622656 686.945964,141.713731 C690.824861,143.810363 695.230042,144.855205 700.15872,144.855205 C705.190427,144.855205 709.619277,143.781185 713.445268,141.637313 C717.271259,139.492051 720.495784,136.640964 723.117451,133.081275 C725.739118,129.528532 727.732866,125.522839 729.097302,121.073922 C730.457562,116.629173 731.141172,112.105227 731.141172,107.497916 C731.141172,102.68775 730.403263,98.0331985 728.938582,93.5314832 C727.468332,89.0353257 725.400793,85.0574211 722.72622,81.6047166 C720.051646,78.1520122 716.799275,75.4065217 712.973284,73.3626874 C709.147293,71.3244107 704.818688,70.3045777 700,70.3045777 C694.968293,70.3045777 690.536659,71.3758192 686.709276,73.521081 C682.883285,75.6663429 679.635091,78.4938091 676.960517,81.9951432 C674.285943,85.5006455 672.267134,89.4771607 670.906875,93.926078 C669.539654,98.373606 668.858828,102.896163 668.858828,107.497916 Z M699.84128,164 C691.980456,164 684.79628,162.407727 678.295715,159.214843 C671.795151,156.02196 666.213492,151.784234 661.547955,146.498887 C656.879633,141.219098 653.288938,135.177907 650.773084,128.373926 C648.257231,121.574113 647,114.614516 647,107.497916 C647,100.071475 648.335198,92.9590429 651.009772,86.1550615 C653.684346,79.353859 657.404524,73.3390672 662.175874,68.106518 C666.945832,62.8739687 672.580398,58.7182186 679.085139,55.6267629 C685.581527,52.5436437 692.659889,51 700.313263,51 C708.178265,51 715.358263,52.6450713 721.86022,55.9435503 C728.360785,59.237861 733.91599,63.5561731 738.532797,68.8901499 C743.145428,74.228295 746.70967,80.297274 749.225523,87.0970871 C751.742769,93.8982897 753,100.803699 753,107.814703 C753,115.243923 751.664802,122.334124 748.990228,129.07975 C746.315654,135.828155 742.619145,141.791538 737.900701,146.9699 C733.185042,152.151041 727.574146,156.28456 721.073581,159.369069 C714.571624,162.456356 707.493262,164 699.84128,164 L699.84128,164 Z" id="Fill-5" fill="#30A2CF"></path>
            <polygon id="Fill-6" fill="#30A2CF" points="858 163 880 163 880 52 858 52"></polygon>
            <polyline id="Fill-7" fill="#30A2CF" points="921.766392 91.8667722 921.766392 163 900 163 900 52 916.876668 52 975.232212 124.853568 975.232212 52.1577786 997 52.1577786 997 163 979.335838 163 921.766392 91.8667722"></polyline>
            <g id="Group-13">
                <mask id="mask-2" fill="white">
                    <use xlink:href="#path-1"></use>
                </mask>
                <g id="Clip-9"></g>
                <path d="M825.688687,51.435039 L800.270184,123.157 L774.58863,51.435039 L752.239052,51.435039 L794.144857,157.919494 C796.449684,163.775312 804.758749,163.74613 807.024605,157.875026 L848.089761,51.435039 L825.688687,51.435039" id="Fill-8" fill="#30A2CF" mask="url(#mask-2)"></path>
                <path d="M75.992459,0.00138961039 L75.992459,49.270026 L152.508236,102.604662 C155.568811,104.739104 155.568811,109.263675 152.508236,111.396727 L75.992459,164.725805 L75.992459,214 L221.818648,112.356948 C225.54868,109.756987 225.54868,104.244403 221.818648,101.645831 L75.992459,0.00138961039" id="Fill-10" fill="#30A2CF" mask="url(#mask-2)"></path>
                <path d="M33.0288836,35.8172078 L33.0288836,73.647961 L74.5867377,102.615779 C77.6403541,104.744662 77.6403541,109.258117 74.5867377,111.38561 L33.0288836,140.353429 L33.0288836,178.175844 L127.464128,112.354169 C131.191377,109.755597 131.191377,104.245792 127.464128,101.647221 L33.0288836,35.8172078" id="Fill-11" fill="#30A2CF" mask="url(#mask-2)"></path>
                <path d="M0,67.1195714 L0,90.9388831 L16.7378262,102.604662 C19.7997934,104.739104 19.7997934,109.263675 16.7378262,111.396727 L0,123.063896 L0,146.880429 L49.5635066,112.329156 C53.2726623,109.743091 53.2726623,104.258299 49.5635066,101.673623 L0,67.1195714" id="Fill-12" fill="#30A2CF" mask="url(#mask-2)"></path>
            </g>
        </g>
    </g>
</svg>