<?xml version="1.0" encoding="UTF-8"?>
<svg width="1280px" height="720px" viewBox="0 0 1280 720" version="1.1" xmlns="http://www.w3.org/2000/svg" xmlns:xlink="http://www.w3.org/1999/xlink">
    <title>CBSi</title>
    <g id="CBSi" stroke="none" stroke-width="1" fill="none" fill-rule="evenodd">
        <rect id="Rectangle" x="0" y="0" width="1280" height="720"></rect>
        <g id="ViacomCBS_logo_FINAL-RGB" transform="translate(144.000000, 298.000000)">
            <g id="Group-11">
                <path d="M642.819625,60.9008923 L642.819625,60.5636 C642.819625,44.4995692 648.55075,25.6364 658.294438,14.7907077 L658.294438,3.25492308 L623.6965,3.25492308 L595.513625,49.0123077 L567.33075,3.25492308 L532.73475,3.25492308 L532.732813,121.444862 L564.798437,121.444862 L564.800375,53.7382769 L594.839375,99.8329538 L595.511688,99.8329538 L625.721188,53.5715692 L625.71925,121.444862 L658.2925,121.444862 L658.2925,106.660215 C648.665062,95.9967385 642.819625,77.2615077 642.819625,60.9008923 Z M493.428687,62.6881538 L493.428687,62.3489231 C493.428687,45.1295692 481.280562,30.4379692 463.221125,30.4379692 C445.165562,30.4379692 433.182125,44.9589846 433.182125,62.0116308 L433.182125,62.3489231 C433.180187,79.4035077 445.50075,94.2618154 463.55825,94.2618154 C481.44525,94.2618154 493.428687,79.7408 493.428687,62.6881538 Z M399.768,62.6881538 L399.768,62.3489231 C399.768,28.4122769 427.106125,0.89 463.562125,0.89 C500.010375,0.89 527.013312,28.0749846 527.013312,62.0116308 L527.013312,62.3489231 C527.011375,96.2875077 499.67325,123.807846 463.219187,123.807846 C426.769,123.807846 399.766062,96.6248 399.768,62.6881538 Z M290.93475,62.6881538 L290.93475,62.3489231 C290.936688,27.9063385 317.263437,0.89 353.041312,0.89 C377.174812,0.89 392.7,11.0204 403.1625,25.3747077 L378.523313,44.4530462 C371.771125,36.1796923 364.0095,30.6085538 352.704187,30.6085538 C336.16375,30.6085538 324.519375,44.7903385 324.519375,62.0116308 L324.519375,62.3489231 C324.519375,80.0780923 336.161812,93.9225846 352.70225,93.9225846 C365.020875,93.9225846 372.276812,88.1828 379.364187,79.5721538 L404.005312,97.1307385 C392.866625,112.496923 377.845187,123.807846 351.8575,123.807846 C318.104312,123.807846 290.932813,97.9759077 290.93475,62.6881538 Z M248.92975,74.6736615 L235.768313,41.2429538 L222.434438,74.6736615 L248.92975,74.6736615 Z M219.896312,3.25492308 L252.173125,3.25492308 L302.088937,121.444862 L266.98725,121.444862 L258.5475,100.172185 L212.812812,100.172185 L204.373062,121.444862 L170.118062,121.444862 L219.896312,3.25492308 Z M131.807875,3.25298462 L164.54775,3.25298462 L164.545812,121.444862 L131.804,121.444862 L131.807875,3.25298462 Z M0.166375,3.25298462 L36.6165625,3.25298462 L63.4470625,78.0524 L90.453875,3.25298462 L126.229813,3.25298462 L78.63125,121.439046 L47.5750625,121.439046 L0.166375,3.25298462 L0.166375,3.25298462 Z" id="Fill-6" fill="#282B61"></path>
                <path d="M657.932125,62.6881538 L657.932125,62.3489231 C657.934062,27.9063385 684.260812,0.89 720.038688,0.89 C744.172188,0.89 759.699313,11.0204 770.159875,25.3747077 L745.520688,44.4530462 C738.770438,36.1796923 731.008813,30.6085538 719.701563,30.6085538 C703.161125,30.6085538 691.518687,44.7903385 691.51675,62.0116308 L691.51675,62.3489231 C691.51675,80.0780923 703.159188,93.9225846 719.699625,93.9225846 C732.01825,93.9225846 739.276125,88.1828 746.3635,79.5721538 L771.002687,97.1307385 C759.864,112.496923 744.8445,123.807846 718.854875,123.807846 C685.103625,123.807846 657.932125,97.9759077 657.932125,62.6881538" id="Fill-8" fill="#4691C2"></path>
                <path d="M835.306375,73.3244923 L810.330062,73.3244923 L810.330062,95.1050462 L835.645437,95.1050462 C845.770812,95.1050462 851.339187,91.2223077 851.341125,84.3000615 L851.341125,83.9608308 C851.341125,77.5464615 846.278438,73.3244923 835.306375,73.3244923 Z M846.615563,39.7251385 C846.615563,33.1401846 841.384312,29.5966769 831.766563,29.5966769 L810.332,29.5966769 L810.332,50.3634154 L830.919875,50.3634154 C840.876688,50.3634154 846.615563,46.9866154 846.615563,40.0624308 L846.615563,39.7251385 Z M778.436875,3.25492308 L839.0225,3.25492308 C853.873438,3.25492308 864.335938,6.96901538 871.256687,13.7226154 C875.980312,18.6191692 878.84975,24.8668308 878.84975,32.9715385 L878.84975,33.3068923 C878.84975,46.9866154 871.088125,55.0893846 860.62175,59.6467077 C874.967,64.3765538 884.079063,72.4812615 884.079063,88.5200923 L884.079063,88.8593231 C884.079063,109.120123 867.540562,121.444862 839.357688,121.444862 L778.434937,121.444862 L778.436875,3.25492308 L778.436875,3.25492308 Z" id="Fill-9" fill="#4691C2"></path>
                <path d="M887.291438,103.886277 L905.5175,82.1037846 C917.330438,91.3909538 930.158625,96.2875077 943.827688,96.2875077 C952.771187,96.2875077 957.49675,93.248 957.49675,88.1828 L957.49675,87.8455077 C957.49675,82.7803077 953.615938,80.2467385 937.414562,76.364 C912.269688,70.6242154 892.86175,63.5333231 892.86175,39.3859077 L892.86175,39.0505538 C892.863688,17.1013538 910.246938,1.22923077 938.598375,1.22923077 C958.680563,1.22923077 974.374312,6.63366154 987.200563,16.9327077 L970.828688,40.0624308 C960.029063,32.2950154 948.216125,28.4122769 937.753625,28.4122769 C929.8215,28.4122769 925.940688,31.6204308 925.940688,36.0091077 L925.940688,36.3483385 C925.940688,41.7508308 929.988125,44.1138154 946.526625,47.8298462 C973.529563,53.7382769 990.407125,62.5195077 990.405188,84.6373538 L990.405188,84.9746462 C990.405188,109.120123 971.332438,123.470554 942.643875,123.470554 C921.720813,123.470554 901.971875,116.8856 887.291438,103.886277" id="Fill-10" fill="#4691C2"></path>
            </g>
        </g>
    </g>
</svg>