<?xml version="1.0" encoding="UTF-8"?>
<svg width="1280px" height="720px" viewBox="0 0 1280 720" version="1.1" xmlns="http://www.w3.org/2000/svg" xmlns:xlink="http://www.w3.org/1999/xlink">
    <title>CBSi</title>
    <g id="CBSi" stroke="none" stroke-width="1" fill="none" fill-rule="evenodd">
        <rect id="Rectangle" x="0" y="0" width="1280" height="720"></rect>
        <g id="cbs" transform="translate(84.000000, 252.000000)" fill-rule="nonzero">
            <g id="Group-3" fill="#CC2B2B">
                <path d="M106.333656,50.5078761 C74.6847996,50.5078761 49.1615281,76.0192471 49.1615281,107.14312 C49.1615281,138.77722 74.6847996,164.288591 106.333656,164.288591 C137.982513,164.288591 162.995319,139.287447 162.995319,107.14312 C162.995319,76.0192471 137.982513,50.5078761 106.333656,50.5078761 Z M7.81382836,107.653347 C22.6173258,139.287447 57.8394404,169.901092 106.333656,169.901092 C154.827872,169.901092 190.049987,139.287447 204.853484,107.653347 C190.049987,76.5294745 154.827872,45.9158294 106.333656,45.9158294 C57.8394404,45.9158294 22.6173258,76.5294745 7.81382836,107.653347 Z M212,107.14312 C212,166.839728 165.547646,214.801105 106.333656,214.801105 C47.1196664,214.801105 0.15684692,166.839728 0.15684692,107.14312 C0.15684692,48.4669665 47.1196664,-0.00463831427 106.333656,-0.00463831427 C165.547646,0.505589104 212,48.4669665 212,107.14312 Z" id="Fill-1"></path>
            </g>
            <path d="M265,109.24581 C265,82.301676 285.971264,64 313.591954,64 C336.609195,64 348.373563,77.2178771 354,89.4189944 L330.982759,100.094972 C328.936782,93.4860335 321.775862,87.3854749 314.103448,87.3854749 C301.316092,87.3854749 292.62069,97.0446927 292.62069,109.24581 C292.62069,121.446927 301.316092,131.106145 314.103448,131.106145 C322.287356,131.106145 328.936782,125.005587 330.982759,118.396648 L354,129.072626 C348.885057,140.765363 337.12069,155 313.591954,155 C285.971264,154.49162 265,136.189944 265,109.24581" id="Fill-4" fill="#2D2E2C"></path>
            <path d="M414.666667,125.705202 C414.666667,122.618497 412.08805,120.046243 408.477987,120.046243 L386.81761,120.046243 L386.81761,131.364162 L408.477987,131.364162 C412.603774,131.364162 414.666667,128.791908 414.666667,125.705202 Z M413.119497,92.265896 C413.119497,89.1791908 410.540881,87.1213873 407.962264,87.1213873 L387.333333,87.1213873 L387.333333,97.4104046 L407.962264,97.4104046 C410.540881,97.4104046 413.119497,95.3526012 413.119497,92.265896 Z M360,153.485549 L360,65 L414.150943,65 C432.716981,65 440.45283,77.3468208 440.45283,87.6358382 C440.45283,98.9537572 433.748428,106.156069 424.981132,108.213873 C434.779874,109.757225 442,118.50289 442,129.820809 C442,142.16763 433.748428,154 415.698113,154 L360,153.485549 L360,153.485549 Z" id="Fill-5" fill="#2D2E2C"></path>
            <path d="M445,140.765363 L458.76129,120.938547 C465.387097,127.039106 475.070968,132.122905 487.303226,132.122905 C492.4,132.122905 496.987097,130.597765 496.987097,127.547486 C496.987097,118.905028 448.058065,127.547486 448.058065,92.9776536 C448.058065,78.2346369 460.290323,64 484.754839,64 C499.025806,64 512.277419,68.0670391 521.96129,76.2011173 L507.690323,95.0111732 C500.045161,89.4189944 490.36129,86.3687151 481.696774,86.3687151 C476.6,86.3687151 475.070968,87.8938547 475.070968,90.4357542 C475.070968,98.5698324 524,91.452514 524,124.497207 C524,143.815642 509.729032,155 485.774194,155 C466.916129,154.49162 454.174194,149.407821 445,140.765363" id="Fill-6" fill="#2D2E2C"></path>
            <polygon id="Fill-7" fill="#2D2E2C" points="570 153 577 153 577 64 570 64"></polygon>
            <path d="M639.72,152 L639.72,108.338462 C639.72,96.1538462 633.48,92.0923077 623.6,92.0923077 C615.28,92.0923077 606.44,97.1692308 602.28,103.261538 L602.28,152 L595,152 L595,87.5230769 L602.28,87.5230769 L602.28,97.1692308 C606.96,91.5846154 616.32,86 626.2,86 C639.72,86 647,92.6 647,106.815385 L647,152 L639.72,152" id="Fill-8" fill="#2D2E2C"></path>
            <path d="M664.970149,140.745455 L664.970149,94.9272727 L654,94.9272727 L654,88.8181818 L664.970149,88.8181818 L664.970149,71 L672.283582,71 L672.283582,88.8181818 L685.865672,88.8181818 L685.865672,94.9272727 L672.283582,94.9272727 L672.283582,139.727273 C672.283582,144.818182 674.373134,148.381818 679.074627,148.381818 C682.208955,148.381818 684.820896,146.854545 686.38806,145.327273 L689,150.927273 C686.38806,153.472727 683.253731,155 677.507463,155 C669.149254,155 664.970149,149.4 664.970149,140.745455" id="Fill-9" fill="#2D2E2C"></path>
            <path d="M721.752066,93.0895522 C706.628099,93.0895522 699.066116,106.283582 698.561983,117.447761 L744.942149,117.447761 C744.942149,106.791045 737.884298,93.0895522 721.752066,93.0895522 Z M691,121 C691,102.223881 704.107438,87 721.752066,87 C741.413223,87 752,102.731343 752,121 L752,123.029851 L698.561983,123.029851 C699.066116,137.238806 708.644628,148.910448 723.768595,148.910448 C731.834711,148.910448 739.396694,145.865672 744.942149,139.776119 L748.471074,144.343284 C741.917355,150.940299 733.85124,155 723.264463,155 C704.107438,155 691,140.791045 691,121 Z" id="Fill-10" fill="#2D2E2C"></path>
            <path d="M766,151.492308 L766,87.0153846 L773.122807,87.0153846 L773.122807,98.1846154 C778.719298,91.0769231 785.842105,86 795,86 L795,93.6153846 C793.982456,93.1076923 792.964912,93.1076923 791.438596,93.1076923 C784.824561,93.1076923 776.175439,99.2 773.122807,104.784615 L773.122807,152 L766,152" id="Fill-11" fill="#2D2E2C"></path>
            <path d="M846.24,139.787879 L846.24,125.575758 C841.56,119.484848 834.28,116.439394 826.48,116.439394 C815.56,116.439394 808.28,123.037879 808.28,132.681818 C808.28,141.818182 815.56,148.416667 826.48,148.416667 C834.28,148.924242 841.56,145.878788 846.24,139.787879 Z M846.24,152.477273 L846.24,144.863636 C840.52,150.954545 832.72,154 823.88,154 C812.44,154 801,146.386364 801,132.681818 C801,118.469697 812.44,111.363636 823.88,111.363636 C833.24,111.363636 840.52,114.409091 846.24,120.5 L846.24,107.30303 C846.24,97.6590909 838.44,92.5833333 828.56,92.5833333 C820.24,92.5833333 814,95.6287879 807.76,102.227273 L803.6,97.6590909 C810.36,90.5530303 818.16,87 829.08,87 C842.6,87 853,93.0909091 853,107.810606 L853,152.984848 L846.24,152.984848 L846.24,152.477273 Z" id="Fill-12" fill="#2D2E2C"></path>
            <path d="M866,120.98324 C866,102.216376 878.336449,87 897.869159,87 C909.17757,87 915.859813,91.5649128 921,98.1586758 L916.373832,102.216376 C911.747664,95.6226131 905.579439,93.0865504 898.383178,93.0865504 C882.962617,93.0865504 873.71028,105.259651 873.71028,120.476027 C873.71028,136.199616 882.962617,147.865504 898.383178,147.865504 C905.579439,147.865504 911.747664,145.329441 916.373832,138.735679 L921,142.793379 C915.859813,149.387142 909.17757,153.952055 897.869159,153.952055 C878.336449,154.96648 866,139.750104 866,120.98324" id="Fill-13" fill="#2D2E2C"></path>
            <path d="M936.970149,140.745455 L936.970149,94.9272727 L926,94.9272727 L926,88.8181818 L936.970149,88.8181818 L936.970149,71 L944.283582,71 L944.283582,88.8181818 L957.865672,88.8181818 L957.865672,94.9272727 L944.283582,94.9272727 L944.283582,139.727273 C944.283582,144.818182 946.373134,148.381818 951.074627,148.381818 C954.208955,148.381818 956.820896,146.854545 958.38806,145.327273 L961,150.927273 C958.38806,153.472727 955.253731,155 949.507463,155 C941.149254,155 936.970149,149.4 936.970149,140.745455" id="Fill-14" fill="#2D2E2C"></path>
            <path d="M970.5,152 L977.5,152 L977.5,87.3592814 L970.5,87.3592814 L970.5,152 Z M969,72.0898204 C969,69.0359281 971.5,67 974.5,67 C977.5,67 980,69.0359281 980,72.0898204 C980,75.1437126 977.5,77.6886228 974.5,77.6886228 C971.5,77.1796407 969,75.1437126 969,72.0898204 Z" id="Fill-15" fill="#2D2E2C"></path>
            <polyline id="Fill-16" fill="#2D2E2C" points="1013.21951 153 986 88 994.065041 88 1017.25203 144.811024 1040.43902 88 1048 88 1021.28455 153 1013.21951 153"></polyline>
            <path d="M1082.75207,93.0895522 C1067.6281,93.0895522 1060.06612,106.283582 1059.56198,117.447761 L1105.94215,117.447761 C1105.94215,106.791045 1098.8843,93.0895522 1082.75207,93.0895522 Z M1052,121 C1052,102.223881 1065.10744,87 1082.75207,87 C1102.41322,87 1113,102.731343 1113,121 L1113,123.029851 L1059.56198,123.029851 C1060.06612,137.238806 1069.64463,148.910448 1084.7686,148.910448 C1092.83471,148.910448 1100.39669,145.865672 1105.94215,139.776119 L1109.47107,144.343284 C1102.91736,150.940299 1094.85124,155 1084.26446,155 C1065.10744,155 1052,140.791045 1052,121 Z" id="Fill-17" fill="#2D2E2C"></path>
        </g>
    </g>
</svg>