<?xml version="1.0" encoding="UTF-8"?>
<svg width="1280px" height="720px" viewBox="0 0 1280 720" version="1.1" xmlns="http://www.w3.org/2000/svg" xmlns:xlink="http://www.w3.org/1999/xlink">
    <title>Dolby</title>
    <g id="Dolby" stroke="none" stroke-width="1" fill="none" fill-rule="evenodd">
        <rect id="Rectangle-2" x="0" y="0" width="1280" height="720"></rect>
        <g id="2020_DolbyIO_Horiz_Blk" transform="translate(167.000000, 276.000000)" fill="#0A0B09">
            <path d="M784,138.395006 C784,141.040851 783.125719,143.302497 781.361545,145.181498 C779.597371,147.060499 777.317995,148 774.5,148 C771.682005,148 769.394823,147.060499 767.638455,145.181498 C765.874281,143.302497 765,141.040851 765,138.395006 C765,136.029922 765.874281,133.874048 767.638455,131.923496 C769.394823,129.976054 771.682005,129 774.5,129 C777.317995,129 779.597371,129.976054 781.361545,131.923496 C783.125719,133.874048 784,136.029922 784,138.395006" id="Fill-1"></path>
            <polygon id="Fill-2" points="812 148 823 148 823 45 812 45"></polygon>
            <path d="M934.140351,96.3948451 C934.140351,90.5210813 933.220206,85.0671522 931.38778,80.0322733 C929.547489,74.9981791 926.865699,70.6279732 923.334543,66.9216557 C919.803388,63.2169077 915.572293,60.2812029 910.625529,58.1106176 C905.68663,55.943956 900.110708,54.8594481 893.889897,54.8594481 C887.676951,54.8594481 882.140351,55.943956 877.264368,58.1106176 C872.396249,60.2812029 868.188748,63.2169077 864.665457,66.9216557 C861.134301,70.6279732 858.452511,74.9981791 856.61222,80.0322733 C854.779794,85.0671522 853.859649,90.5210813 853.859649,96.3948451 C853.859649,102.268609 854.779794,107.722538 856.61222,112.756632 C858.452511,117.791511 861.134301,122.164856 864.665457,125.868034 C868.188748,129.575137 872.396249,132.475528 877.264368,134.573918 C882.140351,136.671522 887.676951,137.720717 893.889897,137.720717 C900.110708,137.720717 905.68663,136.671522 910.625529,134.573918 C915.572293,132.475528 919.803388,129.575137 923.334543,125.868034 C926.865699,122.164856 929.547489,117.791511 931.38778,112.756632 C933.220206,107.722538 934.140351,102.268609 934.140351,96.3948451 Z M946,96.3948451 C946,103.80905 944.725953,110.659812 942.185723,116.952626 C939.645493,123.246225 936.08288,128.700939 931.490018,133.315983 C926.897157,137.930242 921.392015,141.532189 914.966727,144.118686 C908.54144,146.705182 901.518451,148 893.889897,148 C886.269208,148 879.277677,146.705182 872.92317,144.118686 C866.568663,141.532189 861.094979,137.930242 856.509982,133.315983 C851.91712,128.700939 848.354507,123.246225 845.814277,116.952626 C843.274047,110.659812 842,103.80905 842,96.3948451 C842,88.9837795 843.274047,82.1298779 845.814277,75.837064 C848.354507,69.5434653 851.91712,64.1256343 856.509982,59.5796471 C861.094979,55.0367989 866.568663,51.4701647 872.92317,48.8805294 C879.277677,46.2948177 886.269208,45 893.889897,45 C901.518451,45 908.54144,46.2948177 914.966727,48.8805294 C921.392015,51.4701647 926.897157,55.0367989 931.490018,59.5796471 C936.08288,64.1256343 939.645493,69.5434653 942.185723,75.837064 C944.725953,82.1298779 946,88.9837795 946,96.3948451 L946,96.3948451 Z" id="Fill-3"></path>
            <polygon id="Fill-4" points="513 149 536 149 536 0 513 0"></polygon>
            <path d="M447.499607,127.362308 C430.270514,127.362308 416.448604,113.351262 416.448604,96.310757 C416.448604,79.0810094 430.459758,65.2592056 447.499607,65.2592056 C464.540242,65.2592056 478.551396,79.2702523 478.551396,96.310757 C478.551396,113.540505 464.540242,127.362308 447.499607,127.362308 Z M447.499607,45 C419.098811,45 396,68.0994206 396,96.5 C396,124.900579 419.098811,148 447.499607,148 C475.900403,148 499,124.900579 499,96.5 C499,68.0994206 475.900403,45 447.499607,45 L447.499607,45 Z" id="Fill-5"></path>
            <path d="M211,149 L189.128982,149 C148.290601,149 115,115.543389 115,74.5003936 C115,33.457398 148.290601,0 189.128982,0 L211,0 L211,149" id="Fill-6"></path>
            <path d="M0,0 L21.8710183,0 C62.7093995,0 96,33.457398 96,74.5003936 C96,115.543389 62.7093995,149 21.8710183,149 L0,149 L0,0" id="Fill-7"></path>
            <path d="M606.263082,128.328102 C592.422658,128.328102 580.793389,119.346134 576.68031,107.023849 C575.649279,103.935216 575.069472,100.646809 575.069472,97.2270539 C575.069472,93.7876365 575.649279,90.4937237 576.68031,87.4090232 C580.821788,75.0112329 592.555974,66.1252191 606.263082,66.1252191 C623.381979,66.1252191 637.457482,80.1589546 637.457482,97.2270539 C637.457482,114.484703 623.381979,128.328102 606.263082,128.328102 Z M606.263082,45.8332066 C595.267262,45.8332066 585.070549,49.2804892 576.68031,55.1329258 L576.679521,0 L554,0 L554,148.849776 L576.68031,148.849776 L576.68031,139.699494 C585.070549,145.552717 595.267262,149 606.263082,149 C634.794314,149 658,125.863173 658,97.4166033 C658,68.9700334 634.794314,45.8332066 606.263082,45.8332066 L606.263082,45.8332066 Z" id="Fill-8"></path>
            <path d="M309.68094,126.410622 L278.532944,126.410622 L278.532944,22.589378 L309.68094,22.589378 C338.210105,22.589378 361.466271,45.9013768 361.466271,74.5 C361.466271,103.098623 338.210105,126.410622 309.68094,126.410622 Z M309.68094,0 L256,0 L256,149 L309.68094,149 C350.660352,149 384,115.579182 384,74.5 C384,33.4200311 350.660352,0 309.68094,0 L309.68094,0 Z" id="Fill-9"></path>
            <path d="M740.374362,45 L711.00275,111.121841 L681.630352,45 L657,45 L698.689931,138.818682 C698.689931,138.818682 688.4908,161.803661 688.467227,161.855587 C685.763436,167.922237 678.635045,170.667217 672.591784,167.967868 L669.356821,166.522604 L660.254607,186.974239 L660.256965,186.975813 L660.294681,186.992335 L668.103538,190.480009 C682.760271,197.028152 700.049292,190.370651 706.610366,175.656015 C706.665369,175.534855 759.986868,56.2104387 765,45 L740.374362,45" id="Fill-10"></path>
            <path d="M828,9.39500614 C828,12.0416291 827.125719,14.3024969 825.361545,16.1814982 C823.605177,18.0604994 821.317995,19 818.5,19 C815.682005,19 813.402629,18.0604994 811.638455,16.1814982 C809.882087,14.3024969 809,12.0416291 809,9.39500614 C809,7.02992223 809.882087,4.8740483 811.638455,2.9234957 C813.402629,0.976054032 815.682005,0 818.5,0 C821.317995,0 823.605177,0.976054032 825.361545,2.9234957 C827.125719,4.8740483 828,7.02992223 828,9.39500614" id="Fill-11"></path>
        </g>
    </g>
</svg>