<?xml version="1.0" encoding="UTF-8"?>
<svg width="1280px" height="720px" viewBox="0 0 1280 720" version="1.1" xmlns="http://www.w3.org/2000/svg" xmlns:xlink="http://www.w3.org/1999/xlink">
    <title>Fastly</title>
    <g id="Fastly" stroke="none" stroke-width="1" fill="none" fill-rule="evenodd">
        <rect id="Rectangle" x="0" y="0" width="1280" height="720"></rect>
        <g id="fastly" transform="translate(254.000000, 210.000000)" fill="#D42F30" fill-rule="nonzero">
            <polyline id="Fill-1" points="525 30.7232598 525 232 586 232 586 201.27674 565.666667 201.27674 565.666667 0 525 0 525 30.7232598"></polyline>
            <path d="M0,201.27674 L20.4658635,201.27674 L20.4658635,103.986418 L0,103.986418 L0,77.2020374 L20.4658635,73.6570458 L20.4658635,46.8726655 C20.4658635,14.179966 27.5502008,0 69.2690763,0 C78.3212851,0 89.3413655,1.57555178 98,3.15110357 L92.4899598,35.8438031 C86.5863454,34.6621392 83.437751,34.6621392 79.502008,34.6621392 C64.5461847,34.6621392 61.0040161,36.237691 61.0040161,50.417657 L61.0040161,73.6570458 L91.3092369,73.6570458 L91.3092369,103.59253 L61.0040161,103.59253 L61.0040161,200.882852 L81.4698795,200.882852 L81.4698795,232 L0.393574297,232 L0,201.27674" id="Fill-2"></path>
            <path d="M503.746193,192.105085 C497.492386,193.677966 492.020305,193.284746 488.111675,193.677966 C471.695431,194.071186 472.86802,188.566102 472.86802,172.837288 L472.86802,104.810169 L504.527919,104.810169 L504.527919,74.9254237 L472.86802,74.9254237 L472.86802,1 L433,1 L433,181.094915 C433,216.484746 441.989848,233 479.51269,233 C488.502538,233 500.619289,230.640678 510,228.674576 L503.746193,192.105085" id="Fill-3"></path>
            <path d="M753.717949,216 L756.897436,216 C758.487179,216 759.282051,215.615385 759.282051,213.692308 C759.282051,212.153846 758.089744,211.769231 756.897436,211.769231 L753.717949,211.769231 L753.717949,216 Z M758.884615,223.307692 L755.705128,219.076923 L753.717949,219.076923 L753.717949,223.307692 L750.141026,223.307692 L750.141026,208.692308 L756.5,208.692308 C760.076923,208.692308 762.461538,210.615385 762.461538,213.692308 C762.461538,216 761.269231,217.538462 759.282051,217.923077 L763.25641,222.923077 L758.089744,222.923077 L758.089744,223.307692 L758.884615,223.307692 Z M756.5,228.692308 C763.653846,228.692308 769.615385,222.923077 769.615385,216 C769.615385,209.076923 763.653846,203.307692 756.5,203.307692 C749.346154,203.307692 743.384615,208.692308 743.384615,216 C743.384615,222.538462 748.948718,228.692308 756.5,228.692308 Z M756.5,201 C764.846154,201 772,207.923077 772,216 C772,224.076923 764.846154,231 756.5,231 C748.153846,231 741,224.076923 741,216 C741,207.538462 747.358974,201 756.5,201 Z" id="Fill-4"></path>
            <path d="M381.946541,103.690307 L381.946541,98.1631206 C369.367925,96.1891253 357.575472,95.7943262 351.286164,95.7943262 C332.418239,95.7943262 330.45283,105.664303 330.45283,111.191489 C330.45283,118.692671 332.811321,123.035461 353.251572,127.77305 C383.125786,134.089835 413,141.196217 413,178.702128 C413,213.839243 394.918239,232 356.789308,232 C331.632075,232 306.474843,226.472813 288,221.340426 L288,190.940898 L318.660377,190.940898 L318.660377,196.468085 C331.632075,198.836879 345.389937,198.836879 352.858491,198.836879 C372.90566,198.836879 376.050314,187.782506 376.050314,182.255319 C376.050314,174.359338 370.154088,170.411348 351.679245,166.858156 C316.301887,160.93617 288,148.3026 288,112.375887 C288,78.0283688 310.798742,65 348.534591,65 C374.477987,65 393.738994,68.9479905 412.606918,74.0803783 L412.606918,104.085106 L381.160377,104.085106" id="Fill-5"></path>
            <path d="M196,131.178082 L192.888889,128 L177.722222,141.506849 C176.555556,141.109589 176.166667,141.109589 175.388889,141.109589 C171.5,141.109589 168,144.684932 168,149.054795 C168,153.424658 171.5,157 175.388889,157 C179.277778,157 182.777778,153.424658 182.777778,149.054795 C182.777778,147.863014 182.777778,147.465753 182.388889,146.671233 L196,131.178082" id="Fill-6"></path>
            <path d="M178.375,190.8375 L178.375,185.71875 L173.296875,185.71875 L173.296875,190.8375 C151.421875,189.2625 134.234375,171.9375 133.453125,150.675 L138.53125,150.675 L138.53125,145.55625 L133.453125,145.55625 C135.015625,124.29375 151.8125,106.575 173.296875,105.39375 L173.296875,110.5125 L178.375,110.5125 L178.375,105.39375 C199.46875,106.575 216.265625,123.50625 218.21875,144.375 L218.21875,145.95 L213.53125,145.95 L213.53125,151.06875 L218.609375,151.06875 L218.609375,152.64375 C216.65625,173.11875 199.859375,190.05 178.375,190.8375 Z M258.84375,191.23125 L258.84375,65.23125 L219,65.23125 L219,77.04375 C210.796875,71.925 201.8125,68.775 191.65625,66.4125 L191.65625,66.4125 L191.65625,52.63125 L196.734375,52.63125 L196.734375,42 L156.109375,42 L156.109375,52.63125 L161.1875,52.63125 L161.1875,66.4125 L161.578125,66.4125 C122.90625,73.5 94,107.3625 94,147.91875 C94,193.59375 131.109375,231 176.421875,231 C192.046875,231 206.5,226.66875 219,219.1875 L226.421875,231 L269,231 L269,191.23125 L258.84375,191.23125 Z" id="Fill-7"></path>
            <path d="M688.538947,74 L772,74 L772,103.947461 L751.922105,103.947461 L700.743158,230.042032 C685.783158,265.50613 661.768421,299 625.155789,299 C616.101053,299 604.290526,297.817863 595.629474,295.847636 L599.172632,258.807356 C604.684211,259.989492 611.770526,260.383538 614.92,260.383538 C631.848421,260.383538 651.138947,249.744308 657.044211,231.618214 L605.077895,103.947461 L585,103.947461 L585,74 L669.642105,74 L669.642105,103.947461 L649.564211,103.947461 L679.090526,176.057793 L708.616842,103.947461 L688.538947,103.947461 L688.538947,74" id="Fill-8"></path>
        </g>
    </g>
</svg>