<?xml version="1.0" encoding="utf-8"?>
<!-- Generator: Adobe Illustrator 24.2.1, SVG Export Plug-In . SVG Version: 6.00 Build 0)  -->
<svg version="1.1" id="Layer_1" xmlns="http://www.w3.org/2000/svg" xmlns:xlink="http://www.w3.org/1999/xlink" x="0px" y="0px"
	 viewBox="0 0 350 150" style="enable-background:new 0 0 350 150;" xml:space="preserve">
<style type="text/css">
	.st0{fill:#D42F30;}
</style>
<g id="Page-1">
	<g id="_x30_4.-Fastly-Logo-2018-Demuxed">
		<polyline id="Fill-1" class="st0" points="210.4,44.9 210.4,96 225.7,96 225.7,88.2 220.6,88.2 220.6,37.1 210.4,37.1 210.4,44.9 
					"/>
		<path id="Fill-2" class="st0" d="M77,88.2h5.2V63.5H77v-6.8l5.2-0.9V49c0-8.3,1.8-11.9,12.4-11.9c2.3,0,5.1,0.4,7.3,0.8l-1.4,8.3
			c-1.5-0.3-2.3-0.3-3.3-0.3c-3.8,0-4.7,0.4-4.7,4v5.9h7.7v7.6h-7.7v24.7h5.2V96H77.1L77,88.2"/>
		<path id="Fill-3" class="st0" d="M205.1,85.7c-1.6,0.4-3,0.3-4,0.4c-4.2,0.1-3.9-1.3-3.9-5.3V63.5h8.1v-7.6h-8.1V37.1H187v45.8
			c0,9,2.3,13.2,11.9,13.2c2.3,0,5.4-0.6,7.8-1.1L205.1,85.7"/>
		<path id="Fill-4" class="st0" d="M268.4,92.1h0.8c0.4,0,0.6-0.1,0.6-0.6c0-0.4-0.3-0.5-0.6-0.5h-0.8V92.1z M269.7,94l-0.8-1.1
			h-0.5V94h-0.9v-3.8h1.6c0.9,0,1.5,0.5,1.5,1.3c0,0.6-0.3,1-0.8,1.1l1,1.3h-1.3V94H269.7z M269.1,95.4c1.8,0,3.3-1.5,3.3-3.3
			s-1.5-3.3-3.3-3.3s-3.3,1.4-3.3,3.3C265.8,93.8,267.2,95.4,269.1,95.4z M269.1,88.2c2.1,0,3.9,1.8,3.9,3.9s-1.8,3.9-3.9,3.9
			s-3.9-1.8-3.9-3.9C265.2,89.9,266.8,88.2,269.1,88.2z"/>
		<path id="Fill-5" class="st0" d="M174.1,63.5v-1.4c-3.2-0.5-6.2-0.6-7.8-0.6c-4.8,0-5.3,2.5-5.3,3.9c0,1.9,0.6,3,5.8,4.2
			c7.6,1.6,15.2,3.4,15.2,12.9c0,8.9-4.6,13.5-14.3,13.5c-6.4,0-12.8-1.4-17.5-2.7v-7.7h7.8V87c3.3,0.6,6.8,0.6,8.7,0.6
			c5.1,0,5.9-2.8,5.9-4.2c0-2-1.5-3-6.2-3.9c-9-1.5-16.2-4.7-16.2-13.8c0-8.7,5.8-12,15.4-12c6.6,0,11.5,1,16.3,2.3v7.6h-8"/>
		<path id="Fill-6" class="st0" d="M126.8,70.2l-0.8-0.8l-3.9,3.4c-0.3-0.1-0.4-0.1-0.6-0.1c-1,0-1.9,0.9-1.9,2s0.9,2,1.9,2
			s1.9-0.9,1.9-2c0-0.3,0-0.4-0.1-0.6L126.8,70.2"/>
		<path id="Fill-7" class="st0" d="M122,85.6v-1.3h-1.3v1.3c-5.6-0.4-10-4.8-10.2-10.2h1.3v-1.3h-1.3c0.4-5.4,4.7-9.9,10.2-10.2v1.3
			h1.3v-1.3c5.4,0.3,9.7,4.6,10.2,9.9v0.4H131v1.3h1.3v0.4C131.8,81.1,127.5,85.4,122,85.6z M142.6,85.7v-32h-10.2v3
			c-2.1-1.3-4.4-2.1-7-2.7l0,0v-3.5h1.3v-2.7h-10.4v2.7h1.3V54h0.1c-9.9,1.8-17.3,10.4-17.3,20.7c0,11.6,9.5,21.1,21.1,21.1
			c4,0,7.7-1.1,10.9-3l1.9,3h10.9V85.7H142.6z"/>
		<path id="Fill-8" class="st0" d="M251.8,55.9H273v7.6h-5.1l-13,32c-3.8,9-9.9,17.5-19.2,17.5c-2.3,0-5.3-0.3-7.5-0.8l0.9-9.4
			c1.4,0.3,3.2,0.4,4,0.4c4.3,0,9.2-2.7,10.7-7.3l-13.2-32.4h-5.1v-7.6H247v7.6h-5.1l7.5,18.3l7.5-18.3h-5.1L251.8,55.9"/>
	</g>
</g>
</svg>
