<?xml version="1.0" encoding="UTF-8"?>
<svg width="1280px" height="720px" viewBox="0 0 1280 720" version="1.1" xmlns="http://www.w3.org/2000/svg" xmlns:xlink="http://www.w3.org/1999/xlink">
    <title>Fastly</title>
    <g id="Fastly" stroke="none" stroke-width="1" fill="none" fill-rule="evenodd">
        <rect id="Rectangle" x="0" y="0" width="1280" height="720"></rect>
        <g id="fastly" transform="translate(305.000000, 230.000000)" fill="#D42F30" fill-rule="nonzero">
            <polyline id="Fill-1" points="455 26.6179966 455 201 508 201 508 174.382003 490.333333 174.382003 490.333333 0 455 0 455 26.6179966"></polyline>
            <path d="M0,174.382003 L17.751004,174.382003 L17.751004,90.0916808 L0,90.0916808 L0,66.8862479 L17.751004,63.8149406 L17.751004,40.6095076 C17.751004,12.2852292 23.8955823,0 60.0803213,0 C67.9317269,0 77.4899598,1.36502547 85,2.73005093 L80.2208835,31.0543294 C75.1004016,30.0305603 72.3694779,30.0305603 68.9558233,30.0305603 C55.9839357,30.0305603 52.9116466,31.3955857 52.9116466,43.6808149 L52.9116466,63.8149406 L79.1967871,63.8149406 L79.1967871,89.7504244 L52.9116466,89.7504244 L52.9116466,174.040747 L70.6626506,174.040747 L70.6626506,201 L0.341365462,201 L0,174.382003" id="Fill-2"></path>
            <path d="M436.558376,166.569492 C431.116751,167.932203 426.35533,167.591525 422.954315,167.932203 C408.670051,168.272881 409.690355,163.50339 409.690355,149.876271 L409.690355,90.9389831 L437.238579,90.9389831 L437.238579,65.0474576 L409.690355,65.0474576 L409.690355,1 L375,1 L375,157.030508 C375,187.691525 382.822335,202 415.472081,202 C423.294416,202 433.837563,199.955932 442,198.252542 L436.558376,166.569492" id="Fill-3"></path>
            <path d="M653.076923,187 L655.846154,187 C657.230769,187 657.923077,186.666667 657.923077,185 C657.923077,183.666667 656.884615,183.333333 655.846154,183.333333 L653.076923,183.333333 L653.076923,187 Z M657.576923,193.333333 L654.807692,189.666667 L653.076923,189.666667 L653.076923,193.333333 L649.961538,193.333333 L649.961538,180.666667 L655.5,180.666667 C658.615385,180.666667 660.692308,182.333333 660.692308,185 C660.692308,187 659.653846,188.333333 657.923077,188.666667 L661.384615,193 L656.884615,193 L656.884615,193.333333 L657.576923,193.333333 Z M655.5,198 C661.730769,198 666.923077,193 666.923077,187 C666.923077,181 661.730769,176 655.5,176 C649.269231,176 644.076923,180.666667 644.076923,187 C644.076923,192.666667 648.923077,198 655.5,198 Z M655.5,174 C662.769231,174 669,180 669,187 C669,194 662.769231,200 655.5,200 C648.230769,200 642,194 642,187 C642,179.666667 647.538462,174 655.5,174 Z" id="Fill-4"></path>
            <path d="M331.169811,89.5933806 L331.169811,84.7943262 C320.301887,83.0803783 310.113208,82.7375887 304.679245,82.7375887 C288.377358,82.7375887 286.679245,91.3073286 286.679245,96.106383 C286.679245,102.619385 288.716981,106.390071 306.377358,110.503546 C332.188679,115.98818 358,122.158392 358,154.723404 C358,185.231678 342.377358,201 309.433962,201 C287.698113,201 265.962264,196.200946 250,191.744681 L250,165.349882 L276.490566,165.349882 L276.490566,170.148936 C287.698113,172.205674 299.584906,172.205674 306.037736,172.205674 C323.358491,172.205674 326.075472,162.607565 326.075472,157.808511 C326.075472,150.952719 320.981132,147.524823 305.018868,144.439716 C274.45283,139.297872 250,128.328605 250,97.1347518 C250,67.3120567 269.698113,56 302.301887,56 C324.716981,56 341.358491,59.427896 357.660377,63.8841608 L357.660377,89.9361702 L330.490566,89.9361702" id="Fill-5"></path>
            <path d="M170,113.739726 L167.333333,111 L154.333333,122.643836 C153.333333,122.30137 153,122.30137 152.333333,122.30137 C149,122.30137 146,125.383562 146,129.150685 C146,132.917808 149,136 152.333333,136 C155.666667,136 158.666667,132.917808 158.666667,129.150685 C158.666667,128.123288 158.666667,127.780822 158.333333,127.09589 L170,113.739726" id="Fill-6"></path>
            <path d="M154.285714,165.15 L154.285714,160.708333 L149.875,160.708333 L149.875,165.15 C130.875,163.783333 115.946429,148.75 115.267857,130.3 L119.678571,130.3 L119.678571,125.858333 L115.267857,125.858333 C116.625,107.408333 131.214286,92.0333333 149.875,91.0083333 L149.875,95.45 L154.285714,95.45 L154.285714,91.0083333 C172.607143,92.0333333 187.196429,106.725 188.892857,124.833333 L188.892857,126.2 L184.821429,126.2 L184.821429,130.641667 L189.232143,130.641667 L189.232143,132.008333 C187.535714,149.775 172.946429,164.466667 154.285714,165.15 Z M224.178571,165.491667 L224.178571,56.1583333 L189.571429,56.1583333 L189.571429,66.4083333 C182.446429,61.9666667 174.642857,59.2333333 165.821429,57.1833333 L165.821429,57.1833333 L165.821429,45.225 L170.232143,45.225 L170.232143,36 L134.946429,36 L134.946429,45.225 L139.357143,45.225 L139.357143,57.1833333 L139.696429,57.1833333 C106.107143,63.3333333 81,92.7166667 81,127.908333 C81,167.541667 113.232143,200 152.589286,200 C166.160714,200 178.714286,196.241667 189.571429,189.75 L196.017857,200 L233,200 L233,165.491667 L224.178571,165.491667 Z" id="Fill-7"></path>
            <path d="M596.696842,64 L669,64 L669,89.9544658 L651.606316,89.9544658 L607.269474,199.236427 C594.309474,229.971979 573.505263,259 541.787368,259 C533.943158,259 523.711579,257.975482 516.208421,256.267951 L519.277895,224.166375 C524.052632,225.190893 530.191579,225.532399 532.92,225.532399 C547.585263,225.532399 564.296842,216.311734 569.412632,200.602452 L524.393684,89.9544658 L507,89.9544658 L507,64 L580.326316,64 L580.326316,89.9544658 L562.932632,89.9544658 L588.511579,152.450088 L614.090526,89.9544658 L596.696842,89.9544658 L596.696842,64" id="Fill-8"></path>
        </g>
    </g>
</svg>