<?xml version="1.0" encoding="UTF-8"?>
<svg width="1280px" height="720px" viewBox="0 0 1280 720" version="1.1" xmlns="http://www.w3.org/2000/svg" xmlns:xlink="http://www.w3.org/1999/xlink">
    <title>Fluendo</title>
    <defs>
        <polygon id="path-1" points="0.104087771 0.0402323307 201.930276 0.0402323307 201.930276 201.998265 0.104087771 201.998265"></polygon>
    </defs>
    <g id="Fluendo" stroke="none" stroke-width="1" fill="none" fill-rule="evenodd">
        <rect id="Rectangle-2" x="0" y="0" width="1280" height="720"></rect>
        <g id="Fluendo_4_Colour" transform="translate(201.000000, 259.000000)">
            <polyline id="Fill-1" fill="#000000" points="254 49 335 49 335 60.6793354 266.720805 60.6793354 266.720805 100.679709 327.752262 100.679709 327.752262 112.198743 266.720805 112.198743 266.720805 161 254 161 254 49"></polyline>
            <polygon id="Fill-2" fill="#000000" points="358 161 371 161 371 44 358 44"></polygon>
            <path d="M398,130.068743 L398,79 L410.292641,79 L410.292641,127.04554 C410.292641,142.31748 418.59378,151.863525 433.12034,151.863525 C447.168824,151.863525 457.865559,141.522265 457.865559,126.090935 L457.865559,79 L470,79 L470,161.25018 L457.865559,161.25018 L457.865559,146.931113 C452.278153,155.841332 443.817076,163 429.610392,163 C409.654626,163 398,149.637269 398,130.068743" id="Fill-3" fill="#000000"></path>
            <path d="M557.559327,116.381398 C556.280866,101.412132 547.670363,88.3523979 531.239711,88.3523979 C516.884821,88.3523979 506.035275,100.296939 504.440673,116.381398 L557.559327,116.381398 Z M492,121.159561 L492,120.842173 C492,97.1109184 508.74853,78 531.55759,78 C555.961251,78 570,97.4300407 570,121.478683 C570,123.070826 570,124.028193 569.840192,125.460775 L504.440673,125.460775 C506.195083,143.296939 518.799038,153.330214 533.471807,153.330214 C544.795564,153.330214 552.772047,148.711612 559.473544,141.704796 L567.126937,148.552051 C558.834313,157.789255 548.785542,164 533.152191,164 C510.50294,164 492,146.64252 492,121.159561 L492,121.159561 Z" id="Fill-4" fill="#000000"></path>
            <path d="M592,79.7498195 L604.264546,79.7498195 L604.264546,94.0688873 C609.682111,85.1586676 618.28464,78 632.46086,78 C652.3721,78 664,91.3627307 664,110.931257 L664,162 L651.735454,162 L651.735454,113.95446 C651.735454,98.6807879 643.452114,89.1364752 628.956704,89.1364752 C614.777015,89.1364752 604.264546,99.4760029 604.264546,114.909065 L604.264546,162 L592,162 L592,79.7498195" id="Fill-5" fill="#000000"></path>
            <path d="M757.092377,120.162483 L757.092377,119.84513 C757.092377,100.894098 742.449243,88.1548704 727,88.1548704 C710.909375,88.1548704 697.711979,99.9385692 697.711979,119.84513 L697.711979,120.162483 C697.711979,139.592146 711.39304,152.012286 727,152.012286 C742.449243,152.012286 757.092377,139.113515 757.092377,120.162483 Z M685,120.322027 L685,120.004673 C685,93.0920581 704.793466,77.1671565 724.748154,77.1671565 C740.193892,77.1671565 750.172112,85.4478279 756.608712,94.684028 L756.608712,45 L769,45 L769,161.248486 L756.608712,161.248486 L756.608712,144.687144 C749.849668,154.559785 740.03267,163 724.748154,163 C704.793466,163 685,147.394186 685,120.322027 L685,120.322027 Z" id="Fill-6" fill="#000000"></path>
            <path d="M864.542126,121.319122 L864.542126,121 C864.542126,103.323398 851.450539,88.829347 834.264719,88.829347 C816.599749,88.829347 804.457874,103.323398 804.457874,120.682612 L804.457874,121 C804.457874,138.678337 817.388027,153.012826 834.578999,153.012826 C852.242252,153.012826 864.542126,138.678337 864.542126,121.319122 Z M792,121.319122 L792,121 C792,97.7474287 809.975815,78 834.578999,78 C859.022467,78 877,97.4300407 877,120.682612 L877,121 C877,144.254306 858.864468,164 834.264719,164 C809.817816,164 792,144.571694 792,121.319122 L792,121.319122 Z" id="Fill-7" fill="#000000"></path>
            <g id="Group-11">
                <mask id="mask-2" fill="white">
                    <use xlink:href="#path-1"></use>
                </mask>
                <g id="Clip-9"></g>
                <polyline id="Fill-8" fill="#07FB9B" mask="url(#mask-2)" points="201.930276 59.1863735 142.787605 0.0402323307 59.139202 0.0402323307 160.109544 101.00884 201.930276 59.1863735"></polyline>
                <polyline id="Fill-10" fill="#FF216C" mask="url(#mask-2)" points="0 59.2141303 0 142.857328 59.147876 201.998265 59.147876 0.0679890697 0 59.2141303"></polyline>
            </g>
            <polyline id="Fill-12" fill="#000000" points="202 143 201.996516 143 160 101.003484 202 59 202 143"></polyline>
            <polyline id="Fill-13" fill="#34CCFE" points="59 202 142.770074 202 202 142.838643 160.115832 101 59 202"></polyline>
        </g>
    </g>
</svg>