<?xml version="1.0" encoding="UTF-8"?>
<svg width="1281px" height="720px" viewBox="0 0 1281 720" version="1.1" xmlns="http://www.w3.org/2000/svg" xmlns:xlink="http://www.w3.org/1999/xlink">
    <title>G&amp;L</title>
    <g id="G&amp;L" stroke="none" stroke-width="1" fill="none" fill-rule="evenodd" transform="translate(1.000000, 0.000000)">
        <rect id="Rectangle-2" x="0" y="0" width="1280" height="720"></rect>
        <g id="gl-logo" transform="translate(279.000000, 243.000000)">
            <path d="M337.985469,90.0164974 C333.993794,92.6333969 330.262577,95.6622158 326.858447,99.0605506 C320.51659,105.402897 315.537596,112.793215 312.060781,121.019488 C308.462822,129.530469 306.633556,138.574522 306.633556,147.897226 C306.633556,157.225989 308.462822,166.270042 312.060781,174.781023 C315.531539,183.007295 320.51659,190.397613 326.858447,196.746017 C333.206362,203.088364 340.596109,208.067742 348.815689,211.544827 C365.842394,218.735243 385.552426,218.735243 402.573074,211.544827 C410.804768,208.0738 418.194516,203.088364 424.536373,196.746017 C427.94656,193.32951 430.975145,189.598005 433.573671,185.618137 L338.439757,90.4708202 C338.288327,90.3193793 338.136898,90.173996 337.985469,90.0164974 Z M482.957779,235 L444.821836,196.86717 C429.030793,219.068413 403.142448,232.607233 375.69741,232.607233 C328.996628,232.607233 291,194.607671 291,147.897226 C291,119.523251 305.36155,92.966567 328.82097,77.3318039 C324.944381,69.8627365 322.921287,61.5455998 322.921287,52.9982729 C322.921287,38.8415734 328.427254,25.5390009 338.439757,15.519668 C348.446202,5.51245038 361.753804,0 375.915468,0 C390.077132,0 403.378678,5.51245038 413.39118,15.519668 L424.94826,27.0776409 L413.893925,38.1328298 L402.330787,26.5809146 C395.280241,19.5237666 385.897685,15.6347631 375.915468,15.6347631 C365.933252,15.6347631 356.550695,19.5237666 349.500149,26.5809146 C342.443546,33.6380626 338.554843,43.0213435 338.554843,52.9982729 C338.554843,60.4976285 340.753596,67.7122751 344.908814,73.8607774 C345.696246,75.0299015 346.550307,76.1505645 347.470997,77.2167088 C348.125172,77.9799711 348.79146,78.7129453 349.500149,79.4156313 L494,223.932696 L482.957779,235 L482.957779,235 Z" id="Fill-1" fill="#EC9243"></path>
            <g id="Group-5" transform="translate(0.000000, 5.000000)" fill="#081C25">
                <polyline id="Fill-2" points="561.768915 1.04133937 610.407676 1.04133937 610.407676 178.008489 720.620845 178.008489 720.620845 222.253303 561.768915 222.253303 561.768915 1.04133937"></polyline>
                <path d="M0,112.071122 L0,111.459638 C0,50.4867964 47.4589427,0.544886878 112.373144,0.544886878 C150.950173,0.544886878 174.219818,10.9643348 196.56981,29.962724 L166.868643,65.8041719 C150.339088,52.0185339 135.642789,44.0510769 110.842406,44.0510769 C76.5490238,44.0510769 49.298249,74.3831131 49.298249,110.8421 L49.298249,111.459638 C49.298249,150.679385 76.2404559,179.473629 114.2064,179.473629 C131.353091,179.473629 146.666526,175.187186 158.603866,166.608244 L158.603866,135.967439 L111.144923,135.967439 L111.144923,95.222009 L204.223502,95.222009 L204.223502,188.361339 C182.182078,207.050959 151.869827,222.368335 112.675662,222.368335 C45.9282042,222.368335 0,175.495955 0,112.071122" id="Fill-4"></path>
            </g>
        </g>
    </g>
</svg>