<?xml version="1.0" encoding="utf-8"?>
<!-- Generator: Adobe Illustrator 24.2.1, SVG Export Plug-In . SVG Version: 6.00 Build 0)  -->
<svg version="1.1" id="Layer_1" xmlns="http://www.w3.org/2000/svg" xmlns:xlink="http://www.w3.org/1999/xlink" x="0px" y="0px"
	 viewBox="0 0 350 150" style="enable-background:new 0 0 350 150;" xml:space="preserve">
<style type="text/css">
	.st0{fill:#4285F4;}
	.st1{fill:#EA4335;}
	.st2{fill:#FBBC05;}
	.st3{fill:#34A853;}
	.st4{fill:none;}
</style>
<path class="st0" d="M78.6,71.5v-8.9h29.9c0.4,1.5,0.5,3.4,0.5,5.4c0,6.7-1.8,15-7.7,20.8c-5.7,6-13.1,9.1-22.8,9.1
	c-18,0-33.1-14.7-33.1-32.6s15.1-32.6,33.1-32.6c9.9,0,17,3.9,22.3,9l-6.3,6.4c-3.8-3.5-9-6.4-16.1-6.4C65.3,41.7,55,52.3,55,65.4
	s10.3,23.8,23.4,23.8c8.5,0,13.4-3.4,16.4-6.5c2.5-2.5,4.1-6.1,4.8-11.1L78.6,71.5z"/>
<path class="st1" d="M154.4,77c0,12.1-9.5,21-21.2,21S112,89.1,112,77s9.5-21,21.2-21S154.4,64.8,154.4,77z M145.2,77
	c0-7.6-5.4-12.8-11.8-12.8c-6.4,0-11.8,5.2-11.8,12.8c0,7.4,5.4,12.8,11.8,12.8C139.7,89.8,145.2,84.5,145.2,77z"/>
<path class="st2" d="M200.4,77c0,12.1-9.5,21-21.2,21S158,89.1,158,77s9.5-21,21.2-21C191,56,200.4,64.8,200.4,77z M191.2,77
	c0-7.6-5.4-12.8-11.8-12.8c-6.4,0-11.8,5.2-11.8,12.8c0,7.4,5.4,12.8,11.8,12.8S191.2,84.5,191.2,77z"/>
<path class="st0" d="M244.6,57.3V95c0,15.5-9.1,21.9-20,21.9c-10.2,0-16.3-6.9-18.7-12.4l8-3.3c1.4,3.4,5,7.4,10.6,7.4
	c7,0,11.2-4.3,11.2-12.3v-3.1h-0.4c-2.1,2.6-6,4.7-11.1,4.7c-10.5,0-20.1-9.1-20.1-20.9s9.7-21.2,20.1-21.2c5,0,9,2.2,11.1,4.7h0.4
	v-3.4h8.7v0.2H244.6z M236.5,77.1c0-7.4-5-12.8-11.2-12.8c-6.4,0-11.7,5.4-11.7,12.8c0,7.3,5.3,12.6,11.7,12.6
	C231.5,89.8,236.5,84.5,236.5,77.1z"/>
<path class="st3" d="M260.2,35.2v61.6H251V35.2H260.2z"/>
<path class="st1" d="M295.9,84l7.2,4.7c-2.4,3.4-7.9,9.3-17.5,9.3c-11.9,0-20.9-9.2-20.9-21c0-12.5,9-21,19.9-21s16.2,8.6,18,13.4
	l0.9,2.4l-28.1,11.6c2.1,4.3,5.4,6.4,10.2,6.4C290.2,89.8,293.5,87.4,295.9,84L295.9,84z M273.8,76.4l18.8-7.8
	c-1.1-2.6-4.1-4.5-7.8-4.5C280.1,64.1,273.6,68.3,273.8,76.4L273.8,76.4z"/>
<path class="st4" d="M45,32.7h260v84.6H45V32.7z"/>
</svg>
