<?xml version="1.0" encoding="UTF-8"?>
<svg width="1280px" height="720px" viewBox="0 0 1280 720" version="1.1" xmlns="http://www.w3.org/2000/svg" xmlns:xlink="http://www.w3.org/1999/xlink">
    <title>M2A Media</title>
    <defs>
        <polygon id="path-1" points="0.107186441 0.485366055 1053.90532 0.485366055 1053.90532 173.998213 0.107186441 173.998213"></polygon>
        <polygon id="path-3" points="0.107186441 0.485366055 1053.90532 0.485366055 1053.90532 173.998213 0.107186441 173.998213"></polygon>
        <polygon id="path-5" points="0.107186441 0.485366055 1053.90532 0.485366055 1053.90532 173.998213 0.107186441 173.998213"></polygon>
        <polygon id="path-7" points="0.107186441 0.485366055 1053.90532 0.485366055 1053.90532 173.998213 0.107186441 173.998213"></polygon>
    </defs>
    <g id="M2A-Media" stroke="none" stroke-width="1" fill="none" fill-rule="evenodd">
        <rect id="Rectangle-2" x="0" y="0" width="1280" height="720"></rect>
        <g id="m2a-media" transform="translate(113.000000, 273.000000)">
            <path d="M655.009316,172.007035 C654.332248,171.343864 654,170.501457 654,169.481607 L654,69.6707427 C654,68.5487286 654.308901,67.6561359 654.928499,66.9947569 C655.549893,66.3315856 656.437086,66 657.57571,66 L664.89056,66 C666.754742,66 668.053205,66.7671279 668.778763,68.2888371 L701.922775,130.809759 L735.373892,68.2888371 C736.198227,66.7671279 737.448198,66 739.10944,66 L746.418902,66 C747.55573,66 748.442923,66.3315856 749.064317,66.9947569 C749.685711,67.6561359 750,68.5487286 750,69.6707427 L750,169.481607 C750,170.501457 749.660568,171.343864 748.9835,172.007035 C748.313615,172.670207 747.45875,173 746.418902,173 L739.262095,173 C738.224043,173 737.392524,172.670207 736.772926,172.007035 C736.149736,171.343864 735.835447,170.501457 735.835447,169.481607 L735.835447,93.5144393 L709.232237,144.110824 C708.19239,146.247311 706.538332,147.322724 704.253901,147.322724 L699.584465,147.322724 C697.40779,147.322724 695.746548,146.247311 694.607925,144.110824 L668.157369,93.5144393 L668.157369,169.481607 C668.157369,170.501457 667.819733,171.343864 667.142665,172.007035 C666.470984,172.670207 665.616119,173 664.576271,173 L657.57571,173 C656.535863,173 655.679201,172.670207 655.009316,172.007035" id="Fill-1" fill="#262B2B" fill-rule="nonzero"></path>
            <path d="M782.598181,164.239111 C776.264815,157.73125 772.782452,148.846246 772.161887,137.573284 L772,132.343206 L772.161887,127.273527 C772.782452,116.209623 776.264815,107.393104 782.598181,100.836583 C788.935145,94.2800625 797.401819,91 808.001799,91 C819.425602,91 828.2862,94.586442 834.571,101.761128 C840.8576,108.930408 844,118.666066 844,130.960894 L844,133.725518 C844,134.756395 843.661837,135.596235 842.983711,136.263061 C842.312781,136.929887 841.454782,137.2633 840.413311,137.2633 L786.341361,137.2633 L786.341361,138.647414 C786.647147,145.308464 788.731888,150.994506 792.575797,155.705541 C796.41431,160.423785 801.504747,162.775698 807.847107,162.775698 C812.725292,162.775698 816.70051,161.829526 819.763765,159.93538 C822.834216,158.039432 825.143799,156.069592 826.703308,154.015048 C827.633257,152.785925 828.359948,152.045208 828.883382,151.791093 C829.401419,151.531572 830.282802,151.401811 831.534726,151.401811 L838.38613,151.401811 C839.323274,151.401811 840.130908,151.661332 840.801839,152.174969 C841.479964,152.686802 841.818127,153.353628 841.818127,154.168237 C841.818127,156.428236 840.413311,159.1442 837.609074,162.317931 C834.806635,165.491662 830.831418,168.232857 825.687019,170.541516 C820.546218,172.844769 814.649945,174 808.001799,174 C797.401819,174 788.935145,170.746971 782.598181,164.239111 M829.813331,126.810353 L829.813331,126.354388 C829.813331,119.179702 827.843709,113.338668 823.893674,108.831285 C819.949036,104.323902 814.649945,102.063903 808.001799,102.063903 C801.247527,102.063903 795.946637,104.323902 792.108124,108.831285 C788.262416,113.338668 786.341361,119.179702 786.341361,126.354388 L786.341361,126.810353 L829.813331,126.810353" id="Fill-2" fill="#262B2B" fill-rule="nonzero"></path>
            <path d="M866.968355,163.611589 C861.5092,156.687773 858.567162,147.93134 858.153044,137.331542 L858,132.747313 L858.153044,128.168458 C858.567162,117.674353 861.532607,108.941209 867.047578,101.963651 C872.557148,94.9914664 880.717073,91.5 891.536356,91.5 C902.348436,91.5 910.774837,95.2673441 916.808356,102.803824 L916.808356,67.5165462 C916.808356,66.4972315 917.139651,65.6552668 917.818444,64.9942349 C918.497238,64.3314116 919.356082,64 920.391377,64 L927.409777,64 C928.452274,64 929.311119,64.3314116 929.989912,64.9942349 C930.661504,65.6552668 931,66.4972315 931,67.5165462 L931,168.955377 C931,169.974692 930.661504,170.816657 929.989912,171.47948 C929.311119,172.142303 928.452274,172.471924 927.409777,172.471924 L920.706467,172.471924 C919.66397,172.471924 918.837535,172.142303 918.207355,171.47948 C917.584377,170.816657 917.27649,169.974692 917.27649,168.955377 L917.27649,162.389844 C911.3474,170.128754 902.769756,174 891.536356,174 C880.618045,174 872.42571,170.538988 866.968355,163.611589 M910.881067,154.982346 C914.519904,150.244056 916.493267,144.617224 916.808356,138.098267 C916.905584,136.97505 916.9632,135.042115 916.9632,132.294085 C916.9632,129.438571 916.905584,127.457267 916.808356,126.33405 C916.597696,120.123217 914.593725,114.747183 910.800044,110.213113 C907.006363,105.682627 901.572415,103.418279 894.503601,103.418279 C887.015267,103.418279 881.556112,105.707706 878.118933,110.291935 C874.690756,114.876164 872.814621,120.884568 872.506733,128.315354 L872.346488,132.747313 C872.346488,152.305974 879.730392,162.083512 894.503601,162.083512 C901.775873,162.083512 907.235029,159.713471 910.881067,154.982346" id="Fill-3" fill="#262B2B" fill-rule="nonzero"></path>
            <path d="M953.040514,78.0644011 C952.344369,77.4048538 952,76.5670504 952,75.5527736 L952,67.6506836 C952,66.6381893 952.344369,65.7772127 953.040514,65.0677536 C953.73851,64.3600772 954.6198,64 955.684382,64 L965.148987,64 C966.220976,64 967.128186,64.3600772 967.876171,65.0677536 C968.626007,65.7772127 969,66.6381893 969,67.6506836 L969,75.5527736 C969,76.5670504 968.626007,77.4048538 967.876171,78.0644011 C967.128186,78.7239485 966.220976,79.0519396 965.148987,79.0519396 L955.684382,79.0519396 C954.6198,79.0519396 953.73851,78.7239485 953.040514,78.0644011 M954.321716,172.016027 C953.631126,171.358262 953.281202,170.520459 953.281202,169.507964 L953.281202,97.4461798 C953.281202,96.4319029 953.631126,95.6012298 954.321716,94.9363348 C955.019712,94.2839177 955.902853,93.954144 956.972991,93.954144 L964.025158,93.954144 C965.097147,93.954144 965.980288,94.2839177 966.678284,94.9363348 C967.368874,95.6012298 967.716946,96.4319029 967.716946,97.4461798 L967.716946,169.507964 C967.716946,170.520459 967.368874,171.358262 966.678284,172.016027 C965.980288,172.675574 965.097147,173 964.025158,173 L956.972991,173 C955.902853,173 955.019712,172.675574 954.321716,172.016027" id="Fill-4" fill="#262B2B" fill-rule="nonzero"></path>
            <g id="Group-10">
                <g id="Fill-5-Clipped">
                    <mask id="mask-2" fill="white">
                        <use xlink:href="#path-1"></use>
                    </mask>
                    <g id="path-1"></g>
                    <path d="M999.504627,170.950022 C995.220742,168.91849 991.819359,166.152604 989.289759,162.645219 C986.761946,159.143194 985.495359,155.257018 985.495359,150.990264 C985.495359,144.288174 988.28578,138.797499 993.855902,134.530745 C999.424237,130.263992 1007.01304,127.42485 1016.6098,125.997239 L1039.82459,122.795387 L1039.82459,118.37676 C1039.82459,107.915353 1033.6846,102.681969 1021.40282,102.681969 C1016.65982,102.681969 1012.84041,103.625372 1009.95173,105.503244 C1007.06306,107.382902 1004.94434,109.593109 1003.60451,112.132077 C1003.19541,113.148737 1002.75416,113.834848 1002.28969,114.19041 C1001.82343,114.545973 1001.18209,114.722861 1000.35497,114.722861 L994.320376,114.722861 C993.389641,114.722861 992.589315,114.392313 991.921186,113.731216 C991.247698,113.07548 990.918993,112.285738 990.918993,111.367349 C990.918993,109.035644 992.019441,106.318001 994.241773,103.221567 C996.462319,100.1162 999.890498,97.4289312 1004.53524,95.1401075 C1009.17999,92.856644 1014.85373,91.7131255 1021.56181,91.7131255 C1033.11651,91.7131255 1041.39487,94.357512 1046.40227,99.6391379 C1051.40252,104.922551 1053.90532,111.52101 1053.90532,119.448809 L1053.90532,168.966732 C1053.90532,169.983391 1053.56947,170.823163 1052.90313,171.484259 C1052.22964,172.145356 1051.37751,172.474118 1050.34316,172.474118 L1043.5386,172.474118 C1042.50425,172.474118 1041.67892,172.145356 1041.06081,171.484259 C1040.44092,170.823163 1040.12829,169.983391 1040.12829,168.966732 L1040.12829,162.266428 C1037.85951,165.620154 1034.55995,168.411053 1030.22783,170.644488 C1025.89572,172.879709 1020.32023,173.998213 1013.51389,173.998213 C1008.45827,173.998213 1003.78315,172.983341 999.504627,170.950022 M1033.32374,156.321919 C1037.65764,151.956895 1039.82459,145.60322 1039.82459,137.273403 L1039.82459,133.00665 L1021.71544,135.601007 C1014.28564,136.617666 1008.66014,138.343665 1004.84608,140.780788 C1001.02846,143.216125 999.118756,146.264317 999.118756,149.925363 C999.118756,154.086698 1000.84446,157.28855 1004.30301,159.521984 C1007.75977,161.757205 1011.86144,162.877496 1016.6098,162.877496 C1023.41614,162.877496 1028.99162,160.692304 1033.32374,156.321919" id="Fill-5" fill="#262B2B" fill-rule="nonzero" mask="url(#mask-2)"></path>
                </g>
                <g id="Fill-7-Clipped">
                    <mask id="mask-4" fill="white">
                        <use xlink:href="#path-3"></use>
                    </mask>
                    <g id="path-1"></g>
                    <path d="M428.174102,172.227546 C424.202844,172.227546 420.494193,170.120971 418.511244,166.729724 L374.598746,91.8489184 C372.610437,88.4594582 372.610437,84.2534543 374.598746,80.8622073 L383.547027,65.601596 L387.243173,59.7196228 L386.998431,59.7196228 L418.511244,5.98318845 C420.494193,2.59194149 424.202844,0.485366055 428.174102,0.485366055 L515.997312,0.485366055 C519.970356,0.485366055 523.671861,2.59194149 525.661956,5.98318845 L543.942603,37.1512138 L518.446522,37.1512138 C511.718786,37.1512138 505.453739,40.7139885 502.086298,46.4494483 L471.155864,99.1960245 C467.795569,104.924337 467.795569,112.055247 471.155864,117.790707 L502.086298,170.537283 C502.436441,171.125123 502.833031,171.682588 503.236766,172.227546 L428.174102,172.227546" id="Fill-7" fill="#DC4134" fill-rule="nonzero" mask="url(#mask-4)"></path>
                </g>
                <g id="Fill-8-Clipped">
                    <mask id="mask-6" fill="white">
                        <use xlink:href="#path-5"></use>
                    </mask>
                    <g id="path-1"></g>
                    <path d="M346.080007,166.731511 L321.764763,125.271819 C319.781814,121.880572 319.781814,117.670995 321.764763,114.279748 L346.080007,72.8200563 C348.070102,69.4305961 351.771607,67.3240207 355.742864,67.3240207 L373.614417,67.3240207 L367.904953,77.0564349 C364.544658,82.7918947 364.544658,89.9174442 367.904953,95.652904 L411.369054,169.774342 C409.416475,171.328812 406.956546,172.227546 404.375139,172.227546 L355.742864,172.227546 C351.771607,172.227546 348.070102,170.120971 346.080007,166.731511" id="Fill-8" fill="#DC4134" fill-rule="nonzero" mask="url(#mask-6)"></path>
                </g>
                <g id="Fill-9-Clipped">
                    <mask id="mask-8" fill="white">
                        <use xlink:href="#path-7"></use>
                    </mask>
                    <g id="path-1"></g>
                    <path d="M1.00397966,171.082241 C0.330491525,170.422931 0,169.58316 0,168.566501 L0,69.0678863 C0,67.9475956 0.305481356,67.059582 0.923589831,66.3984854 C1.54884407,65.7373888 2.4242,65.4068405 3.55501695,65.4068405 L10.8329763,65.4068405 C12.6873017,65.4068405 13.9788983,66.1715685 14.7006203,67.6903039 L47.6693831,130.015634 L80.9436271,67.6903039 C81.7653898,66.1715685 83.0069661,65.4068405 84.6594237,65.4068405 L91.9302373,65.4068405 C93.0610542,65.4068405 93.9435559,65.7373888 94.5616644,66.3984854 C95.1797729,67.059582 95.4924,67.9475956 95.4924,69.0678863 L95.4924,168.566501 C95.4924,169.58316 95.1547627,170.422931 94.4884203,171.082241 C93.8149322,171.743338 92.9645864,172.073886 91.9302373,172.073886 L84.8130576,172.073886 C83.7787085,172.073886 82.9587322,171.743338 82.333478,171.082241 C81.7153695,170.422931 81.4098881,169.58316 81.4098881,168.566501 L81.4098881,92.8369898 L54.9401966,143.275088 C53.9058475,145.404891 52.2605356,146.475153 49.9899695,146.475153 L45.3434373,146.475153 C43.1782712,146.475153 41.5240271,145.404891 40.3932102,143.275088 L14.0825119,92.8369898 L14.0825119,168.566501 C14.0825119,169.58316 13.746661,170.422931 13.0785322,171.082241 C12.4050441,171.743338 11.5546983,172.073886 10.5203492,172.073886 L3.55501695,172.073886 C2.52781356,172.073886 1.67032203,171.743338 1.00397966,171.082241" id="Fill-9" fill="#262B2B" fill-rule="nonzero" mask="url(#mask-8)"></path>
                </g>
            </g>
            <path d="M118.005247,171.011495 C117.330909,170.354272 117,169.517159 117,168.503719 L117,163.953032 C117,161.621584 118.287861,159.395221 120.874314,157.265036 L154.657405,124.304171 C162.298712,117.926085 167.568209,112.70927 170.460529,108.657288 C173.35285,104.605307 174.798116,100.303973 174.798116,95.7461616 C174.798116,89.7723832 173.095278,85.0934578 169.687813,81.6951366 C166.274982,78.307502 161.316718,76.6047793 154.809444,76.6047793 C148.615192,76.6047793 143.707012,78.3805267 140.090269,81.9266784 C136.46995,85.471049 134.250179,90.2301235 133.423802,96.2039019 C133.214524,97.3206458 132.701169,98.1755694 131.873003,98.7847024 C131.044837,99.3956165 130.225614,99.6948398 129.397448,99.6948398 L121.958264,99.6948398 C121.026353,99.6948398 120.255426,99.3956165 119.629382,98.7847024 C119.010494,98.1755694 118.704627,97.4738196 118.704627,96.656299 C118.906749,91.2916536 120.384212,86.0997741 123.11555,81.0895658 C125.855831,76.0740142 129.912592,71.9739433 135.287622,68.7840098 C140.655497,65.5976384 147.162771,64 154.809444,64 C166.378726,64 175.087885,66.9655161 180.92082,72.8894239 C186.753756,78.8079885 189.676485,86.3313159 189.676485,95.4415951 C189.676485,101.823243 188.102433,107.570823 184.95254,112.686116 C181.795492,117.797846 176.864059,123.19277 170.154663,128.861982 L139.625209,159.242047 L188.438707,159.242047 C189.57274,159.242047 190.454567,159.546613 191.075244,160.152184 C191.692344,160.761317 192,161.621584 192,162.731204 L192,168.503719 C192,169.517159 191.669091,170.354272 190.994753,171.011495 C190.320415,171.670498 189.468996,172 188.438707,172 L120.561293,172 C119.531004,172 118.674219,171.670498 118.005247,171.011495" id="Fill-11" fill="#262B2B" fill-rule="nonzero"></path>
            <path d="M203.927053,171.085914 C203.311989,170.471147 203,169.759594 203,168.942294 L203.311989,167.26647 L241.611737,68.365986 C242.43717,66.1237877 244.084471,65 246.558988,65 L256.441012,65 C258.915529,65 260.557481,66.1237877 261.381132,68.365986 L299.688011,167.26647 L300,168.942294 C300,169.759594 299.664835,170.471147 298.992722,171.085914 C298.320609,171.693512 297.575401,172 296.751751,172 L289.495782,172 C288.463545,172 287.614935,171.723982 286.94817,171.1594 C286.276057,170.600194 285.83749,170.017689 285.636034,169.402921 L276.985921,147.39138 L225.860758,147.39138 L217.365748,169.402921 C216.540315,171.141476 215.251355,172 213.504218,172 L206.089581,172 C205.26593,172 204.545682,171.693512 203.927053,171.085914 M230.337352,134.703513 L272.657299,134.703513 L251.500891,79.8296956 L230.337352,134.703513" id="Fill-12" fill="#262B2B" fill-rule="nonzero"></path>
            <path d="M518.076144,45 C514.098701,45 510.396304,47.1153911 508.413834,50.5208298 L477.490871,103.480964 C475.503043,106.886403 475.503043,111.115391 477.490871,114.52083 L508.413834,167.486347 C510.330222,170.762602 513.841516,172.827754 517.654646,172.976675 L530.844324,172.976675 C530.840752,172.982058 530.833608,172.994617 530.82825,173 L579.92207,173 C583.894154,173 587.596552,170.886403 589.58438,167.486347 L620.509129,114.52083 C622.496957,111.115391 622.496957,106.886403 620.509129,103.480964 L589.58438,50.5208298 C587.596552,47.1153911 583.894154,45 579.92207,45 L579.8417,45" id="Fill-13" fill="#DC4134" fill-rule="nonzero"></path>
        </g>
    </g>
</svg>