<?xml version="1.0" encoding="utf-8"?>
<!-- Generator: Adobe Illustrator 24.2.1, SVG Export Plug-In . SVG Version: 6.00 Build 0)  -->
<svg version="1.1" id="Layer_1" xmlns="http://www.w3.org/2000/svg" xmlns:xlink="http://www.w3.org/1999/xlink" x="0px" y="0px"
	 viewBox="0 0 350 150" style="enable-background:new 0 0 350 150;" xml:space="preserve">
<style type="text/css">
	.st0{opacity:0.7;fill:url(#Shape_8_);enable-background:new    ;}
	.st1{fill:url(#Shape_9_);}
	.st2{opacity:0.7;fill:url(#Shape_10_);enable-background:new    ;}
	.st3{opacity:0.7;fill:url(#Shape_11_);enable-background:new    ;}
	.st4{fill:url(#Oval_3_);}
	.st5{fill:url(#Oval_4_);}
	.st6{fill:url(#Shape_12_);}
	.st7{fill:url(#Oval_5_);}
	.st8{opacity:0.7;fill:url(#Shape_13_);enable-background:new    ;}
	.st9{fill:url(#Shape_14_);}
	.st10{fill:url(#Shape_15_);}
</style>
<g id="Page-1">
	<g id="Mux_Logo_Pixels_Medium_1_">
		<g id="Symbols">
			<g id="UI_x2F_Nav_x2F_Variations_x2F_Base">
				<g id="Mux_Logo_Pixels_Medium">
					<g id="Layer_1_1_">
						
							<linearGradient id="Shape_8_" gradientUnits="userSpaceOnUse" x1="-1991.1133" y1="-83.8127" x2="-1973.8754" y2="-83.8127" gradientTransform="matrix(12.7248 0 0 12.8014 25399.6504 1147.1243)">
							<stop  offset="0" style="stop-color:#FF4E00"/>
							<stop  offset="1" style="stop-color:#FF1791"/>
						</linearGradient>
						<path id="Shape" class="st0" d="M269.7,107.2c3,3,7.7,3,10.4,0c3-3,3-7.7,0-10.5l-55-55.4c-3-3-7.7-3-10.4,0s-3,7.7,0,10.5
							L269.7,107.2L269.7,107.2z"/>
						
							<linearGradient id="Shape_9_" gradientUnits="userSpaceOnUse" x1="-1990.708" y1="-83.7757" x2="-1973.6603" y2="-83.7757" gradientTransform="matrix(12.7104 0 0 12.8014 25368.4199 1147.2415)">
							<stop  offset="0" style="stop-color:#FF4E00"/>
							<stop  offset="1" style="stop-color:#FF1791"/>
						</linearGradient>
						<path id="Shape_1_" class="st1" d="M225.1,107.8c-3,3-7.7,3-10.4,0s-3-7.7,0-10.5l55-55.4c3-3,7.7-3,10.4,0s3,7.7,0,10.5
							L225.1,107.8L225.1,107.8z"/>
						
							<linearGradient id="Shape_10_" gradientUnits="userSpaceOnUse" x1="-1825.4233" y1="-83.7145" x2="-1856.3356" y2="-83.7145" gradientTransform="matrix(7.1852 0 0 12.7623 13403.6885 1142.5939)">
							<stop  offset="0" style="stop-color:#FF4E00"/>
							<stop  offset="1" style="stop-color:#FF1791"/>
						</linearGradient>
						<path id="Shape_2_" class="st2" d="M174.1,94.5c9.3,0,17-7.7,17-17.2V46.8c0-4.3,3.2-7.7,7.5-7.7s7.5,3.4,7.5,7.7v30.3
							c0,17.8-14.3,32.2-32.1,32.2c-4,0-7.5-3.4-7.5-7.5C166.9,97.7,170.1,94.5,174.1,94.5L174.1,94.5z"/>
						
							<linearGradient id="Shape_11_" gradientUnits="userSpaceOnUse" x1="-1348.5135" y1="-83.682" x2="-1266.8174" y2="-83.682" gradientTransform="matrix(2.7187 0 0 12.7623 3729.8376 1142.7111)">
							<stop  offset="0" style="stop-color:#FF4E00"/>
							<stop  offset="1" style="stop-color:#FF1791"/>
						</linearGradient>
						<path id="Shape_3_" class="st3" d="M128.2,39.7c-4.3,0-7.5,3.4-7.5,7.7v54.7c0,4.3,3.2,7.7,7.5,7.7s7.5-3.4,7.5-7.7V47.5
							C135.7,43.1,132.5,39.7,128.2,39.7L128.2,39.7z"/>
						
							<linearGradient id="Oval_3_" gradientUnits="userSpaceOnUse" x1="-1352.6698" y1="28.3811" x2="-1272.6431" y2="28.3811" gradientTransform="matrix(2.7187 0 0 2.732 3742.6531 -30.9658)">
							<stop  offset="0" style="stop-color:#FF4E00"/>
							<stop  offset="1" style="stop-color:#FF1791"/>
						</linearGradient>
						<ellipse id="Oval" class="st4" cx="198.7" cy="46.6" rx="7.5" ry="7.5"/>
						
							<linearGradient id="Oval_4_" gradientUnits="userSpaceOnUse" x1="-1359.3839" y1="45.1125" x2="-1277.6876" y2="45.1125" gradientTransform="matrix(2.7187 0 0 2.732 3756.6353 -20.8184)">
							<stop  offset="0" style="stop-color:#FF4E00"/>
							<stop  offset="1" style="stop-color:#FF1791"/>
						</linearGradient>
						<ellipse id="Oval_1_" class="st5" cx="275.5" cy="102.4" rx="7.5" ry="7.5"/>
						
							<linearGradient id="Shape_12_" gradientUnits="userSpaceOnUse" x1="-1344.9955" y1="-83.682" x2="-1263.2992" y2="-83.682" gradientTransform="matrix(2.7187 0 0 12.7623 3719.738 1142.7111)">
							<stop  offset="0" style="stop-color:#FF4E00"/>
							<stop  offset="1" style="stop-color:#FF1791"/>
						</linearGradient>
						<path id="Shape_4_" class="st6" d="M72.7,39.7c-4.3,0-7.5,3.4-7.5,7.7v54.7c0,4.3,3.2,7.7,7.5,7.7s7.5-3.4,7.5-7.7V47.5
							C80.2,43.1,77,39.7,72.7,39.7L72.7,39.7z"/>
						
							<linearGradient id="Oval_5_" gradientUnits="userSpaceOnUse" x1="-1348.636" y1="45.1125" x2="-1266.4639" y2="45.1125" gradientTransform="matrix(2.7187 0 0 2.732 3729.8362 -20.8184)">
							<stop  offset="0" style="stop-color:#FF4E00"/>
							<stop  offset="1" style="stop-color:#FF1791"/>
						</linearGradient>
						<ellipse id="Oval_2_" class="st7" cx="128.2" cy="102.4" rx="7.5" ry="7.5"/>
						
							<linearGradient id="Shape_13_" gradientUnits="userSpaceOnUse" x1="-1874.3998" y1="-64.0573" x2="-1846.0378" y2="-64.0573" gradientTransform="matrix(7.7001 0 0 7.7667 14499.4482 558.1086)">
							<stop  offset="0" style="stop-color:#FF4E00"/>
							<stop  offset="1" style="stop-color:#FF1791"/>
						</linearGradient>
						<path id="Shape_5_" class="st8" d="M95,79.7c3,3,7.7,3,10.4,0c2.7-3,3-7.7,0-10.5L77.9,41.5c-2.7-3-7.5-3-10.4,0
							c-3,3-2.7,7.7,0,10.5L95,79.7L95,79.7z"/>
						
							<linearGradient id="Shape_14_" gradientUnits="userSpaceOnUse" x1="-1875.6733" y1="-64.0573" x2="-1847.9308" y2="-64.0573" gradientTransform="matrix(7.7146 0 0 7.7667 14535.7627 558.1086)">
							<stop  offset="0" style="stop-color:#FF4E00"/>
							<stop  offset="1" style="stop-color:#FF1791"/>
						</linearGradient>
						<path id="Shape_6_" class="st9" d="M105.8,79.7c-3,3-7.7,3-10.4,0c-2.7-3-3-7.7,0-10.5l27.5-27.7c3-3,7.7-3,10.4,0
							c3,3,3,7.7,0,10.5L105.8,79.7L105.8,79.7z"/>
						
							<linearGradient id="Shape_15_" gradientUnits="userSpaceOnUse" x1="-1856.2115" y1="-83.7145" x2="-1825.2994" y2="-83.7145" gradientTransform="matrix(7.1852 0 0 12.7623 13399.2246 1142.5939)">
							<stop  offset="0" style="stop-color:#FF4E00"/>
							<stop  offset="1" style="stop-color:#FF1791"/>
						</linearGradient>
						<path id="Shape_7_" class="st10" d="M174.1,94.5c-9.3,0-17-7.7-17-17.2V46.8c0-4.3-3.2-7.7-7.5-7.7c-4.3,0-7.5,3.4-7.5,7.7
							v30.3c0,17.8,14.3,32.2,32.1,32.2c4,0,7.5-3.4,7.5-7.5C181.3,97.7,178.1,94.5,174.1,94.5L174.1,94.5z"/>
					</g>
				</g>
			</g>
		</g>
	</g>
</g>
</svg>
