<?xml version="1.0" encoding="UTF-8"?>
<svg width="1280px" height="720px" viewBox="0 0 1280 720" version="1.1" xmlns="http://www.w3.org/2000/svg" xmlns:xlink="http://www.w3.org/1999/xlink">
    <title>NS1</title>
    <g id="NS1" stroke="none" stroke-width="1" fill="none" fill-rule="evenodd">
        <rect id="Rectangle-2" x="0" y="0" width="1280" height="720"></rect>
        <g id="NS1-logo-color-black" transform="translate(372.000000, 247.000000)" fill-rule="nonzero">
            <g id="_Group_" fill="#221F1F">
                <path d="M43.0382979,60.1576688 C45.2510638,82.1940932 46.1804255,99.186035 46.1804255,137.285154 L46.1804255,220.696118 L0.221276596,220.696118 L0.221276596,0 L57.8417021,0 L102.893617,86.9067021 C113.957447,108.002817 125.873191,132.550421 134.060426,154.586845 L135.321702,154.586845 C132.765957,123.744701 132.765957,93.2123054 132.765957,69.9147603 L132.765957,0 L178.415319,0 L178.415319,220.696118 L122.067234,220.696118 L73.5744681,127.517 C62.5106383,106.111136 53.427234,84.3733982 44.2995745,60.1466063 L43.0382979,60.1576688 Z" id="_Compound_Path_"></path>
                <path d="M312.995745,164.985559 C312.995745,130.039242 211.308085,134.762913 211.308085,65.191089 C211.308085,28.6849642 243.393191,0.0331873862 289.075745,0.0331873862 C325.918298,0.0331873862 348.897872,17.0361916 356.133617,26.4724717 L326.261277,62.0493498 C320.917447,55.4118725 308.315745,41.5837949 285.015319,41.5837949 C269.271489,41.5837949 260.453617,50.4337646 260.453617,61.4187894 C260.453617,96.9956675 361.831489,91.6414358 361.831489,161.84382 C361.831489,194.898457 334.437447,227.001722 278.399149,227.001722 C235.891915,227.001722 209.449362,208.107037 201.892766,199.611066 L229.286809,159.941077 C238.735319,169.388419 257.931064,186.380361 284.694468,186.380361 C303.857021,186.391424 312.995745,176.634332 312.995745,164.985559 Z" id="_Compound_Path_2"></path>
                <polyline id="_Compound_Path_3" points="397.589787 67.8903298 378.980426 30.5766452 421.078298 1.43812007 467.612766 1.43812007 467.612766 221.116492 421.388085 221.116492 421.388085 107.471819 422.970213 50.9979502"></polyline>
            </g>
            <path d="M510.088317,170 C525.427751,170 537,181.567235 537,197.170602 C537,211.432349 525.427751,223 510.088317,223 C503.20034,223.038552 496.579642,220.337736 491.68581,215.492552 C486.791979,210.647368 484.026843,204.055652 484,197.170602 C484,181.567235 495.549691,170 510.088317,170 Z" id="_Compound_Path_4" fill="#F4006F"></path>
        </g>
    </g>
</svg>