<?xml version="1.0" encoding="UTF-8"?>
<svg width="1280px" height="720px" viewBox="0 0 1280 720" version="1.1" xmlns="http://www.w3.org/2000/svg" xmlns:xlink="http://www.w3.org/1999/xlink">
    <title>Philo</title>
    <g id="Philo" stroke="none" stroke-width="1" fill="none" fill-rule="evenodd">
        <rect id="Rectangle-2" x="0" y="0" width="1280" height="720"></rect>
        <g id="philo-bed02323" transform="translate(325.000000, 222.000000)" fill-rule="nonzero">
            <path d="M552,87.493865 C519.359281,87.493865 492.868263,113.644172 492.868263,145.5 C492.868263,177.355828 519.359281,203.506135 552,203.506135 C584.640719,203.506135 611.131737,177.355828 611.131737,145.5 C611.131737,113.168712 584.640719,87.493865 552,87.493865 M631,145.5 C631,188.291411 595.520958,223 552,223 C508.479042,223 473,188.291411 473,145.5 C473,102.708589 508.479042,68 552,68 C595.520958,68 631,102.708589 631,145.5" id="Fill-1" fill="#0C93F2"></path>
            <path d="M386,14 C386,20.72 380.230769,26 373.5,26 C366.769231,26 361,20.72 361,14 C361,7.28 366.769231,2 373.5,2 C380.230769,2 386,7.28 386,14" id="Fill-3" fill="#0C93F2"></path>
            <path d="M187.897611,0 C186.948805,0 186,0.95503212 186,1.91006424 L186,2.3875803 L186,212.972163 C186,218.224839 190.269625,222.522484 195.962457,222.522484 C201.180887,222.522484 205.924915,218.702355 205.924915,213.927195 C205.924915,213.927195 205.924915,213.927195 205.924915,213.927195 L205.924915,139.43469 C205.924915,110.30621 230.593857,88.3404711 260.481229,88.3404711 C290.368601,88.3404711 305.075085,109.828694 305.075085,138.957173 L305.075085,212.494647 C305.075085,212.494647 305.075085,212.972163 305.075085,212.972163 C305.075085,218.224839 309.34471,223 315.037543,223 C320.255973,223 325,218.702355 325,213.927195 L325,135.614561 C325,83.0877944 290.368601,68.2847966 260.955631,68.2847966 C238.658703,68.2847966 218.733788,76.8800857 206.399317,94.0706638 L206.399317,24.8308351 C205.924915,12.4154176 199.283276,1.43254818 187.897611,0 L187.897611,0 Z" id="Fill-5" fill="#0C92F2"></path>
            <path d="M365,213.496894 L365,213.496894 C365,218.248447 369.761905,223 375,223 C380.238095,223 385,218.248447 385,213.496894 L385,213.496894 L385,93.757764 C385,82.3540373 378.333333,70.9503106 366.904762,70 L366.904762,70 C365.952381,70 365,70.9503106 365,71.9006211 L365,213.496894 L365,213.496894 Z" id="Fill-7" fill="#0C93F2"></path>
            <path d="M424,213.449679 L424,213.449679 C424,218.224839 428.285714,223 434,223 C439.238095,223 444,218.224839 444,213.449679 L444,23.875803 C444,12.4154176 437.333333,0.95503212 425.904762,0 L425.904762,0 C424.952381,0 424,0.95503212 424,1.91006424 L424,213.449679 L424,213.449679 Z" id="Fill-9" fill="#0C93F2"></path>
            <path d="M19.8682635,275.278119 C19.8682635,286.664622 13.245509,298.051125 1.89221557,299 L1.89221557,299 C0.946107784,299 0,298.051125 0,297.102249 C0,297.102249 0,144.333333 0,144.333333 C0,100.685072 34.5329341,67 79,67 C123.467066,67 158,100.685072 158,144.333333 C158,187.981595 123.467066,221.666667 79,221.666667 C47.3053892,221.666667 42.5748503,205.535787 45.8862275,195.572597 L45.8862275,195.572597 C46.3592814,194.623722 46.8323353,194.149284 47.7784431,194.149284 C48.251497,194.149284 48.7245509,194.149284 49.1976048,194.623722 L49.6706587,194.623722 C57.239521,199.842536 63.8622754,203.163599 79,203.163599 C113.532934,203.163599 138.131737,173.748466 138.131737,144.807771 C138.131737,115.867076 113.532934,86.9263804 79,86.9263804 C44.4670659,86.9263804 19.8682635,115.867076 19.8682635,144.807771 L19.8682635,275.278119 Z" id="Fill-11" fill="#0C93F2"></path>
        </g>
    </g>
</svg>