<?xml version="1.0" encoding="UTF-8"?>
<svg width="1280px" height="720px" viewBox="0 0 1280 720" version="1.1" xmlns="http://www.w3.org/2000/svg" xmlns:xlink="http://www.w3.org/1999/xlink">
    <title>Qualabs</title>
    <g id="Qualabs" stroke="none" stroke-width="1" fill="none" fill-rule="evenodd" transform="translate(0.000000, 0.000000)">
        <rect id="Rectangle-2" x="0" y="0" width="1280" height="720"></rect>
        <g id="Logo-qualabs-2019-gris" transform="translate(130.000000, 253.000000)" fill-rule="nonzero">
            <path d="M182,12.8618916 C103.468643,-22.1585182 26.6610319,18.5801403 6.11584995,83.8763587 C-4.94096753,119.051316 13.4301211,153.808995 61.2135865,162 C1.58131245,103.550225 93.0951122,-2.65465362 182,12.8618916 Z" id="path11_14_" fill="#36B4A7"></path>
            <path d="M33,158.007896 L59.9861652,192.090085 C108.054786,240.246323 211.493985,209.612742 233.011451,127.094698 C236.755646,102.566085 236.134203,74.4490558 223.021754,47 C205.248482,129.300564 116.584093,185.954048 33,158.007896 Z" id="path13_13_" fill="#64BA93"></path>
            <path d="M188.531751,193 C206.210774,179.844076 219.231663,165.364776 226.89101,147.320142 C266.672719,54.1388371 203.44403,-21.184664 110,24.9622681 C149.844234,8.427841 202.068474,12.8027694 222.38919,47.366261 C256.230997,105.221187 209.60277,182.599814 188.531751,193 Z" id="path15_14_" fill="#DBDFE2"></path>
            <path d="M139,150.290093 C91.1614571,165.753842 4.43661337,167.831296 3.06890974,103.820745 C2.77361009,94.9173744 4.6386605,89.6534517 6.02190621,81 L3.23987269,89.247333 C-18.75218,161.489596 76.1478014,182.576527 139,150.290093 Z" id="path17_14_" fill="#FFFFFF"></path>
            <g id="Group" transform="translate(258.000000, 9.000000)">
                <path d="M112.28303,198.580234 L98.5789365,198.580234 L98.5789365,137.869688 C86.956871,152.748047 72.6002018,160.179453 55.5400039,160.179453 C40.0490957,160.179453 26.9820407,154.302734 16.3388389,142.53375 C5.83547485,130.982422 0.583792814,116.974688 0.583792814,100.510547 C0.583792814,84.2485156 5.94423749,70.3496094 16.6806644,58.7982813 C27.4170912,47.2469531 40.4996838,41.4635156 55.9284419,41.4635156 C73.5946031,41.4635156 87.8114346,49.3457813 98.5789365,65.1258594 L98.5789365,44.3707813 L112.28303,44.3707813 L112.28303,198.580234 Z M99.4645752,101.427813 C99.4645752,88.5239063 95.4403573,77.6410938 87.4074591,68.8104688 C79.3745608,59.9798438 69.2596348,55.5489844 57.062681,55.5489844 C40.6705965,55.5489844 28.4425676,63.1047656 20.3785943,78.231875 C16.5097516,85.4145313 14.5830991,93.0014063 14.5830991,101.008047 C14.5830991,109.014688 16.5097516,116.632656 20.3785943,123.846406 C24.247437,131.060156 29.436969,136.688125 35.9627277,140.730313 C42.4884864,144.7725 49.4959083,146.793594 56.9694558,146.793594 C64.5051534,146.793594 71.652413,144.788047 78.4112345,140.7925 C85.1700561,136.781406 90.359588,131.371094 94.0109054,124.530469 C97.6466853,117.689844 99.4645752,109.994141 99.4645752,101.427813 Z" id="Shape" fill="#4D4D4D"></path>
                <path d="M233.304779,99.7798437 C233.304779,112.512734 232.155003,122.618203 229.85545,130.080703 C226.701333,140.248359 220.936913,148.037344 212.593264,153.432109 C205.632455,157.925156 196.915906,160.179453 186.474692,160.179453 C165.903014,160.179453 151.965858,151.706406 144.663223,134.760312 C141.182819,126.800312 139.442616,114.798125 139.442616,98.75375 L139.442616,44.3707812 L153.441923,44.3707812 L153.441923,97.0435937 C153.441923,110.040781 154.094498,118.886953 155.415188,123.582109 C157.450603,130.764766 161.381596,136.377188 167.208166,140.372734 C172.708448,144.103984 179.140982,145.969609 186.474692,145.969609 C193.621951,145.969609 199.868035,144.212812 205.244017,140.683672 C210.946287,136.890234 214.87728,131.557656 217.036995,124.717031 C218.404297,120.363906 219.103485,111.144609 219.103485,97.0435938 L219.103485,44.3707812 L233.304779,44.3707812 L233.304779,99.7798437 L233.304779,99.7798437 Z" id="Path" fill="#4D4D4D"></path>
                <path d="M368.838573,157.272188 L355.13448,157.272188 L355.13448,137.869688 C343.512415,152.748047 329.171283,160.179453 312.095547,160.179453 C296.604639,160.179453 283.537584,154.302734 272.894382,142.53375 C262.391018,130.982422 257.139336,116.974688 257.139336,100.510547 C257.139336,84.2485156 262.499781,70.3496094 273.236208,58.7982813 C283.972635,47.2469531 297.055227,41.4635156 312.483986,41.4635156 C330.150147,41.4635156 344.366978,49.3457813 355.13448,65.1258594 L355.13448,44.3707813 L368.838573,44.3707813 L368.838573,157.272188 Z M356.020119,101.427813 C356.020119,88.5239063 351.995901,77.6410938 343.97854,68.8104688 C335.945642,59.9798438 325.830716,55.5489844 313.633762,55.5489844 C297.241678,55.5489844 285.013649,63.1047656 276.949675,78.231875 C273.080833,85.4145313 271.15418,93.0014063 271.15418,101.008047 C271.15418,109.014688 273.080833,116.632656 276.949675,123.846406 C280.818518,131.060156 286.023588,136.688125 292.549346,140.730313 C299.075105,144.7725 306.066989,146.793594 313.556074,146.793594 C321.091772,146.793594 328.239032,144.788047 334.997853,140.7925 C341.756675,136.781406 346.946207,131.371094 350.597524,124.530469 C354.186691,117.689844 356.020119,109.994141 356.020119,101.427813 Z" id="Shape" fill="#4D4D4D"></path>
                <polygon id="Path" fill="#64BA93" points="409.702253 157.272188 395.796172 157.272188 395.796172 0.761796875 409.702253 0.761796875"></polygon>
                <path d="M543.154019,157.272188 L529.449926,157.272188 L529.449926,137.869688 C517.827861,152.748047 503.486729,160.179453 486.410993,160.179453 C470.920085,160.179453 457.85303,154.302734 447.209828,142.53375 C436.706464,130.982422 431.454782,116.974688 431.454782,100.510547 C431.454782,84.2485156 436.815227,70.3496094 447.551654,58.7982813 C458.288081,47.2469531 471.370673,41.4635156 486.799431,41.4635156 C504.465593,41.4635156 518.682424,49.3457813 529.449926,65.1258594 L529.449926,44.3707813 L543.154019,44.3707813 L543.154019,157.272188 Z M530.335565,101.427813 C530.335565,88.5239063 526.311347,77.6410938 518.293986,68.8104688 C510.261088,59.9798438 500.146162,55.5489844 487.949208,55.5489844 C471.557124,55.5489844 459.329095,63.1047656 451.265121,78.231875 C447.396279,85.4145313 445.454089,93.0014063 445.454089,101.008047 C445.454089,109.014688 447.380741,116.632656 451.265121,123.846406 C455.133964,131.060156 460.323496,136.688125 466.864792,140.730313 C473.390551,144.7725 480.382435,146.793594 487.87152,146.793594 C495.407218,146.793594 502.554478,144.788047 509.313299,140.7925 C516.072121,136.781406 521.261653,131.371094 524.91297,124.530469 C528.517675,117.689844 530.335565,109.994141 530.335565,101.427813 Z" id="Shape" fill="#64BA93"></path>
                <path d="M684.794059,101.023594 C684.794059,117.347813 679.418077,131.293359 668.68165,142.844688 C657.945223,154.396016 644.862631,160.179453 629.433872,160.179453 C611.969699,160.179453 597.783943,152.297188 586.876603,136.517109 L586.876603,157.272188 L573.079284,157.272188 L573.079284,0.761796875 L586.876603,0.761796875 L586.876603,63.7577344 C598.374368,48.879375 612.684425,41.4479688 629.82231,41.4479688 C645.313219,41.4479688 658.349199,47.2780469 668.93025,58.9382031 C679.511302,70.5983594 684.794059,84.6216406 684.794059,101.023594 Z M670.794753,100.603828 C670.794753,92.5971875 668.852563,84.9636719 664.98372,77.7188281 C661.114877,70.4739844 655.909808,64.8304688 649.384049,60.7882813 C642.85829,56.7460938 635.897481,54.725 628.486084,54.725 C620.934849,54.725 613.772051,56.7460938 606.997692,60.7882813 C600.207796,64.8304688 594.987189,70.2563281 591.351409,77.0969531 C587.715629,83.9375781 585.897739,91.6332813 585.897739,100.184063 C585.897739,113.087969 589.921957,123.970781 597.954855,132.801406 C605.987754,141.632031 616.10268,146.047344 628.299633,146.047344 C644.691718,146.047344 656.950822,138.491563 665.092483,123.38 C668.899175,116.212891 670.794753,108.610469 670.794753,100.603828 Z" id="Shape" fill="#64BA93"></path>
                <path d="M761.953387,126.909141 C761.953387,136.470469 758.830346,144.399375 752.584262,150.711406 C746.338179,157.023437 738.647106,160.163906 729.511044,160.163906 C716.304151,160.163906 705.754175,154.831328 697.861114,144.181719 L706.546588,133.796406 C713.55401,142.098438 720.996483,146.249453 728.874006,146.249453 C734.048,146.249453 738.662644,144.477109 742.702399,140.916875 C746.742155,137.356641 748.746495,132.894688 748.746495,127.515469 C748.746495,122.074063 746.353717,117.270078 741.56816,113.134609 C739.206457,111.066875 734.545201,108.159609 727.599929,104.428359 C719.660256,100.137422 713.864761,95.8775781 710.182368,91.664375 C705.194824,85.9897656 702.708821,79.2113281 702.708821,71.3290625 C702.708821,62.5450781 705.521112,55.3624219 711.145694,49.7966406 C716.770277,44.2308594 723.746624,41.4479687 732.10581,41.4479687 C741.956598,41.4479687 751.885074,46.5317969 761.8757,56.6994531 L753.019313,66.3540625 C745.670066,58.8760156 738.491731,55.1447656 731.468772,55.1447656 C727.195953,55.1447656 723.435873,56.6217187 720.157456,59.575625 C716.87904,62.5295313 715.232062,66.2141406 715.232062,70.6139062 C715.232062,78.0453125 722.053034,85.4767187 735.694977,92.908125 C744.085239,97.4789063 750.191484,101.847578 753.998177,105.998594 C759.296471,111.844219 761.953387,118.809219 761.953387,126.909141 Z" id="Path" fill="#64BA93"></path>
            </g>
        </g>
    </g>
</svg>