<?xml version="1.0" encoding="UTF-8"?>
<svg width="1281px" height="720px" viewBox="0 0 1281 720" version="1.1" xmlns="http://www.w3.org/2000/svg" xmlns:xlink="http://www.w3.org/1999/xlink">
    <title>Techex</title>
    <g id="Techex" stroke="none" stroke-width="1" fill="none" fill-rule="evenodd" transform="translate(1.000000, 0.000000)">
        <rect id="Rectangle-2" x="0" y="0" width="1280" height="720"></rect>
        <g id="techex" transform="translate(220.000000, 262.000000)" fill-rule="nonzero">
            <path d="M18.1630901,85.5702479 L1.31616595,85.5702479 L0,80.4132231 L48.5665236,18 L54.4892704,18 L54.4892704,57.4049587 L85.9456366,57.4049587 C86.472103,60.0495868 86.8669528,62.4297521 86.9985694,64.4132231 C87.130186,66.5289256 87.2618026,68.6446281 87.2618026,70.892562 C87.2618026,73.2727273 87.130186,75.6528926 86.9985694,77.9008264 C86.8669528,80.1487603 86.472103,82.661157 85.9456366,85.4380165 L54.620887,85.4380165 L54.620887,138.46281 C54.620887,143.884298 55.0157368,148.247934 55.9370529,151.553719 C56.8583691,154.859504 58.0429185,157.504132 59.7539342,159.355372 C61.3333333,161.338843 63.4391989,162.528926 65.8082976,163.322314 C68.1773963,163.983471 71.0729614,164.380165 74.3633763,164.380165 C76.9957082,164.380165 79.4964235,164.115702 81.9971388,163.719008 C84.4978541,163.322314 86.7353362,162.92562 88.5779685,162.528926 C89.7625179,165.834711 90.683834,169.272727 91.2103004,172.842975 C91.7367668,176.413223 92,179.586777 92,182.363636 C92,184.347107 92,185.933884 91.8683834,187.256198 C91.7367668,188.578512 91.6051502,189.768595 91.4735336,191.090909 C83.4449213,192.942149 75.2846924,194 66.7296137,194 C50.9356223,194 38.9585122,190.297521 30.6666667,182.892562 C22.3748212,175.487603 18.1630901,163.454545 18.1630901,146.793388 L18.1630901,85.5702479 Z" id="Path" fill="#3E5E82"></path>
            <path d="M138.850477,136.567416 C139.513256,147.071161 143.224814,154.649813 149.852598,159.43633 C156.480382,164.222846 165.229056,166.483146 175.966066,166.483146 C181.931071,166.483146 187.896076,165.951311 194.126193,164.754682 C200.35631,163.558052 206.188759,161.962547 211.756098,159.835206 C213.611877,163.292135 215.335101,167.546816 216.793213,172.466292 C218.251326,177.385768 218.914104,182.571161 219.179215,188.155431 C205.525981,193.340824 190.149523,196 173.049841,196 C160.457052,196 149.720042,194.271536 140.706257,190.814607 C131.692471,187.357678 124.401909,182.438202 118.702015,176.189139 C113.002121,169.940075 108.892895,162.627341 106.109226,153.985019 C103.458112,145.475655 102,136.035581 102,125.930712 C102,115.958801 103.458112,106.651685 106.241782,97.8764045 C109.025451,89.1011236 113.134677,81.5224719 118.702015,75.0074906 C124.136797,68.4925094 131.029692,63.4400749 139.115589,59.5842697 C147.201485,55.8614232 156.745493,54 167.482503,54 C176.893955,54 185.244963,55.7284644 192.668081,59.0524345 C199.958643,62.3764045 206.188759,66.8970037 211.358431,72.747191 C216.528102,78.4644195 220.372216,85.3782772 223.02333,93.3558052 C225.674443,101.333333 227,109.842697 227,119.016854 C227,122.340824 226.867444,125.664794 226.602333,128.855805 C226.337222,132.046816 226.07211,134.705993 225.674443,136.567416 L138.850477,136.567416 Z M192.005302,110.507491 C191.607635,102.131086 189.354189,95.3501873 185.112407,90.164794 C180.870626,84.9794007 174.90562,82.4531835 167.217391,82.4531835 C158.468717,82.4531835 151.840933,84.8464419 147.33404,89.7659176 C142.827147,94.6853933 140.043478,101.599251 139.248144,110.507491 L192.005302,110.507491 Z" id="Shape" fill="#3E5E82"></path>
            <path d="M342.694236,160.898876 C344.819549,164.355805 346.546366,168.477528 347.874687,173.131086 C349.33584,177.784644 350,183.235955 350,189.485019 C342.9599,192.277154 336.451128,194.138577 330.340852,194.803371 C324.230576,195.601124 317.854637,196 311.213033,196 C299.789474,196 289.9599,194.138577 281.591479,190.681648 C273.223058,187.09176 266.182957,182.172285 260.736842,175.790262 C255.290727,169.541199 251.0401,161.962547 248.250627,153.320225 C245.461153,144.677903 244,135.237828 244,125.132959 C244,115.161049 245.328321,105.853933 248.117794,97.3445693 C250.774436,88.835206 254.892231,81.2565543 260.471178,74.741573 C265.917293,68.2265918 272.824561,63.1741573 281.06015,59.4513109 C289.295739,55.7284644 298.859649,54 309.619048,54 C313.471178,54 317.057644,54.1329588 320.245614,54.2659176 C323.433584,54.3988764 326.621554,54.7977528 329.54386,55.329588 C332.466165,55.8614232 335.521303,56.5262172 338.443609,57.4569288 C341.365915,58.3876404 344.686717,59.4513109 348.406015,60.9138577 C348.406015,64.9026217 347.874687,69.423221 346.81203,74.4756554 C345.749373,79.5280899 344.155388,84.1816479 341.764411,88.835206 C336.58396,87.1067416 331.934837,85.9101124 327.949875,85.2453184 C323.964912,84.5805243 319.448622,84.3146067 314.401003,84.3146067 C303.508772,84.3146067 295.406015,87.9044944 289.827068,94.9513109 C284.380952,101.998127 281.591479,112.102996 281.591479,125.265918 C281.591479,139.492509 284.513784,149.730337 290.491228,156.245318 C296.468672,162.7603 304.438596,165.951311 314.666667,165.951311 C317.323308,165.951311 319.714286,165.951311 321.839599,165.818352 C323.964912,165.685393 326.223058,165.552434 328.215539,165.153558 C330.340852,164.754682 332.466165,164.222846 334.591479,163.558052 C337.115288,162.893258 339.77193,161.962547 342.694236,160.898876 Z" id="Path" fill="#3E5E82"></path>
            <path d="M370,1.32332879 C372.910695,0.793997271 375.953693,0.396998636 379.128997,0.264665757 C382.3043,0.132332879 385.347299,0 388.257993,0 C391.168688,0 394.211687,0.132332879 397.38699,0.264665757 C400.562293,0.396998636 403.605292,0.793997271 406.780595,1.32332879 L406.780595,73.1800819 C407.971334,71.5920873 409.558986,69.739427 411.675854,67.622101 C413.660419,65.5047749 416.174201,63.3874488 419.084895,61.4024557 C421.99559,59.4174625 425.567806,57.6971351 429.801544,56.2414734 C434.035281,54.7858117 438.798236,54.1241473 444.222712,54.1241473 C459.173098,54.1241473 470.551268,58.3587995 478.357222,66.6957708 C486.163175,75.0327422 490,88.26603 490,106.130969 L490,192.676671 C486.824697,193.206003 483.781698,193.603001 480.606395,193.735334 C477.431092,193.867667 474.388093,194 471.477398,194 C468.566703,194 465.523705,193.867667 462.348401,193.735334 C459.173098,193.603001 456.130099,193.206003 452.954796,192.676671 L452.954796,116.055935 C452.954796,106.6603 451.499449,99.3819918 448.45645,94.3533424 C445.545755,89.324693 440.385888,86.8103683 433.241455,86.8103683 C430.330761,86.8103683 427.287762,87.207367 424.112459,88.1336971 C420.937155,89.0600273 418.158765,90.6480218 415.644983,93.2946794 C413.131202,95.8090041 411.014333,99.3819918 409.426681,103.88131 C407.706725,108.380628 406.9129,114.335607 406.9129,121.613915 L406.9129,192.676671 C403.737596,193.206003 400.694598,193.603001 397.519294,193.735334 C394.343991,193.867667 391.300992,194 388.390298,194 C385.479603,194 382.436604,193.867667 379.393605,193.735334 C376.350606,193.603001 373.307607,193.206003 370.132304,192.676671 L370.132304,1.32332879 L370,1.32332879 Z" id="Path" fill="#3E5E82"></path>
            <path d="M548.850477,136.567416 C549.513256,147.071161 553.224814,154.649813 559.852598,159.43633 C566.480382,164.222846 575.229056,166.483146 585.966066,166.483146 C591.931071,166.483146 597.896076,165.951311 604.126193,164.754682 C610.35631,163.558052 616.188759,161.962547 621.756098,159.835206 C623.611877,163.292135 625.335101,167.546816 626.793213,172.466292 C628.251326,177.385768 628.914104,182.571161 629.179215,188.155431 C615.525981,193.340824 600.149523,196 583.049841,196 C570.457052,196 559.720042,194.271536 550.706257,190.814607 C541.692471,187.357678 534.401909,182.438202 528.702015,176.189139 C523.002121,169.940075 518.892895,162.627341 516.109226,153.985019 C513.458112,145.475655 512,136.035581 512,125.930712 C512,115.958801 513.458112,106.651685 516.241782,97.8764045 C519.025451,89.1011236 523.134677,81.5224719 528.702015,75.0074906 C534.136797,68.4925094 541.029692,63.4400749 549.115589,59.5842697 C557.201485,55.8614232 566.745493,54 577.482503,54 C586.893955,54 595.244963,55.7284644 602.668081,59.0524345 C609.958643,62.3764045 616.188759,66.8970037 621.358431,72.747191 C626.528102,78.4644195 630.372216,85.3782772 633.02333,93.3558052 C635.674443,101.333333 637,109.842697 637,119.016854 C637,122.340824 636.867444,125.664794 636.602333,128.855805 C636.337222,132.046816 636.07211,134.705993 635.674443,136.567416 L548.850477,136.567416 Z M602.005302,110.507491 C601.607635,102.131086 599.354189,95.3501873 595.112407,90.164794 C590.870626,84.9794007 584.90562,82.4531835 577.217391,82.4531835 C568.468717,82.4531835 561.840933,84.8464419 557.33404,89.7659176 C552.827147,94.6853933 550.043478,101.599251 549.248144,110.507491 L602.005302,110.507491 Z" id="Shape" fill="#3E5E82"></path>
            <path d="M676.544724,122.305263 L650.871357,56.5961722 C656.532663,55.5320574 662.852261,55 669.830151,55 C676.413065,55 683.127638,55.5320574 689.842211,56.5961722 L710.380905,123.103349 L683.654271,192.403828 C677.466332,193.467943 671.278392,194 665.222111,194 C659.165829,194 652.714573,193.467943 646,192.403828 L676.544724,122.305263 Z M712.224121,123.103349 L733.026131,56.5961722 C739.477387,55.5320574 746.060302,55 753.038191,55 C759.489447,55 765.809045,55.5320574 771.996985,56.5961722 L746.060302,122.305263 L777,192.403828 C770.285427,193.467943 763.834171,194 757.777889,194 C751.721608,194 745.533668,193.467943 739.345729,192.403828 L712.224121,123.103349 Z" id="Shape" fill="#3E5E82"></path>
            <path d="M799.566879,192.433121 C798.522293,186.035032 798,179.767516 798,173.630573 C798,167.493631 798.522293,161.095541 799.566879,154.566879 C805.964968,153.522293 812.232484,153 818.369427,153 C824.506369,153 830.904459,153.522293 837.433121,154.566879 C838.477707,161.095541 839,167.363057 839,173.369427 C839,179.767516 838.477707,186.035032 837.433121,192.433121 C830.904459,193.477707 824.636943,194 818.630573,194 C812.363057,194 805.964968,193.477707 799.566879,192.433121 Z" id="Path" fill="#32AC9E"></path>
        </g>
    </g>
</svg>