<?xml version="1.0" encoding="UTF-8"?>
<svg width="1280px" height="720px" viewBox="0 0 1280 720" version="1.1" xmlns="http://www.w3.org/2000/svg" xmlns:xlink="http://www.w3.org/1999/xlink">
    <title>THEO</title>
    <g id="THEO" stroke="none" stroke-width="1" fill="none" fill-rule="evenodd">
        <rect id="Rectangle-2" x="0" y="0" width="1280" height="720"></rect>
        <g id="THEO_Logo-Vertical-RGB" transform="translate(144.000000, 262.000000)" fill-rule="nonzero">
            <g id="PathID_5" fill="#FFC60F">
                <path d="M94.3815789,28.4134615 C75.0457895,47.6714744 65.3494737,70.9689343 65.2926316,98.3058413 C65.2389474,125.772188 74.8421053,149.221186 94.1021053,168.652837 C102.909474,177.265272 111.937895,183.89508 121.187368,188.54226 C127.879106,191.889765 135.001076,194.297649 142.351579,195.697716 L142.351579,197 L40.95,196.79637 C13.5963158,196.745857 -0.0536842105,183.050569 -0.000157731002,155.710505 L0.232105263,41.1095433 C0.285789474,13.6495112 13.9878947,-0.0536698718 41.3384211,-0.000157037491 L143.900526,0.213100962 L143.900526,1.36858173 C136.107024,2.84904124 128.538946,5.33550905 121.386316,8.76555288 C112.228421,13.267508 103.228421,19.8104968 94.3863158,28.3945192" id="Path"></path>
            </g>
            <g id="PathID_6" transform="translate(118.000000, 28.000000)" fill="#000000">
                <path d="M114.512454,81.2474576 C102.621351,89.7613559 87.2696159,99.2687006 68.4572491,109.769492 C50.3089963,120.020339 34.3954399,128.072316 20.7165799,133.925424 L5.56156134,139.591864 C4.61732342,135.47887 3.72344486,129.377401 2.87992565,121.287458 C0.991449814,105.183503 0.0472118959,87.4074576 0.0472118959,67.959322 C0.0472118959,50.1532203 1.32508055,33.5082486 3.88081784,18.0244068 L7.55390335,0.232542373 L23.6389963,5.66644068 C37.575948,11.2379661 52.6727385,19.1570621 68.929368,29.4237288 C86.1522677,40.2630508 100.926444,50.5755932 113.251896,60.3613559 C119.408327,65.2874576 123.843098,69.0840678 126.556208,71.7511864 L114.512454,81.2474576" id="Path"></path>
            </g>
            <g id="PathID_7" transform="translate(198.000000, 0.000000)" fill="#FFC60F">
                <path d="M144.562175,41.1995192 L144.562175,155.895192 C144.562175,183.257356 130.961364,196.936859 103.75974,196.933702 L0.941558442,196.933702 L0.941558442,195.612476 C19.8072511,191.969239 36.3143398,182.971643 50.4628247,168.619687 C69.6517857,149.203822 79.2478355,125.759559 79.250974,98.286899 C79.250974,70.9247356 69.6549242,47.5909696 50.4628247,28.285601 C36.0883658,13.8484054 19.3050866,4.86185897 0.112987013,1.32596154 L0.112987013,0 L103.75974,0 C130.961364,0 144.562175,13.7331731 144.562175,41.1995192" id="Path"></path>
            </g>
            <g id="PathID_1" transform="translate(350.000000, 7.000000)" fill="#000000">
                <polyline id="Path" points="137.938351 0.310894737 137.938351 23.5997368 83.0608247 23.5997368 83.0608247 178.948184 55.1241237 178.948184 55.1241237 23.5997368 0.251340206 23.5997368 0.251340206 0.310894737 137.938351 0.310894737"></polyline>
            </g>
            <g id="PathID_2" transform="translate(493.000000, 7.000000)" fill="#000000">
                <polyline id="Path" points="0.15030303 178.948184 0.15030303 0.310894737 27.5712121 0.310894737 27.5712121 76.8710789 127.377121 76.8710789 127.377121 0.310894737 154.793333 0.310894737 154.793333 178.948184 127.377121 178.948184 127.377121 100.159921 27.5712121 100.159921 27.5712121 178.948184 0.15030303 178.948184"></polyline>
            </g>
            <g id="PathID_3" transform="translate(676.000000, 7.000000)" fill="#000000">
                <polyline id="Path" points="118.78716 0.310894737 118.78716 23.5997368 27.6557977 23.5997368 27.6557977 76.8710789 114.578054 76.8710789 114.578054 100.159921 27.6557977 100.159921 27.6557977 155.918421 120.7693 155.918421 120.7693 178.952895 0.169494163 178.952895 0.169494163 0.301473684 118.78716 0.301473684"></polyline>
            </g>
            <g id="PathID_4" transform="translate(813.000000, 6.000000)" fill="#000000">
                <path d="M89.9108971,157.780286 C129.826165,157.780286 149.782225,135.19368 149.779077,90.0204675 C149.779077,45.5148398 129.823017,23.262026 89.9108971,23.262026 C49.170686,23.262026 28.8005805,45.5148398 28.8005805,90.0204675 C28.8005805,135.196814 49.170686,157.78342 89.9108971,157.780286 M0,90.767974 C0,30.2779307 29.9765963,0.0329090909 89.9297889,0.0329090909 C149.05489,0.0329090909 178.617441,30.2779307 178.617441,90.767974 C178.617441,150.775351 149.05489,180.779039 89.9297889,180.779039 C29.9765963,180.779039 0,150.775351 0,90.767974" id="Shape"></path>
            </g>
        </g>
    </g>
</svg>