<?xml version="1.0" encoding="UTF-8"?>
<svg width="1280px" height="720px" viewBox="0 0 1280 720" version="1.1" xmlns="http://www.w3.org/2000/svg" xmlns:xlink="http://www.w3.org/1999/xlink">
    <title>Vimeo</title>
    <g id="Vimeo" stroke="none" stroke-width="1" fill="none" fill-rule="evenodd">
        <rect id="Rectangle-2" x="0" y="0" width="1280" height="720"></rect>
        <g id="vimeo" transform="translate(235.000000, 241.000000)" fill="#1AB7EA" fill-rule="nonzero">
            <g id="Group-3" transform="translate(0.000000, 74.000000)">
                <path d="M181.872676,37.1167018 C181.121126,55.4344823 168.720559,80.377843 144.670975,112.336524 C119.869841,145.464425 99.2022298,162.223245 81.9165911,162.223245 C71.394898,162.223245 62.3763039,152.090005 55.2365835,131.823525 C50.3515117,113.116004 45.4664399,94.7982235 40.5813681,76.0907029 C35.3205215,55.8242223 29.3081255,45.690982 22.9199546,45.690982 C21.4168556,45.690982 16.9075586,48.8089021 8.64051398,54.6550023 L0.373469388,43.352542 C9.39206349,35.1680017 18.0348828,26.9834615 27.0534769,18.7989212 C39.0782691,8.27594094 48.0968632,2.42984077 54.1092593,2.04010076 C68.3886999,0.481140715 77.0315193,10.614381 80.0377173,32.0500816 C83.4196901,55.0447423 86.0501134,69.4651227 87.5532124,75.3112229 C91.6867347,94.4084835 96.1960317,104.151984 101.081104,104.151984 C104.838851,104.151984 110.475472,97.9161436 118.366742,85.4444632 C125.882237,72.9727828 130.01576,63.6190226 130.767309,56.9934424 C131.894633,46.080722 127.761111,41.0141019 118.366742,41.0141019 C113.857445,41.0141019 109.723923,42.1833219 104.838851,44.132022 C113.857445,13.7323011 130.767309,-1.07781933 155.944218,0.0914007038 C174.357181,0.0914007038 183,12.5630811 181.872676,37.1167018" id="Fill-1"></path>
            </g>
            <path d="M256.925373,20.9950577 C256.552239,27.9934102 253.19403,34.6029654 246.850746,41.2125206 C239.38806,48.5996705 230.80597,52.0988468 221.104478,52.0988468 C205.80597,52.0988468 198.343284,45.1004942 198.716418,31.1037891 C199.089552,23.7166392 203.19403,16.7182867 211.029851,10.1087315 C218.865672,3.49917628 227.820896,0 237.522388,0 C243.119403,0 247.970149,2.33278418 251.701493,6.99835255 C255.432836,11.6639209 257.298507,16.3294893 256.925373,20.9950577 Z M292,171.07084 C284.537313,185.84514 274.089552,199.453048 260.656716,211.505766 C242.746269,227.835255 224.462687,236 206.552239,236 C198.343284,236 191.626866,233.278418 187.149254,227.446458 C182.671642,222.003295 180.432836,214.616145 180.80597,205.673806 C181.179104,196.342669 183.791045,181.957166 189.014925,162.517298 C194.238806,143.07743 196.850746,132.579901 196.850746,131.413509 C196.850746,124.026359 194.238806,120.527183 189.38806,120.527183 C187.895522,120.527183 183.044776,123.637562 175.58209,129.469522 L167,117.805601 C175.58209,109.640857 184.164179,101.476112 192.746269,93.3113674 C204.313433,82.8138386 212.895522,76.9818781 218.492537,76.5930807 C227.447761,75.815486 233.791045,78.5370675 238.268657,84.7578254 C242.373134,90.9785832 243.865672,99.1433278 242.746269,109.252059 C239.38806,126.359143 235.283582,148.131796 231.552239,174.570016 C231.179104,186.622735 235.283582,192.454695 244.238806,192.454695 C247.970149,192.454695 254.686567,188.177924 264.38806,180.01318 C272.597015,173.014827 278.940299,166.405272 284.164179,160.573311 L292,171.07084 Z" id="Fill-4"></path>
            <path d="M546,170.84409 C538.521739,185.669986 528.052174,199.325416 514.591304,211.420226 C496.643478,227.806742 478.321739,236 460.373913,236 C442.8,236 434.2,225.855966 434.947826,205.567898 C435.321739,196.59433 436.817391,185.669986 440.182609,173.185021 C443.173913,160.309901 445.043478,150.556022 445.417391,143.53323 C445.791304,132.999041 442.426087,127.536868 436.069565,127.536868 C428.965217,127.536868 420.73913,136.120282 411.017391,153.677263 C400.547826,172.014555 395.313043,189.961692 394.191304,207.128519 C393.817391,219.223329 394.93913,228.587052 397.556522,235.21969 C378.86087,235.609845 365.4,232.488604 357.921739,225.465811 C351.191304,219.223329 348.2,209.079295 348.573913,194.643554 C348.947826,185.669986 350.069565,176.696417 352.686957,167.722849 C354.930435,158.74928 356.426087,150.556022 356.8,143.53323 C357.173913,132.999041 353.808696,127.927024 345.956522,127.927024 C339.226087,127.927024 331.747826,136.120282 323.895652,152.116643 C316.043478,168.113004 311.556522,184.889675 310.808696,202.446657 C310.434783,218.443018 311.182609,229.367362 313.8,235.609845 C295.104348,236 282.017391,232.098449 274.165217,223.515035 C267.808696,216.102087 264.817391,205.177743 265.191304,190.351848 C265.565217,182.9389 266.686957,172.794866 268.930435,159.919746 C271.173913,146.654471 272.295652,136.510437 272.669565,129.487644 C273.043478,124.415627 271.921739,122.074696 268.930435,122.074696 C267.434783,122.074696 262.573913,124.805782 255.095652,130.65811 L245,117.392835 C246.495652,116.222369 254.721739,108.029111 270.426087,92.8130602 C281.643478,81.888716 289.495652,76.0363887 293.608696,76.0363887 C300.713043,75.6462336 306.321739,78.3773196 310.808696,85.0099572 C315.295652,91.6425947 317.165217,99.4456977 317.165217,108.029111 C317.165217,110.760197 316.791304,113.491283 316.417391,116.222369 C320.530435,109.589732 325.017391,104.127559 330.626087,99.4456977 C342.965217,88.1311984 357.173913,81.888716 372.504348,80.3280954 C385.591304,79.1576299 395.313043,82.2788711 400.921739,90.0819741 C405.408696,96.3244565 407.652174,105.298025 407.278261,116.612524 C409.147826,115.051904 411.017391,113.101128 413.26087,111.150352 C419.617391,103.347249 425.6,97.494922 431.582609,92.8130602 C441.678261,85.0099572 452.147826,81.1084057 462.991304,79.9379402 C476.078261,78.7674748 485.426087,81.888716 491.034783,89.691819 C495.895652,95.9343014 498.13913,104.90787 497.391304,116.222369 C497.017391,124.025472 495.147826,135.730127 491.782609,150.556022 C488.417391,165.772073 486.547826,174.355486 486.547826,176.306262 C486.173913,182.158589 486.921739,186.450296 488.043478,188.401072 C489.53913,190.742003 492.530435,191.912468 497.765217,191.912468 C501.504348,191.912468 508.234783,187.620761 517.956522,179.427503 C526.182609,172.404711 532.53913,165.772073 537.773913,159.919746 L546,170.84409" id="Fill-5"></path>
            <g id="Group-9" transform="translate(508.000000, 75.000000)">
                <path d="M98.4327186,51.2285714 C98.8069875,43.8547619 95.8128364,39.9738095 89.4502652,39.9738095 C81.2163496,39.9738095 72.982434,45.7952381 64.7485183,57.4380952 C56.5146027,69.0809524 52.023376,79.947619 51.6491071,90.8142857 C51.6491071,90.8142857 51.6491071,92.7547619 51.6491071,96.247619 C64.7485183,91.202381 76.350854,83.4404762 86.0818452,73.35 C94.3157608,64.0357143 98.4327186,57.05 98.4327186,51.2285714 Z M190.877135,95.0833333 C183.017488,108.666667 167.672464,121.861905 144.467792,135.445238 C115.649088,152.521429 86.830383,161.059524 57.2631405,161.059524 C35.1812759,161.059524 19.4619824,153.297619 10.1052601,138.161905 C3.36842003,127.683333 2.73170375e-13,115.264286 0.374268892,101.292857 C0.748537784,78.3952381 10.479529,57.05 29.5672425,36.4809524 C50.5263004,13.9714286 75.6023162,2.71666667 104.421021,2.71666667 C130.994112,2.71666667 144.842061,13.9714286 146.713406,36.4809524 C147.836212,50.8404762 140.350835,65.5880952 123.883003,80.7238095 C106.666634,97.4119048 84.5847696,107.890476 58.3859472,112.159524 C63.2514428,119.145238 70.7368206,122.638095 80.4678118,122.638095 C99.9297942,122.638095 121.263121,117.592857 144.093523,107.114286 C160.561355,99.7404762 173.660766,92.3666667 183.017488,84.6047619 L190.877135,95.0833333 Z" id="Fill-6"></path>
                <path d="M255.251384,65.5880952 C255.625653,57.8261905 254.502847,50.8404762 252.257233,44.6309524 C250.01162,38.4214286 246.6432,35.3166667 242.151973,35.3166667 C228.304024,35.3166667 217.075957,43.0785714 208.093504,58.602381 C200.608126,71.4095238 196.491168,84.6047619 195.742631,98.9642857 C195.368362,105.95 196.865437,112.159524 199.485319,117.592857 C202.479471,123.802381 206.596428,126.907143 212.210462,126.907143 C224.561335,126.907143 234.666595,119.533333 243.649049,104.397619 C250.760158,91.9785714 254.502847,78.7833333 255.251384,65.5880952 Z M300.912189,67.1404762 C299.789383,92.7547619 290.806929,115.264286 273.216291,133.892857 C255.999922,152.521429 234.292326,162.22381 208.842042,162.22381 C187.508715,162.22381 171.040884,155.238095 160.187086,140.878571 C151.95317,130.4 147.461943,116.816667 146.713406,100.904762 C145.21633,76.8428571 153.824515,54.7214286 171.789421,34.5404762 C191.251404,12.0309524 215.578882,0.776190476 245.146124,0.776190476 C264.233838,0.776190476 278.456056,7.37380952 288.187047,20.5690476 C297.543769,32.6 301.660727,48.1238095 300.912189,67.1404762 Z" id="Fill-8"></path>
            </g>
        </g>
    </g>
</svg>