<?xml version="1.0" encoding="UTF-8"?>
<svg width="1280px" height="720px" viewBox="0 0 1280 720" version="1.1" xmlns="http://www.w3.org/2000/svg" xmlns:xlink="http://www.w3.org/1999/xlink">
    <title>Wowza</title>
    <g id="Wowza" stroke="none" stroke-width="1" fill="none" fill-rule="evenodd">
        <rect id="Rectangle-2" x="0" y="0" width="1280" height="720"></rect>
        <g id="wowza" transform="translate(247.000000, 246.000000)" fill-rule="nonzero">
            <g id="Group" transform="translate(251.000000, 127.000000)" fill="#878787">
                <path d="M0.823266219,86.3127094 L0.823266219,26.488867 L8.30598434,26.488867 L8.30598434,31.862266 C12.5818233,27.2053202 17.570302,25.0559606 22.2024609,25.0559606 C26.4782998,25.0559606 31.1104586,27.9217734 32.5357383,31.862266 C36.8115772,27.2053202 42.1563758,25.0559606 45.7195749,25.0559606 C51.7770134,25.0559606 57.8344519,29.7129064 57.8344519,36.1609852 L57.8344519,85.9544828 L50.3517338,85.9544828 L50.3517338,37.9521182 C50.3517338,32.5787192 47.1448546,30.7875862 43.9379754,30.7875862 C40.7310962,30.7875862 37.1678971,32.5787192 33.9610179,35.8027586 L33.9610179,86.3127094 L26.4782998,86.3127094 L26.4782998,37.5938916 C26.4782998,32.2204926 23.2714206,30.4293596 19.7082215,30.4293596 C16.1450224,30.4293596 11.8691834,32.5787192 8.66230425,36.5192118 L8.66230425,85.9544828 L0.823266219,85.9544828 L0.823266219,86.3127094 Z" id="Path"></path>
                <path d="M68.8803691,58.7292611 L68.8803691,50.4900493 C68.8803691,29.3546798 76.0067673,25.4141872 85.6274049,25.4141872 C96.6733221,25.4141872 100.949161,32.9369458 100.949161,49.0571429 C100.949161,51.5647291 100.949161,52.6394089 100.949161,55.1469951 L76.7194072,55.1469951 L76.7194072,64.1026601 C76.7194072,80.2228571 80.2826063,82.7304433 85.6274049,82.7304433 C89.5469239,82.7304433 93.466443,79.8646305 93.8227629,68.4013793 L93.8227629,68.0431527 L100.949161,68.0431527 L100.949161,68.4013793 C99.8802013,78.7899507 97.385962,87.7456158 85.9837248,87.7456158 C73.512528,87.3873892 68.8803691,81.2975369 68.8803691,58.7292611 Z M76.7194072,51.2065025 L93.466443,51.2065025 L93.466443,51.2065025 C93.466443,42.2508374 94.5354027,30.4293596 85.9837248,30.4293596 C76.7194072,30.071133 76.7194072,37.235665 76.7194072,51.2065025 L76.7194072,51.2065025 Z" id="Shape"></path>
                <path d="M134.086913,86.3127094 L134.086913,80.5810837 C130.523714,85.9544828 125.535235,87.3873892 121.972036,87.3873892 C116.270917,87.3873892 109.144519,84.5215764 109.144519,58.7292611 L109.144519,54.0723153 C109.144519,27.2053202 116.270917,25.0559606 122.328356,25.0559606 C126.604195,25.0559606 130.880034,27.2053202 134.086913,31.862266 L134.086913,0.338325123 L141.569631,0.338325123 L141.569631,85.9544828 L134.086913,85.9544828 L134.086913,86.3127094 Z M134.086913,75.9241379 L134.086913,36.5192118 C130.880034,32.9369458 127.673154,30.4293596 123.753635,30.4293596 C120.190436,30.4293596 116.627237,31.5040394 116.627237,54.0723153 L116.627237,58.7292611 C116.627237,80.9393103 120.190436,81.6557635 124.109955,81.6557635 C127.316834,82.0139901 131.236353,79.5064039 134.086913,75.9241379 Z" id="Shape"></path>
                <path d="M157.960347,12.8762562 L157.960347,3.92059113 L165.443065,3.92059113 L165.443065,12.8762562 L157.960347,12.8762562 Z M157.960347,86.3127094 L157.960347,26.488867 L165.443065,26.488867 L165.443065,86.3127094 L157.960347,86.3127094 L157.960347,86.3127094 Z" id="Shape"></path>
                <path d="M201.787696,86.3127094 L200.718736,79.1481773 C197.155537,85.2380296 191.810738,87.7456158 187.891219,87.7456158 C182.190101,87.7456158 176.132662,82.7304433 176.132662,74.4912315 C176.132662,66.6102463 176.488982,59.4457143 200.006096,49.7735961 L200.006096,49.4153695 C200.006096,31.862266 196.442897,30.4293596 192.523378,30.4293596 C189.672819,30.4293596 185.39698,31.5040394 184.68434,41.8926108 L184.68434,42.2508374 L177.201622,42.2508374 C177.914262,31.862266 183.61538,25.4141872 192.523378,25.4141872 C205.350895,25.4141872 207.845134,35.8027586 207.845134,44.0419704 L207.845134,72.7000985 C207.845134,79.8646305 208.914094,86.3127094 208.914094,86.3127094 L201.787696,86.3127094 Z M200.006096,74.1330049 L200.006096,52.9976355 C189.672819,60.1621675 183.61538,64.8191133 183.61538,73.0583251 C183.61538,79.1481773 186.82226,81.6557635 189.672819,81.6557635 C193.592338,81.2975369 197.868177,78.4317241 200.006096,74.1330049 Z" id="Shape"></path>
                <path d="M237.063367,71.2671921 L242.764485,69.4760591 C244.546085,74.4912315 248.465604,82.3722167 254.523043,82.3722167 C259.867841,82.3722167 262.362081,78.7899507 262.362081,73.4165517 C262.362081,68.7596059 257.017282,63.0279803 252.028803,58.7292611 L247.752964,54.7887685 C242.408166,50.1318227 237.776007,45.4748768 237.776007,39.3850246 C237.776007,30.071133 243.833445,25.0559606 253.097763,25.0559606 C262.005761,25.0559606 266.637919,32.5787192 268.775839,40.1014778 L262.005761,42.2508374 C261.293121,37.235665 258.442562,30.4293596 252.741443,30.4293596 C248.109284,30.4293596 245.258725,34.0116256 245.258725,38.6685714 C245.258725,42.9672906 248.465604,46.5495567 252.741443,50.1318227 L257.373602,54.0723153 C263.07472,59.0874877 269.488479,64.4608867 269.488479,73.0583251 C269.488479,82.0139901 263.07472,87.3873892 254.166723,87.3873892 C245.258725,87.3873892 239.201286,79.8646305 237.063367,71.2671921 Z" id="Path"></path>
                <path d="M277.327517,101 L277.327517,94.9101478 C285.522875,94.1936946 289.086074,92.044335 289.086074,88.462069 C289.086074,86.670936 289.086074,83.8051232 288.373434,81.2975369 L275.189597,26.488867 L283.384955,26.488867 L293.361913,77.7152709 L303.33887,26.488867 L311.534228,26.488867 L296.212472,90.253202 C294.074553,98.4924138 288.017114,100.641773 277.327517,101 L277.327517,101 Z" id="Path"></path>
                <path d="M315.453747,71.2671921 L321.154866,69.4760591 C322.936465,74.4912315 326.855984,82.3722167 332.913423,82.3722167 C338.258221,82.3722167 340.752461,78.7899507 340.752461,73.4165517 C340.752461,68.7596059 335.407662,63.0279803 330.419183,58.7292611 L326.143345,54.7887685 C320.798546,50.1318227 316.166387,45.4748768 316.166387,39.3850246 C316.166387,30.071133 322.223826,25.0559606 331.488143,25.0559606 C340.396141,25.0559606 345.0283,32.5787192 347.166219,40.1014778 L340.396141,42.2508374 C339.683501,37.235665 336.832942,30.4293596 331.131823,30.4293596 C326.499664,30.4293596 323.649105,34.0116256 323.649105,38.6685714 C323.649105,42.9672906 326.855984,46.5495567 331.131823,50.1318227 L335.763982,54.0723153 C341.465101,59.0874877 347.878859,64.4608867 347.878859,73.0583251 C347.878859,82.0139901 341.465101,87.3873892 332.557103,87.3873892 C323.292785,87.3873892 317.591667,79.8646305 315.453747,71.2671921 Z" id="Path"></path>
                <path d="M361.419016,71.9836453 L361.419016,30.7875862 L353.223658,30.7875862 L353.223658,26.488867 L361.419016,26.488867 L361.419016,5.35349754 L368.901734,5.35349754 L368.901734,26.488867 L378.522371,26.488867 L378.522371,30.7875862 L368.901734,30.7875862 L368.901734,71.9836453 C368.901734,78.0734975 369.258054,81.6557635 373.890213,81.6557635 C375.315492,81.6557635 376.740772,81.6557635 378.522371,81.2975369 L378.522371,86.3127094 C376.028132,87.0291626 373.890213,87.0291626 372.108613,87.0291626 C362.131655,87.0291626 361.419016,79.5064039 361.419016,71.9836453 Z" id="Path"></path>
                <path d="M385.64877,58.7292611 L385.64877,50.4900493 C385.64877,29.3546798 392.418848,25.4141872 402.039485,25.4141872 C412.729083,25.4141872 417.004922,32.9369458 417.004922,49.0571429 C417.004922,51.5647291 417.004922,52.6394089 417.004922,55.1469951 L393.131488,55.1469951 L393.131488,64.1026601 C393.131488,80.2228571 396.338367,82.7304433 402.039485,82.7304433 C405.959004,82.7304433 409.878523,79.8646305 409.878523,68.4013793 L409.878523,68.0431527 L416.648602,68.0431527 L416.648602,68.4013793 C415.935962,78.7899507 413.085403,87.7456158 402.039485,87.7456158 C389.924609,87.3873892 385.29245,81.2975369 385.64877,58.7292611 Z M393.131488,51.2065025 L409.522204,51.2065025 L409.522204,51.2065025 C409.522204,42.2508374 410.591163,30.4293596 402.395805,30.4293596 C393.131488,30.071133 393.131488,37.235665 393.131488,51.2065025 L393.131488,51.2065025 Z" id="Shape"></path>
                <path d="M429.832438,86.3127094 L429.832438,26.488867 L437.315157,26.488867 L437.315157,31.862266 C441.234676,27.2053202 446.223154,25.0559606 450.855313,25.0559606 C454.774832,25.0559606 459.406991,27.9217734 461.188591,31.862266 C465.46443,27.2053202 470.809228,25.0559606 474.372427,25.0559606 C480.429866,25.0559606 486.130984,29.7129064 486.130984,36.1609852 L486.130984,85.9544828 L478.648266,85.9544828 L478.648266,37.9521182 C478.648266,32.5787192 475.797707,30.7875862 472.234508,30.7875862 C469.383949,30.7875862 465.46443,32.5787192 462.61387,35.8027586 L462.61387,86.3127094 L455.131152,86.3127094 L455.131152,37.5938916 C455.131152,32.2204926 452.280593,30.4293596 448.361074,30.4293596 C445.154195,30.4293596 440.522036,32.5787192 437.315157,36.5192118 L437.315157,85.9544828 L429.832438,85.9544828 L429.832438,86.3127094 Z" id="Path"></path>
                <path d="M496.107942,71.2671921 L501.80906,69.4760591 C503.59066,74.4912315 507.510179,82.3722167 513.567617,82.3722167 C518.912416,82.3722167 521.406655,78.7899507 521.406655,73.4165517 C521.406655,68.7596059 516.061857,63.0279803 511.073378,58.7292611 L506.797539,54.7887685 C501.45274,50.1318227 496.820582,45.4748768 496.820582,39.3850246 C496.820582,30.071133 502.87802,25.0559606 512.142338,25.0559606 C521.050336,25.0559606 525.682494,32.5787192 527.820414,40.1014778 L521.050336,42.2508374 C520.337696,37.235665 517.487136,30.4293596 511.786018,30.4293596 C507.153859,30.4293596 504.3033,34.0116256 504.3033,38.6685714 C504.3033,42.9672906 507.510179,46.5495567 511.786018,50.1318227 L516.774497,54.0723153 C522.475615,59.0874877 528.889374,64.4608867 528.889374,73.0583251 C528.889374,82.0139901 522.475615,87.3873892 513.567617,87.3873892 C504.3033,87.3873892 498.602181,79.8646305 496.107942,71.2671921 Z" id="Path"></path>
            </g>
            <g id="Group" transform="translate(248.000000, 4.000000)" fill="#FF893D">
                <path d="M83.7417624,66.792233 C85.1671541,72.0932039 85.1671541,76.6873786 85.5235021,76.6873786 L85.5235021,76.6873786 C85.5235021,76.6873786 85.87985,72.0932039 86.9488938,66.792233 L102.271855,1.76699029 L119.732903,1.76699029 L95.8575919,95.7708738 L76.258456,95.7708738 L62.004539,40.2873786 C60.5791473,34.2796117 59.5101035,27.9184466 59.5101035,27.9184466 L59.1537556,27.9184466 C59.1537556,27.9184466 58.4410597,34.2796117 56.6593201,40.2873786 L42.4054031,95.7708738 L22.8062672,95.7708738 L0.356347925,1.76699029 L17.8173963,1.76699029 L32.0713133,66.792233 C33.1403571,72.0932039 33.496705,76.6873786 33.496705,76.6873786 L33.8530529,76.6873786 C33.8530529,76.6873786 34.2094008,72.0932039 35.6347925,66.792233 L52.383145,1.76699029 L66.99341,1.76699029 L83.7417624,66.792233 Z" id="Path"></path>
                <path d="M178.886658,0 C206.325449,0 226.993628,21.2038835 226.993628,48.0621359 C226.993628,75.6271845 206.325449,97.184466 178.886658,97.184466 C151.447868,97.184466 130.779689,75.6271845 130.779689,48.0621359 C130.779689,21.2038835 151.447868,0 178.886658,0 Z M178.886658,81.6349515 C195.991359,81.6349515 209.53258,67.4990291 209.53258,48.0621359 C209.53258,29.6854369 195.991359,15.9029126 178.886658,15.9029126 C161.781958,15.9029126 148.240737,29.6854369 148.240737,48.0621359 C148.240737,67.4990291 161.781958,81.6349515 178.886658,81.6349515 Z" id="Shape"></path>
                <path d="M321.069481,66.792233 C322.494872,72.0932039 322.494872,76.6873786 322.85122,76.6873786 L323.207568,76.6873786 C323.207568,76.6873786 323.563916,72.0932039 324.63296,66.792233 L339.955921,1.76699029 L357.416969,1.76699029 L333.541658,95.7708738 L313.942522,95.7708738 L299.688605,40.2873786 C298.263213,34.2796117 297.19417,27.9184466 297.19417,27.9184466 L296.837822,27.9184466 C296.837822,27.9184466 296.125126,34.2796117 294.343386,40.2873786 L280.089469,95.7708738 L260.490333,95.7708738 L237.327718,1.76699029 L254.788767,1.76699029 L269.399032,66.792233 C270.468075,72.0932039 270.824423,76.6873786 270.824423,76.6873786 L271.180771,76.6873786 C271.180771,76.6873786 271.537119,72.0932039 272.962511,66.792233 L289.710863,1.76699029 L304.321128,1.76699029 L321.069481,66.792233 Z" id="Path"></path>
                <path d="M368.107407,84.815534 L409.443766,24.7378641 C413.007245,19.4368932 416.214377,16.2563107 416.214377,16.2563107 L416.214377,16.2563107 C416.214377,16.2563107 413.719941,16.6097087 409.443766,16.6097087 L370.601842,16.6097087 L370.601842,1.76699029 L437.595252,1.76699029 L437.595252,12.7223301 L396.258893,72.8 C392.695414,78.1009709 389.488282,81.2815534 389.488282,81.2815534 L389.488282,81.2815534 C389.488282,81.2815534 391.982718,80.9281553 396.258893,80.9281553 L437.9516,80.9281553 L437.9516,95.7708738 L368.107407,95.7708738 L368.107407,84.815534 Z" id="Path"></path>
                <path d="M504.232314,71.7398058 L471.804653,71.7398058 L463.964999,95.7708738 L446.50395,95.7708738 L479.28796,1.76699029 L497.105356,1.76699029 L529.889365,95.7708738 L512.428317,95.7708738 L504.232314,71.7398058 Z M487.84031,18.023301 C487.84031,18.023301 485.702222,27.2116505 483.920483,32.5126214 L475.72448,57.6038835 L499.956139,57.6038835 L491.760137,32.5126214 C489.978397,27.2116505 487.84031,18.023301 487.84031,18.023301 L487.84031,18.023301 Z" id="Shape"></path>
            </g>
            <g id="Group" transform="translate(759.000000, 5.000000)" fill="#FF893D">
                <polygon id="Path" points="4.78928571 2.8 0.192857143 2.8 0.192857143 0.52 11.8607143 0.52 11.8607143 2.8 7.26428571 2.8 7.26428571 15.34 4.78928571 15.34"></polygon>
                <path d="M12.9214286,0.52 L15.75,0.52 L18.5785714,7.74 C18.9321429,8.5 19.2857143,10.02 19.2857143,10.02 L19.2857143,10.02 C19.2857143,10.02 19.6392857,8.88 19.9928571,7.74 L22.8214286,0.52 L25.65,0.52 L26.7107143,15.34 L24.2357143,15.34 L23.5285714,6.98 C23.5285714,5.84 23.5285714,4.7 23.5285714,4.7 L23.5285714,4.7 C23.5285714,4.7 23.175,6.22 22.8214286,6.98 L20.7,12.68 L18.5785714,12.68 L15.75,6.98 C15.3964286,6.22 15.0428571,4.7 15.0428571,4.7 L15.0428571,4.7 C15.0428571,4.7 15.0428571,6.22 15.0428571,6.98 L14.3357143,15.34 L11.8607143,15.34 L12.9214286,0.52 Z" id="Path"></path>
            </g>
            <path d="M80.2963171,183.65318 C75.2813131,185.429057 69.5498799,190.046336 64.1766613,185.784232 C58.8034428,181.522128 63.4602322,172.28757 63.4602322,172.28757 C63.4602322,172.28757 102.863835,81.007516 105.013123,70.707432 C106.804195,62.1832246 102.147406,62.8935752 96.7741874,67.5108543 C93.5502562,70.3522567 51.9973659,106.224963 45.9077182,109.066365 C41.6091433,111.197417 36.5941393,113.328469 33.0119936,109.776716 C29.4298479,106.224963 33.3702082,97.7007555 33.3702082,97.7007555 L76.7141714,5 C73.8484548,5.71035062 71.3409528,6.77587654 68.4752362,7.84140247 C12.593763,30.5726222 -14.6305444,94.1490024 7.9369736,149.911526 C30.8627062,205.674049 94.6248999,232.667373 151.222802,209.936153 C193.850336,192.887738 219.641785,152.042578 220,109.066365 C171.282818,135.349338 83.1620336,182.587654 80.2963171,183.65318" id="Path" fill="#FF893D"></path>
            <path d="M103.148672,0.306954735 C93.5064527,20.6356109 80.6501607,48.8104151 81.00728,52.0202029 C81.7215184,57.3698493 87.7925452,52.7334891 87.7925452,52.7334891 C87.7925452,52.7334891 126.71854,19.5656816 134.218044,15.2859645 C141.717548,11.0062475 143.860263,17.06918 142.788905,20.992254 C142.074667,23.8453987 118.861917,82.6915087 119.933275,89.4677274 C121.004633,96.9572323 129.218375,90.5376567 132.075329,88.3977982 C134.218044,86.6145827 191,34.9013345 191,34.9013345 C168.14437,10.6496044 136.00364,-2.1895469 103.148672,0.306954735" id="Path" fill="#FF893D"></path>
        </g>
    </g>
</svg>